<?xml version="1.0" encoding="utf-8"?>
<!-- Generator: Adobe Illustrator 26.5.0, SVG Export Plug-In . SVG Version: 6.00 Build 0)  -->
<svg version="1.1" id="Calque_1" xmlns="http://www.w3.org/2000/svg" xmlns:xlink="http://www.w3.org/1999/xlink" x="0px" y="0px"
	 viewBox="0 0 141.7 141.7" style="enable-background:new 0 0 141.7 141.7;" xml:space="preserve">
<style type="text/css">
	.st0{fill:#221F20;}
</style>
<path class="st0" d="M91.4,51.8l-8-1l-0.7,3.7c-2.4-2.5-6.1-4.7-11.6-4.7c-10.4,0-21.9,9.6-21.9,23.3c0,9.8,7.4,17.2,17.1,17.2
	c6.5,0,11-3.1,14.1-6.3c2.4,4,6.7,6.3,12.2,6.3c8.5,0,17.6-7.1,17.6-22.8c0-9.3-4.2-18.4-11.4-25.2c-7.4-6.9-17.3-10.7-27.9-10.7
	c-21.8,0-39.4,17.7-39.4,39.4c0,22,17.6,39.3,40.1,39.3c8.7,0,16.2-2.1,23.7-6.7l1.7-1l-3.3-5.5l-1.7,1c-6.7,3.9-12.6,5.5-20.4,5.5
	c-19,0-33.3-14-33.3-32.6c0-18.4,14.3-32.7,32.6-32.7c8.7,0,17,3.3,23.2,9.2c5.8,5.5,9.2,12.8,9.2,20c0,7.8-3.2,15.7-10.3,15.7
	c-3.8,0-5.7-1.8-5.7-5.5c0-0.4,0.1-1.8,0.7-5.8L91.4,51.8z M67,82.3c-5.8,0-9.4-3.7-9.4-9.6c0-8.8,7.1-14.9,13.5-14.9
	c5.4,0,9.3,4.2,9.3,9.9C80.4,75.3,73.9,82.3,67,82.3z"/>
</svg>
