<?xml version="1.0" encoding="utf-8"?>
<!-- Generator: Adobe Illustrator 26.5.0, SVG Export Plug-In . SVG Version: 6.00 Build 0)  -->
<svg version="1.1" id="Calque_1" xmlns="http://www.w3.org/2000/svg" xmlns:xlink="http://www.w3.org/1999/xlink" x="0px" y="0px"
	 viewBox="0 0 220 60" style="enable-background:new 0 0 220 60;" xml:space="preserve">
<style type="text/css">
	.st0{fill:#FFDA0A;}
</style>
<path class="st0" d="M200,50.8H20c-5.5,0-10-4.5-10-10V19.2c0-5.5,4.5-10,10-10h180c5.5,0,10,4.5,10,10v21.6
	C210,46.3,205.5,50.8,200,50.8z"/>
<g>
	<path d="M25.8,33.5h3.9v2.8h-7.2V23.7h3.3V33.5z"/>
	<path d="M39.8,23.8c0.8,0.3,1.6,0.8,2.2,1.4c0.7,0.6,1.2,1.3,1.5,2.1c0.4,0.8,0.6,1.7,0.6,2.6c0,1-0.2,1.9-0.5,2.8
		c-0.3,0.9-0.8,1.6-1.5,2.2c-0.6,0.6-1.4,1.1-2.2,1.4c-0.9,0.3-1.8,0.5-2.8,0.5s-1.9-0.2-2.8-0.5c-0.9-0.3-1.6-0.8-2.2-1.4
		c-0.6-0.6-1.1-1.4-1.5-2.2c-0.3-0.9-0.5-1.8-0.5-2.8c0-0.9,0.2-1.8,0.6-2.6c0.4-0.8,0.9-1.5,1.5-2.1c0.7-0.6,1.4-1,2.2-1.4
		c0.8-0.3,1.7-0.5,2.6-0.5C38.1,23.3,38.9,23.4,39.8,23.8z M35.8,26.7c-0.4,0.2-0.8,0.4-1.1,0.7c-0.3,0.3-0.6,0.7-0.8,1.1
		c-0.2,0.4-0.3,0.8-0.3,1.2c0,0.5,0.1,1,0.3,1.5c0.2,0.5,0.4,0.9,0.8,1.2c0.3,0.3,0.7,0.6,1.1,0.8c0.4,0.2,0.9,0.3,1.4,0.3
		c0.5,0,0.9-0.1,1.4-0.3c0.4-0.2,0.8-0.4,1.1-0.8c0.3-0.3,0.6-0.7,0.8-1.2c0.2-0.5,0.3-1,0.3-1.5c0-0.4-0.1-0.8-0.3-1.2
		c-0.2-0.4-0.4-0.8-0.8-1.1c-0.3-0.3-0.7-0.6-1.1-0.7c-0.4-0.2-0.9-0.3-1.4-0.3C36.7,26.5,36.2,26.6,35.8,26.7z"/>
	<path d="M54.6,27.9c-0.3-0.4-0.7-0.8-1.3-1c-0.5-0.2-1.1-0.4-1.6-0.4c-0.5,0-0.9,0.1-1.4,0.3c-0.4,0.2-0.8,0.4-1.1,0.7
		c-0.3,0.3-0.5,0.7-0.7,1.1c-0.2,0.4-0.2,0.9-0.2,1.4c0,1,0.3,1.8,0.9,2.5c0.6,0.6,1.4,1,2.5,1c0.5,0,1.1-0.1,1.6-0.4s0.9-0.6,1.3-1
		V36l-0.1,0c-0.7,0.2-1.2,0.3-1.6,0.4c-0.4,0.1-0.8,0.1-1.2,0.1c-0.9,0-1.7-0.2-2.5-0.5c-0.8-0.3-1.5-0.8-2.2-1.4
		c-0.7-0.6-1.2-1.3-1.5-2.1C45.2,31.9,45,31,45,30c0-0.9,0.2-1.7,0.5-2.5c0.3-0.8,0.8-1.5,1.4-2.1c0.6-0.6,1.4-1.1,2.2-1.5
		c0.8-0.4,1.7-0.5,2.6-0.5c1,0,2,0.2,3,0.6V27.9z"/>
	<path d="M59.9,34.1L59,36.3h-3.5l4.8-12.6h3.6l4.7,12.6h-3.5l-0.8-2.2H59.9z M62.1,27.6L62.1,27.6l-1.4,4h2.7L62.1,27.6z"/>
	<path d="M73.7,36.3h-3.3v-9.8h-2.7v-2.8h8.7v2.8h-2.7V36.3z"/>
	<path d="M80.9,36.3h-3.3V23.7h3.3V36.3z"/>
	<path d="M91.9,23.8c0.8,0.3,1.6,0.8,2.2,1.4c0.7,0.6,1.2,1.3,1.5,2.1s0.6,1.7,0.6,2.6c0,1-0.2,1.9-0.5,2.8
		c-0.3,0.9-0.8,1.6-1.5,2.2c-0.6,0.6-1.4,1.1-2.2,1.4c-0.9,0.3-1.8,0.5-2.8,0.5s-1.9-0.2-2.8-0.5c-0.9-0.3-1.6-0.8-2.2-1.4
		c-0.6-0.6-1.1-1.4-1.5-2.2c-0.3-0.9-0.5-1.8-0.5-2.8c0-0.9,0.2-1.8,0.6-2.6s0.9-1.5,1.5-2.1c0.7-0.6,1.4-1,2.2-1.4
		c0.8-0.3,1.7-0.5,2.6-0.5S91.1,23.4,91.9,23.8z M88,26.7c-0.4,0.2-0.8,0.4-1.1,0.7c-0.3,0.3-0.6,0.7-0.8,1.1
		c-0.2,0.4-0.3,0.8-0.3,1.2c0,0.5,0.1,1,0.3,1.5c0.2,0.5,0.4,0.9,0.8,1.2c0.3,0.3,0.7,0.6,1.1,0.8c0.4,0.2,0.9,0.3,1.4,0.3
		s0.9-0.1,1.4-0.3c0.4-0.2,0.8-0.4,1.1-0.8c0.3-0.3,0.6-0.7,0.8-1.2c0.2-0.5,0.3-1,0.3-1.5c0-0.4-0.1-0.8-0.3-1.2
		c-0.2-0.4-0.4-0.8-0.8-1.1c-0.3-0.3-0.7-0.6-1.1-0.7c-0.4-0.2-0.9-0.3-1.4-0.3S88.4,26.6,88,26.7z"/>
	<path d="M97.8,23.7h3.3l6,7.7h0v-7.7h3.3v12.6h-3.3l-6-7.7h0v7.7h-3.3V23.7z"/>
	<path d="M121.5,26.5v2.1h3.7v2.8h-3.7v2.2h3.9v2.8h-7.2V23.7h7.2v2.8H121.5z"/>
	<path d="M127.4,23.7h3.3l6,7.7h0v-7.7h3.3v12.6h-3.3l-6-7.7h0v7.7h-3.3V23.7z"/>
	<path d="M151.1,33.5h3.9v2.8h-7.2V23.7h3.3V33.5z"/>
	<path d="M159.4,36.3h-3.3V23.7h3.3V36.3z"/>
	<path d="M174.1,29.3c0,1.1-0.1,2-0.3,2.8c-0.2,0.8-0.5,1.5-1,2.2c-0.6,0.8-1.3,1.5-2.2,1.9c-0.9,0.4-1.9,0.6-3,0.6
		c-1,0-1.9-0.2-2.7-0.5c-0.8-0.3-1.5-0.8-2.1-1.4c-0.6-0.6-1.1-1.3-1.4-2.1c-0.3-0.8-0.5-1.7-0.5-2.7c0-1,0.2-1.9,0.5-2.8
		c0.3-0.8,0.8-1.6,1.4-2.2c0.6-0.6,1.3-1.1,2.2-1.4c0.8-0.3,1.8-0.5,2.8-0.5c1.3,0,2.5,0.3,3.4,0.9c1,0.6,1.7,1.5,2.3,2.6l-3.1,1.3
		c-0.2-0.6-0.6-1.1-1.1-1.5c-0.5-0.4-1-0.5-1.7-0.5c-0.5,0-1,0.1-1.4,0.3c-0.4,0.2-0.8,0.5-1,0.9c-0.3,0.4-0.5,0.8-0.6,1.3
		c-0.1,0.5-0.2,1-0.2,1.4c0,0.5,0.1,1,0.2,1.4c0.1,0.5,0.4,0.9,0.6,1.3c0.3,0.4,0.6,0.7,1.1,0.9c0.4,0.2,0.9,0.3,1.4,0.3
		c0.7,0,1.3-0.2,1.8-0.6c0.5-0.4,0.8-0.9,0.8-1.6h-2.7v-2.6H174.1z"/>
	<path d="M175.6,23.7h3.3l6,7.7h0v-7.7h3.3v12.6h-3.3l-6-7.7h0v7.7h-3.3V23.7z"/>
	<path d="M193.5,26.5v2.1h3.7v2.8h-3.7v2.2h3.9v2.8h-7.2V23.7h7.2v2.8H193.5z"/>
</g>
</svg>
