<?xml version="1.0" encoding="utf-8"?>
<!-- Generator: Adobe Illustrator 26.5.0, SVG Export Plug-In . SVG Version: 6.00 Build 0)  -->
<svg version="1.1" id="Calque_1" xmlns="http://www.w3.org/2000/svg" xmlns:xlink="http://www.w3.org/1999/xlink" x="0px" y="0px"
	 viewBox="0 0 141.7 141.7" style="enable-background:new 0 0 141.7 141.7;" xml:space="preserve">
<style type="text/css">
	.st0{fill:#221F1F;}
</style>
<g>
	<path class="st0" d="M70.7,29.4c-13.9,0-25.1,11.1-25.2,24.8C45.3,71,70.7,97.9,70.7,97.9s25.2-25.8,25.2-43.7
		C96,40.5,84.7,29.4,70.7,29.4z M70.8,63c-4.9,0-8.8-3.9-8.8-8.6c0-4.8,3.9-8.6,8.8-8.6s8.8,3.9,8.8,8.6S75.6,63,70.8,63z"/>
	<path class="st0" d="M70.7,112.7c-16.9,0-34.9-5-34.9-14.3c0-6.1,8-11,21.3-13.3c1.1-0.2,2.2,0.6,2.4,1.7c0.2,1.1-0.6,2.2-1.7,2.4
		C46.1,91.1,40,95.3,40,98.4c0,4.8,13.2,10.2,30.8,10.2s30.8-5.4,30.8-10.2c0-3.2-6.3-7.4-18.3-9.3c-1.1-0.2-1.9-1.2-1.7-2.4
		c0.2-1.1,1.2-1.9,2.4-1.7c13.4,2.1,21.8,7.2,21.8,13.3C105.6,107.7,87.6,112.7,70.7,112.7z"/>
</g>
</svg>
