<?xml version="1.0" encoding="utf-8"?>
<!-- Generator: Adobe Illustrator 26.3.1, SVG Export Plug-In . SVG Version: 6.00 Build 0)  -->
<svg version="1.1" id="Calque_1" xmlns="http://www.w3.org/2000/svg" xmlns:xlink="http://www.w3.org/1999/xlink" x="0px" y="0px"
	 viewBox="0 0 1366 500" style="enable-background:new 0 0 1366 500;" xml:space="preserve">
<style type="text/css">
	.st0{fill:#FFFFFF;}
</style>
<g>
	<path class="st0" d="M487.4,309.2c7-0.8,16.6,1.7,21.4-3.1c6.2-6.2,3.4-27.9,7.6-37.5c5.6-12.8,18.9-18.7,35.2-25.2
		c-3.7,9.5-7.8,19.9-11.5,30.6c-3.5,9.9-9.2,22.2-3.8,33.7c3.6,2.8,11,1.2,15.3-2.3c10.2-8.2,17.9-31.3,23.7-42.1
		c-7.5,4-12.9,14.1-19.1,16.8c4.8-17.7,16.2-32.7,13.8-55.1c-21.1-3.5-35.2,10.7-48.2,15.3c10.9-34,29.7-75.9,55.9-100.2
		c9.2-8.6,21.7-16.8,32.9-19.1c15.6-3.3,16.8,5.7,22.2,16.1c0.4-6.2,1.5-14.5,0.7-21.2c-0.3-5.5-1.5-9-3.8-10.6
		c-3.4-2.4-9.5-2.7-16.7-1.1c0,0,0,0,0,0c0,0,0,0,0,0c-0.2,0-0.3,0-0.5,0.1l0,0.1C531.1,133.1,515.6,227.4,487.4,309.2z"/>
	<path class="st0" d="M758.2,254.1c-3.2,8.6-9.9,18.3-15.3,26.8c-4.3,6.7-9,12.8-13,18.4c-1.2,1.7-5,4.8-2.3,5.4
		c15.1-0.3,30.2-1,39.8-6.9c3.4-2.1,5.5-6.3,8.4-7.6c2.8,8.4,5.9,16.1,14.5,16.1c15.8-0.1,21.9-24.7,29.1-34.4
		c-0.2-3.4-2.7,1.1-2.3,0.8c-7.5,6.4-15,15.4-26,16.8c-7.2-8.6-10.4-21.2-15.3-32.1c10.1-5.3,26.9-5.4,37.5-6.9
		c2.6-8.6-2.9-14.3-7.6-14.5c-3.9-0.2-9.7,4.7-15.3,6.9c-6.5,2.6-12.2,4.3-16.8,5.4c6.2-14.5,13.3-33.4,24.5-49
		c10.6-14.8,24.8-29.6,40.6-32.9c15.3-3.2,12.9,9.1,19.9,16.8c-0.2-20.2,2.7-38.3-19.1-35.2c-11.8,1.7-20.7,9.8-29.1,17.6
		c-21.3,20-35.2,43.3-46.7,71.9c-1.8,4.4-4.6,8.9-5.4,12.2C757.8,251.1,758.8,252.4,758.2,254.1z M765.9,264.8
		c3.9,6.3,5.6,14.8,9.2,21.4c-5.8,3.4-15.1,3.3-23.7,3.8C756.4,281.8,760.9,273.1,765.9,264.8z"/>
	<path class="st0" d="M437.6,287.7c-5.2,15.1,5.9,22.3,19.1,21.4c16-1,22.7-14.8,27.5-26.8c3.2-8,5.9-16.6,6.9-22.2
		c-11.2,12.5-17.3,30.1-36.7,34.4c4.7-19.1,13.7-35.8,21.4-53.6c2.4-5.6,5-14.4,8.4-16.8c6.2-4.5,17-0.2,23-4.6
		c4.3-3.2,3.7-7.3,6.1-14.5c-7.3,0.9-13.3,3-22.2,2.3c4.2-9.1,8.9-17.6,14.5-25.2c-22.5-3.4-25.7,12.5-32.1,25.2
		c-11.3,0.4-13.9,9.6-16.1,19.1c3.3-0.3,6.9-4.3,9.2-3.1c-5.9,16.1-14.7,33.5-21.4,48.2C442.7,277.3,439.4,282.6,437.6,287.7z"/>
	<path class="st0" d="M630.4,267.8c-0.2,4.4,7.6,12.3,10.7,15.3c5.1,5,10.5,8.6,15.3,11.5c9.7,5.7,25.3,14.9,40.5,13
		c6-0.7,9.1-4.1,15.3-8.4c3.9-2.8,9.2-5.6,11.5-8.4c11.4-14.1,0.8-26.9-7.7-39.8c-8.7-13.3-23.1-28.7-13-45.1
		c5.6-1.8,11.9-4.9,18.4-6.9c6.2-1.9,13.9-4.9,20.7-1.5c-1.3,9.7-5.5,16.5-13,19.9c2.8,6.1,8,9,14.5,7.6c7-1.5,19.8-23.9,16.8-32.1
		c-3.9-10.7-19.9-6.5-28.3-4.6c-18.1,4.1-46.5,11.7-49.7,27.5c-2.4,12.2,6.1,23,13,33.7c6.4,10,15.3,22,16.1,31.4
		c1.1,13.1-6.5,15.2-18.4,13.8c-17.8-2.2-40.3-17.9-45.1-27.5c-1-2.1-1.5-7.2-3.1-9.2C638.1,259.2,630.8,261.8,630.4,267.8z"/>
	<path class="st0" d="M959.4,307.6c6-0.5,10.2-4.4,16.1-8.4c4.2-2.8,9.5-6.5,11.5-9.2c12.1-16-3.4-30.1-12.2-43.6
		c-6-9.1-14.9-22.1-13-32.9c1.6-8.8,12.2-10.9,20.7-13.8c8.1-2.8,15-5.1,22.2-3.1c-0.5,5.6-1.5,10.4-3.8,13.8
		c-2.6,3.9-7.3,4.1-9.2,8.4c16.5,19.4,31.1-11.6,32.1-26c-7.3-12-23.1-6-35.2-3.1c-5.9,1.4-12.5,2.6-17.6,4.6
		c-8.1,3.1-22.4,12-25.2,19.1c-4.6,11.6,6.4,27.8,13,38.3c6.9,10.8,17,22.5,16.1,32.9c-0.8,9.5-9.3,11.2-19.1,9.9
		c-18.3-2.3-38.3-17.4-45.9-29.1c-1.7-1.5,1.9-6.6-2.3-6.9c-5.7-0.7-13.1,3.1-13.8,8.4c-0.5,4.3,6,12.8,9.2,16.1
		C912.6,293.1,941.1,309.3,959.4,307.6z"/>
	<path class="st0" d="M430,213.5c9-5.8,14-13.1,14.5-26c-0.2-0.6-0.6-0.9-1.5-0.8c-6.3,6.7-12.8,13.2-26,13
		c-1.8,4-3.9,12.5-0.8,16.8C420.8,218.7,426.3,215.9,430,213.5z"/>
	<path class="st0" d="M839.3,231.1c13.8,0.7,27.8-8.8,26.8-23c-6.8,5.2-13.8,10.1-26,9.9C838.6,222.2,836.9,227.3,839.3,231.1z"/>
	<path class="st0" d="M290,255.6c-0.6-7.1-2.3-12.5-4.6-19.9c-1.5-4.8-4-18.2-9.9-15.3c-8.5,4.1-17.1,9.5-24.5,16.8
		c-12.6,12.4-27.2,31.5-30.6,46.7c-2.4,10.5,0,20.9,6.1,23c16,5.4,43.1-4.8,53.6-15.3c4.7-4.7,7.8-11.4,10.7-16.8
		c3.3-6.2,7.4-11.9,8.4-18.4c-6.8,8.1-13.7,18.2-23,25.3c-9.4,7.2-23,12.1-38.3,9.2c-0.3-6.7,1.6-11.2,3.8-15.3
		C258.3,269.3,277.3,265.7,290,255.6z M265.5,241.8c3.2,1.6,2.6,7.1,3.8,10.7c-5.6,2.6-12,4.3-17.6,6.9
		C252.9,253.2,260.4,246.7,265.5,241.8z"/>
	<path class="st0" d="M403.2,269.4c-4.9,8.2-13.1,20.4-10.7,31.4c1,4.4,6.6,9.5,13,9.2c11.9-0.7,18.6-19.6,23-29.8
		c4.5-10.4,9.4-20.5,10.7-28.3c-8.3,12.6-16.9,29-26.8,37.5c5.9-23.9,23.4-36.3,26-63.5c-14.1-0.8-23,3.5-28.3,11.5
		c13.3,2.3,5.2,11.9,0.8,19.1C407.3,262.1,405.3,265.8,403.2,269.4z"/>
	<path class="st0" d="M833.2,247.2c2.9,1.9,7.9,1.8,8.4,6.1c-3.5,5.2-9.5,12.2-15.3,19.9c-8.6,11.5-20.6,34.2,5.4,32.1
		c8.2-4.8,13.6-12.9,18.4-21.4c3.6-6.5,7.2-13.1,8.4-19.1c-2.7,4.9-7.6,9.2-11.5,13.8c-3.9,4.6-7.2,11-13,11.5
		c5.7-20.1,23.9-27.6,26-51.3C847.6,238.2,839.6,241.8,833.2,247.2z"/>
	<path class="st0" d="M1081.1,297.7c9.6,10.9,33.3,6.3,42.8-0.8c20.3-15.1,32.5-58.7-4.6-62.7c-1,3.3-3,5.7-5.4,7.6
		c-20.3,1.1-27,15.9-34.4,29.8C1076.4,281.7,1076.1,292,1081.1,297.7z M1107.9,253.3c6.1-5,14.4-7.1,20.7-1.5
		c1.1,21.7-10,41.1-30.6,44.4C1087.1,286.1,1098,261.5,1107.9,253.3z"/>
	<path class="st0" d="M1013.7,303c5.5-11.6,3-25,9.9-33.7c7.8-9.9,20.9-12.5,34.4-16.8c-5,16.7-18.2,29.2-16.8,49.7
		c4.3,6.2,14.8,1.4,19.1-2.3c7.9-6.8,14.6-22.4,19.1-28.3c-5.5,0.9-12.4,11-18.4,11.5c5.3-14.6,15.2-24.6,15.3-44.4
		c-19.9-4.1-34.4,8-47.4,10.7c7.8-20.6,21.1-49.2,39-66.6c7.5-7.3,18.5-14.9,28.3-16.8c14.6-2.8,12.2,9.3,19.1,16.8
		c-0.2-19.9,2.7-38.3-19.1-35.2c-15.6,2.2-27.6,15.5-38.3,26.8c-11.3,11.9-19.1,23.8-26.8,38.3c-17.1,32.3-24.6,68.1-38.3,92.6
		C1000.9,305.5,1008.5,305.4,1013.7,303z"/>
	<path class="st0" d="M292.3,292.3c11.9-14.6,23.7-33.4,36.7-44.4c-4.5,9-8.1,18.4-12.2,27.5c-4,8.8-10.9,17.6-9.2,29.1
		c5.1,3.5,10.5-1,16.1-1.5c2.6-8.3,6.6-18.1,10.7-27.5c6.3-14.3,12.7-33.4,31.4-31.4c-1.3,10.9-6.3,17.7-10.7,27.5
		c-2.6,5.8-11.5,22-9.9,29.1c1.3,6,11.2,9.2,17.6,8.4c18-2.3,25.9-35.2,29.8-48.2c-3.2,5.1-8.1,10-12.2,15.3c-4,5-7.4,12.3-13.8,13
		c1.1-14.2,31.4-50.7,13.8-64.3c-5.8-4.5-14.2,0.5-19.9,2.3c-5.9,1.8-11.3,2.6-16.1,5.4c-1.5-6.8-5.8-11.5-13-10.7
		c-9.5,1-18.8,20.9-23.7,31.4C300.7,267.9,295.5,282.6,292.3,292.3z"/>
	<path class="st0" d="M1253.3,294.9l-1.9-3.6l-2.9,2.8c-6.9,6.8-14.2,11.2-21.7,13.1c-7.5,1.9-16.5,3.6-27.4,5.2
		c-6.3,0.9-22.8,3-40.8,3.5c-1.4,0-2.8,0.1-4.2,0.2c-6,0.1-10.7,0.1-13.1,0.1c0.8-2.4,1.6-4.7,2.3-6.7c0.8-2.4,1.5-4.5,2.2-6.5
		c7.4,0.4,14.7,1.3,21.6-0.8c12.7-3.8,30.2-23,32.1-39c0.9-6.9,0.2-13-2.1-17.7c-2.7-7.4-7.8-11.4-15.4-11.8
		c-4-0.2-7.8,0.6-11.4,2.5c-0.1,0-0.2,0.1-0.3,0.1l1.5-2.4l-6,3.2c-4.7,2.5-7.8,5.4-9.3,8.6c-2.4,4.1-4.3,10.5-6.6,16.1
		c-2,4.9-4.3,10.9-6.6,17.1c-5.7,14.3-10.7,26.7-15.1,37.4c-236.2,9.2-489.8,4.5-735,4.5c-41,0-82.4,0.8-122.4-1.5
		c-39.4-2.3-78.4-5.1-115.5,3.1c43.1-51.3,83.5-107.5,128.5-159.1c10.4-11.9,21.8-20.1,25.2-38.3c-18.3,6.5-33.8,18.2-65,19.9
		c-18.3,1-36.7-0.5-56.6-1.5c-17.2-0.9-41.9-5.1-49.7,5.4c-5.3,7.1-3.2,17.9,0,26c2.7,1.1,2.8-2.7,3.8-3.8
		c3.4-3.9,8.7-9.3,14.5-11.5c13.1-5,32-2.1,49.7-0.8c17.5,1.3,35.2,2.6,50.5,2.3c-42.5,55.6-89.9,111.1-133.1,167.6
		c-6.6,8.7-11.3,17.4-16.1,27.5c0,0.3,0,0.5,0,0.8c13.4-9.1,27.6-11.6,45.1-16.1c25.4-6.5,55.8-7.9,88-6.9
		c40.8,1.3,83.2,4.2,123.2,2.3c41.4-1.9,84-0.8,125.5-0.8c127.1,0,251.6-2.3,378-2.3c85.5,0,172.8-0.5,255.2-1.6
		c-1.2,2.9-2.3,5.6-3.3,8c-3,7.1-5.4,12.9-7.2,17.6c-0.2,0.6-0.5,1.1-0.7,1.7c-6.9,14.5-14.8,28.3-25.1,38.5c0.5,0,1,0,1.5,0
		c5.3-4,10.8-7.8,16.1-12.2c4.9-4.1,11.7-8.5,15.3-13.8c5.4-7.9,8.8-17.4,12.3-26.9c2-4.9,3.8-9.4,5.4-13.7
		c20.3-0.6,43.5-0.6,64.2-2.2c17.8-1.4,35.7-1.8,48.2-9.1c3.7-1.6,6.3-3.9,7.6-7C1258,307.6,1257.1,302,1253.3,294.9z M1183.5,275.1
		c-3.5,5.9-8.9,10.3-16.2,13.1c-6,2.3-10.6,2.3-13.9,0c5.4-16.8,8.8-35.6,30.3-36.4c2.4,3.1,3.5,6.6,3.6,10.2
		C1187.1,266.5,1185.9,270.9,1183.5,275.1z"/>
</g>
</svg>
