<?xml version="1.0" encoding="utf-8"?>
<!-- Generator: Adobe Illustrator 26.3.1, SVG Export Plug-In . SVG Version: 6.00 Build 0)  -->
<svg version="1.1" id="Calque_1" xmlns="http://www.w3.org/2000/svg" xmlns:xlink="http://www.w3.org/1999/xlink" x="0px" y="0px"
	 viewBox="0 0 980 768" style="enable-background:new 0 0 980 768;" xml:space="preserve">
<style type="text/css">
	.st0{fill-rule:evenodd;clip-rule:evenodd;fill:#FFDA0A;}
	.st1{fill:#FFFFFF;}
</style>
<g>
	<g>
		<g>
			<path class="st0" d="M327.4,392.5c-8.3,5.5-19.3,9.8-32.8,12.9c-11.6,2.6-15.4,1.2-16.6,0.4c-0.5-0.3-0.8-0.7-1-1.5
				c-1-5.5,0-12.7,2.8-21.6c0.2-0.7,0.5-1.4,0.7-2.1c27.1-11.6,45-19.7,54.5-24.7c14.2-7.5,16.5-9.6,17.5-11
				c1.8-2.5,2.2-5.6-6.6-28.1c-7.8-19.7-10-23.9-11.2-25.4c-4.2-5.4-12.5,0.1-21.4,6.7c-9.2,6.9-19.2,17.2-29.5,30.8
				c-10.2,13.4-18.6,26.9-24.9,39.9c-6.4,13.4-9.8,25.4-10.1,35.8c-0.3,11.3,2.1,19,7.5,23.6c3.4,2.9,8.2,4.4,14.5,4.4
				c3.8,0,8.1-0.5,13-1.5c11.9-2.5,22.5-6.1,31.4-10.6c8.9-4.6,16.8-10,23.3-16.2c6.7-6.3,12.7-16,18.1-28.7L371,341l-22,30.4
				C343.1,379.8,335.7,387,327.4,392.5z M321.4,340.9c-1.2,0.9-6.6,3.8-29.1,14c0.7-1.4,1.5-2.7,2.3-4.1c6.5-11.7,12.5-20,17.9-24.7
				c1.8-1.5,3-2.4,3.8-2.8c1.1,3.3,2.5,7.3,4.1,11.9C321.7,339,321.5,340.5,321.4,340.9z"/>
			<path class="st0" d="M379.2,374.2c19.7-30.7,30.3-45.5,35.9-52.5c-1.6,7.6-4.9,17.9-9.7,30.9c-7.3,19.4-12.1,33.1-14.3,40.4
				c-2.3,7.7-3.5,13.7-3.7,18.2c-0.1,2.5,0.9,4.7,2.8,5.9c1.1,0.7,2.4,1.2,4.3,1.2c3.4,0,8.6-1.6,17.5-6l2-1l0.4-2.1
				c1.1-6,2.6-11.8,4.6-17c2.1-5.6,5.2-14.4,9.5-27.1c4.2-12.3,8.1-22.8,11.5-31.1c3.1-7.5,8.7-13.1,17.2-17.1
				c9.7-4.6,13.9-4.3,15.4-3.8c0.4,1.8,0.6,8.9-8.8,35.3c-9,25.1-14.2,41-16.2,48.6c-1.1,4.3-0.6,8.1,1.5,11.2
				c2.7,4.1,7.7,6.8,15.4,8.1c8.7,1.5,21.2-0.1,31.1-16.2c7.1-11.7,12.4-24.7,15.8-38.9l6-25.3l-13.9,21.9
				c-17.5,27.6-23.2,28.6-23.7,28.6c-0.2,0-0.3,0-0.4,0c-0.2-0.6-0.6-2.9,1.3-9.3c3-9.9,8-24.2,14.7-42.4
				c7.4-19.7,8.5-33.9,3.5-43.5c-7.4-14-17.7-12.1-23.1-9.7c-7.1,3.1-14.9,6.4-23.9,10.1c-5.7,2.3-10.5,5-14.4,7.9
				c-3.3-12.1-12-15.3-19.4-15.7c-7.3-0.4-14.4,6.9-22.4,22.9c-7.1,14-15.1,35.4-24,63.6l-9.7,31L379.2,374.2z"/>
			<path class="st0" d="M541.1,411.4c0.4,0,0.8,0,1.1,0c12.7-0.4,23.9-18.1,35.3-55.6l12.4-41.1l-20.4,37.7
				c-10.2,18.8-15.4,25.4-17.8,27.8c-1.2-5.2,0.5-12.9,4.8-22.4c5.5-11.9,10-22.1,13.3-30.1c3.4-8.3,6.3-15.3,8.7-21.5
				c2.7-6.8,4.2-15.7,4.5-26.3l0.1-4.9l-4.8,0.4c-13.3,1.2-24.6,6.5-33.6,15.8l-4.5,4.7l6,2.4c3,1.2,6.9,3.2,7.9,6
				c0.7,1.8,0.2,4.1-1.3,6.9c-4.5,8.4-10.8,20.9-19.2,38c-8.6,17.5-12.5,31.5-12.1,42.8C522,404.6,529,411.4,541.1,411.4z"/>
			<path class="st0" d="M610.4,403.3c2.2,0.2,4.3,0.3,6.4,0.3c5.5,0,10.2-0.8,14.2-2.3c5.4-2,11-5.8,16.6-11.1
				c5.8-5.6,11.7-19.4,17.9-42.3l7.5-27.6l-15.4,24.2c-11,17.2-20,28.1-26.9,32.3c-6.9,4.2-10.8,5-12.8,5c-0.3-2.1-0.1-9,6.4-29.9
				c7.4-19.4,16.4-45.8,26.9-78.4v-0.2c1.3-4.6,4.5-10.8,17.5-11.4h0.2c11.4-1,18.3-3.2,21.7-6.8c3.2-3.4,5.4-8.6,6.7-15.8l1.3-7
				l-6.8,2.1c-7.3,2.3-14,3.7-19.8,4.2l-8.4,0.7c5.4-15.1,10.6-26.8,15.6-34.9l4.6-7.4l-8.7,0.8c-4,0.4-9.9,1.9-17.9,4.8l-1.1,0.4
				l-0.8,0.9c-3.8,4.6-6.8,8.6-8.9,11.8c-2.2,3.5-4.3,9.5-6.5,18.4l-3,7.8c-3.8,0.5-7.3,1.5-10.5,3.1c-4.7,2.4-8.1,8.5-10.5,19.3
				l-2.3,10.3l8.9-5.7c1.8-1.2,3.9-2,6.1-2.5l-5.3,18.8c-9.5,26-18.4,51.2-26.6,74.9c-6.5,15.4-8.1,25.5-4.9,32
				C595,398.7,601.3,402.5,610.4,403.3z"/>
			<path class="st0" d="M673.3,393.1l-1.9,6l6.3-0.3c17.6-0.9,26.5-4,28.9-10c1.2-2.9,2.7-10.1,3-38.1c0.2-19,8.4-34.2,25.1-46.6
				c14.6-10.8,23.9-15.5,29.7-17.2c-4.8,16.5-10.3,37-16.3,61.1c-5.5,22.1-5.5,34.6,0.1,40.5c1.9,2,5.4,4.2,11.2,3.1
				c13-2.5,24.7-19.8,36.7-54.7l7.7-22.2l-15.1,18c-6.8,8.1-11.1,12.4-13.6,14.5c0.3-1.3,0.7-2.9,1.3-5c5.7-19,10.2-36.1,13.4-50.9
				c3.4-15.9,3.9-26.7,1.3-33l-1.1-2.7l-2.9-0.1c-5.6-0.1-13.1,1.2-22.9,4.2c-8.7,2.6-24.5,12-47.9,28.7c11.4-48,24.3-86,38.3-113.2
				c15.1-29.1,31.1-50.9,47.6-65C815.4,99,828,91.2,839.6,87c2-0.6,3.8-1.1,5.2-1.3c1-0.2,2.1-0.3,3.1-0.5c4.5-0.7,8.8-1.4,11.8-0.1
				c3.6,1.5,6.2,4.2,11.8,14.9l5.4,10.5l0.1-11.8c0.2-21.6-2.8-33.4-9.4-37.1c-6.9-3.9-18.4-3.7-30.9,0.5l0.1,0.2
				c-15.2,4.3-32.7,17-54.9,39.8c-19.1,19.7-36.2,45.8-50.7,77.7c-14.5,31.8-26.2,70.6-35,115.4
				C687.5,339.6,679.8,372.5,673.3,393.1z"/>
			<path class="st0" d="M547.1,262.2c1.1,1.1,2.9,2.3,5.8,2.3c0.3,0,0.6,0,0.9,0c3.7-0.3,9.9-2.7,25.5-18.2l0.2-0.2
				c4.8-5.3,7.4-12.7,7.9-22.2l0.5-11.7l-8,8.5c-4.3,4.6-9.3,8.5-14.7,11.6c-5.2,3-9.9,4.8-13.9,5.3l-4.4,0.1l-0.9,3
				c-1.4,4.6-1.9,9.6-1.4,15.1C544.8,258.6,545.6,260.7,547.1,262.2z"/>
			<path class="st0" d="M898.3,362.4l-3.9-6l-4.7,5.5c-11.2,13.1-23.5,22-36.4,26.6c-5,1.8-10.3,3.5-16,5.2
				c-8.5,1.9-17.6,3.9-27,5.9c-32.4,5.5-76.5,11.6-136.2,18c-102.5,11.1-215.2,19.5-269.3,23.5c-15.8,1.2-27.3,2-33.1,2.5
				c-15.9,1.4-43.2,2.1-81.1,3.2c-5.4,0.1-11.1,0.3-17,0.5c-47.2,1.3-81.7,8.9-98.3,12.5c-9.9,2.2-18,4.2-24.4,6.2
				c6.5-10,15.2-22.8,26.1-38.4c15.5-22.1,43.9-64.4,86.8-129.4c42-63.6,68.7-102,79.4-114.3c11.3-12.9,18.5-26.6,21.4-40.7l2-10
				l-8.6,5.4c-34.2,21.6-67.1,33.9-97.8,36.6c-31.3,2.7-61.7,4.2-90.6,4.5c-30,0.3-50.1,2.9-61.3,8.1c-6.6,3-10.6,8.7-11.6,16.3
				c-0.9,6.9,0.7,15.4,4.8,26.1l3.1,8.1l4.6-7.3c7.4-11.6,15.3-19.1,23.5-22.2c8.6-3.2,18.6-5.2,29.8-5.9
				c11.3-0.7,26.3-1.2,44.4-1.4c18-0.3,36.8-0.8,55.8-1.4c11.4-0.4,20.7-1.4,27.9-3c-11.8,17.8-29.1,43.7-52.7,78.7
				c-28.4,42.3-72.7,108.9-131.7,197.9c-6.8,8.2-33.4,57.8-33.4,57.8L92.3,519c13.7-9.7,59.4-25.5,77.1-30.9
				c16.7-5.1,48.6-11.9,105.9-15.2c11.6-0.7,21.8-1.2,30.8-1.6c-3,6.3-4.7,11-7.2,18.1c-0.9,2.6-1.9,5.5-3.2,8.9
				c-3.9,10.6-7.2,21.3-10.4,31.6c-1.5,4.8-3.1,9.8-4.7,14.8c-5,15.5-10.7,30.2-16.9,43.8c-6.3,13.7-13.7,27.3-22.1,40.6l-2.6,4.1
				l4.8-0.5c29.3-3.3,46.2-10.3,51.7-21.5l1.7-3.5c0.9,2.1,1.8,4.2,2.6,6.1c5.9,14.5,14.4,15.2,20.4,13.3c8.3-2.7,16.2-14,24-34.6
				l4.5-11.7l-8.3,9.3c-13.6,15.2-20.5,18-23.9,17.6c-1-0.1-2.5-0.5-3.9-2.8c-4.9-8.4-9.1-16.1-12.5-22.8
				c-3.1-6.2-5.2-10.3-6.4-12.5c0.9-0.8,3.9-2.6,13.5-5.7c10.8-3.5,18.8-5.2,23.6-4.9c3.8,0.2,6.3-0.6,7.7-2.3
				c0.8-1,1.6-2.8,0.8-5.6c-1.1-4.2-3.3-7.3-6.4-9.1c-3.4-2-7-1.6-10.2,1.2c-2.3,2-6.6,4.5-12.7,7.4c-5.3,2.5-12.1,5.6-20.6,9.2
				c6.6-18.9,11.9-34.4,15.7-46.1c3.5-10.9,11.7-26.1,22.9-43c7.7-0.3,14-0.5,19-0.6c7.7-0.2,12.8-0.4,15.9-0.7
				c9.7-0.8,31.7-2.5,36.4-2.6c7.4-0.2,160.7-17.3,224.5-24.6c-3.7,6.5-6.3,11.9-12.9,25.5c-12.3,25.3-21,48.3-27.5,72.7
				c-7.4,27.9-13.9,48.7-19.3,61.7l-1.4,3.4l3.7-0.2c16.8-1,20.4-3.7,21.7-6.2c0.9-1.9,2.3-6.4,2.9-24c0.4-12,7.2-21.8,20.6-29.9
				c11.2-6.7,19.8-10.7,25.7-11.8c-4,10.4-8.7,23.6-13.8,39.3c-4.3,12.9-4.7,20.7-1.3,24.6c1.9,2.2,4.7,2.9,8.3,2.3
				c9.6-1.6,19-12.9,28.6-34.4l4.8-10.7l-8.5,8.1c-8,7.6-11.7,10.1-13.3,10.8c0.1-0.8,0.5-2.3,1.4-4.6c4.7-12,8.5-22.8,11.2-32.1
				c2.9-10.1,3.4-16.9,1.5-20.8l-0.6-1.3h-1.4l0,0c-4.2,0-9.9,0.9-17.5,2.9c-7,1.8-20.1,8.3-39.9,19.9c9.7-31,20.5-55.6,32.1-73.2
				c8.5-12.9,12.9-19.1,18.9-24.5c7.1-0.6,14.3-1.2,21.5-1.9c54.6-4.7,106.2-9.2,128-11.6c45.6-5,76-10.8,92.8-17.7
				c8.6-3.5,14.1-8.8,16.2-15.6C908.6,384.2,906.1,374.3,898.3,362.4z M292.9,607.7c-9.3,2.6-17.8,4.2-25.1,4.9l15.3-34.1
				c5.6,10.6,10.2,20.1,13.8,28.1L292.9,607.7z"/>
			<path class="st0" d="M368.9,605c-1.5-3.2-0.2-8.5,3.8-15.2c4.6-7.9,8.1-14.1,10.8-19.1c2.6-4.9,5-9.5,7.1-13.6
				c2.2-4.3,3.5-9.9,3.8-16.6l0.1-2.6l-2.6,0.2c-10.1,0.9-18.7,4.3-25.6,10.1l-3.3,2.7l4.1,1.2c3.7,1.1,6.1,2.6,6.6,4.1
				c0.4,1.1,0,2.5-1.2,4.2c-3.7,5.4-9,13.6-15.6,24.1c-6.9,11.1-10.2,19.9-10,27c0.1,3.5,1.2,6.4,3.4,8.3c2.3,2.1,5.7,3.2,10.2,3.2
				c0.4,0,0.9,0,1.3,0c9.2-0.4,18.1-11.8,27.3-34.9l7.5-18.9L385.1,586C374,602.2,369.9,604.6,368.9,605z"/>
			<path class="st0" d="M382.8,511c-4.3,2-8.2,3.3-11.6,3.7l-2.5,0.1l-0.6,1.4c-1.2,2.9-1.6,6.1-1.3,9.5c0.3,3.2,2.3,5.1,5.4,5.1
				c0.2,0,0.5,0,0.7,0c2.4-0.2,7-1.6,19.3-11.5l0.1-0.1c3.7-3.3,5.9-8,6.3-13.9l0.4-5.5l-4.2,3.6C391.3,506.4,387.3,508.9,382.8,511
				z"/>
			<path class="st0" d="M694.5,591.7c12.3-1.6,22-6.5,28.7-14.6c6.5-7.8,10.8-15,12.8-21.4c2-6.2,3.4-12.1,4.3-17.6v-0.3v-0.3
				c-0.9-9.8-3.2-17.6-7-23.3l-0.2-0.3l-0.3-0.2c-7.8-5.8-16.1-8.7-24.7-8.5c-0.2,0-0.5,0-0.7,0l0.3,4.2c-0.2-0.2-0.3-0.6-0.3-0.8
				c0,0-0.1,0.6-1,2c-0.9,0.6-2.5,2-2.6,3.9l-3,0.3c-6.8,0.2-14,4.5-21.5,12.8c-7.4,8.1-12.4,18.2-15.1,29.8
				c-2.8,12-1.5,21.2,3.6,27.4c4.1,4.9,10.6,7.4,19.3,7.4C689.4,592.2,691.9,592,694.5,591.7z M681.8,568.6
				c-0.3-6.3,1-13.3,3.9-20.8c2.9-7.6,6.5-13.6,10.6-18c3.8-4.1,8.9-7,15-8.6c4.5,0.8,7.7,2.3,9.8,4.3c1.7,3.3,2.2,8.3,1.4,15.1
				c-0.8,7.1-3.9,15.2-9.1,24c-5.1,8.6-10.6,14.3-16.3,16.7c-7.8,3.4-10.3,0.9-11.1,0.1C683.6,579,682.1,574.6,681.8,568.6z"/>
			<path class="st0" d="M784.8,499c-5.1,0.1-9.9,1.6-14.1,4.4l1.6-3.1l-7.1,4.4c-6.3,4-10.1,8.5-11.2,13.4
				c-16.8,54.6-28.7,92.5-36.5,116.1c-2.9,8.9-5.3,16.2-7.1,22.1c-2.5,7.8-4.5,14.1-5.4,16c-0.1,0.1-0.3,0.2-0.3,0.3
				c-3.3,10.2-8.5,19.8-14.5,28.7c-1.7,2.5-3.5,5-5.4,7.5c-0.2,0.3,0.7,0.3,0.8,0.3c0.6,0,1.2-0.2,1.7-0.5
				c5.8-3.8,10.9-8.7,15.7-13.6c2.5-2.5,4.9-5.1,7.4-7.6c2.4-2.4,4.8-4.6,6.7-7.4c1.4-2.1,2.6-4.4,3.8-6.7l0.2,0.1
				c0.3-0.7,0.5-1.3,0.8-2c0.2-0.4,0.4-0.7,0.6-1.1c0.1-0.1,0-0.2-0.1-0.2c12.5-31,18.5-56.1,22.4-72.9c1-4.4,1.9-8.2,2.8-11.5
				c6.6,0.9,14,0.3,22.3-1.8c9.4-2.4,18.8-10.7,28.1-24.6c9.3-14,12.4-27.6,9.2-40.4C803.8,505.4,796.3,498.8,784.8,499z
				 M790.3,549.4c-3.7,7.6-9.9,13.5-18.5,17.6c-7.6,3.6-13.5,3.9-17.9,1l9.1-31.9c3.2-6.1,8.8-11.1,16.6-14.9
				c3.7-1.8,6.7-2.2,8.7-1.3c1.9,0.9,3.3,3,4.2,6.3C794.8,534,794,541.8,790.3,549.4z"/>
			<path class="st0" d="M220.8,568c-12.1-15.3-31.2-32.5-20.7-53.6c6.7-2.8,14-7.2,21.6-10.3c7.4-3,16.4-7.5,25-4.1
				c-0.5,11.9-4.9,20.6-13.7,25.6c4.1,7.1,10.8,10.1,18.5,7.8c8.4-2.6,21.5-31.3,17.1-40.9c-5.8-12.7-24.9-5.8-35-2.6
				c-21.6,6.9-55.4,19.3-57.6,38.8c-1.7,15.1,9.9,27.4,19.4,39.6c8.9,11.5,20.9,25.2,22.9,36.5c2.8,15.8-6.3,19.3-20.9,18.7
				c-22-0.8-51-17.5-57.9-28.7c-1.5-2.4-2.6-8.6-4.7-10.9c-8.3,2.3-16.9,6.3-16.6,13.7c0.2,5.4,10.6,14.1,14.7,17.5
				c6.7,5.5,13.7,9.4,19.9,12.4c12.4,5.9,32.4,15.4,50.8,11.5c7.3-1.5,10.6-5.9,17.7-11.9c4.5-3.8,10.6-7.8,13.1-11.5
				C246.8,597.2,232.5,582.8,220.8,568z"/>
			<path class="st0" d="M518.7,487c6.7-2.8,14-7.2,21.6-10.3c7.4-3,16.4-7.5,25-4.1c-0.5,11.9-4.9,20.6-13.7,25.6
				c4.1,7.1,10.8,10.2,18.5,7.8c8.4-2.6,21.5-31.3,17.1-40.9c-5.8-12.7-24.9-5.8-35-2.6c-21.6,6.9-55.5,19.3-57.6,38.9
				c-1.7,15.1,9.9,27.4,19.4,39.6c8.9,11.5,20.9,25.2,22.9,36.5c2.8,15.8-6.3,19.3-20.9,18.7c-22-0.8-51-17.5-57.9-28.7
				c-1.5-2.4-2.6-8.6-4.7-10.9c-8.2,2.3-16.9,6.3-16.7,13.7c0.2,5.4,10.6,14.1,14.7,17.5c6.7,5.5,13.7,9.4,19.9,12.4
				c12.4,5.9,32.4,15.4,50.8,11.5c7.3-1.5,10.6-5.9,17.7-11.9c4.5-3.8,10.6-7.8,13.1-11.5c12.3-18.4-1.9-32.9-13.6-47.6
				C527.3,525.3,508.1,508.2,518.7,487z"/>
		</g>
	</g>
	<g>
		<path class="st1" d="M885.4,472.5c-4.3,0.4-8.1,0.3-11.2-3l2.7-2.8l1.5-1.5c0,0,0.7-0.7,1.4-0.2c0.6,0.4,1.2,0.8,1.8,1
			c1.6,0.6,3.2,0.5,4.6,0.4c2.4-0.2,4.9-1.3,5.1-3.4c0.1-1.4-0.5-2.3-2.6-2.4h-4.2c-4.9,0-7.7-2-7.1-7.2c0.6-5.9,5.2-9,10.7-9.7
			c3.7-0.4,7.8,0.8,9,2.6c1.6,2.4-3.4,4.7-3.4,4.7c-0.3-0.4-0.6-0.7-1-1c-1.2-0.8-2.8-1-4.6-0.9c-2.7,0.3-4,1.7-4.2,3.1
			c-0.1,1,0.2,2.2,2.6,2.2h4.2c5.3,0,7.7,2.8,7.3,7.6C897.3,468.4,891.8,471.9,885.4,472.5"/>
		<path class="st1" d="M675.9,465.1c-3.2,7.3-13.3,28.4-13.3,28.4l-5.4,0.5l-5.8-38c0,0,8.2,2.9,9.1,11l1.7,13.1l11.7-26.2
			C673.9,453.9,679,457.8,675.9,465.1"/>
		<path class="st1" d="M690.9,478.9l-5.4,0.5c-2.5,0.2-4,1.6-4.4,3.6c-0.3,2,0.7,3.2,3.4,2.9c1.9-0.2,3.1-0.5,4.5-1.8
			c0.8-0.8,1.3-2,1.6-3.7L690.9,478.9 M693.7,490.6c-2.9,0.3-4.3-2-4.3-2c-2.2,2.1-4,3.1-7.2,3.4c-3.1,0.3-5.2-0.3-6.5-1.9
			c-1.2-1.5-1.6-3.7-1.2-6.2c0.8-4.6,4.4-8.6,10.7-9.2l6.4-0.6l0.2-1.4c0.5-3.1-0.7-4.4-4.3-4c-2.6,0.2-3.8,1-5.7,0.6
			c-1.7-0.3-3.5-1.8-3.5-1.8c3.2-3.3,5.9-4.5,10.5-4.9c7.6-0.7,11,2.3,9.9,9l-3.1,18.9L693.7,490.6z"/>
		<path class="st1" d="M743.5,454.1l-3.1,0.3l-3.2,19.1c-1.7,11.1-9.5,13.9-9.5,13.9l5.4-32.4l-9.7,0.9c0,0,0.3-6.7,7.3-7.4
			l20.6-1.9C751.3,446.6,749.3,453.5,743.5,454.1"/>
		<path class="st1" d="M762.5,484.1l2.9-17.5c0.6-3.8-1.5-4.8-3.6-4.6c-2.1,0.2-4.6,1.7-5.2,5.5l-1.3,7.9
			c-1.6,8.4-8.4,10.2-8.4,10.2l6.5-39.2l6.8-0.6l-2.2,13.1c2.2-2.2,4.6-3.4,7-3.6c6-0.6,8.4,3.6,7.4,9.6l-1,6.2l-2.1,12.4
			L762.5,484.1"/>
		<path class="st1" d="M710.2,479.6c-1.6,8.4-8.4,10.2-8.4,10.2l6.5-39.2l6.8-0.6L710.2,479.6"/>
		<path class="st1" d="M791.2,460.1c-0.6-0.8-1.6-1.1-3-1s-2.4,0.7-3.4,1.6c-1.7,1.6-2.2,4.1-2.7,7.1s-0.8,5.5,0.4,6.8
			c0.6,0.8,1.6,1.1,2.9,1c1.4-0.1,2.5-0.7,3.4-1.6c1.7-1.6,2.2-4.2,2.7-7.1C792.1,463.9,792.4,461.4,791.2,460.1 M793.5,477.7
			c-2,2-5,3.9-9.1,4.3c-4,0.4-6.5-1-7.8-2.7c-2-2.5-2.1-5.7-1.2-10.9c0.9-5.2,2-8.5,4.9-11.4c2-2,5-3.9,9-4.3s6.5,1,7.9,2.7
			c2,2.5,2.1,5.7,1.2,10.8C797.5,471.4,796.4,474.7,793.5,477.7"/>
		<path class="st1" d="M819.1,457.9c-0.9-1-1.7-1.5-3.3-1.4c-2.1,0.2-4.7,2.1-5.3,5.7l-1.1,6.8c-1.6,9.6-8.5,11.1-8.5,11.1l4.8-28.7
			l6.6-0.6l-0.5,2.7c1.6-1.8,4.4-3.4,7.4-3.7c2.7-0.3,4.4,0.3,6,2.1L819.1,457.9"/>
		<path class="st1" d="M840.1,456.6c-0.4-1.6-1.8-2.8-4.1-2.5c-2.3,0.2-4,1.6-5,3.4c-0.6,1.1-0.9,1.9-1.1,3.1l10.4-1
			C840.4,458.4,840.3,457.6,840.1,456.6 M841.4,464.4l-12.3,1.2c-0.6,3.7,1.1,6.2,4.9,5.8c3-0.3,4.6-1.3,6.6-3.3l3.4,3.8
			c-3.3,3.2-6.2,5-11.1,5.5c-6.4,0.6-12.1-1.9-10.2-13.5c1.6-9.4,7.3-15.1,14.3-15.8c7.6-0.7,10.9,4.7,9.6,12.6
			C846.6,460.7,846,463.9,841.4,464.4"/>
		<path class="st1" d="M865.6,464.6l1.3-7.8c0.6-3.9-1.5-5-3.6-4.8s-4.8,1.7-5.4,5.7l-2.2,12.9L855,475l-6.8,0.6l4.8-28.7l6.6-0.6
			l-0.5,2.6c2.1-2.1,4.8-3.4,7.3-3.6c2.7-0.3,4.8,0.5,6,1.9c1.8,2.1,1.9,4.7,1.4,7.9l-3.1,18.3C870.8,473.5,863.8,474.3,865.6,464.6
			"/>
	</g>
</g>
</svg>
