<?xml version="1.0" encoding="utf-8"?>
<!-- Generator: Adobe Illustrator 26.5.0, SVG Export Plug-In . SVG Version: 6.00 Build 0)  -->
<svg version="1.1" id="outline" xmlns="http://www.w3.org/2000/svg" xmlns:xlink="http://www.w3.org/1999/xlink" x="0px" y="0px"
	 viewBox="0 0 70.5 70" style="enable-background:new 0 0 70.5 70;" xml:space="preserve">
<path id="Tracé_8623" d="M0,49.4c0.1-0.6,0.8-1,1.4-0.9c-0.5-1.2-0.7-2.5-0.4-3.7c0.1-0.6,0.8-1,1.4-0.9l21.3,4.7l-1-2.9
	c-0.1-0.3-0.1-0.7,0.1-1l2.9-4.6l7.1-6.7L9.8,32.2l-0.2,1.4c-0.1,0.6-0.6,1-1.2,1c-0.1,0-0.1,0-0.2,0c-0.6-0.1-1.1-0.7-1-1.3
	l0.2-1.3L6.3,32c-0.7,0-1.2-0.6-1.1-1.2s0.6-1.2,1.2-1.1c0,0,0,0,0,0l1.3,0.1l0.1-1.1c0.1-0.6,0.6-1.1,1.3-1.1
	c0.6,0.1,1.1,0.6,1.1,1.3c0,0,0,0.1,0,0.1l-0.1,0.9l9.5,0.5c-2-2.2-2.7-5.4-1.7-8.3c0,0,0.2-0.6,0.2-0.6l0,0
	c1.2-2.4,3.1-4.3,5.6-5.5c4.6-2.1,9.5-3.4,14.5-3.9l1.7-0.2h0c1.1-0.8,2.4-1.2,3.8-1l0.1,0c0.1,0,0.3,0,0.4,0.1c0.1,0,0.1,0,0.2,0
	l2,0.3l3.4-1.7l2.2-1.7L52.1,6c0.1-0.6,0.7-1.1,1.3-1c0.1,0,0.2,0,0.2,0.1l6.1,2.2c3.5,1.3,5.2,5.1,4,8.5c-0.5,1.5-1.5,2.7-2.9,3.5
	l-1.6,0.9c-0.2,0.1-0.4,0.2-0.6,0.2c0,0,0,0-0.1,0l-1.8,1.4l-1.3,1c-0.2,0.2-0.5,0.2-0.7,0.2c-0.1,0-0.1,0-0.2,0L54,22.9l0.1,0.1
	l8.6,3.4l1.7,0.2l0.9-0.7c0.4-0.3,1.1-0.3,1.5,0l3.2,2.8c0.4,0.3,0.5,0.9,0.3,1.3l-1.8,4.5c-0.2,0.4-0.5,0.7-1,0.7c0,0-0.1,0-0.1,0
	l0,0c0,0,0,0-0.1,0L46,34.2c-0.4,1.8-1.4,3.4-2.9,4.5l-5.5,4.4l-2.4,2l1.7,1.2c1.9,1.3,2.7,3.6,1.9,5.8l28,6.2
	c0.6,0.1,1,0.8,0.9,1.4c-0.3,1.2-0.9,2.4-1.9,3.2l2.3,0.5c0.6,0.1,1.1,0.7,1,1.4c-0.1,0.6-0.7,1.1-1.4,1c0,0-0.1,0-0.1,0l-6.9-1.5
	l0,0L0.9,50.8C0.3,50.7-0.1,50,0,49.4C0,49.4,0,49.4,0,49.4L0,49.4z M30.6,38.7l-2,1.9l4.6,3.1l1.8-1.5L30.6,38.7z M43.9,31.7
	c-0.1-1.2-0.5-2.3-1.2-3.2l-1.9-2.5L20,23.2c-0.8,3.2,1.1,6.4,4.2,7.3c0.2,0,0.4,0.1,0.6,0.1L43.9,31.7z M45.7,26.6L44,26.4l0.5,0.7
	c1.1,1.4,1.7,3.1,1.7,4.8l9.8,0.5l-7.3-3c-0.1-0.1-0.2-0.1-0.3-0.2L45.7,26.6z M21.1,21l21.6,2.8l-2.6-2.4c-1.7-1.5-2.5-3.8-2.2-6.1
	c0-0.3,0.1-0.6,0.2-0.9c-4.6,0.5-9.2,1.8-13.4,3.7C23.2,18.8,22,19.7,21.1,21z M56.2,19.2l0.9-0.7L55.2,15l-1.9,0.4l-0.1,0.9
	L56.2,19.2z M52.6,10.3l-0.8,0.6l1.1,2.1l1.1-0.2L52.6,10.3z M61.8,14.1c0.3-2-0.9-3.9-2.8-4.6l-4.7-1.7l-0.1,0.5l5.2,9.1l0.3-0.2
	C60.9,16.5,61.6,15.4,61.8,14.1L61.8,14.1z M54.2,20.5l-3.1-3c-0.3-0.3-0.4-0.6-0.3-1l0.3-2l-1.2-2.4l-2.3,1.2l4.8,7L54.2,20.5z
	 M52.9,25.1c-0.2-0.1-0.4-0.2-0.5-0.4l-7-10.2c-0.5-0.7-1.2-1.1-2-1.2l-0.1,0c-1.6-0.2-3,0.9-3.2,2.5c-0.2,1.5,0.4,3,1.5,4.1
	l8.2,7.5l10.8,4.5l0.4-3.4L52.9,25.1z M66,28.4l-0.6,0.4c-0.2,0.2-0.6,0.3-0.9,0.2l-1.2-0.2L63,32.4l3.8,0.5l1.1-2.9L66,28.4z
	 M43.6,34l-7.4-0.4l-3.8,3.5l3.2,2.5l1.4,1.1l4.7-3.8C42.6,36.1,43.3,35.1,43.6,34L43.6,34z M36.6,51.5c0.6-1.2,0.2-2.6-0.9-3.3
	l-8.6-5.8l-1.9,3.1l1.2,3.7L36.6,51.5z M65.1,60.3L3.3,46.5c0.2,1.5,1.3,2.7,2.7,3l0,0l55.3,12.3C62.8,62.2,64.3,61.5,65.1,60.3
	L65.1,60.3z"/>
<path id="Tracé_8624" d="M55.7,65.4l5.8,1.3c0.6,0.1,1.1,0.7,1,1.4c-0.1,0.6-0.7,1.1-1.4,1c0,0-0.1,0-0.1,0l-5.8-1.3
	c-0.6-0.1-1.1-0.7-0.9-1.4C54.3,65.7,55,65.3,55.7,65.4C55.6,65.4,55.6,65.4,55.7,65.4z"/>
<path id="Tracé_8625" d="M30.1,60.9c0.1-0.6,0.8-1,1.4-0.9l17.3,3.8c0.6,0.1,1.1,0.7,0.9,1.4c-0.1,0.6-0.7,1.1-1.4,0.9
	c0,0-0.1,0-0.1,0L31,62.3C30.4,62.2,30,61.6,30.1,60.9z"/>
<path id="Tracé_8626" d="M25.5,61.1c-0.1,0-0.2,0-0.3,0l-5.8-1.3c-0.6-0.1-1.1-0.7-1-1.4c0.1-0.6,0.7-1.1,1.4-1c0,0,0.1,0,0.1,0
	l5.8,1.3c0.6,0.1,1,0.8,0.9,1.4C26.5,60.7,26,61.1,25.5,61.1L25.5,61.1z"/>
<path id="Tracé_8627" d="M5,54.1l10.4,2.3c0.6,0.1,1.1,0.7,0.9,1.4c-0.1,0.6-0.7,1.1-1.4,0.9c0,0-0.1,0-0.1,0L4.5,56.4
	c-0.6-0.2-1-0.8-0.8-1.5C3.8,54.4,4.4,54,5,54.1L5,54.1z"/>
<path id="Tracé_8628" d="M17.8,61.8l15,3.3c0.6,0.1,1.1,0.7,1,1.4c-0.1,0.6-0.7,1.1-1.4,1c0,0-0.1,0-0.1,0l-15-3.3
	c-0.6-0.1-1.1-0.7-1-1.4c0.1-0.6,0.7-1.1,1.4-1C17.7,61.8,17.8,61.8,17.8,61.8L17.8,61.8z"/>
<path id="Tracé_8629" d="M39.2,66.6l5,1.1c0.6,0.1,1.1,0.7,1,1.4c-0.1,0.6-0.7,1.1-1.4,1c0,0-0.1,0-0.1,0l-5-1.1
	c-0.6-0.2-1-0.8-0.8-1.5C38,66.8,38.6,66.5,39.2,66.6z"/>
<path id="Tracé_8630" d="M12.3,37.6c0.1-0.6,0.8-1,1.4-0.9l8.1,1.8c0.6,0.1,1.1,0.7,0.9,1.4c-0.1,0.6-0.7,1.1-1.4,0.9
	c0,0-0.1,0-0.1,0L13.2,39C12.6,38.9,12.2,38.3,12.3,37.6z"/>
<path id="Tracé_8631" d="M16.2,42.1l3.5,0.8c0.6,0.1,1.1,0.7,1,1.4c-0.1,0.6-0.7,1.1-1.4,1c0,0-0.1,0-0.1,0l-3.5-0.8
	c-0.6-0.1-1.1-0.7-0.9-1.4C14.8,42.4,15.4,42,16.2,42.1C16.1,42.1,16.1,42.1,16.2,42.1L16.2,42.1z"/>
<path id="Tracé_8632" d="M40.4,5.2c-0.1,0-0.2,0-0.3,0L27.4,2.3c-0.6-0.1-1.1-0.7-1-1.4c0.1-0.6,0.7-1.1,1.4-1c0,0,0.1,0,0.1,0
	l12.7,2.8c0.6,0.1,1,0.8,0.9,1.4C41.4,4.8,40.9,5.2,40.4,5.2L40.4,5.2z"/>
<path id="Tracé_8633" d="M32.7,5.9l3.5,0.8c0.6,0.1,1.1,0.7,1,1.4c-0.1,0.6-0.7,1.1-1.4,1c0,0-0.1,0-0.1,0l-3.5-0.8
	c-0.6-0.1-1.1-0.7-1-1.4c0.1-0.6,0.7-1.1,1.4-1C32.6,5.9,32.6,5.9,32.7,5.9L32.7,5.9z"/>
<path id="Tracé_8634" d="M29,6.3c-0.1,0.6-0.8,1-1.4,0.9c0,0,0,0,0,0l-6.9-1.5c-0.6-0.1-1.1-0.7-1-1.4c0.1-0.6,0.7-1.1,1.4-1
	c0,0,0.1,0,0.1,0l6.9,1.5C28.7,5,29.1,5.7,29,6.3C29,6.3,29,6.3,29,6.3L29,6.3z"/>
</svg>
