<?xml version="1.0" encoding="utf-8"?>
<!-- Generator: Adobe Illustrator 26.5.0, SVG Export Plug-In . SVG Version: 6.00 Build 0)  -->
<svg version="1.1" id="Calque_1" xmlns="http://www.w3.org/2000/svg" xmlns:xlink="http://www.w3.org/1999/xlink" x="0px" y="0px"
	 viewBox="0 0 61.9 70" style="enable-background:new 0 0 61.9 70;" xml:space="preserve">
<g id="timer" transform="translate(-29.786)">
	<g id="Groupe_13215" transform="translate(29.786 23.102)">
		<g id="Groupe_13214">
			<path id="Tracé_8638" d="M46.3,40.2c-0.4-0.6-1.3-0.8-1.9-0.4c-12.5,8.1-29.2,4.6-37.3-7.9C1.2,22.8,1.3,11.1,7.3,2.1
				c0.4-0.6,0.2-1.5-0.4-1.9C6.3-0.1,5.5,0,5.1,0.6c-9.2,13.6-5.6,32.1,8.1,41.2c9.9,6.7,22.8,6.8,32.8,0.3
				C46.5,41.7,46.7,40.9,46.3,40.2C46.3,40.2,46.3,40.2,46.3,40.2z"/>
		</g>
	</g>
	<g id="Groupe_13217" transform="translate(78.313 58.79)">
		<g id="Groupe_13216">
			<path id="Tracé_8639" d="M2.4,0.4C1.8-0.1,1-0.1,0.4,0.4l0,0c-0.5,0.5-0.6,1.4,0,1.9c0.5,0.5,1.4,0.6,1.9,0c0,0,0,0,0,0l0.1-0.1
				C2.9,1.8,2.9,0.9,2.4,0.4z"/>
		</g>
	</g>
	<g id="Groupe_13219" transform="translate(42.547)">
		<g id="Groupe_13218">
			<path id="Tracé_8640" d="M43.7,22.4c0.5,0.5,1.4,0.5,1.9,0l2.3-2.3c1.6-1.6,1.6-4.3,0-5.9L43,9.4c-1.6-1.6-4.3-1.6-5.9,0
				l-2.3,2.3c-0.5,0.5-0.5,1.4,0,1.9c0,0,0,0,0,0l0.6,0.6l-1.6,1.6c-3.5-2.4-7.4-4-11.6-4.8V8.8h3c0.8,0,1.4-0.6,1.4-1.4v-6
				c0-0.8-0.6-1.4-1.4-1.4c0,0,0,0,0,0H8.6C7.9,0,7.2,0.6,7.2,1.4v6c0,0.8,0.6,1.4,1.4,1.4h3v2.3c-3.9,0.7-7.7,2.2-11,4.4
				c-0.6,0.4-0.8,1.3-0.4,1.9s1.3,0.8,1.9,0.4c0,0,0,0,0,0c12.5-8.2,29.2-4.7,37.4,7.7c5.8,8.8,5.9,20.1,0.4,29
				c-0.4,0.6-0.2,1.5,0.4,1.9c0.6,0.4,1.5,0.2,1.9-0.4c0,0,0,0,0-0.1c6.2-10.1,5.9-22.8-0.8-32.6l1.6-1.6L43.7,22.4z M19.6,10.7
				c-0.9-0.1-1.7-0.1-2.6-0.1s-1.7,0-2.6,0.1v-2h5.2L19.6,10.7L19.6,10.7z M13,6h-3V2.7h13.9V6H13L13,6z M39.7,21.2
				c-0.6-0.7-1.1-1.3-1.8-1.9c-0.6-0.6-1.3-1.2-1.9-1.8l1.4-1.4l3.7,3.7L39.7,21.2z M38.4,13.3L38.4,13.3l-0.6-0.6l1.3-1.3
				c0.6-0.6,1.5-0.6,2,0c0,0,0,0,0,0l4.9,4.9c0.6,0.6,0.6,1.5,0,2l-1.3,1.3L44,18.9l0,0L38.4,13.3z"/>
		</g>
	</g>
	<g id="Groupe_13221" transform="translate(58.131 20.923)">
		<g id="Groupe_13220">
			<path id="Tracé_8641" d="M1.4,0C0.6,0,0,0.6,0,1.4v3c0,0.8,0.6,1.4,1.3,1.4c0.8,0,1.4-0.6,1.4-1.3c0,0,0,0,0-0.1v-3
				C2.7,0.6,2.1,0,1.4,0z"/>
		</g>
	</g>
	<g id="Groupe_13223" transform="translate(70.871 26.2)">
		<g id="Groupe_13222">
			<path id="Tracé_8642" d="M2.3,0.4c-0.5-0.5-1.4-0.5-1.9,0s-0.5,1.4,0,1.9s1.4,0.5,1.9,0c0.3-0.3,0.4-0.6,0.4-1
				C2.7,1,2.6,0.7,2.3,0.4z"/>
		</g>
	</g>
	<g id="Groupe_13225" transform="translate(73.139 38.939)">
		<g id="Groupe_13224">
			<path id="Tracé_8643" d="M4.4,0h-3C0.6,0,0,0.6,0,1.4c0,0.7,0.6,1.3,1.3,1.3h3c0.8,0,1.4-0.6,1.3-1.4C5.7,0.6,5.1,0,4.4,0z"/>
		</g>
	</g>
	<g id="Groupe_13227" transform="translate(70.871 51.678)">
		<g id="Groupe_13226">
			<path id="Tracé_8644" d="M2.3,0.4c-0.5-0.5-1.4-0.5-1.9,0s-0.5,1.4,0,1.9c0.5,0.5,1.4,0.5,1.9,0c0.3-0.3,0.4-0.6,0.4-1
				C2.7,1,2.6,0.7,2.3,0.4z"/>
		</g>
	</g>
	<g id="Groupe_13229" transform="translate(58.131 53.947)">
		<g id="Groupe_13228">
			<path id="Tracé_8645" d="M1.4,0C0.6,0,0,0.6,0,1.4l0,0v3c0,0.8,0.6,1.4,1.3,1.4s1.4-0.6,1.4-1.3c0,0,0,0,0-0.1v-3
				C2.7,0.6,2.1,0,1.4,0z"/>
		</g>
	</g>
	<g id="Groupe_13231" transform="translate(45.392 51.678)">
		<g id="Groupe_13230" transform="translate(0)">
			<path id="Tracé_8646" d="M2.3,0.4c-0.5-0.5-1.4-0.5-1.9,0s-0.5,1.4,0,1.9c0.5,0.5,1.4,0.5,1.9,0c0.3-0.3,0.4-0.6,0.4-1
				C2.7,1,2.6,0.7,2.3,0.4z"/>
		</g>
	</g>
	<g id="Groupe_13233" transform="translate(40.115 38.939)">
		<g id="Groupe_13232">
			<path id="Tracé_8647" d="M4.4,0h-3C0.6,0,0,0.6,0,1.4c0,0.7,0.6,1.3,1.3,1.3h3c0.8,0,1.4-0.6,1.4-1.3S5.2,0,4.4,0
				C4.4,0,4.4,0,4.4,0z"/>
		</g>
	</g>
	<g id="Groupe_13235" transform="translate(45.392 26.2)">
		<g id="Groupe_13234" transform="translate(0)">
			<path id="Tracé_8648" d="M2.3,0.4c-0.5-0.5-1.4-0.5-1.9,0s-0.5,1.4,0,1.9s1.4,0.5,1.9,0c0.3-0.3,0.4-0.6,0.4-1
				C2.7,1,2.6,0.7,2.3,0.4z"/>
		</g>
	</g>
	<g id="Groupe_13237" transform="translate(54.849 29.228)">
		<g id="Groupe_13236" transform="translate(0)">
			<path id="Tracé_8649" d="M15.3,0.4c-0.4-0.4-1.1-0.5-1.7-0.2L2.4,7C2.2,7.1,2.1,7.2,2,7.3c-2.1,1.5-2.6,4.4-1.1,6.5
				c1.5,2.1,4.4,2.6,6.5,1.1c0.4-0.3,0.8-0.7,1.1-1.1c0.1-0.1,0.2-0.3,0.3-0.4l6.8-11.3C15.9,1.5,15.8,0.8,15.3,0.4z M6.3,12
				l-0.1,0.2c-0.6,0.9-1.8,1.1-2.7,0.5c-0.9-0.6-1.1-1.8-0.5-2.7c0.1-0.2,0.3-0.4,0.5-0.5l0.2-0.1c0.9-0.5,2.1-0.1,2.6,0.8
				C6.6,10.7,6.6,11.4,6.3,12z M8.5,8.4C8.2,8,7.8,7.6,7.3,7.3l3-1.8L8.5,8.4z"/>
		</g>
	</g>
	<g id="Groupe_13239" transform="translate(35.808 16.616)">
		<g id="Groupe_13238">
			<path id="Tracé_8650" d="M23.7,0C10.6,0,0,10.6,0,23.7c0,13.1,10.6,23.7,23.7,23.7s23.7-10.6,23.7-23.7c0,0,0,0,0,0
				C47.4,10.6,36.8,0,23.7,0z M23.7,44.6c-11.6,0-21-9.4-21-21c0-11.6,9.4-21,21-21c11.6,0,21,9.4,21,21l0,0
				C44.6,35.3,35.3,44.6,23.7,44.6L23.7,44.6z"/>
		</g>
	</g>
	<g id="Groupe_13241" transform="translate(38.172 18.813)">
		<g id="Groupe_13240" transform="translate(0)">
			<path id="Tracé_8651" d="M2.3,0.4c-0.5-0.5-1.4-0.5-1.9,0c-0.5,0.5-0.5,1.4,0,1.9c0.5,0.5,1.4,0.5,1.9,0c0.3-0.3,0.4-0.6,0.4-1
				C2.7,1,2.6,0.7,2.3,0.4z"/>
		</g>
	</g>
</g>
</svg>
