<?xml version="1.0" encoding="utf-8"?>
<!-- Generator: Adobe Illustrator 26.5.0, SVG Export Plug-In . SVG Version: 6.00 Build 0)  -->
<svg version="1.1" id="Calque_1" xmlns="http://www.w3.org/2000/svg" xmlns:xlink="http://www.w3.org/1999/xlink" x="0px" y="0px"
	 viewBox="0 0 73.3 70" style="enable-background:new 0 0 73.3 70;" xml:space="preserve">
<g id="ski-2" transform="translate(0 -11.381)">
	<g id="Groupe_13209" transform="translate(0 11.381)">
		<g id="Groupe_13208" transform="translate(0 0)">
			<path id="Tracé_8635" d="M72.6,6.9c-1.1-1.6-3.4-2.1-5-0.9c-0.8,0.5-1.3,1.4-1.5,2.3c0,2.1,0.2,4.1,0.6,6.1l-0.2,0
				c-0.7-0.1-1.5,0.4-1.6,1.1l-2.1,11.4l-0.1,0c-0.7-0.1-1.5,0.4-1.6,1.1s0.4,1.5,1.1,1.6l2.2,0.4l-3.1,16.8
				c-3.5-1.2-7-2.2-10.6-2.7l2.5-11.5l0,0l0.7-3.4v0l0-0.1l1.7-8.1v0v0l2.2-10c0.6-3,0.4-6-0.8-8.8c-0.6-1.6-2.5-2.4-4.1-1.8
				c-0.4,0.2-0.7,0.4-1,0.7c-2.2,2.1-3.7,4.8-4.3,7.8l-3.9,18.2c0,0,0,0,0,0l-0.7,3.4l0,0L40.2,43c-2.4-0.1-4.8-0.1-7.1,0l-1-4.4v0
				l-1.8-8.2l0,0c0,0,0,0,0,0l-0.7-3.4c0,0,0,0,0,0L25.7,8.6c-0.6-3-2.1-5.7-4.3-7.8c-1.3-1.2-3.3-1.2-4.5,0.1
				c-0.3,0.3-0.5,0.6-0.7,1c-1.1,2.8-1.4,5.9-0.8,8.8l2.2,10v0c0,0,0,0,0,0l1.7,8.1l0,0.1v0l0.7,3.4l0,0L22.6,44
				c-3.6,0.6-7.2,1.5-10.7,2.7L8.9,29.9l2.2-0.4c0.7-0.1,1.2-0.9,1.1-1.6s-0.9-1.2-1.6-1.1l-0.1,0L8.4,15.5
				c-0.1-0.7-0.9-1.2-1.6-1.1l-0.2,0c0.4-2,0.6-4.1,0.6-6.2C6.8,6.3,4.9,5,2.9,5.4C1,5.8-0.3,7.6,0.1,9.6c0.7,1.9,1.6,3.8,2.7,5.6
				l-0.2,0c-0.7,0.1-1.2,0.9-1.1,1.6l2.1,11.4l-0.1,0c-0.7,0.1-1.2,0.9-1.1,1.6s0.9,1.2,1.6,1.1l2.2-0.4l3.2,17.4
				c-2.5,1.1-4.9,2.5-7,4.3c-0.6,0.2-1,0.7-1,1.3v15.2c0,0.8,0.6,1.4,1.4,1.4c0,0,0,0,0,0h67.5c0.8,0,1.4-0.6,1.4-1.4V54.1
				c0.2-0.8-0.2-1.6-1-2c-2-1.8-4.3-3.2-6.8-4.3l3.2-17.4l2.2,0.4c0.7,0.1,1.5-0.4,1.6-1.1s-0.4-1.5-1.1-1.6l-0.1,0l2.1-11.4
				c0.1-0.7-0.4-1.5-1.1-1.6l-0.2,0c1.1-1.8,2-3.6,2.7-5.6C73.4,8.6,73.2,7.7,72.6,6.9z M2.8,9.1C2.7,8.6,3,8.2,3.5,8.1
				c0.5-0.1,0.9,0.2,1,0.7c0,1.1-0.1,2.2-0.3,3.2C3.6,11.1,3.2,10.1,2.8,9.1L2.8,9.1z M7,27.5L7,27.5L7,27.5l-0.8,0.1l-1.8-10
				l0.8-0.1l0,0L6,17.3l1.8,10L7,27.5z M50.3,9.2c0.5-2.4,1.7-4.6,3.5-6.4c0.1-0.1,0.2-0.1,0.3-0.1c0.2,0,0.3,0.1,0.4,0.3
				c0.9,2.3,1.1,4.8,0.6,7.2L53.2,19l-4.8-1L50.3,9.2z M47.8,20.6l4.8,1L52.1,24c-1.3-1.1-3.1-1.5-4.8-1L47.8,20.6z M45.6,30.9
				l0.7-3.4l0,0c0.3-1.3,1.6-2.2,2.9-1.9c1.3,0.3,2.2,1.6,1.9,2.9l-0.7,3.5l0,0c-0.3,1.3-1.6,2.1-2.9,1.8
				C46.2,33.5,45.4,32.2,45.6,30.9L45.6,30.9z M44.7,35.4c0.7,0.6,1.4,0.9,2.3,1.1c0.4,0.1,0.7,0.1,1.1,0.1c0.5,0,1-0.1,1.4-0.2
				L49,38.8l-4.8-1L44.7,35.4z M42.7,44.7L42.7,44.7l0.9-4.2l4.8,1l-1.7,8c-1.7-0.2-3.5-0.1-5.1,0.4L42.7,44.7z M39.6,45.7l-1.2,5.4
				c-0.7,0.3-1.3,0.7-1.9,1.2c-0.6-0.4-1.1-0.7-1.8-1.1l-1.2-5.5C35.6,45.6,37.6,45.6,39.6,45.7z M29.7,40.4l2,9.4
				c-1.7-0.5-3.4-0.7-5.1-0.5l-1.7-7.9L29.7,40.4z M29.1,37.8l-4.8,1l-0.5-2.4c0.5,0.1,0.9,0.2,1.4,0.2c0.4,0,0.7,0,1.1-0.1
				c0.8-0.2,1.6-0.6,2.3-1.1L29.1,37.8z M20.1,19l-1.9-8.7c-0.5-2.4-0.3-4.9,0.6-7.2c0.1-0.2,0.2-0.3,0.4-0.3c0.1,0,0.2,0,0.3,0.1
				c1.8,1.7,3,3.9,3.5,6.4l1.9,8.7L20.1,19z M20.6,21.7l4.8-1L26,23c-1.7-0.5-3.5-0.1-4.8,1L20.6,21.7z M22.1,28.5L22.1,28.5
				c-0.3-1.4,0.6-2.7,1.9-3c1.3-0.2,2.6,0.6,2.9,1.9v0l0.7,3.4v0c0.3,1.3-0.6,2.6-1.9,2.9c-1.3,0.3-2.6-0.6-2.9-1.9l0,0L22.1,28.5z
				 M68.9,54.2v13.1H4.2V54.2c1.7-1.5,3.6-2.7,5.7-3.6l1.9,10.2L10.3,61c-0.7,0.1-1.2,0.9-1.1,1.6s0.9,1.2,1.6,1.1l5.7-1
				c0.7-0.1,1.2-0.9,1.1-1.6s-0.9-1.2-1.6-1.1l-1.5,0.3l-2-10.7c3.5-1.3,7.1-2.2,10.7-2.8l0.7,3.3c-1.7,0.6-3.3,1.6-4.6,2.9
				c-0.6,0.5-0.6,1.4-0.1,1.9c0.5,0.6,1.4,0.6,1.9,0.1l0,0c1.3-1.3,2.9-2.2,4.7-2.6c2.4-0.5,5-0.2,7.2,1c0.9,0.5,1.8,1,2.7,1.7
				c0.4,0.4,1.1,0.4,1.6,0.2l0,0c0,0,0.1,0,0.1-0.1l0,0c0,0,0,0,0.1-0.1l0,0c0.9-0.7,1.8-1.3,2.8-1.7c2.2-1.1,4.7-1.4,7.1-0.9
				c1.7,0.5,3.3,1.4,4.6,2.6c0.6,0.5,1.4,0.5,1.9-0.1c0.5-0.6,0.5-1.4-0.1-1.9l0,0c-1.3-1.2-2.8-2.2-4.5-2.8l0.7-3.4
				c3.7,0.6,7.2,1.5,10.7,2.8l-2,10.7L57.3,60c-0.7-0.1-1.5,0.4-1.6,1.1s0.4,1.5,1.1,1.6l5.7,1c0.7,0.1,1.5-0.4,1.6-1.1
				c0.1-0.7-0.4-1.5-1.1-1.6l-1.5-0.3l1.9-10.1C65.4,51.5,67.3,52.7,68.9,54.2z M67,27.6l-0.8-0.1h0l-0.8-0.1l1.8-10l0.8,0.1l0,0
				l0.8,0.1L67,27.6z M70.5,9.1c-0.4,1-0.9,2-1.4,2.9c-0.2-1.1-0.3-2.1-0.3-3.2c0.1-0.5,0.6-0.8,1-0.7C70.3,8.2,70.6,8.6,70.5,9.1
				L70.5,9.1z"/>
		</g>
	</g>
	<g id="Groupe_13211" transform="translate(21.899 73.432)">
		<g id="Groupe_13210">
			<path id="Tracé_8636" d="M9.8,0H1.4C0.6,0,0,0.6,0,1.4s0.6,1.4,1.4,1.4l0,0h8.5c0.8,0,1.4-0.6,1.4-1.4S10.6,0,9.8,0z"/>
		</g>
	</g>
	<g id="Groupe_13213" transform="translate(34.127 73.432)">
		<g id="Groupe_13212">
			<path id="Tracé_8637" d="M1.3,0C0.6,0,0,0.7,0,1.4c0,0.7,0.6,1.3,1.3,1.3c0.8,0,1.4-0.7,1.3-1.4C2.7,0.6,2.1,0,1.3,0z"/>
		</g>
	</g>
</g>
</svg>
