<?xml version="1.0" encoding="utf-8"?>
<!-- Generator: Adobe Illustrator 26.5.0, SVG Export Plug-In . SVG Version: 6.00 Build 0)  -->
<svg version="1.1" id="Calque_1" xmlns="http://www.w3.org/2000/svg" xmlns:xlink="http://www.w3.org/1999/xlink" x="0px" y="0px"
	 viewBox="0 0 69.6 70" style="enable-background:new 0 0 69.6 70;" xml:space="preserve">
<g id="yes" transform="translate(-1.454 -0.001)">
	<g id="Groupe_13242" transform="translate(1.454 0.001)">
		<path id="Tracé_8652" d="M68.1,21.2c-0.9-0.9-2-1.4-3.2-1.5c0.1-0.4,0.1-0.8,0.1-1.2c0-2.7-2-5-4.7-5.3c0.7-2.8-1-5.7-3.8-6.5
			c-0.9-0.2-1.8-0.2-2.6,0c-0.3-2.7-2.6-4.7-5.3-4.7l0,0c-1.4,0-2.8,0.6-3.8,1.6l-1.3,1.3C39.1,3.5,34.5,3,30,3.4
			c-1.3-1.1-2.7-2.1-4.3-2.7C21-1.2,18.9,1.2,18.4,2c-1,1.5-1.1,3.3-0.3,4.9c-1.2,0.6-2.3,1.3-3.4,2c-0.6,0.4-0.8,1.3-0.4,1.9
			c0.4,0.6,1.3,0.8,1.9,0.4c1.1-0.8,2.3-1.5,3.6-2.1c2.1,2.4,5.2,6.8,4.4,11c-0.4,2.8-0.5,5.6-0.3,8.4c-0.2,0-0.4,0-0.5,0
			c-1.1,0-2.2,0.4-3,1.2L4.2,45.9C1.3,37,2.7,27.3,8,19.5c0.4-0.6,0.3-1.5-0.4-1.9C7,17.2,6.1,17.4,5.7,18l0,0
			c-10.3,15.3-6.3,36,9,46.3c15.3,10.3,36,6.3,46.3-9c4.9-7.2,6.7-16.1,5.1-24.7l1.9-1.9C70.1,26.7,70.1,23.3,68.1,21.2L68.1,21.2z
			 M41.2,7l-5,5l0-0.1c-1-2.1-2.2-4.1-3.7-5.9C35.4,5.9,38.3,6.3,41.2,7L41.2,7z M22.3,31.6c0.6-0.6,1.5-0.6,2.1,0L41.8,49l0,0
			c0.6,0.6,0.6,1.5,0,2.1l-5.2,5.2L17.1,36.8L22.3,31.6z M5.2,48.7l10-10l19.5,19.5l-8.3,8.3C16.9,64.3,9.1,57.7,5.2,48.7z M55,58.3
			c-5.7,5.8-13.5,9-21.7,9c-1.2,0-2.4-0.1-3.6-0.2l14-14c1.2-1.2,1.6-3.1,0.8-4.7c1.3-1,2.8-1.8,4.3-2.5c2.1-0.9,4.1-2.2,5.8-3.7
			l9.1-9.1C64.9,42.3,61.7,51.7,55,58.3L55,58.3z M66.1,26.8L52.8,40.2c-1.5,1.3-3.2,2.4-5.1,3.2c-1.7,0.8-3.3,1.7-4.8,2.8
			L26.7,30.1c0-0.5,0-1-0.1-1.5c-0.2-2.7-0.2-5.3,0.2-8c1.2-6.1-3.8-12-6-14.3c-0.7-0.8-0.8-1.9-0.3-2.8c0.7-1,2.1-1.1,4-0.3
			c5.6,2.3,8.9,9.5,9,9.8c0.3,0.9,0.9,1.6,1.7,1.9c0.1,0,0.1,0.1,0.2,0.1c0.5,0.3,1.2,0.2,1.7-0.2l9.4-9.4c1-1,2.7-1,3.7,0.1
			c1,1,1,2.6,0,3.6c-0.6,0.5-0.6,1.4-0.1,1.9c0.5,0.6,1.4,0.6,1.9,0.1c0,0,0.1-0.1,0.1-0.1l1-1c1-1,2.7-1,3.7,0.1c1,1,1,2.6,0,3.6
			l-1,1l0,0c-0.5,0.5-0.5,1.4,0,1.9c0.5,0.5,1.4,0.5,1.9,0l0,0c1-1,2.7-1,3.7,0.1c1,1,1,2.6,0,3.6l-0.9,0.9c-0.5,0.5-0.5,1.4,0,1.9
			c0.5,0.5,1.4,0.5,1.9,0l0,0c1.1-1,2.7-0.9,3.7,0.2C67,24.3,67,25.8,66.1,26.8z"/>
		<path id="Tracé_8653" d="M22.2,37.6c0.6,0.5,1.4,0.5,1.9-0.1c0.5-0.6,0.5-1.4-0.1-1.9c-0.6-0.5-1.4-0.5-1.9,0.1c0,0,0,0,0,0l0,0
			C21.6,36.2,21.7,37.1,22.2,37.6C22.2,37.6,22.2,37.6,22.2,37.6z"/>
		<path id="Tracé_8654" d="M10.7,15.4c0.8,0,1.4-0.6,1.4-1.4s-0.6-1.4-1.4-1.4l0,0c-0.8,0-1.4,0.6-1.4,1.4S10,15.4,10.7,15.4z"/>
	</g>
</g>
</svg>
