<?xml version="1.0" encoding="utf-8"?>
<!-- Generator: Adobe Illustrator 27.0.1, SVG Export Plug-In . SVG Version: 6.00 Build 0)  -->
<svg version="1.1" id="Calque_1" xmlns="http://www.w3.org/2000/svg" xmlns:xlink="http://www.w3.org/1999/xlink" x="0px" y="0px"
	 viewBox="0 0 220 60" style="enable-background:new 0 0 220 60;" xml:space="preserve">
<style type="text/css">
	.st0{fill:#FFDA0A;}
</style>
<path class="st0" d="M186.5,50.8H33.5c-4.7,0-8.5-4.5-8.5-10V19.2c0-5.5,3.8-10,8.5-10h153.1c4.7,0,8.5,4.5,8.5,10v21.6
	C195,46.3,191.2,50.8,186.5,50.8z"/>
<g>
	<path d="M49.2,23.4c0.9,0.3,1.7,0.8,2.4,1.4c0.7,0.6,1.2,1.3,1.6,2.2c0.4,0.8,0.6,1.7,0.6,2.7c0,1.1-0.2,2-0.5,2.9
		c-0.4,0.9-0.9,1.7-1.5,2.3c-0.7,0.6-1.4,1.2-2.3,1.5c-0.9,0.4-1.9,0.5-2.9,0.5c-1,0-2-0.2-2.9-0.5c-0.9-0.4-1.7-0.9-2.3-1.5
		c-0.7-0.7-1.2-1.4-1.5-2.3c-0.4-0.9-0.5-1.9-0.5-2.9c0-1,0.2-1.9,0.6-2.7c0.4-0.8,0.9-1.6,1.6-2.2c0.7-0.6,1.5-1.1,2.4-1.4
		c0.9-0.3,1.8-0.5,2.7-0.5C47.4,22.9,48.3,23.1,49.2,23.4z M45,26.6c-0.5,0.2-0.9,0.4-1.2,0.8c-0.4,0.3-0.6,0.7-0.8,1.1
		c-0.2,0.4-0.3,0.9-0.3,1.3c0,0.6,0.1,1.1,0.3,1.6c0.2,0.5,0.5,0.9,0.8,1.3c0.3,0.4,0.7,0.6,1.2,0.8c0.5,0.2,0.9,0.3,1.4,0.3
		s1-0.1,1.4-0.3c0.5-0.2,0.9-0.5,1.2-0.8c0.3-0.4,0.6-0.8,0.8-1.3c0.2-0.5,0.3-1,0.3-1.6c0-0.4-0.1-0.9-0.3-1.3
		c-0.2-0.4-0.5-0.8-0.8-1.1c-0.3-0.3-0.7-0.6-1.2-0.8c-0.5-0.2-0.9-0.3-1.4-0.3S45.5,26.4,45,26.6z"/>
	<path d="M55.2,23.4h3.4l6.3,8.1h0v-8.1h3.4v13.2H65l-6.3-8.1h0v8.1h-3.4V23.4z"/>
	<path d="M73.9,33.7H78v2.9h-7.6V23.4h3.4V33.7z"/>
	<path d="M82.4,36.6H79V23.4h3.4V36.6z"/>
	<path d="M84.5,23.4h3.4l6.3,8.1h0v-8.1h3.4v13.2h-3.4L88,28.5h0v8.1h-3.4V23.4z"/>
	<path d="M103.2,26.3v2.2h3.9v2.9h-3.9v2.3h4.1v2.9h-7.5V23.4h7.5v2.9H103.2z"/>
	<path d="M126.1,36.6h-4.3l-3.2-5.1h0v5.1h-3.4V23.4h5.1c1.4,0,2.5,0.3,3.3,1c0.8,0.7,1.3,1.7,1.3,3.1c0,0.9-0.3,1.8-0.8,2.5
		c-0.5,0.7-1.2,1.1-2.1,1.3L126.1,36.6z M118.6,29.3h0.3c0.3,0,0.6,0,0.9-0.1c0.3,0,0.5-0.1,0.8-0.2c0.2-0.1,0.4-0.3,0.5-0.5
		c0.1-0.2,0.2-0.5,0.2-0.8c0-0.3-0.1-0.6-0.2-0.8c-0.1-0.2-0.3-0.4-0.5-0.5c-0.2-0.1-0.5-0.2-0.8-0.2c-0.3,0-0.6-0.1-0.9-0.1h-0.3
		V29.3z"/>
	<path d="M130.3,26.3v2.2h3.9v2.9h-3.9v2.3h4.1v2.9h-7.5V23.4h7.5v2.9H130.3z"/>
	<path d="M136.4,23.4h3.4l6.3,8.1h0v-8.1h3.4v13.2h-3.4l-6.3-8.1h0v8.1h-3.4V23.4z"/>
	<path d="M156.9,36.6h-3.4V26.3h-2.8v-2.9h9.1v2.9h-2.8V36.6z"/>
	<path d="M163.1,34.3l-0.9,2.3h-3.7l5.1-13.2h3.8l5,13.2h-3.7l-0.9-2.3H163.1z M165.5,27.5L165.5,27.5l-1.5,4.2h2.9L165.5,27.5z"/>
	<path d="M176.7,33.7h4.1v2.9h-7.6V23.4h3.4V33.7z"/>
</g>
</svg>
