<?xml version="1.0" encoding="utf-8"?>
<!-- Generator: Adobe Illustrator 26.5.0, SVG Export Plug-In . SVG Version: 6.00 Build 0)  -->
<svg version="1.1" id="Calque_1" xmlns="http://www.w3.org/2000/svg" xmlns:xlink="http://www.w3.org/1999/xlink" x="0px" y="0px"
	 viewBox="0 0 141.7 141.7" style="enable-background:new 0 0 141.7 141.7;" xml:space="preserve">
<style type="text/css">
	.st0{fill:#221F1F;}
</style>
<g>
	<path class="st0" d="M71.5,37.1c-34,0-45.8,19.3-45.8,19.3v7.2c0,2.2,1.8,4,4,4h15.7c2.2,0,4-1.8,4-4v-7.2c0,0,7.1-7.3,22.1-7.3
		S92,56.4,92,56.4v7.2c0,2.2,1.8,4,4,4h15.7c2.2,0,4-1.8,4-4v-7.2C115.8,56.4,105.5,37.1,71.5,37.1z"/>
	<path class="st0" d="M99.3,71.2L99.3,71.2h-3.1c-5.1,0-9.3-4.2-9.3-9.3v-4c0-0.4-0.1-0.8-0.4-1c-0.1-0.1-0.3-0.3-0.5-0.3
		c-1.3-0.7-7.2-3.4-15.3-3.4s-14,2.8-15.3,3.4c-0.2,0.1-0.3,0.2-0.5,0.3c-0.3,0.3-0.4,0.7-0.4,1v4c0,5.1-4.2,9.3-9.3,9.3h-3.1l0,0
		L30.7,89.5c-0.2,0.2-0.2,0.5-0.2,0.8v13.1c0,0.9,0.7,1.6,1.6,1.6h38.6h38.6c0.9,0,1.6-0.7,1.6-1.6V90.3c0-0.3-0.1-0.6-0.2-0.8
		L99.3,71.2z M70.7,96.4c-7.7,0-14-6.3-14-14s6.3-14,14-14s14,6.3,14,14C84.8,90.1,78.5,96.4,70.7,96.4z"/>
	<circle class="st0" cx="70.7" cy="82.6" r="10.1"/>
</g>
</svg>
