<?xml version="1.0" encoding="utf-8"?>
<!-- Generator: Adobe Illustrator 26.3.1, SVG Export Plug-In . SVG Version: 6.00 Build 0)  -->
<svg version="1.1" id="Calque_1" xmlns="http://www.w3.org/2000/svg" xmlns:xlink="http://www.w3.org/1999/xlink" x="0px" y="0px"
	 viewBox="0 0 283.5 283.5" style="enable-background:new 0 0 283.5 283.5;" xml:space="preserve">
<style type="text/css">
	.st0{fill-rule:evenodd;clip-rule:evenodd;fill:#FFFFFF;}
	.st1{fill:#E6222E;}
</style>
<g>
	<g>
		<path class="st0" d="M125.2,56.1c-3.9,1.9-7.9-1.1-11.1-2.6c3.9,0,8.8,1.2,9.8-3.4c1.5-7-3.1-22.5-6.4-26.6
			c-2.2-2.7-6.5-5.3-11.2-4.3c-5.5,1.2-9.7,7.9-9.8,15.6c-0.1,7.5,1.7,14.2,6.5,17c-2,2.6-6.6,0.9-7.7-1.5c-1,2.8-3.3,5.2-7,4.5
			c2.1-2.8,4.1-5.4,4.3-10.6c0.3-7.8-1.1-17.3-7.2-16.4c-3.1,0.4-8.5,4.7-6.9,9.2c1.3,3.6,4.3,5.5,4,11.3c-0.3,4.9-2.7,7.1-5.2,10.4
			c2.5-5.7,2.8-20.2-5.9-19c-0.8,0.1-2.7,1-3.5,2.1c-0.7,0.9-2,4-1.6,5.5c0.4,1.7,2.9,1.9,4,3.3c2.9,6.7,2.1,10.8,0.2,15.9
			c-0.8,2.1-3.4,7.5-8.7,6.1c4.8-0.9,5.4-7.4,6.3-12.2c1.7-9-8.6-11.9-11-4.6c-0.4,0.1-0.7-1-1.2-1.2c-0.8-0.3,0.9,1.2,0.9,1.2
			c0.1,0.6-1.7,3.3-2,6.6c-0.2,2.4,0.1,4,0.2,6.2c1.7,1.2,4.5,4,5,7c0.2,1.5,0.3,4-1,4.3c0.1,0.9,0.6-0.9,0.7,0
			c-2,5.9-4.4,5.7-7.7,10.2c-1-6.1,6.3-7.6,3.2-14.8c-1.1-2.7-4.8-4.1-7-1.5c-3.6,4.3-5.1,13.8-5.7,21.2c-3.4-10.3-2-26,8-27.2
			c-0.3-4.5,0.3-9.4,1.6-12.8c0.4-1,5.4-7.9,9.6-8.1c1.1-6.9,3.6-12.4,12-11.9c0.1-9.6,13.7-17,19.5-8.5c0.9-2.5,2.4-4.4,3.6-6.6
			c2.4-2,4.5-4.3,7.5-5.3c10.8-3.6,19.6,7.4,22,16.9c0.3,1.2,1.8,9.2,1.8,10.7C127.9,47,128.1,54.7,125.2,56.1z"/>
		<path class="st0" d="M58,163.5c1,0.1,2.1-2.9,3.3-2.6c3.9,9.4,3.1,21.1,5,31.4c2.2,11.9,6.2,21.2,14.3,26.5
			c0.9,0.6,7.2,3.5,10.3,3.9c12.9,1.8,24-5.3,28.4-13c4.4-7.8,3.5-19.7,0.9-29.8c-3.2-12.3-7-24.6-6.7-40.1
			c0.2-11,2.9-20.5,5.9-28.2c4.3-11.1,12.2-26.6,5.4-41.5c-3.5-7.7-11.4-13.2-22.8-12c-10.4,1.1-22.6,9.7-25,12.9
			C73.5,74.7,59,88.9,48.7,94.5C60.7,85,70.2,69.2,82.6,61c5.9-3.9,14-7.5,24.8-7.2c4.3,0.1,7.7,1.2,10.9,3c9.2,5,15.5,18.3,13,34.5
			c-0.6,3.9-2.3,8.1-3.8,11.9c-4.6,11.1-9.2,21.2-9.7,36.9c-0.3,10.3,1.6,20.2,4,28.7c3.3,12.1,7.9,28.3,2.9,40.2
			c-1.2,2.9-4,6.6-5.6,8.3c-2.6,2.8-7.1,6-10.3,7.4c-12.1,5.2-26,2.4-34.2-4.6c-6.7-6.3-10.7-15.8-12.5-27.5
			c-1.2-7.8-1.4-16.4-3.2-24.7c-1.4-6.9-5.1-13.3-8.2-19.3c-3.2-6.3-7.1-12.2-9.2-17.9c-4.1-11.3-1.7-22.7,2-32.7
			c-0.7,11.6-2.8,18.3,0.5,27.6c2.3,6.3,6,11.5,8.8,17c3,5.8,6.1,11.4,8.3,17.3C61.4,160.9,58.7,162.5,58,163.5z"/>
	</g>
	<g>
		<path class="st0" d="M169.5,92.9c3.8,2.2,7.9-0.5,11.3-1.8c-3.9-0.3-8.9,0.6-9.5-4c-1-7.1,4.6-22.3,8.3-26
			c2.4-2.5,6.9-4.8,11.5-3.5c5.4,1.6,9.1,8.6,8.7,16.2c-0.4,7.5-2.7,14.1-7.7,16.5c1.9,2.7,6.5,1.3,7.8-0.9c0.8,2.9,2.9,5.5,6.7,5
			c-1.9-2.9-3.8-5.6-3.6-10.9c0.3-7.8,2.4-17.2,8.3-15.9c3,0.7,8.1,5.2,6.2,9.7c-1.5,3.5-4.7,5.2-4.8,11c-0.1,4.9,2.2,7.2,4.5,10.8
			c-2.1-5.9-1.4-20.4,7.2-18.5c0.8,0.2,2.6,1.2,3.4,2.4c0.6,1,1.7,4.1,1.2,5.6c-0.6,1.6-3,1.7-4.2,3.1c-3.4,6.4-2.9,10.6-1.4,15.9
			c0.6,2.1,2.9,7.7,8.2,6.7c-4.7-1.2-4.9-7.8-5.5-12.6c-1-9.1,9.4-11.3,11.3-3.8c0.4,0.2,0.8-1,1.3-1.1c0.8-0.3-1,1.1-1,1.1
			c-0.1,0.6,1.5,3.4,1.5,6.7c0,2.4-0.4,4-0.7,6.2c-1.8,1.1-4.8,3.7-5.5,6.7c-0.4,1.4-0.6,4,0.7,4.3c-0.2,0.9-0.5-0.9-0.7-0.1
			c1.6,6,4,6,6.9,10.8c1.4-6-5.7-8-2.1-15c1.3-2.6,5.1-3.8,7.1-1c3.3,4.5,4.1,14.2,4.2,21.5c4.2-10.1,3.8-25.8-6-27.7
			c0.6-4.5,0.4-9.4-0.6-12.9c-0.3-1-4.9-8.3-9-8.8c-0.6-7-2.7-12.7-11.1-12.7c0.6-9.6-12.5-17.9-18.9-9.8c-0.7-2.6-2-4.6-3.1-6.9
			c-2.2-2.1-4.2-4.6-7.1-5.8c-10.5-4.4-20.1,6-23.2,15.3c-0.4,1.2-2.5,9-2.5,10.5C167.5,83.6,166.7,91.3,169.5,92.9z"/>
		<path class="st0" d="M228.9,204.9c-1,0-1.9-3-3.1-2.8c-4.6,9.1-4.6,20.9-7.2,30.9c-3,11.7-7.7,20.7-16.1,25.4
			c-0.9,0.5-7.4,2.9-10.5,3.2c-13,0.9-23.6-7-27.4-15c-3.8-8.1-2.1-19.9,1.2-29.8c4.1-12.1,8.7-24,9.5-39.5
			c0.6-11-1.5-20.6-3.9-28.5c-3.5-11.4-10.3-27.4-2.5-41.7c4-7.4,12.3-12.4,23.6-10.3c10.3,1.9,21.9,11.3,24,14.6
			c3.3,3.8,16.8,19.1,26.6,25.4c-11.2-10.3-19.6-26.8-31.4-35.9c-5.6-4.3-13.5-8.5-24.2-9c-4.3-0.2-7.7,0.7-11.1,2.2
			c-9.6,4.3-16.8,17.1-15.4,33.4c0.3,4,1.7,8.3,3,12.1c3.8,11.4,7.7,21.8,7,37.5c-0.5,10.3-3.1,20-6,28.4
			c-4.2,11.8-9.8,27.7-5.7,39.9c1,3,3.5,6.9,4.9,8.7c2.4,2.9,6.6,6.5,9.8,8.1c11.7,6,25.7,4.3,34.5-2.1c7.1-5.8,11.8-15,14.5-26.5
			c1.8-7.7,2.6-16.2,4.9-24.4c1.9-6.8,6-12.9,9.5-18.7c3.6-6,8-11.7,10.5-17.2c4.9-11,3.3-22.5,0.4-32.7
			c-0.1,11.7,1.5,18.5-2.5,27.5c-2.7,6.1-6.8,11.1-9.9,16.4c-3.4,5.6-6.9,11-9.5,16.6C225.6,202,228.3,203.8,228.9,204.9z"/>
	</g>
</g>
<g>
	<g>
		<g>
			<g>
				<g>
					<path class="st1" d="M155.8,82.1c0.7-0.1,1.3-0.2,1-0.1c1.3-0.3,1.4-0.3,1.5-0.4c0.9-0.2,1.8-0.3,0.8-0.1l2.5-0.5l-1.5,0.3
						c0.4-0.1,2.4-0.4,2.9-0.5l-2.7,0.5l0.1,0c-0.6,0.1-1.8,0.3-2.2,0.4c0.1,0,0,0,0.5-0.1c-3.3,0.6-0.9,0.3-3.6,0.8
						C155.3,82.2,155.5,82.2,155.8,82.1z"/>
					<path class="st1" d="M153,82.4c-0.4,0.1-0.6,0.2-0.9,0.3c-0.4,0.1-0.8,0.2-1.1,0.3c-0.1,0-1,0.3-0.5,0.2c0.1,0,0.4-0.1,0.6-0.1
						c-0.3,0.1-1.8,0.4-1.7,0.5c1.2-0.3,1.3-0.2,2.1-0.5c0.3-0.1,0.5-0.1,0.7-0.2c0.2-0.1,0.4-0.1,0.7-0.1c0.5-0.1,0.9-0.1,1.3-0.2
						c0.4-0.1,0.5-0.2,1-0.3c-0.1,0-0.2,0-0.4,0.1l-0.1-0.1c-0.4,0.1-0.9,0.2-1.3,0.3l2.2-0.5c-0.4,0-1.1,0.1-1.9,0.2
						c-0.4,0.1-0.8,0.1-1.1,0.2c-0.2,0-0.3,0.1-0.4,0.1c0.2,0,0.1,0,0.1,0c0,0,0,0,0,0C152.4,82.5,152.4,82.5,153,82.4z"/>
					<path class="st1" d="M155.1,82.3C155.1,82.3,155.1,82.3,155.1,82.3C155.1,82.3,155.1,82.3,155.1,82.3z"/>
					<path class="st1" d="M216.7,21.7c0.4-0.3,0.4-0.5,0.5-0.5l-4,3.7c0.1-0.1,1.3-1.1,0.6-0.4c0.4-0.3,1.4-1.3,1.5-1.5l-0.3,0.3
						c0.9-0.9,1.6-1.4,1-0.8l0.1-0.1l2.4-2.6C217.6,20.7,217.8,20.6,216.7,21.7z"/>
					<path class="st1" d="M229.8,64.9c0.7-0.2,0.8-0.3,0.7-0.2C230.2,64.8,230,64.9,229.8,64.9z"/>
					<path class="st1" d="M219.1,19.3l1.1-1.1C219.7,18.6,219.3,19.1,219.1,19.3z"/>
					<path class="st1" d="M214.3,25.3C214.3,25.3,214.3,25.3,214.3,25.3l0.4-0.4c0,0,0,0,0,0C214.5,25,214.4,25.2,214.3,25.3z"/>
					<path class="st1" d="M222,39c0,0.1,0,0.2,0,0.4C222,39.2,222,39.1,222,39z"/>
					<path class="st1" d="M204,36l1.7-1.8c-0.2,0.3,0.6-0.6,0.3-0.2c0.1-0.1,0.7-0.8,0.5-0.6l-0.3,0.4c0.8-1,0.2-0.5,1.7-2
						c-1,0.9-1.4,1.3-1.8,1.9c-0.2,0.2-0.3,0.3-0.4,0.5l-1.3,1.6L204,36z"/>
					<path class="st1" d="M257.4,54.8L257.4,54.8C257.4,54.8,257.4,54.8,257.4,54.8z"/>
					<path class="st1" d="M257,54.9l0.4,0C257.1,54.8,256.6,54.8,257,54.9z"/>
					<path class="st1" d="M218.8,19.6c0,0,0.1-0.1,0.3-0.3l-0.6,0.6C218.6,19.8,218.7,19.7,218.8,19.6z"/>
					<path class="st1" d="M217.6,21l-1.5,1.4l-0.5,0.6C216.1,22.4,216.8,21.8,217.6,21z"/>
					<path class="st1" d="M222.1,35.8c0,4.3-0.2-1.1-0.3,0.9c0,1.2,0.1,1.6,0.1,2.3c0-3.4,0.3,0.5,0.3-2.9c0.2,0.5,0.2,2.5,0.1,3.6
						c-0.2,1.3-0.1-1.2-0.3-1.5c0,1.4,0.1,1.1,0.1,1.7c-0.1,2.1,0.2,4.5-0.1,5.7c0,0.5,0,0.4,0,0.5c0,0,0,0.1,0,0.1c0,0,0.1,0,0.2,0
						c0.1-0.1,0.1-0.1,0.2-0.2l0,0l0,0c0,0,0-0.1,0-0.2c0-0.3,0-0.6,0.1-0.7c0,0.1-0.1,0.3-0.1,0.3l0-1.3c-0.1,1.3-0.2-0.2-0.2-0.9
						c0-0.5,0-1.5,0-1.3l0,0.8c0.1-1-0.2-2.1,0-3.2c0-0.1,0.1,0.3,0.1,0.4c-0.1-1.2-0.1-2.3-0.2-4l0.2,1c-0.2-1.4-0.1-4.4,0-6.5
						c0,0.2,0,0.7-0.1,0.4c0-1.2,0.1-2.2,0.1-1.6c-0.1-1.2,0.1-4.6,0.1-6.3l-0.1-1.9l0-0.2l0-0.3l0-0.8l0-1.5c0-0.5,0-0.9-0.1-1.3
						l0-0.6l0-0.2c0,0,0-0.1-0.1,0l-0.3,0.2c-0.7,0.7-1.4,1.3-2,2c0.3-0.3,0.6-0.6,0.9-0.9c0.7-0.4,1-0.7-0.2,0.4
						c0.6-0.5,0.8-0.7,1-1c0.1-0.1,0.1-0.1,0.2-0.2c0.1-0.1,0.2-0.3,0.2,0c0,0.3,0,0.7,0,1.3c0-0.8-0.1-0.9-0.2,1.3
						c0,0.7,0,1.3,0,1.9c0,0.5,0,1,0,1.4c0,0.9,0,1.8,0,2.7c0.1,1.8,0.1,3.5,0.2,5.5c-0.1,0.1-0.1,3.3-0.2,4.8
						c-0.1-0.6-0.1-1.7-0.1-2.9c0,0.7-0.1,2-0.1,3L222.1,35.8z"/>
					<path class="st1" d="M222,25.8l0,0.3C222,26,222,25.9,222,25.8z"/>
					<path class="st1" d="M222,32C222,32,222,32,222,32l0,0.4C222,32.3,222,32.1,222,32z"/>
					<path class="st1" d="M219.7,18.9c-0.2,0.2-0.3,0.4-0.6,0.6c0.1-0.1,0.3-0.3,0.4-0.4C219.7,18.9,219.8,18.9,219.7,18.9z"/>
					<path class="st1" d="M218.9,19.5l0.1-0.1c-0.1,0.1-0.1,0.1-0.2,0.2C218.8,19.6,218.8,19.6,218.9,19.5z"/>
					<path class="st1" d="M223.6,48.4l0.4,0C223.8,48.4,223.7,48.4,223.6,48.4z"/>
					<path class="st1" d="M221.9,40.5c0-1.5-0.2-0.2-0.1-2.3l0,0.6c0-1.5,0.1-4.1,0.1-5.9c0.1,0.2,0.1-1.1,0.2-0.9
						c0-1.2,0-2.4-0.1-3.1c0-0.8,0-1.9,0.1-2.9c-0.1,0.4-0.1-1.4-0.1,1c0-0.2,0-0.1,0-0.3c-0.1,1.5,0,2.1-0.1,3.4
						c-0.1,0.8,0-1.3-0.1-0.5c0,1.6-0.2,5.1,0,5c0,1.2-0.1,1.3-0.1,1.7c0.2,1.9-0.3,6.9,0.1,6.9c0-0.7,0-1.8,0-2.8L221.9,40.5z"/>
					<path class="st1" d="M221.9,17c0.1-0.1,0.2-0.2,0.2,0C222.1,16.7,221.9,16.9,221.9,17z"/>
					<path class="st1" d="M207.4,29.6l0.4-0.5c2.6-2.4,3.5-3.2,5.8-5.3c0.2-0.1-0.1,0.1-0.2,0.2c1.6-1.5,4-3.7,5.1-4.8
						c0.4-0.3,1-1,1.5-1.4c0.6-0.5,0.9-0.8,0.5-0.4c0.4-0.4,0.9-0.8,1.3-1.2c0.1,0-1,0.8-1,1c0.4-0.3,0.5-0.4,0.6-0.5
						c-0.6,0.6,0.6-0.4-2.2,2.2c-1.1,0.9,1.9-1.8,1.3-1.4c-1,0.9-0.8,0.9-0.9,0.9c-0.7,0.6-0.8,0.7-0.9,0.8c-0.1,0.1-0.1,0-0.1,0
						c-0.3,0.3-1.2,1.1-1.6,1.5c-1.4,1.4,0-0.1-0.9,0.7l-0.5,0.6l-1.6,1.4c-2.2,2.1,0.5-0.2-2.1,2.3c0.3-0.4-0.8,0.5-2,1.6
						c0.7-0.7,2-2,3-2.8c-1.4,1.2,1.8-1.7,1.1-1.1c-0.6,0.6-1.7,1.6-2.6,2.4l0.3-0.3c-0.9,0.8-1.5,1.5-2.8,2.6
						c-0.6,0.6-0.5,0.4-0.4,0.3C207.9,29.2,207.4,29.6,207.4,29.6z M208.7,28.4l0.8-0.7C209.4,27.8,209,28.1,208.7,28.4z"/>
					<path class="st1" d="M155.6,76.8c-0.1,0.1-0.2,0.2-0.2,0.2C155.5,77,155.5,76.9,155.6,76.8z"/>
					<path class="st1" d="M176.2,27.4l-0.5-0.4C175.9,27.2,176.1,27.3,176.2,27.4z"/>
					<path class="st1" d="M170.2,24.1l0.1,0.2C170.3,24.3,170.3,24.2,170.2,24.1z"/>
					<path class="st1" d="M160.8,70.9L160.8,70.9c0.1-0.1,0.1-0.1,0.1-0.1L160.8,70.9z"/>
					<path class="st1" d="M166.6,50.7c-0.1,0.2-0.1,0.5-0.2,0.8C166.4,51.5,166.5,51.2,166.6,50.7z"/>
					<polygon class="st1" points="170.2,24.1 170.2,24.1 170.2,24.1 					"/>
					<path class="st1" d="M180.6,32.2c0.1,0.1,0.2,0.2,0.3,0.2C180.8,32.3,180.7,32.3,180.6,32.2z"/>
					<path class="st1" d="M180.5,31c0.1,0.1,0.2,0.2,0.3,0.2L180.5,31z"/>
					<path class="st1" d="M199.4,40.2l0.6-0.6C199.7,39.8,199.5,40,199.4,40.2z"/>
					<path class="st1" d="M182.1,32.6c0,0,0.1,0,0.1,0.1C182.2,32.6,182.1,32.5,182.1,32.6z"/>
					<path class="st1" d="M151.5,80.5C151.5,80.5,151.5,80.5,151.5,80.5L151.5,80.5L151.5,80.5z"/>
					<path class="st1" d="M150.7,81.9c-0.1,0.1-0.2,0.3-0.3,0.4C150.6,82.2,150.6,82,150.7,81.9z"/>
					<path class="st1" d="M153.1,54.5c-0.3,0-0.6,0-0.5-0.1c-0.1,0.1-0.2,0.1-0.1,0.2c0,0,0.1,0,0.1,0c0,0,0.1,0,0.1,0
						C152.9,54.6,153,54.5,153.1,54.5z"/>
					<path class="st1" d="M153.1,76.3c-0.1,0.1-0.2,0.3-0.2,0.4C153.1,76.5,153.2,76.3,153.1,76.3z"/>
					<path class="st1" d="M152.9,76.8c-0.1,0.1-0.2,0.3-0.3,0.4C152.7,77,152.8,76.9,152.9,76.8z"/>
					<path class="st1" d="M158.3,50.1c0.1,0,0.2,0,0.3,0C158.5,50,158.4,50,158.3,50.1z"/>
					<path class="st1" d="M150.1,82.7c0,0-0.3,0.5-0.5,0.7c0.2,0,0.3-0.1,0.3-0.1c0,0-0.1,0-0.1,0c0-0.1,0.2-0.2,0.3-0.4
						c0.1,0,0.1,0,0,0.1c0,0.1-0.2,0.2,0,0.1c0.3,0,0.6-0.1,0.8-0.1c-0.2,0,0.3-0.1,0.2-0.1c-0.2,0-0.4,0.1-0.7,0.1
						c0-0.1,0.5-0.2,0.7-0.2c-0.2,0,0.5-0.1,0.2-0.2c-0.1,0-0.2,0-0.3,0l-0.2,0l-0.1,0c0,0,0,0,0,0c0.2-0.2,0.3-0.3,0.4-0.5
						c0.1-0.2,0.2-0.3,0.2-0.5l0.1-0.3l0.1-0.2c0-0.1,0.1-0.2,0.2-0.3l-0.2,0.2l-0.1,0.1l-0.2,0.2c-0.1,0.1-0.2,0.3-0.3,0.4
						c-0.2,0.3-0.6,0.6-0.9,0.9c0,0,0-0.1-0.1-0.1c0.9-0.7,0.9-1,1.4-1.6c-0.4,0.4-0.7,0.9-1.2,1.4c-0.9,0.8-0.5,0.4,0-0.3
						C150.3,82.5,150.2,82.6,150.1,82.7z"/>
					<path class="st1" d="M149.8,81.2L149.8,81.2c-0.1,0.1-0.1,0.1-0.1,0.2L149.8,81.2z"/>
					<path class="st1" d="M197.6,38.5l0.2-0.2C197.6,38.5,197.6,38.5,197.6,38.5z"/>
					<path class="st1" d="M151.6,80L151.6,80C151.6,80,151.6,80,151.6,80z"/>
					<path class="st1" d="M194.2,38.9C194.2,38.9,194.2,38.9,194.2,38.9C194.2,38.9,194.2,38.9,194.2,38.9z"/>
					<path class="st1" d="M190.7,40.1C190.8,40.2,190.7,40.2,190.7,40.1C190.9,40.3,190.8,40.2,190.7,40.1z"/>
					<path class="st1" d="M194.2,38.9C194.2,38.9,194.2,38.9,194.2,38.9C194.2,38.9,194.2,38.9,194.2,38.9z"/>
					<path class="st1" d="M167.4,16.2c0,0,0.1,0.1,0.3,0.4C167.7,16.5,167.7,16.5,167.4,16.2z"/>
					<path class="st1" d="M173.8,22C173.8,22,173.8,22,173.8,22L173.8,22z"/>
					<path class="st1" d="M154.9,55.4c0.3-0.1,0.6-0.1,0.8-0.2C155.4,55.2,155.1,55.3,154.9,55.4z"/>
					<path class="st1" d="M194.2,38.9c0.1,0,0.1,0.1,0.3,0.2C194.4,39,194.3,38.9,194.2,38.9z"/>
					<path class="st1" d="M166.6,27.4c0-0.1,0-0.1,0-0.2L166.6,27.4L166.6,27.4z"/>
					<path class="st1" d="M166,30.8c0-0.1,0-0.2-0.1-0.2c0,1.2-0.4,3.4-0.2,3.7c0-0.4,0.4-2.5,0.6-2.1c0-0.8,0.4-2.1,0.4-2.5
						c-0.3,1.4-0.2,0.1-0.2-0.8c0.2-0.8,0.2,0.2,0.3-0.5l0.2-2l-0.2,1.7l-0.2-0.5c0,0.1,0,0.1,0,0.2C166.4,30.5,166.2,27.8,166,30.8
						z"/>
					<path class="st1" d="M166,30.5c0-0.2,0-0.3,0-0.5C165.9,30.3,166,30.4,166,30.5z"/>
					<path class="st1" d="M164.2,42.3c0,0.1,0,0.3,0,0.5C164.2,42.7,164.2,42.5,164.2,42.3z"/>
					<path class="st1" d="M214.5,24c-0.1,0-1.3,1.1-1.3,1.2c0.4-0.3,0.7-0.7,1.1-1L214.5,24z"/>
					<path class="st1" d="M147.5,56.6l-0.4-0.3c0,0-0.1,0-0.1-0.1C147,56.3,147.3,56.5,147.5,56.6z"/>
					<path class="st1" d="M166.4,32.6c0-0.3,0-0.5,0-0.5C166.4,32.3,166.4,32.5,166.4,32.6z"/>
					<path class="st1" d="M146.8,56.6c0.1,0.1,0.3,0.4,0.2,0.4c0.4,0.3,0.9,0.5,1.4,0.8C147.9,57.5,147.4,57.1,146.8,56.6z"/>
					<path class="st1" d="M148.5,57.8C148.5,57.8,148.5,57.8,148.5,57.8L148.5,57.8z"/>
					<path class="st1" d="M215.3,23.3c0.1-0.1,0.2-0.2,0.3-0.3l-0.2,0.2l0.9-0.8c0.1-0.1,0.2-0.2,0.3-0.3c-0.1,0.1-0.1,0.1-0.1,0.1
						l0.3-0.3c0.3-0.3,0.9-0.9,1.4-1.5c0.6-0.6,1.1-1.1,1.4-1.4c0.4-0.4,0.8-0.8,1.2-1.2c0.4-0.4,0.8-0.7,1.1-1
						c-0.5,0.5-1.3,1.1-1.1,1c0.3-0.2,0.5-0.4,0.7-0.6c0.2-0.1,0.5-0.6,0.4,0c0,0.7-0.1,1.4-0.1,2.6l0.1-1.5l0,3.1c-0.1,1,0-1.4,0-2
						c0,0.3,0,0.6,0,0.9c0,0.3,0,0.5,0,0.8c0,0.5-0.1,1-0.1,1.4c-0.1,0.9-0.1,1.6-0.1,2.1c-0.1,0.1-0.2,0.4-0.3,1.9
						c0.2-1.1,0,0.9,0.2,0c0,0.5-0.1,1.6,0,1.7l0-0.1c-0.3,2.5-0.1,3.4,0,4.4c-0.1,3-0.2,4.4-0.3,6.9c-0.1,0.1-0.4,0.8-0.4,1.7
						c0.1,0.5,0.1,2.7,0.2,2.9c0.1-1.8-0.1-1.5-0.1-2.5c0.2-0.9,0.2-0.1,0.3-1.3c-0.1,1-0.1,4.4-0.3,5.4l0-0.3
						c-0.1,0.7-0.3,1.1-0.4,1.8c-0.5,0.9,0.6,0.8,1.8,0.9l1.3,0.1c-0.1,0-0.1,0-0.1,0c2.2,0.3,1.6,0.5,4,0.6c-0.2,0-0.1,0-0.3,0
						c1.4,0.3,2.8,0.3,3.8,0.4c0.6,0.3-0.2,0.2-0.6,0.2c2.4,0.4,5.1,0.5,6.6,0.5l1.5,0.3c-0.9-0.1-2.1,0-1.8,0.1
						c0.9,0.1,0.7,0,1.9,0.2c-0.2,0.1-0.8,0.1-1.3,0.2c2.5,0.6,0.6-0.3,2.3,0.3c0.8,0.1,1.3,0,1.4-0.1l1.4,0.4
						c0.2-0.2,2,0.1,3.1,0.2c0.2-0.1-0.9-0.3-1.4-0.3c0.1-0.1,1.3,0,2.1,0.1c0.2,0.4,5.2,0.7,4.2,1c2,0.3,4.4,0.6,6.7,0.9
						c1.2,0.2,2.3,0.3,3.4,0.4c0.5,0.1,1.1,0.1,1.5,0.2c0.2,0,0.5,0.1,0.7,0.1c0.1,0,0.2,0,0.3,0c0,0,0.2,0,0.1,0l-0.1,0
						c-1.3,0.3-2.9,0.9-2.5,0.6c-1.5,0.5-2.3,0.8-3.3,1.2c-0.9,0.4-2.1,0.8-3.9,1.3c-0.3,0.1,1.5-0.5,1.2-0.5c-0.9,0.4-2,0.7-3.1,1
						c-0.5,0.1-1.1,0.3-1.7,0.5c-0.6,0.2-1.2,0.4-1.9,0.6c0.5-0.2,0.6-0.3,0.6-0.3c0.1,0-1.1,0.5-1.8,0.7c-0.4,0.1,0.5-0.2,0.3-0.2
						c-5.4,1.6-9.4,3.2-14.7,4.8c1.5-0.5,2.1-0.8,2.1-0.8l-1.5,0.5c-0.6,0.2-1.7,0.6-2.6,0.9c-0.1,0-0.6,0.1-0.1,0
						c-3,0.9-4.6,1.6-8.2,2.6c1.5-0.4,2.9-0.9,4.4-1.4l-1.1,0.3l1.9-0.7c-1.2,0.3-2.1,0.7-2.3,0.7c0.2-0.1,0.8-0.3,0.8-0.3
						c-1.1,0.4-1.2,0.4-2,0.7c2.3-0.8,6.4-2.3,8.7-3.1c0.4-0.1-0.3,0.1-0.4,0.2c0.9-0.3,1.5-0.5,2.7-0.9c0.7-0.3-0.6,0.1-1.2,0.3
						c0.1-0.1,0.4-0.2,1-0.4c0.2,0,3.5-1.2,4.4-1.3c3.4-1.2-0.6-0.1,2.7-1.2l1.1-0.2c1.9-0.8,4.4-1.7,6.6-2.5l-0.5,0.2
						c-0.3,0.2,0.2,0,0.5,0c0.7-0.2,1.4-0.4,2-0.6c0.5-0.2,1-0.3,1.5-0.4c1.3-0.5,2.8-1.2,3.6-1.6c1.4-0.2-0.9,0.5-1.2,0.7l1.4-0.5
						c-0.9,0.3-0.9,0.4-1.2,0.6c1.5-0.5,1.3-0.6,2.2-0.9c0.1,0,0.2,0,0.4-0.1c0,0,0.1,0,0.1,0c0,0,0.1,0,0.1,0l0,0l0,0
						c-0.1,0-0.2,0-0.3-0.1l-0.8,0.1c0,0,0,0-0.1-0.1l-2.5-0.2c0.3,0.1-0.1,0.2,0.3,0.3c0.1-0.1,0.6,0,1.1,0c-0.8,0,0.2,0.1-0.2,0.2
						c-0.9-0.1-2.2-0.3-2.9-0.3l0.1-0.1c-0.8-0.2-1.9-0.2-2.5-0.3l0.2-0.1c-0.3,0-0.6-0.1-0.8-0.1c-0.4-0.1-0.9-0.1-1.3-0.2
						c-0.9-0.1-1.7-0.3-2.5-0.5c-1.6,0-3.7-0.2-5.1-0.1c-0.7,0.1-4.7-1-6.6-1c-0.1,0,1.3,0,1.9,0c-1.2-0.2-2.2-0.1-2.6-0.4
						c2.7,0.5-0.1-0.2,1.1-0.1c-1.3-0.2-2.6-0.4-3.3-0.4c2.1,0.3-0.8,0.2,1.3,0.4c-1.6-0.1-3.9-0.3-5.8-0.7c0-0.1-0.2-0.2-0.9-0.3
						l-0.6,0c-0.9-0.2,1.8,0.1,0-0.2c-1,0-2.3-0.3-3.6-0.5c-0.4-0.1-0.9-0.1-1.3-0.2c-0.4-0.1-0.8-0.1-1.2-0.2c-0.4,0-0.7-0.1-1-0.1
						c-0.2,0-0.2-0.1-0.2-0.2c0-0.1,0-0.2-0.1-0.2c0.1-0.6,0.1-0.6,0.1-0.4c0,0.1,0,0.3,0,0.5c0,0.1,0,0.2,0,0.3
						c0.1,0,0.2,0,0.3,0.1c0.9,0.1,1.6,0.2,0.2-0.2c0.9,0.1,1.9,0.3,2.8,0.4c0.7,0.1,1.2,0.2,1.4,0.1c-1.2-0.1-0.4-0.3-1.2-0.4
						l-1.8-0.2l0.4,0.1c-0.4,0-0.8-0.1-1.3-0.2l-0.3,0l-0.2,0c-0.1,0,0-0.1,0-0.1c0-0.2,0-0.5,0-0.7c0-0.5,0-1,0.1-1.5
						c0-0.5,0.1-1,0.1-1.4c0.1-1.6,0.2-3.2,0.4-4.7c0-2.5,0-4.2,0.3-7.2c0,0.9,0.3-2.5,0.3-0.6c0.2-1.4,0.2-2.8,0.2-2.8
						c-0.1,1.2,0,0.4-0.2,1.5c0-0.7,0.1-2.3,0.2-3c0,0.3,0,0.2,0,0.3c0.2-1.5,0-0.7,0.1-1.8c0.1-0.3,0.2-2.3,0.3-3.3l0-1.4
						c0,0.8,0.1-1.3,0.2-1.6l0-0.4c0-0.1,0-0.1,0-0.2c0-0.1,0-0.2-0.1-0.3c-0.1-0.2,0-0.4,0-0.7c0,0,0,0,0,0c0,0,0-0.1,0-0.1
						c0,0,0,0-0.1,0c-0.1,0.1-0.3,0.2-0.3,0.1c-0.2,0.2-0.5,0.4-0.7,0.6c-0.4,0.4-0.8,0.7-1.1,1.1c-0.8,0.8-1.5,1.5-2.4,2.3
						c0-0.1,0.4-0.4-0.2,0.1c-0.4,0.4-1.1,1.1-1.6,1.5l0,0l0,0c-0.2,0.2-0.3,0.3-0.3,0.4c-0.7,0.8-1.1,1.2-2.5,2.6
						c0.2-0.1,1.4-1.3,1.9-1.8l0.4-0.5c0.5-0.4,1.3-1.3,1.7-1.6c-0.8,0.9-3.4,3.4-4.9,4.9c1-0.8,3-2.8,4.8-4.5l-0.8,0.7l0.9-0.9
						l-1,0.8c0.9-0.8,1.7-1.6,2.5-2.3c-0.9,0.9-1.4,1.2-0.8,0.7c1.1-0.9,1.1-1.1,1.9-1.8c-0.5,0.4-1,1-0.7,0.6
						c0.8-0.7,1.3-1.2,1.8-1.6c0.1-0.1,0.2-0.2,0.4-0.3l0.1-0.1l0,0l0.1,0c0.1-0.1,0.2-0.1,0.3-0.1c0-0.1,0.1-0.2,0.3-0.3
						c0.1-0.1,0,0.1,0.1,0.1c0,0.1,0,0.1,0,0.1l0-0.3c0,0.2,0,0.4,0.1,0.6c0,0.4-0.1,0.2-0.1,0.1c0,0,0-0.1,0,0c0,0,0,0,0,0.1
						c0,0,0,0,0,0.1c0,0,0,0,0,0.1c0,0.1,0,0.2,0,0.2c-0.2,2.5-0.1,2.5-0.2,4.4c0-0.7,0-2.2,0.2-3.8l-0.1,1c0-0.3,0-0.9,0.1-1.7
						l0-0.1c0,0,0,0,0,0l0-0.1l0-0.1c0-0.1,0-0.1,0-0.2c0.1,0.1,0.1,0.1,0.1,0c0-0.1,0.1-0.5,0-0.4c-0.1,0.2,0.1,0-0.1,0.3
						c0,0,0.1-0.1,0.1-0.1c0,0,0,0.1,0,0.1c0,0.1-0.1,0.2,0,0.3c-0.1-0.1,0-0.3,0-0.3c0,0-0.1,0.1-0.1,0.2c0,0.1-0.1,0.1-0.1,0.1
						c0,0,0,0,0,0c0-0.1-0.1,0.1-0.2,0.2c-0.1,0.1-0.3,0.2-0.4,0.4c1-1-0.4,0.3-0.6,0.4c-0.5,0.5-1.5,1.4-1.9,1.8l0.4-0.3
						c-1.3,1.3-1.9,1.6-3.3,3.1c-0.2,0.2,1.3-1.3,1.1-1c-2,2-2.9,2.6-4.7,4.3c-0.1,0.1,0,0.1-0.6,0.8c0.2-0.2-0.3,0.2,0.3-0.5
						c-0.6,0.6-1.3,1.3-1.8,1.9c1.3-1.2-0.5,0.6-0.7,0.8c-0.7,0.6,0.2-0.2,0.5-0.7c-0.5,0.5-1.2,1-1.4,1.4c-0.1,0,1.3-1.6,2.3-2.5
						l-0.7,0.6c0.4-0.5,0.5-0.5,1.2-1.2c-0.7,0.6-0.7,0.5-0.5,0.3c0.1-0.1,0,0.1,0.1,0c0.5-0.5,0.9-0.9,0.8-0.8
						c0.4-0.5-0.8,0.7-1.2,1c-0.3,0.3-0.5,0.5-0.8,0.8l-2.5,2.9c-1.1,1.2-1.7,1.6-2.6,2.5l-0.2,0.3c-1,1-2,1.9-1.4,1.2
						c0.1,0,0.2-0.1,0.4-0.4c0,0,0.1-0.1,0.1-0.2c0,0,0,0,0-0.1c-1,1.1-1.7,1.8-1.8,1.8c1.7-1.9,0-0.2,0.1-0.7l-1.8,1.9
						c1.2-1.1,0.1,0-0.3,0.5c-0.1,0-0.3,0.3-1.1,1c-0.3,0.4-0.7,0.7-1.1,1c-0.1,0.1-0.2,0.2-0.3,0.2c-0.1,0.1-0.2,0.2-0.3,0.1
						c-0.2-0.1-0.3-0.2-0.5-0.4l0.1,0c-0.5-0.4-1.1-0.9-1.8-1.5c-0.5-0.4-1-0.8-1.4-1.1c0,0.1-1.2-0.6-1.8-0.9
						c1.4,1.2,0.5,0.5,0.6,0.7c-0.1-0.1-0.4-0.3-0.4-0.3c-0.2-0.1,0.2,0.3,0.3,0.3c0.8,0.6,1.6,1.1,2.2,1.6c0.1,0.1,0.2,0.1,0.2,0.2
						c0.1,0.1,0.2,0.1,0.3,0.2c0.3,0.2,0.5,0.4,0.7,0.6c0.5,0.4,0.8,0.6,1.1,0.7c-0.4-0.3-0.7-0.6-1.1-0.8c-0.2-0.1-0.4-0.3-0.6-0.4
						c-0.1-0.1-0.2-0.2-0.3-0.2c-0.1,0-0.1-0.1-0.2-0.2c0.1,0.1,0.6,0.4,0.9,0.7c0.4,0.3,0.8,0.6,1.2,0.9l0.3,0.2
						c0.1,0,0.1,0.1,0.2,0.1l0.2-0.1c0.2-0.2,0.4-0.4,0.6-0.5c0.4-0.3,0.9-0.8,1.4-1.3c0.1-0.1,0.2-0.1,0.3-0.2l0.2-0.2l1.1-1.2
						c-0.4,0.5-0.1,0.3-1.3,1.5c0.2-0.1,1.2-1.2,1.9-1.9l0.3-0.5c-0.1,0.2,1.5-1.4,0.4-0.2L199,41l0.6-0.4l-0.7,0.8l-0.4,0.4
						l-0.2,0.2l-0.4,0.4l0.3-0.4l0.2-0.2c-0.1,0.1-0.2,0.2-0.2,0.3c-0.1,0.1-0.3,0.3-0.4,0.4c-0.2,0.2-0.4,0.4-0.6,0.6
						c-0.4,0.4-0.7,0.6-0.9,0.7c-0.2,0.2-0.4,0.3-0.5,0.4c-0.1,0-0.1,0.1-0.2,0.1l-0.1-0.1c-0.2-0.2-0.4-0.3-0.8-0.7
						c-0.2-0.2-0.5-0.4-0.9-0.7c-0.2-0.1-0.4-0.3-0.6-0.5c-0.1-0.1-0.3-0.2-0.5-0.3c-1-0.5-1.9-1.2-3.6-2.6c1.3,0.9,0.2,0,0.7,0.3
						c-1.2-1-1.7-1.2-2.4-1.7c-0.2-0.3-0.4-0.6,0.7,0.3c0.3-0.1-1.5-1.1-1.4-1.4c-3.7-2.9-3.5-1.7-7.6-5.3l0.2,0
						c-2.8-2.1-4.3-3.4-6.8-5.4l-0.9-0.9l-0.4-0.5l-0.2-0.2l0-0.1c-0.1-0.1,0.5,0.3,0.8,0.5c0.3,0.2,0.6,0.2,0.3-0.1
						c0.7,1,1.8,1.8,2.7,2.7c0.2,0-0.2-0.4-0.4-0.5c0.6,0.5,0.8,0.9,1.7,1.5c0-0.1-0.8-0.9-0.1-0.3l1,1c1.6,1.1,1,0.3,2.7,1.8
						c-0.4-0.1-1.2-0.5-2-1c0.8,0.7-1.1-0.8-0.5-0.1c1.3,0.8,1.8,1.3,3.4,2.5c-0.2-0.1-0.3-0.1-0.7-0.4l2.2,1.9
						c-0.5-0.5,2,1.4,1.9,1.1c-2.3-2-1.7-1.3-4.4-3.6c0.8,0.6,1.9,1.2,2.5,1.5c0,0,0.1,0.1,0.1,0.1c0.5,0.2,0.1-0.2,0.4-0.4
						c-1.4-0.8-2.1-1.7-3.6-2.7c-0.4-0.1,0.7,0.9,1.4,1.4l-1.4-1l0.3,0.1l-3.2-2.7c0.6,0.5,0.9,0.6,1.3,0.8
						c-0.4-0.4-0.8-0.7-1.2-1.1c0,0.2-0.2,0.3-0.6-0.1c-2.1-1.8-3.1-2.9-3.7-3.7c-0.1-0.1-0.1-0.1-0.2-0.2c0,0.2-0.2,0-0.5-0.1
						c-0.3-0.2-0.6-0.3-0.7-0.3c0-0.3-0.5-0.6-0.9-1c0,0.3,0.4,1.1,0.7,1.5c0.2,0,0.2,0,0.3-0.1c0,0,0-0.1,0.2-0.2l1.5,1l-0.6-0.3
						c1.1,1,2.3,1.7,2.1,1.8c-0.7-0.4-1.6-1.3-2.3-1.6l0.7,0.7c-0.7-0.4-0.9-0.7-0.9-0.8c0-0.1-0.1-0.3-0.4-0.5
						c0.1,0.4-0.1,0-0.3-0.1c0.1,0.4,0.7,0.8,0.5,1c-0.2-0.1-0.1-0.1-0.2-0.2c0-0.1-0.1-0.2-0.2-0.4c-0.1-0.3-0.4-0.5-0.4-0.3l0-0.1
						c-0.1-0.1-0.2-0.1-0.2-0.2c0,0,0,0,0,0l0,0.1c0,0.1,0,0.1,0,0.2c0.1,0.2,0.1,0.4,0.2,0.6c-0.1,0,0,0.4,0,0.5l-0.1-0.1l0,0.1
						l0,0.1c0,0,0,0,0,0l0,0.2c0-0.2-0.1-0.2-0.1-0.3c0,0,0-0.1,0-0.1c0-0.1,0.1-0.1,0.1-0.2l-0.2-0.2c0.3,0-0.1-0.6-0.2-1.3
						c0.1,0.4,0,0.7,0,1c0,0.3,0,0.5,0.2,0.6c-0.1,0-0.2,0.1-0.2,0.1c0,0,0,0.2,0,0.4c-0.1,0.3-0.2,0.3-0.3,0.1c0-0.1,0-0.2,0-0.2
						c0,0,0-0.1,0-0.2c0,0,0,0,0-0.1c0-0.1,0-0.2,0-0.3c0.1-0.1,0.1-0.1,0.1,0c-0.1-0.2-0.2-0.6-0.1-1.2l0.1,0.5c0-0.4,0-0.7,0-1.1
						l0-0.1l0-0.1l0,0c0,0,0.1,0,0.1,0c0.1,0,0.1,0,0.1,0l-0.4-0.3c0,0-0.1-0.1-0.1-0.1l0,0.1l0,0.2c0,0.3-0.1,0.6-0.1,0.9
						c0,0.3-0.1,0.6-0.1,0.9l-0.1,0.5l-0.1,0.7c0.4,0.8,0.6,1.7,1,2.2c-0.1,1.7-0.2,4.1-0.6,5.6l-0.1-0.1c-0.1,0.7-0.2,1.4-0.2,2
						c-0.2,0.8-0.2-0.6-0.3,0l-0.1,2.5c-0.2-0.2,0-2.3,0.1-3.2c0,0.2,0,0.6,0,0.5c0.2-1.1,0.1-3.3,0.4-3.8c0-0.6,0.1,1.2,0.3-0.7
						c0.2-1.3,0-1.7-0.1-1.8c-0.1,0-0.4,2-0.4,1.3c-0.1,1,0,1.4-0.2,2.6c0.1-1,0-2.3,0.2-2.8c0-2-0.6-1.7-0.7-0.8
						c0.2-0.2-0.1,3.6,0.3,1c0.1,1.2-0.1,3.2-0.1,4.8l0-0.1l-0.1,1.9c0-0.3,0-0.8-0.2-0.9l0.1,2.6c-0.1-1.5-0.2,0.9-0.4,1.5
						c0.2,0.3,0.2,1.3,0.4,0.4c0.2-1.1,0-0.6,0-1.6l0.2,1.4l0,0.1l0.2,0.9c-0.2,1.9-0.5-0.9-0.5,1.6l0.4-0.3c-0.2,1.4-0.4,3-0.7,4.5
						c-0.1,0.7-0.2,1.5-0.3,2.1c-0.1,1.1-0.3,2.2-0.3,3.1c-0.1-1.1-0.3-1.6-0.7-0.4c0.1-0.7,0.2-1.8,0.4-2.8c0.1-0.7,0.1-1.4,0.2-2
						c0-0.1,0.1,0.3,0.1,0.9c0,0.3,0,0.6,0,1l0,0.3l0,0.4c0,0.3-0.1,0.6-0.1,0.9c0.2-0.2,0.3-0.8,0.3-1.3c0-0.3,0-0.8,0-1.1
						c0-0.8,0-1.5,0.3-1.6c0.6-3.4-0.3-2.6,0.4-5.4c-0.2-0.1,0-0.8-0.2-1c-0.5,0.8-0.4,3.9-0.7,5.7c0-0.2,0-0.6,0-0.6
						c-0.2,1.3-0.2,1.9-0.2,2.8l0-0.1c0.1,1.7-0.3,0.8-0.6,2.3c0,0.6-0.3,2.6-0.1,2.4l-0.1,0.6l-0.1,0.3c0,0,0,0.1-0.1,0.1l-0.2,0
						l-1.4,0.1l0.3,0.2c-0.8,0.1-1.2,0.2-1.7,0.3c-0.2,0-0.4,0.1-0.7,0.1c-0.1,0-0.2,0.1-0.4,0.1c-0.1,0-0.1,0-0.2,0.1
						c0,0-0.1,0-0.2,0.1l0,0.3l3.9-0.7c-2,0.5-0.4,0.3-2.7,0.8c1.2-0.4,0.7-0.3,0-0.2c-0.2,0-0.4,0.1-0.6,0.1l-0.3,0
						c-0.1,0-0.1,0-0.2,0c-0.2,0-0.4,0-0.5,0l-1,0.3l0.2-0.1c-0.8,0-0.9,0.3-1.8,0.4c1.1-0.1,1.8,0,3.1-0.5c-1,0.3-2.9,0.9-3.4,1
						c-1,0.3-1.8,0.2-2.8,0.4c1.8-0.5-0.8-0.6,3-1.2c-0.1,0.1-0.4,0.1-0.5,0.1c0.6,0.2,2.2-0.4,3-0.7c-0.2-0.1,0.6-0.4-0.9-0.2
						c0.5,0-1.1,0.6-2.5,0.8l0.2-0.4l-2,0.3l0.2-0.1c-0.4-0.1-0.9,0.1-1.5,0.2c-0.3,0.1-0.6,0.1-1,0.2c-0.2,0-0.3,0.1-0.5,0.1
						l-0.3,0l-0.2,0c-0.6,0.3-2.7,0.6-1.4,0.7c-0.4,0-0.7,0-1,0.1c-0.2,0.1-0.4,0.2-0.6,0.3l1.1,0c-0.2,0.2-0.3,0.2-0.3,0.2
						c0,0,0,0.1,0.3,0.3c-0.4-0.1-0.4,0-0.8-0.1c0.3,0.3,0.7,0.6,1.2,0.9c0.5,0.3,1,0.5,1.4,0.6c0.1,0,0.1,0.1,0.2,0.1
						c0.1,0.1,0.3,0.2,0.4,0.4c0.2,0.2,0.5,0.4,0.7,0.7c0.5,0.4,1.1,0.9,2.2,1.6c0.5,0.3-0.2-0.5,1.2,0.6c0.1,0.1-1.5-0.8,0.1,0.3
						c0.6,0.3,1.3,0.8,2,1.3c0.3,0.3,0.7,0.5,1.1,0.8l0.6,0.4c0.3,0.2,0.6,0.4,0.9,0.6c1.3,0.9,3.3,2.4,2.6,2.2
						c-0.9-0.7-2-1.5-3-2.2c-0.2-0.2-0.5-0.3-0.7-0.5c-0.1-0.1-0.3-0.2-0.4-0.2c-0.2-0.1-0.4-0.2-0.5-0.3c0.2,0-0.8-0.7,0.1-0.1
						c-1.8-1.4-1.3-0.8-2.9-2c-0.2,0,0.8,0.8,1.2,1c-0.1,0.2-3.4-2.2-2.1-0.9c1.8,1.3,2.7,1.2,4.1,2.5c-0.7-0.3-1.6-1.1-2.6-1.4
						l1.2,1l1,0.5l-0.1,0c0.3,0.2,0.5,0.4,0.8,0.6c0.3,0.2,0.6,0.4,0.8,0.5c0.5,0.3,0.9,0.5,1.3,0.7c0.4,0.2,0.8,0.4,1.3,0.7
						c0.1,0.1,0.3,0.2,0.4,0.2c0,0.1-0.1,0.2-0.2,0.4c-0.2,0.3-0.4,0.6-0.6,0.9c0.7-0.8,0.8-0.8,0.8-0.6c0,0.1,0,0.4,0.5-0.3
						c-0.4,0.5-0.7,1-1.1,1.5c-0.3,0.5-0.7,0.9-1,1.2c-0.6,0.7-1,1-1.1,0.9c1.6-2,1.5-2,1.5-2.1c-0.1,0-0.1-0.1,0.9-1.6
						c-0.5,0.5,0.1-0.6-1.3,1.1c-0.6,1-0.6,0.9-0.4,0.7c0.2-0.1,0.3-0.3-0.5,0.8c-0.1,0.1-0.3,0.2-0.2,0.1c-0.2,0.3-0.3,0.4-0.5,0.6
						c-0.1,0.1-0.2,0.2-0.3,0.3c-0.2,0.2-0.4,0.4-0.7,0.9l0.1-0.2c-1,0.9-0.8,1.2-1.7,2c0.4-0.2-0.4,0.7-0.8,1.3
						c0.8-0.8,1.4-1.1,2.9-2.9c0.1-0.3-0.1-0.2,0.5-1l-1,1.1c0.2-0.3,0.3-0.5,0.5-0.7l0.5-0.5l0.7-0.7c-0.2,0.3-0.4,0.5-0.5,0.7
						c-0.1,0.1-0.2,0.2-0.2,0.3c-0.1,0.2-0.1,0.2-0.1,0.3c0,0.1,0,0.2-0.2,0.5c-1.1,1.2-0.9,1-1.6,1.8c-0.1-0.2-2.4,2.2-3.7,3.5
						c0.2-0.2,0.5-0.5,0.6-0.7c0.8-1.1-0.7,0.6-0.8,0.6l-0.6,0.8c0.1-0.1,0.3-0.4,0-0.1c-0.9,1-0.7,1.1-1.6,2.1
						c-0.1,0,0.5-0.9-0.1-0.3c-0.1,0.1-0.4,0.3-0.7,0.6c-0.2,0.2-0.4,0.4-0.6,0.6c-0.1,0.1-0.2,0.3-0.4,0.4
						c-0.1,0.1-0.2,0.2-0.3,0.4c0,0.1-0.2,0.3-0.4,0.6c0,0,0.1-0.1,0.1-0.1c-0.2,0.2-0.4,0.4-0.7,0.7c0.1-0.3,0.4-0.6,0.7-0.9
						c0.1-0.1,0.3-0.3,0.4-0.4l0.2-0.2c0.1-0.1,0.2-0.2,0.2-0.3l0-0.2c0.5-0.6,1.2-1.5,1.4-1.9c-0.8,0.9-0.9,1.1-1.8,2.2
						c-0.2,0.1,0.4-0.7,0.5-0.8l-0.1,0.2c1.1-1.2,1.5-1.9,2.8-3.5c0.2-0.2,0.1-0.1,0.1,0c0.9-1.4,2.1-2.4,3-3.8l-0.3,0.5
						c0.6-0.9,1.9-2.6,3.1-4.3l0-0.1c-0.2,0.1,0.3-0.4,0.5-0.6l0,0c0.3-0.4,0.5-0.7,0.7-1l0.1-0.2c0-0.1,0.1-0.1,0-0.2
						c-0.2-0.1-0.3-0.2-0.5-0.3c0.1,0.1,0.1,0.1,0.2,0.2l0.1,0.1c0,0,0,0,0,0.1l-0.1,0.1c0,0.2-1,1.3-0.7,1.2
						c-0.3,0.3-0.5,0.5-0.9,1c-0.3,0.4-0.7,0.9-0.9,1.1c0.9-0.9-0.4,0.8-0.5,1c-0.3,0.2-1.1,1.4-1.1,1.2c-0.2,0.2,0.5-0.4,0.7-0.8
						c0.7-1.1-1.6,1.7-0.7,0.4c-1.2,1.6-2.9,3.6-4.1,5.3l0.8-0.9c-0.6,0.7-1.9,2.4-2.1,2.5c0.4-0.5,0.9-1.2,1.5-1.8
						c-0.1-0.1-1.3,1.6-1.4,1.6c-0.5,0.7-0.9,1.4-1.5,2.2l0.8-0.9c-0.4,0.6-2.1,2.6-3.3,4c0.2-0.3,0.6-0.9,1.2-1.6
						c0.6-0.7,1.2-1.4,1.8-2.2c0.8-1.1-0.6,0.5,0.1-0.5c-0.1,0.1-0.3,0.3-0.5,0.6c-0.2,0.3-0.5,0.6-0.6,0.8l-0.4,0.5
						c0.3-0.5,1.2-1.6,1.7-2.3c0.6-0.8,1.2-1.6,1.7-2.3c-0.1,0.1-0.1,0.2-0.2,0.3c0.8-1,1.7-2,2.4-3c-0.5,0.5-0.6,0.7-0.8,1
						c-0.1,0,0.7-0.9,0.9-1.3c-0.8,0.9-0.2,0.1-0.7,0.6c0.4-0.6,0.8-1.1,1.4-1.8c0.4-0.3-0.2,0.4,0,0.4c0.5-0.8,1-1,1.8-2.1
						c-1.2,1.4,0.1-0.5,0.5-1.1l-0.2,0.2c0.3-0.5,0.6-0.9,0.9-1.2c-0.4,0.6-0.9,1.2-0.7,1.1c0.3-0.4,0.6-0.8,0.9-1.2l-0.2,0.5l0.8-1
						l0.5-0.5c0.1-0.2,0-0.5-0.1-0.5c0.1,0,0.1-0.1,0.2-0.2c0-0.1,0.1-0.1,0-0.1c-0.1-0.1-0.3-0.1-0.4-0.2l0.1,0
						c-0.1-0.1-0.4-0.3-0.7-0.5c-0.7-0.4-1.2-0.7-1.4-0.7c-0.2-0.1,0.1,0,0.5,0.1c0.2,0.1,0.4,0.2,0.6,0.3c0.1,0,0.2,0.1,0.3,0.1
						c0.1,0,0.1,0,0.2,0.1c0.2,0,0.4,0.1,0.3,0c0,0-0.1-0.1-0.3-0.2c-0.3-0.2-0.7-0.5-1.3-0.8c-1.8-1.1-1.3-0.4-2.4-0.9
						c0,0,0.1,0,0-0.1c-0.8-0.5-0.9-0.4-1.6-0.8c0.4,0.3,1.1,0.8,1.3,0.9c-0.3,0-1.6-1-2.3-1.3c0.9,0.3-1.4-1-0.8-0.8
						c-0.4-0.3-0.7-0.5-1.1-0.8c-0.2-0.1-0.4-0.2-0.6-0.4c-0.2-0.1-0.5-0.3-0.7-0.4c-1.2-0.7-2.3-1.3-3.1-1.7
						c-0.7-0.6-1.4-1.1-2.4-1.7c-0.9-0.6-1.9-1.2-3-2.1c0.4,0.3,1.2,0.8,1.6,1.2c1.8,1-2.3-1.8,0.2-0.3c-0.5-0.3-0.2,0,0.3,0.3
						c0.4,0.3,0.9,0.6,1.2,0.8c0.3,0.2,0.6,0.3,0.5,0.2c-0.6-0.5-1.1-0.9-1.6-1.3l0.7,0.5l-2.2-1.9c-0.2-0.1,0,0.1,0,0.2
						c-0.4-0.3-0.7-0.5-1.1-0.8l-0.3-0.2l-0.1-0.1l0,0l0,0l0.1,0l0.8-0.2c1-0.2,2-0.4,3-0.6c1.9-0.4,3.9-0.9,5.7-1.2
						c1.2-0.9,6.6-1.6,8.5-2.4c-0.5,0.3-0.7,0.7-0.4,0.8c-0.4,0.1-1.3,0.6-2.3,0.7c-0.2-0.1-1.5,0.1-0.7-0.2
						c-2.8,0.6,0.4,0.2-0.3,0.6c1.5-0.3,2.7-0.7,3.8-1c0.5-0.2,1-0.3,1.5-0.5c0.2-0.1,0.5-0.2,0.7-0.2l0.4-0.1l0.1,0.1
						c0.3-0.1,0.5-0.2,0.7-0.3c-0.7,0.1-0.8-0.3,0-0.3l-0.1,0c0.1,0,0.1,0,0.2,0c0-0.1,0-0.1,0-0.2c0-0.1,0-0.3,0-0.5
						c0-0.2,0-0.4,0-0.5c0,0,0-0.3,0-0.5c0-0.2,0-0.4,0.1-0.5l-0.1-1c0.2-1.4,0.6-1.4,0.9-1.8c0.3-2.2,0.1-3.5,0.1-5.1
						c0.3-0.7,0.7-4,0.7-2.2c0.1-2-0.9-1.7,0.1-5l0.1,0.9c0.2-1.6,0.3-3.6,0.5-5.4c0.1-0.9,0.2-1.7,0.2-2.4c0.1-0.5,0.1-0.9,0.2-1.2
						c0.1-0.4,0.1-0.8,0.2-1.1c0.2,1.1,0.5-0.5,0.8-2.1c0.3-1.6,0.7-3.4,1-3.3c0,0,0-0.1,0-0.3c0-0.1,0-0.2,0-0.3
						c0-0.1,0-0.3,0.1-0.2c0.3,0.2,0.6,0.4,0.7,0.4c0.3,0.3,0.8,0.8,1.2,1c-1.4-1.2,0.7-0.1-1.8-1.9c0.5,0.2,1.3,0.6,2.3,1.2
						c0.3,0.2,0.5,0.3,0.8,0.6c0.3,0.2,0.6,0.5,1,0.8c0.7,0.6,1.5,1.2,2.3,2l-0.2,0.1l-2.6-2.3c0.1,0.2-0.1,0-0.5-0.2
						c-0.4-0.3-0.8-0.6-1-0.7c1.1,0.9,1.7,1.5,1.9,1.7c0.2,0.3,0.1,0.3,0.1,0.3c-0.1,0-0.3,0,1.9,1.9c0.5,0.2,0.3,0.2,1.1,0.8
						c-0.4-0.3-0.5-0.3,0.1,0.3l0.7,0.4c0.8,1.2-1.9-1.4-1.2-0.4c-0.2-0.1-0.3-0.2-0.5-0.4c-0.2-0.2-0.5-0.3-0.7-0.5
						c-0.5-0.3-0.9-0.7-1.3-1c-0.8-0.6-1.2-0.8-1-0.5c1.1,1,1.6,1.3,2.2,1.6c0.2,0.1,0.3,0.2,0.5,0.3c0.2,0.1,0.3,0.2,0.5,0.3
						c0.3,0.2,0.7,0.5,1.2,1l0.1,0.3c0.8,0.6,1,0.5,1.5,0.8c0,0.1,0.1,0.3,0.6,0.7c1.4,0.8,2.2,1.5,3.5,2.3
						c-3.1-2.4-2.4-2.4-5.5-4.9c0.5,0.3,2.7,2.2,3,2.1l-0.2,0.1c1.1,0.8,2.1,1.6,3.3,2.7l-0.8-0.6c1.7,1.4,2.5,2.6,4,3.6
						c-0.4-0.4-0.8-0.7-1.1-1c0.9,0.7,1.9,1.6,2.8,2.5l2.1,1.5c-0.1,0.1,1.1,1.1,0.5,0.7c1.3,1.3,2.1,1.7,2.9,2.4
						c1.3,1.4-1.2-1-1.5-1c1.9,1.8,3.9,3.6,5.1,4.4c-0.4-0.4-0.5-0.6-0.5-0.6c0,0,0.2,0.2,0.5,0.5c0.1,0.1,0.3,0.2,0.4,0.4
						c0.1,0.1,0.1,0.1,0.2,0.2c0.1,0,0.1,0,0.2,0c0.2,0.3,0.2,0.4-0.1,0.2c0.1,0.1,0.3,0.4,0.5,0.1L196,40c0,0,0.1-0.1,0.1-0.1
						c0.1,0,0.1-0.1,0.2-0.1c-0.1,0.1-0.1,0.1-0.1,0.2l-0.1,0.1c-0.1,0.1-0.1,0.1-0.2,0.2l-0.2,0.2c0,0,0,0-0.1,0l-0.1-0.1l-0.1-0.1
						c-0.1-0.1-0.3-0.2-0.4-0.3c-0.2-0.2-0.4-0.3-0.5-0.5c0.2,0.1,0.3,0.3,0.4,0.4c0.1,0.1,0.1,0.1,0.2,0.2c0.1,0.1,0.2,0.2,0.3,0.3
						c0,0.1,0.1,0.1,0.1,0.1c0,0,0.1,0,0.1-0.1l0.3-0.2c0.1-0.1,0.2-0.1,0.3-0.2c0.2-0.2,0.4-0.3,0.6-0.5c0.5-0.4,1.1-0.9,1.8-1.6
						c0.1,0-0.4,0.5,0.2,0c1.4-1.3,0.3-0.4,0.6-0.9c-1,1-1.6,1.4-2.2,1.9l0.2-0.3c0.1,0,0.7-0.6,1-0.8l0.1-0.2c0,0.2,1.2-0.7,2-1.5
						c-0.9,0.7-0.7,0.5-1,0.6c1.1-1.1,1.4-1.1,2.7-2.4c-0.1,0.1-1.2,1.2-0.2,0.3c0.8-0.7,0.7-0.7,1.2-1.2c-0.6,0.6-0.4,0.5-1,1.2
						c-1.5,1.3-0.6,0.5-2,1.9l1.3-1c-1.2,1.1-0.8,0.9-0.9,1c2.2-1.8,1.5-1.6,2.9-2.8c0.6-0.6-1.3,1.1-0.3,0.2
						c1.3-1.1,0.2-0.3,1.7-1.6l-0.2,0.2c0.5-0.4,0.9-0.8,1.4-1.3c0.5-0.5-0.8,0.4,1.5-1.7c-0.1,0.1-0.1,0.2-0.1,0.2
						c-0.6,0.8-1.2,1.7-1.7,2.5c2.3-2.1,4.9-4.5,7.6-7c0.7-0.5-1.8,1.8-1.6,1.7l-1.2,1.1c0-0.1,2.5-2.4,1.4-1.4
						c-2.1,2-3.1,2.9-5,4.8c0.7-0.5,2.6-2.5,4-3.7c-0.6,0.5-1,1-1.4,1.4c1.2-1.1,2.6-2.4,4-3.7l0.3-0.3c-1,0.9-1.6,1.5-1.7,1.6
						c1.3-1.2,2.3-2.2,2.3-2.3l-0.2,0.2l0.4-0.4L215.3,23.3z M233.1,63.8c0.1,0,0.2-0.1,0.2-0.1C233.3,63.7,233.4,63.7,233.1,63.8z
						 M190.4,37.9c0.9,0.7,1.7,1.5,2.6,2.2c0.4,0.4,0.9,0.8,1.3,1.1l0.8,0.6l0.4,0.3c0.1,0,0.1,0.2,0.2,0.1l0.2-0.2
						c-0.2,0.3-0.4-0.1-0.6-0.2c-0.2-0.2-0.4-0.4-0.6-0.6c-0.3-0.3-0.6-0.6-0.9-0.9c-0.5-0.5-0.9-0.9-1-1.1c-0.1-0.2,0-0.1,0.5,0.3
						c0.2,0.2,0.6,0.5,1,0.8c0.2,0.2,0.4,0.4,0.7,0.6c0.1,0.1,0.2,0.2,0.4,0.3l0.2,0.2c0.1,0,0.1,0.2,0.2,0.1l0.3-0.3
						c-0.1,0.1-0.2,0.1-0.2,0.2c0,0-0.1,0.1-0.1,0.1l-0.1-0.1c-0.2-0.2-0.4-0.4-0.6-0.6c-0.5-0.4-1-0.9-1.5-1.3
						c-0.5-0.3-1.5-1-2.4-1.6c-0.4-0.3-0.9-0.5-1.2-0.7c-0.3-0.2-0.5-0.3-0.5-0.3c0.2,0.3,0.8,0.6,1.3,1.1L190.4,37.9z M189.6,36.4
						c-1-0.9-0.8-0.6-1-0.7c0.4,0.3,0.7,0.6,1,0.9C189.5,36.4,189.5,36.4,189.6,36.4z M188.6,35.8c0.1,0.1,0.2,0.2,0.2,0.2
						L188.6,35.8z M207.2,31C207.2,31.1,207.2,31.1,207.2,31c0.1-0.1,0.4-0.3,0.6-0.5C207.7,30.6,207.6,30.7,207.2,31z M205.3,32.8
						l-0.2,0.3c0.2-0.2,0.4-0.4,0.6-0.6C205.6,32.5,205.5,32.5,205.3,32.8z M198.8,38.3c-0.3,0.4-1.6,1.7-1.6,1.8
						c-0.1,0.1,0.2-0.1,0.5-0.4c0.3-0.3,0.7-0.7,1.1-1c0,0,0.1-0.1,0.2-0.2c-0.4,0.3-0.7,0.6-0.6,0.4c1.1-0.8,0.8-0.9,1.9-1.9
						C200.7,36.6,199.1,38,198.8,38.3z M158.7,64.5c0,0,0.1,0.2,0.2,0.3l-0.9-0.5c-1.5-1.1-2.5-2.2-4.1-2.8
						c-0.6-0.5-0.9-0.9-1.1-1.2c0.3,0.2,0.6,0.4,0.8,0.6C157.8,63.1,155.4,62.7,158.7,64.5z M147.9,54.1c-0.1,0-0.1,0.1-0.1,0.1
						c1.4-0.5,3.1-1.1,4.8-1.5c1.6-0.4,2.9-0.7,4-0.9c-0.5-0.1-2.4,0.1-3.4,0.2l0.8-0.4l0.5,0.1l1.4-0.5c-0.4-0.1-1.6,0.2-2.4,0.2
						c0,0-0.6,0.2-1.4,0.5c-0.9,0.3-1.8,0.6-2.1,0.7l2.4-0.3c-0.6,0.1-3.7,0.7-4.8,1c0.2,0.1,2.3-0.1,2.3-0.4
						c0.3,0.1-1.8,0.6-0.3,0.4c-0.7,0.2-1.7,0.4-2.7,0.6c-1,0.2-2,0.3-2.7,0.4l-0.9-0.1c-0.2,0-0.4,0.1-0.5,0.1c-0.1,0,0,0,0,0
						l0.1,0c0.1,0,0.1,0.1,0.2,0.1c0.2,0.1,0.4,0.2,0.6,0.3c0.4,0.2,0.8,0.4,1.3,0.8c-1.8-1.1-0.4,0.1-1.8-0.8
						c0.2,0.3-0.7-0.1,0.8,0.9c1,0.5,1.2,0.7,1.5,1c0.3,0.3,0.5,0.5,1.4,0.9c0.7,0.6-1.2-0.6,0.4,0.6c2.2,1.2,2.1,1,2.5,0.9
						c-0.7-0.5-1.3-0.8-1.8-1c-0.5-0.2-1.1-0.5-1.7-0.9c1.1,0.6,2.2,1.1,3.2,1.6c-0.4-0.3-0.7-0.5-1-0.7c0.5,0.3,1,0.5,1.4,0.7
						c0.2,0.1,0.4,0.2,0.6,0.3c-1.2-0.8-2.3-1.5-2.3-1.7l0.3,0.1c-0.2-0.3-1-0.7-1.5-0.9c-1-0.7-2.6-1.5-2.4-1.5l0.7,0.3
						c-0.2-0.1-0.3-0.2-0.5-0.3c0.1,0,0.3-0.1,0.4-0.1c0.2-0.1,0.4-0.1,0.7-0.1C146.4,54.4,146.9,54.3,147.9,54.1z M171.3,21.8
						c-0.3-0.5-0.6-1.1-1.4-1.9c-0.4-0.4-0.9-0.9-1.5-1.5c-0.2-0.1-0.3-0.3-0.5-0.5l-0.1-0.1l-0.1-0.1c0,0,0,0.1,0,0.1
						c0,0.1,0,0.2,0,0.4c-0.1,0.5-0.1,1.1-0.2,1.7l0-0.4c-0.3,1.1-0.3,2.5-0.4,3.8c-0.1,1.3-0.1,2.5-0.4,4c0-1.4,0-1.3-0.3-2.9
						l0,1.5c-0.2-0.4-0.3,1.1-0.4,2.2l-0.2-1c0.2-0.6,0.4-2.3,0.3-2.3c0,0.5,0.7-2.6,0.8-4.3c-0.2-0.1-0.6,3.8-0.7,1.9
						c0,0.8-0.1,1.2-0.2,1.7c-0.1,0.5-0.1,0.7-0.2,1.4c0-1.2-0.3-0.3-0.3-1.3l-0.2,2.1c-0.1,0,0.2-3-0.3-1.3c0,0.8-0.4,3-0.2,3
						l-0.1,0c-0.2,1.5,0.3,0.7-0.1,2.6c0.1,0,0.2-0.3,0.3-1c0-0.6-0.1-0.7,0-1.8c0.2-0.5-0.2,1.4,0.2,0.6c0.2-0.4,0.2-3.1,0.5-2.2
						l-0.2,1.5c0.2,0.1,0.1,1.2,0.3,1.2c0,0.9-0.4,1.8-0.3,2.8c0.1,0.4,0.5-0.2,0.2,1.3c-0.5,1.2-0.9,4.8-1,6.2l0,1.2
						c0.2-0.1,0.2-2.3,0.4-1.5l-0.2,1.9l-0.1-0.2c-0.1,0.6-0.1,1.2-0.1,1.8c-0.1-0.6,0.1-1.9-0.2-1.7c-0.2,0.9-0.3,1-0.3,1.8
						c0-0.2,0-0.3,0-0.3c-0.3,1.7,0.1,1.7,0.1,2.2c0.1,1.8,0.5-1.7,0.8-1.5l-0.4,5.2c0-0.5-0.1-0.9-0.2-0.8c-0.3,1.2-0.2,0-0.4,1.7
						c0.2,0,0.2,0.6,0.1,1.3c0,0.1,0,0.2,0,0.3l0,0.1c0,0-0.1,0-0.1,0.1l-0.6,0.1c-0.4,0.1-0.7,0.2-1,0.3c-0.7,0-0.8,0,0.5-0.3
						c-0.3-0.2-1.8,0.2-2.5,0.3c-0.3,0.1-0.9,0.3-1.3,0.4c0.5,0,0.3,0.2-0.7,0.5l-0.1,0.1c0.9-0.1,2.1-0.3,3.1-0.5
						c1.2-0.2,2.4-0.4,2.9-0.6l-0.3,0.2l0.5-0.1c0.1,0,0.1-0.1,0.1-0.2l0-0.2c0-0.3,0.1-0.6,0.1-0.9c0-0.6,0.1-1.3,0.1-1.8
						c0-1,0.1-1.9,0.4-2.4c0.2,0.1,0.1-0.4,0.3-0.4l0-1.6l0.1,0.3l0.2-2.6l0,0.1c-0.1-1.3-0.2-2.3-0.2-3.1c-0.1,0-0.2,0.1-0.2-0.4
						c0-0.4,0-0.7,0.1-1l0,0l0,0c0.1-0.6,0.3-1.1,0.5-1.8l-0.3,2.5c0.2,0.2,0.4,0,0.6-1.2c0,0.5,0.1,0.7,0.2,0.1
						c0-0.1,0.1-1.6-0.1-1.1c0.2-2.3,1.1-6.1,1.1-9.6c-0.1,2.6,0.5-2,0.2,0.8c0.5-1.9-0.1-1.8,0.2-3.4c0.1-0.1-0.1,0.9,0,1.3
						c0.2-1.2,0.2-2.3,0.2-3.6l0-1c0-0.3-0.1-0.9,0.2-0.5c0.4,0.3,0.9,0.7,1.5,1.2l0.1,0.4C170.4,21.1,170.8,21.5,171.3,21.8z
						 M176.1,25.6c0.5,0.4,1,0.8,1.5,1.2c0,0-0.1-0.1-0.1-0.1l1.5,1.1c-0.8-0.8-1.3-1.5,0-0.5c-0.2,0,0.1,0.3-0.3,0
						c0.7,0.8,2.5,2.4,2.2,1.8c-1.7-1.2-0.1-0.6-1.5-1.5c0.8,0.4,1.4,1.1,2.1,1.6c-0.7-0.5-0.1,0.4,0.9,1.3c0.5,0.3,1.6,1.4,2.3,1.9
						c-0.2-0.3,0.5,0.1-0.6-0.9c0.4,0.3,1.1,0.9,1.8,1.6c-0.3-0.2-0.8-0.7-0.8-0.6c0.4,0.5,0.9,1,1.2,1.3c0.2,0.2,0.5,0.4,0.7,0.6
						c-0.1-0.1-0.1-0.1-0.1-0.2l0.9,0.6c-1.1-0.9-0.5-0.5-0.4-0.5c-0.1,0.1,0.7,0.6,1.1,0.9l-0.7-0.8c0.4,0.3,1.3,1.3,1.2,1
						c-1.7-1.5-2.3-2.1-3.9-3.4l0.5,0.7c-1.8-1.4-0.9-1.1-2.9-2.8c-0.9-0.6-2.9-2.6-3.2-2.4c0.3,0.1-1-1.3-1.8-1.7
						c-0.9-0.4-3.2-2.3-2.6-1.6c0.6,0.5,1.5,1.1,1.9,1.7l-1.2-1l0.7,0.8C176.1,25.2,176.1,25.3,176.1,25.6z M203.1,36.2L203.1,36.2
						L203.1,36.2L203.1,36.2z"/>
					<path class="st1" d="M150.9,81.2c-0.2,0.3-0.8,1-0.5,0.8C150.2,82,151.4,80.8,150.9,81.2z"/>
					<path class="st1" d="M150.1,82c0,0,0.1,0-0.2,0.3l0.7-0.9L150.1,82z"/>
					<path class="st1" d="M148.1,83.4c-0.2,0.3-0.3,0.5-0.5,0.8c-0.1,0.1-0.1,0.1-0.2,0.2l0,0.1c0,0,0,0,0,0c0.1,0,0.1,0,0.2,0
						c0.2,0,0.5-0.1,0.8-0.1c0,0.1-0.5,0.2-1.1,0.3c0,0-0.1,0-0.1,0l0.1-0.1l0.1-0.2c0.1-0.1,0.2-0.3,0.3-0.4
						c0.2-0.2,0.3-0.4,0.3-0.5c-0.4,0.5-0.7,0.9-0.9,1.2c0,0-0.1,0.1,0,0.1l0.2,0c0.1,0,0.2,0,0.3-0.1c0.2,0,0.4-0.1,0.6-0.1
						c0.8-0.2,1.5-0.3,2.4-0.5c-0.5,0.1-1.5,0.2-2.5,0.4c-0.1,0-0.3,0-0.4,0.1l-0.1,0c0,0-0.1,0,0,0l0.1-0.1
						c0.1-0.2,0.3-0.3,0.4-0.5C148.1,83.5,148.2,83.3,148.1,83.4z"/>
					<path class="st1" d="M148.3,82.6l-0.8,1.1l0.1-0.1c0.3-0.4,0.5-0.7,0.8-1.1L148.3,82.6z"/>
					<path class="st1" d="M160.3,62.8c0-0.2-0.7-0.5-1-0.7C159.6,62.3,159.9,62.6,160.3,62.8z"/>
					<path class="st1" d="M252.1,55.8c-0.1,0.1-0.2,0.1-0.4,0.2l-0.7,0.1l-0.7,0.1c0,0-0.5,0.1-0.8,0.3l-1,0.4
						c0.6-0.2,1.1-0.4,1.7-0.6c0.2,0,0.4-0.1,0.7-0.1C251.3,56.1,251.8,56.1,252.1,55.8z"/>
					<path class="st1" d="M154.4,54.2c-0.6,0.1-1,0.3-1.5,0.4c-0.3,0.1-0.4,0.2-0.7,0.3c-0.4,0.2-0.6,0.3-1.1,0.4
						c0.8,0,1-0.2,1.5-0.4c0.1-0.1,0.7-0.2,1.1-0.4c0.5-0.1,1-0.2,1.7-0.3L154.4,54.2z"/>
					<path class="st1" d="M153.9,55.6c-0.4-0.2,1.7-0.7,1.3-0.8c-1.5,0.4-0.7,0.4-2,0.6L153.9,55.6z"/>
					<polygon class="st1" points="140.9,54.4 139.7,53.7 140.5,54.2 					"/>
					<path class="st1" d="M165.8,53l-0.4,0.1c0.6-0.1,1.6,0,1.4-0.8l-0.1,0.4l0,0.2l0,0.1l-0.1,0L165.8,53z"/>
					<path class="st1" d="M165,53.3l0.4-0.1L165,53.3z"/>
					<polygon class="st1" points="138.5,53.3 139.6,54.2 140.6,54.7 					"/>
					<path class="st1" d="M152.8,51.8l-1,0.3C152.1,52.1,153.3,51.9,152.8,51.8z"/>
					<polygon class="st1" points="167.7,44.4 167.7,43.2 167.6,43.4 167.6,44.5 					"/>
					<path class="st1" d="M159.7,49.6c-0.7-0.1,1.8-0.4,0.5-0.4C159.1,49.5,159.6,49.5,159.7,49.6z"/>
					<path class="st1" d="M165,41.1c0-0.2,0-0.3,0-0.5C165,40.8,165,41,165,41.1z"/>
					<path class="st1" d="M165,41.1c-0.1,0.5-0.2,1-0.2,1.3C165,41.8,164.9,41.6,165,41.1z"/>
					<path class="st1" d="M165.5,35.5l-0.1,0.4c-0.1-0.5-0.1-0.2,0,0.2c0,0.5,0,0.5,0.1,0.5c0,0.1,0,0.2,0.1,0.3c0-0.1,0-0.3,0-0.4
						C165.6,35.8,165.7,35.3,165.5,35.5z"/>
					<path class="st1" d="M170.6,24.2c-0.1-0.2-0.2-0.3-0.3-0.5c-0.1-0.1-0.1-0.1-0.1,0.1c0,0.1,0.1,0.2,0.1,0.4
						c0-0.2,0-0.1,0.1-0.1C170.5,24.1,170.5,24.1,170.6,24.2z"/>
					<path class="st1" d="M170.3,24.1C170.3,24.2,170.4,24.2,170.3,24.1C170.4,24.2,170.4,24.2,170.3,24.1z"/>
					<polygon class="st1" points="162.9,41.8 162.8,40.8 162.7,41.1 					"/>
					<path class="st1" d="M170.7,24.5c0,0,0-0.1,0-0.2C170.6,24.5,170.7,24.6,170.7,24.5z"/>
					<path class="st1" d="M167.9,18.8c-0.1,0-0.2,1.1-0.2,1.5C167.7,19.7,168,19.7,167.9,18.8z"/>
					<path class="st1" d="M174.3,26.8c-0.2-0.2-0.5-0.6-0.3-0.5C173.6,26,173,25.8,174.3,26.8z"/>
					<polygon class="st1" points="169.8,20 169.6,19.7 168.8,19.2 					"/>
					<path class="st1" d="M165.9,16.6c-0.1,1.1,0.1,0.5,0.3,0.1c0.2-0.4,0.3-0.6,0.2,1c0.3-1.8,0.3-1.8,0.2-1.8c0,0-0.1,0.1-0.1,0
						c0-0.1,0-0.2,0-0.4c0-0.1,0-0.2,0-0.3c0-0.1,0-0.1,0-0.2c0.1,0,0.1,0.1,0.2,0.2l-0.1-0.1l-0.1-0.1c0,0,0,0,0,0.1
						c0,0.1,0,0.2-0.1,0.3c0,0.2-0.1,0.3-0.1,0.5c-0.1,0.3-0.1,0.5-0.2,0.6C166,16.7,165.9,16.7,165.9,16.6z"/>
					<path class="st1" d="M166.7,15.1c0.2,0.2,0.4,0.3,0.7,0.5C167,15.4,166.8,15.2,166.7,15.1z"/>
					<path class="st1" d="M181.8,29.4c-0.1-0.1-0.3-0.2-0.4-0.2C181.6,29.3,181.7,29.4,181.8,29.4z"/>
					<path class="st1" d="M174.2,21.1c-0.2-0.1-0.7-0.5-1-0.7l-1.1-0.8c0.4,0.3,0.9,0.7,1.4,1.1c0.4,0.3,0.9,0.7,1.3,1
						c0.7,0.6,1.3,1,1.3,0.9c-0.8-0.7-1.7-1.5-2.2-1.8L174.2,21.1z"/>
					<path class="st1" d="M188.1,38.4l-0.7-0.4l0.8,0.6C188,38.4,188.5,38.6,188.1,38.4z"/>
					<path class="st1" d="M188.4,38.7l-0.2-0.1C188.3,38.6,188.3,38.6,188.4,38.7z"/>
					<path class="st1" d="M179,27.2c-0.5-0.4-0.8-0.7-1.3-1.1C177.9,26.3,179,27.3,179,27.2z"/>
					<polygon class="st1" points="192.9,41.7 191.8,40.9 193,41.8 					"/>
					<polygon class="st1" points="199.7,40.3 199.9,40.1 200.7,39.3 200.5,39.4 					"/>
					<path class="st1" d="M193.4,38.1c-0.7-0.6-1.3-1-1.1-0.8l1.3,1.2c-0.2-0.4-0.4-0.3-1.1-1.1L193.4,38.1z"/>
					<path class="st1" d="M219.6,32.5c0-0.4,0.2-2.3,0.3-2.4c0,0.3-0.1,1.3,0,0.7l0-1.5c0.3-2,0.1,1.6,0,2.6
						c0.2-2.1,0.2-2.7,0.3-4.9c-0.1,0.7-0.1,1.1-0.2,1.4c-0.1,0.1,0.1-2,0.2-3.5c-0.1,0.9-0.1,0.4-0.1-0.3c0-0.1,0-0.2,0-0.3l0-0.2
						l0,0.2c0,0,0,0-0.1,0.2c-0.1,1.2-0.3,2.2-0.3,3c0.3-0.8-0.2,2.7-0.3,3.7l-0.1,1.2l0,0.4c0,0.1,0,0,0-0.7c0,0.6-0.2,2.4-0.1,2.2
						l-0.5,4.2c0,0.1-0.1,0.3-0.1,0.4c0,0.1,0,0.2,0,0.2l-0.5,4.6l-0.2,2.3l-0.2,2c-0.1,0.7,0,1.4-0.1,2.1l0,0.5l0,0.1
						c0,0,0.1,0,0.1,0l0.3,0l1.1,0.2l2.1,0.4c0.9,0.1,1.1,0.2,1.5,0.3l1.1,0.2l4.5,0.8c-0.9-0.2-1.6-0.4-2.6-0.6
						c1.4,0-1.5-0.3-1.1-0.5c0.6,0,1.5,0.2,2.1,0.4c0.2-0.1-0.5-0.3-0.4-0.4c-1.1-0.3-1.8-0.3-2.5-0.3c-0.3,0-0.7,0-1-0.1
						c-0.2,0-0.4,0-0.6-0.1c-0.4-0.1-0.7-0.1-1.2-0.2c0.2-0.1,1.4,0-1.1-0.4l0.6,0.1c-1-0.1-1.7-0.3-2.1-0.4c-0.1,0-0.1,0-0.2,0
						c0,0,0-0.1,0-0.2c0-0.1,0-0.2,0-0.3c0-0.2,0-0.4,0-0.5c0.1-0.6,0.1-0.9,0-2.2l0.2,0c0-1.1,0-1.7,0.1-2.5
						c0.1-0.8,0.1-1.6,0.2-2.2l0,0.1c0.2-3.3,0.1-1.9,0.4-5.6l0,1.7c0.2-1.3,0-1.6,0.2-2.5c0,0.1,0.1-0.1,0.1,0.7l0.2-4.5
						C219.8,31,219.6,32.3,219.6,32.5z"/>
					<path class="st1" d="M220.2,26.8c0-0.2,0-0.5,0.1-0.8C220.3,26.3,220.3,26.6,220.2,26.8z"/>
					<path class="st1" d="M229.7,52.7l-1.3-0.2C228.8,52.5,229.2,52.6,229.7,52.7z"/>
					<path class="st1" d="M220.6,20.4c0,0,0,0.1,0,0.1c0,0,0,0,0,0C220.5,20.6,220.5,20.4,220.6,20.4c-0.1,0-0.1-0.1-0.1,0
						L220.6,20.4c-0.1,0-0.1,0.1-0.1,0.2l0,0.3l-0.1,1.4c0,0,0,0.3,0.1,0.2l0.1-1.1l0-0.6l0-0.3C220.6,20.6,220.6,20.4,220.6,20.4z"
						/>
					<path class="st1" d="M220.2,23.2c0,0.1,0,0.4,0,0.7l0.1-1.5C220.3,22.4,220.3,22.6,220.2,23.2z"/>
					<polygon class="st1" points="221.9,23 221.9,23.5 221.9,24.3 					"/>
					<path class="st1" d="M221.5,30.8c0.1-0.6,0.1-1.7,0.1-2.1C221.5,30,221.5,29.4,221.5,30.8z"/>
					<polygon class="st1" points="222.1,29.2 222.2,30.4 222.2,30.3 					"/>
					<path class="st1" d="M239.2,53.4c0.2,0,0.4,0.1,0.6,0.1C239.5,53.4,239.3,53.4,239.2,53.4z"/>
					<path class="st1" d="M228.6,51.9c2.9,0.7-1.9-0.2-1.1,0.3l1.6,0.2l-0.1,0.1l1.9,0.3c-0.4-0.2-0.7-0.3-0.6-0.4
						c2.6,0.5,0.8,0.3,2.7,0.8l2.9,0.5l-0.2,0c0.2,0,0.4,0,0.4,0c3.3,0.5,6.5,0.9,9.8,1.4c1.8,0.1-0.9-0.4,0.4-0.4
						c-2.1-0.3-5.1-0.9-5.3-0.6c0.1,0,0.2-0.1-0.2-0.2l-1.2,0.1l1.1,0.2c-1.2,0.1-5.1-0.6-5.8-0.9c2.2,0.3,1.2-0.2,4.2,0.4
						c-0.1-0.1-0.7-0.3,0-0.2C235.5,52.9,232.3,52.3,228.6,51.9z"/>
					<path class="st1" d="M252.7,55.8L252.7,55.8C252.7,55.8,252.7,55.8,252.7,55.8z"/>
					<path class="st1" d="M253.2,55.7c-0.1-0.1-0.2-0.1-0.4-0.1l-0.5,0.2l0.4,0c0,0-0.1-0.1,0.2-0.2L253.2,55.7z"/>
					<path class="st1" d="M252,55.5c0.6,0,1.5-0.1,1.5-0.2c0.2,0,0.3,0,0.3,0c-0.1,0-0.2,0-0.3,0.1c-0.2,0-0.3,0,0,0.1
						c0.3,0,0.5-0.1,0.6-0.1c-0.2,0-0.5,0-0.6,0L252,55.5z"/>
					<polygon class="st1" points="249.3,55.2 249.7,55.2 248.7,55 					"/>
					<path class="st1" d="M249.7,55.2l0.5,0.1c0-0.1,0-0.1,0-0.2c-0.1,0-0.1,0.1-0.1,0.1L249.7,55.2z"/>
					<path class="st1" d="M250.7,55.3c0.1,0,0.1,0,0.2,0L250.7,55.3z"/>
					<path class="st1" d="M250.5,55.3L250.5,55.3l0.2,0.1C250.7,55.3,250.6,55.3,250.5,55.3z"/>
					<path class="st1" d="M250.2,55.3c0,0.2-0.1,0.3,0.2,0.3c0.1-0.1,0.1-0.1,0.2-0.2L250.2,55.3z"/>
					<polygon class="st1" points="221.8,38.3 221.9,39.4 221.9,39.3 221.9,38.1 					"/>
					<path class="st1" d="M221.6,44.7c0,0.3,0,0.5,0.1,0.7C221.7,45.1,221.6,44.9,221.6,44.7z"/>
					<path class="st1" d="M222.6,46.3c0,0.1,0,0.1-0.1,0.1c-0.1,0-0.1,0.1,0.1,0.1c0,0.1-0.1,0.1-0.2,0.2c-0.1,0-0.2,0-0.3,0
						c0,0-0.1,0-0.1,0c0,0,0-0.1,0-0.1c0.1,0,0.1,0.1,0.1,0c0.1,0,0.1,0,0.1-0.1c-0.2,0-0.1-0.2-0.3,0c-0.1-0.1-0.1-0.3-0.1-0.4
						c0-0.1,0-0.1-0.1-0.2c0-0.2-0.1-0.3-0.1-0.6c0,0.2,0,0.5,0,0.6c0,0.1,0,0.2,0,0.3c0,0.1,0,0.2,0,0.4V47c0,0.1,0,0.1,0.1,0.1
						c0.3,0,0.6,0,0.8,0.1l0.1,0l0.2,0c0.1,0,0.3,0,0.4,0c0.3,0,0.6,0,0.8,0c1.1-0.1,0.5-0.5,0.6-0.8c-0.1,0-0.8-0.2-1.6-0.2l-0.3,0
						c0,0,0,0,0,0l0,0C222.7,46.3,222.7,46.3,222.6,46.3z"/>
					<path class="st1" d="M222.7,46.1C222.7,46.1,222.7,46.1,222.7,46.1C222.6,46.1,222.7,46.1,222.7,46.1z"/>
					<path class="st1" d="M233.1,49.9c0.1,0,1.2,0.1,1-0.1l-1.7-0.2C232.8,49.8,232.9,49.9,233.1,49.9z"/>
					<path class="st1" d="M231.7,49.6l0.7,0.1C232.2,49.7,232,49.7,231.7,49.6z"/>
					<path class="st1" d="M233.2,50L233.2,50C233.1,50,233.1,50,233.2,50z"/>
					<path class="st1" d="M251.5,55.5c-0.3,0.1,0.1,0,0.3,0C251.7,55.5,251.7,55.4,251.5,55.5z"/>
					<path class="st1" d="M237.7,60.9l-0.6,0.2C237.3,61,237.4,61,237.7,60.9z"/>
					<path class="st1" d="M228.4,65.4c0,0-0.1,0-0.1,0.1C228.4,65.4,228.4,65.4,228.4,65.4z"/>
					<path class="st1" d="M228.3,65.4c-0.4,0.2-1.8,0.5-2.2,0.7l0.1,0l-0.9,0.3C226.1,66.1,227.8,65.6,228.3,65.4z"/>
				</g>
			</g>
		</g>
	</g>
</g>
<g>
	<g>
		<g>
			<g>
				<g>
					<path class="st1" d="M129.9,215.4c-0.7-0.1-1.2-0.3-1-0.3c-1.4-0.3-1.4-0.3-1.6-0.3c-0.9-0.2-1.8-0.4-0.8-0.2L124,214l1.5,0.4
						c-0.4-0.1-2.4-0.6-2.9-0.7l2.7,0.7l-0.1,0c0.6,0.1,1.8,0.4,2.2,0.5c-0.1,0,0,0-0.5-0.1c3.2,0.8,0.9,0.1,3.6,0.7
						C130.4,215.5,130.2,215.4,129.9,215.4z"/>
					<path class="st1" d="M132.6,216.2c0.4,0.1,0.6,0,0.9,0.1c0.4,0.1,0.8,0.1,1.1,0.2c0.1,0,1,0.2,0.5,0c-0.1,0-0.4-0.1-0.6-0.1
						c0.3,0,1.8,0.4,1.7,0.2c-1.2-0.2-1.3-0.3-2.1-0.4c-0.3,0-0.5-0.1-0.7-0.1c-0.2,0-0.4-0.1-0.7-0.1c-0.5-0.1-0.9-0.2-1.2-0.3
						c-0.4-0.1-0.5,0-1-0.2c0.1,0,0.2,0,0.4,0.1l0,0.1c0.4,0.1,0.8,0.2,1.3,0.3l-2.3-0.4c0.3,0.1,1.1,0.3,1.8,0.5
						c0.4,0.1,0.7,0.2,1.1,0.3c0.2,0,0.3,0,0.4,0.1c-0.2-0.1-0.1-0.1-0.1-0.1c0,0,0,0,0,0C133.2,216.4,133.2,216.4,132.6,216.2z"/>
					<path class="st1" d="M130.6,215.5C130.6,215.5,130.6,215.5,130.6,215.5C130.6,215.5,130.6,215.5,130.6,215.5z"/>
					<path class="st1" d="M49.9,246.5c-0.5,0.2-0.6,0.2-0.6,0.3l5.2-1.8c-0.2,0-1.7,0.5-0.7,0.1c-0.5,0.1-1.8,0.6-2,0.7l0.4-0.2
						c-1.2,0.5-2,0.7-1.3,0.3l-0.1,0l-3.2,1.4C48.8,247,48.5,247,49.9,246.5z"/>
					<path class="st1" d="M55.2,201.6c-0.7-0.1-0.8-0.1-0.7,0C54.7,201.6,55,201.6,55.2,201.6z"/>
					<path class="st1" d="M46.8,247.7l-1.4,0.6C46,248.1,46.5,247.8,46.8,247.7z"/>
					<path class="st1" d="M53.6,244.1C53.6,244.1,53.6,244.1,53.6,244.1l-0.5,0.2c0,0,0,0,0,0C53.3,244.3,53.4,244.2,53.6,244.1z"/>
					<path class="st1" d="M52,228.5c0-0.1,0.1-0.2,0.1-0.3C52.1,228.3,52,228.4,52,228.5z"/>
					<path class="st1" d="M67.3,238.4l-2.2,1c0.3-0.2-0.8,0.3-0.3,0.1c-0.2,0.1-1,0.4-0.7,0.3l0.5-0.2c-1.2,0.6-0.4,0.3-2.4,1.2
						c1.3-0.4,1.8-0.7,2.4-1c0.2-0.1,0.4-0.2,0.6-0.2l1.8-0.9L67.3,238.4z"/>
					<path class="st1" d="M25.8,199.8L25.8,199.8C25.9,199.8,25.9,199.8,25.8,199.8z"/>
					<path class="st1" d="M26.3,199.9l-0.3-0.1C26.1,199.9,26.6,200.1,26.3,199.9z"/>
					<path class="st1" d="M47.2,247.5c0,0-0.2,0.1-0.4,0.2l0.8-0.3C47.4,247.4,47.3,247.5,47.2,247.5z"/>
					<path class="st1" d="M48.8,246.7l1.9-0.7l0.7-0.3C50.7,246,49.9,246.3,48.8,246.7z"/>
					<path class="st1" d="M50.6,231.4c1.7-3.9-0.3,1,0.6-0.7c0.5-1.1,0.6-1.5,0.8-2.2c-1.3,3.1-0.1-0.6-1.4,2.6
						c0-0.5,0.8-2.3,1.3-3.4c0.7-1.1-0.3,1.1-0.3,1.5c0.5-1.3,0.4-1.1,0.5-1.6c0.9-1.9,1.6-4.2,2.3-5.2c0.2-0.5,0.2-0.4,0.2-0.5
						c0,0,0-0.1,0-0.1c0,0-0.1-0.1-0.1-0.1c-0.2,0-0.1,0.1-0.2,0.1l-0.1,0l0,0c0,0-0.1,0.1-0.1,0.2c-0.1,0.3-0.3,0.5-0.4,0.6
						c0.1-0.1,0.2-0.3,0.2-0.2l-0.6,1.2c0.6-1.1,0.1,0.3-0.1,0.9c-0.2,0.5-0.6,1.4-0.6,1.2l0.3-0.7c-0.4,0.9-0.7,2-1.2,2.9
						c-0.1,0,0.1-0.3,0.1-0.4c-0.3,1.1-0.8,2.1-1.4,3.7l0.2-1c-0.4,1.3-1.7,4.1-2.6,6c0.1-0.2,0.3-0.6,0.2-0.3
						c-0.5,1.2-0.9,2-0.8,1.4c-0.4,1.2-2,4.2-2.6,5.8l-0.7,1.8l-0.1,0.2l-0.1,0.3l-0.3,0.7l-0.6,1.4c-0.2,0.4-0.3,0.8-0.5,1.2
						l-0.2,0.6l-0.1,0.1c0,0.1-0.1,0.1,0,0.1l0.3-0.1c0.9-0.3,1.7-0.6,2.7-1c-0.4,0.1-0.8,0.3-1.2,0.5c-0.8,0.1-1.2,0.3,0.3-0.3
						c-0.7,0.3-1,0.4-1.3,0.5c-0.1,0-0.2,0.1-0.3,0.1c-0.1,0-0.3,0.2-0.2,0c0.1-0.3,0.3-0.6,0.5-1.1c-0.3,0.8-0.2,0.8,0.7-1.1
						c0.3-0.6,0.5-1.2,0.8-1.7c0.2-0.5,0.4-0.9,0.6-1.3c0.4-0.9,0.7-1.7,1-2.5c0.7-1.7,1.3-3.3,2-5.1c0.1-0.1,1.4-3,2.1-4.4
						c-0.1,0.6-0.6,1.6-1,2.7c0.3-0.7,0.9-1.8,1.2-2.7L50.6,231.4z"/>
					<path class="st1" d="M46.7,240.6l0.2-0.3C46.8,240.3,46.8,240.4,46.7,240.6z"/>
					<path class="st1" d="M49.2,234.9C49.2,234.9,49.2,234.9,49.2,234.9l0.2-0.3C49.3,234.6,49.3,234.8,49.2,234.9z"/>
					<path class="st1" d="M46.1,247.8c0.3-0.1,0.5-0.2,0.7-0.3c-0.2,0.1-0.4,0.1-0.6,0.2C46,247.8,45.9,247.8,46.1,247.8z"/>
					<path class="st1" d="M47,247.5l-0.1,0.1c0.1,0,0.2-0.1,0.3-0.1C47.2,247.5,47.2,247.5,47,247.5z"/>
					<path class="st1" d="M54.3,219.2l-0.4-0.2C54.1,219.1,54.2,219.1,54.3,219.2z"/>
					<path class="st1" d="M52.7,227.2c-0.6,1.4,0.1,0.2-0.8,2.2l0.3-0.6c-0.6,1.4-1.7,3.8-2.5,5.4c0-0.2-0.5,0.9-0.5,0.7
						c-0.5,1.1-1,2.2-1.2,2.8c-0.3,0.7-0.8,1.7-1.2,2.6c0.2-0.3-0.4,1.3,0.5-0.8c-0.1,0.2,0,0.1-0.1,0.2c0.7-1.3,0.9-1.9,1.4-3.1
						c0.4-0.7-0.5,1.2-0.1,0.5c0.7-1.5,2.3-4.6,2-4.6c0.5-1.1,0.6-1.2,0.8-1.5c0.5-1.8,3.1-6.2,2.7-6.4c-0.3,0.6-0.7,1.6-1.1,2.6
						L52.7,227.2z"/>
					<path class="st1" d="M43.3,248.7c-0.1,0-0.3,0.1-0.2,0C43,248.9,43.2,248.7,43.3,248.7z"/>
					<path class="st1" d="M61.6,242.9l-0.5,0.3c-3.3,1.1-4.5,1.5-7.5,2.5c-0.2,0.1,0.1-0.1,0.3-0.1c-2,0.7-5.1,1.8-6.6,2.4
						c-0.5,0.2-1.3,0.5-2,0.7c-0.7,0.3-1.2,0.4-0.6,0.2c-0.6,0.2-1.1,0.4-1.7,0.6c-0.1,0,1.2-0.4,1.3-0.5c-0.5,0.2-0.6,0.2-0.7,0.2
						c0.8-0.3-0.7,0.1,2.9-1.2c1.4-0.4-2.5,0.9-1.7,0.8c1.3-0.5,1.1-0.4,1.2-0.5c0.8-0.3,1-0.3,1.1-0.4c0.1,0,0.1,0,0.1,0
						c0.4-0.2,1.6-0.6,2.1-0.8c1.9-0.7-0.1,0.1,1.1-0.3l0.7-0.4l2-0.7c2.9-1.1-0.5,0,2.8-1.3c-0.4,0.2,1-0.2,2.5-0.7
						c-0.9,0.3-2.6,1-3.8,1.4c1.7-0.5-2.3,0.8-1.4,0.6c0.8-0.3,2.2-0.8,3.3-1.2l-0.4,0.1c1.2-0.4,2-0.8,3.6-1.3
						c0.8-0.3,0.7-0.2,0.5-0.1C61,243.1,61.6,242.9,61.6,242.9z M59.9,243.5l-1.1,0.3C59.1,243.8,59.5,243.7,59.9,243.5z"/>
					<path class="st1" d="M127.9,220.4c0.1,0,0.2-0.1,0.3-0.1C128.1,220.3,128,220.3,127.9,220.4z"/>
					<path class="st1" d="M89.3,257.4l0.3,0.6C89.5,257.7,89.4,257.5,89.3,257.4z"/>
					<path class="st1" d="M93.5,262.8l0-0.3C93.5,262.6,93.5,262.7,93.5,262.8z"/>
					<path class="st1" d="M120.9,223.7L120.9,223.7c-0.1,0-0.1,0.1-0.2,0.1L120.9,223.7z"/>
					<path class="st1" d="M107.5,239.9c0.1-0.2,0.3-0.4,0.5-0.7C107.9,239.2,107.7,239.5,107.5,239.9z"/>
					<polygon class="st1" points="93.5,262.9 93.5,262.9 93.5,262.8 					"/>
					<path class="st1" d="M87.2,251.2c-0.1-0.1-0.1-0.2-0.2-0.4C87.1,251.1,87.1,251.2,87.2,251.2z"/>
					<path class="st1" d="M86.8,252.4c-0.1-0.1-0.2-0.2-0.2-0.3L86.8,252.4z"/>
					<path class="st1" d="M73.2,236.4l-0.8,0.3C72.8,236.6,73,236.5,73.2,236.4z"/>
					<path class="st1" d="M86,250.3c0,0-0.1-0.1-0.1-0.1C85.9,250.3,86,250.3,86,250.3z"/>
					<path class="st1" d="M133.2,218.6C133.2,218.6,133.2,218.6,133.2,218.6L133.2,218.6L133.2,218.6z"/>
					<path class="st1" d="M134.5,217.6c0.1-0.1,0.3-0.2,0.4-0.2C134.7,217.4,134.6,217.5,134.5,217.6z"/>
					<path class="st1" d="M121.3,241.8c0.3,0.1,0.5,0.2,0.4,0.3c0.1,0,0.2-0.1,0.2-0.1c0,0-0.1-0.1-0.1-0.1c0,0-0.1,0-0.1,0
						C121.5,241.8,121.4,241.8,121.3,241.8z"/>
					<path class="st1" d="M130,221.7c0.1-0.1,0.3-0.2,0.4-0.3C130.2,221.6,129.9,221.8,130,221.7z"/>
					<path class="st1" d="M130.4,221.4c0.1-0.1,0.3-0.2,0.4-0.3C130.7,221.3,130.6,221.4,130.4,221.4z"/>
					<path class="st1" d="M114.8,243.8c-0.1,0-0.1-0.1-0.3-0.1C114.6,243.7,114.7,243.8,114.8,243.8z"/>
					<path class="st1" d="M135.4,217.2c0,0,0.5-0.3,0.7-0.4c-0.2,0-0.3-0.1-0.3,0c0,0,0,0,0.1,0c-0.1,0-0.3,0.1-0.5,0.2
						c-0.1,0,0,0,0-0.1c0.1,0,0.3-0.1,0-0.1c-0.3-0.1-0.6-0.1-0.8-0.2c0.2,0.1-0.3,0-0.3,0c0.2,0,0.5,0.1,0.7,0.2c0,0-0.5,0-0.7-0.1
						c0.2,0.1-0.5-0.1-0.2,0.1c0.1,0,0.2,0.1,0.3,0.1l0.2,0l0.1,0c0,0,0,0,0,0c-0.2,0.1-0.4,0.2-0.6,0.3c-0.2,0.1-0.3,0.2-0.4,0.3
						l-0.2,0.2l-0.1,0.1c0,0-0.2,0.1-0.3,0.2l0.3-0.1l0.1-0.1l0.2-0.1c0.2-0.1,0.3-0.2,0.5-0.3c0.3-0.2,0.7-0.3,1.1-0.5
						c0,0,0,0.1,0,0.1c-1.1,0.3-1.2,0.6-1.9,0.9c0.5-0.3,1-0.5,1.7-0.8c1.1-0.4,0.6-0.1-0.1,0.2
						C135.1,217.3,135.3,217.2,135.4,217.2z"/>
					<path class="st1" d="M135.1,218.6L135.1,218.6c0.1-0.1,0.2-0.1,0.2-0.1L135.1,218.6z"/>
					<path class="st1" d="M74.2,238.7l-0.2,0.1C74.1,238.7,74.2,238.7,74.2,238.7z"/>
					<path class="st1" d="M132.9,219L132.9,219C132.9,219,132.9,219,132.9,219z"/>
					<path class="st1" d="M77.4,239.7C77.4,239.7,77.4,239.7,77.4,239.7C77.4,239.7,77.4,239.7,77.4,239.7z"/>
					<path class="st1" d="M81.1,239.9C81.1,239.9,81.1,239.9,81.1,239.9C81,239.7,81,239.8,81.1,239.9z"/>
					<path class="st1" d="M77.4,239.7C77.4,239.7,77.4,239.7,77.4,239.7C77.4,239.7,77.4,239.7,77.4,239.7z"/>
					<path class="st1" d="M92.9,271.2c0,0-0.1-0.2-0.2-0.5C92.8,270.7,92.8,270.8,92.9,271.2z"/>
					<path class="st1" d="M89.4,263.3c0,0,0-0.1,0-0.1L89.4,263.3z"/>
					<path class="st1" d="M120.1,240.3c-0.3-0.1-0.6-0.1-0.8-0.2C119.5,240.2,119.8,240.3,120.1,240.3z"/>
					<path class="st1" d="M77.4,239.6c0-0.1-0.1-0.1-0.2-0.3C77.3,239.5,77.4,239.6,77.4,239.6z"/>
					<path class="st1" d="M98.1,261.2c0,0.1-0.1,0.1-0.1,0.2L98.1,261.2L98.1,261.2z"/>
					<path class="st1" d="M100,258.4c0,0.1,0,0.2,0,0.2c0.5-1.1,1.7-3,1.6-3.3c-0.2,0.4-1.4,2.1-1.4,1.7c-0.4,0.8-1.2,1.8-1.3,2.2
						c0.8-1.1,0.3,0-0.1,0.8c-0.5,0.7-0.1-0.2-0.5,0.4l-1,1.7l0.9-1.5l0,0.6c0-0.1,0-0.1,0.1-0.2C99.6,258.5,98.6,261,100,258.4z"/>
					<path class="st1" d="M100,258.6c-0.1,0.2-0.1,0.3-0.2,0.4C99.9,258.8,99.9,258.7,100,258.6z"/>
					<path class="st1" d="M106.3,248.6c0.1-0.1,0.1-0.3,0.2-0.5C106.5,248.2,106.4,248.4,106.3,248.6z"/>
					<path class="st1" d="M52.8,245.2c0.1,0,1.7-0.5,1.6-0.6c-0.5,0.2-1,0.3-1.4,0.5L52.8,245.2z"/>
					<path class="st1" d="M127.3,242.1l0.3,0.4c0,0,0.1,0.1,0.1,0.1C127.6,242.6,127.4,242.3,127.3,242.1z"/>
					<path class="st1" d="M100.4,256.5c-0.1,0.3-0.2,0.4-0.2,0.5C100.3,256.8,100.4,256.7,100.4,256.5z"/>
					<path class="st1" d="M127.9,242.4c0-0.2-0.1-0.4,0-0.5c-0.3-0.5-0.6-0.8-1-1.3C127.3,241.1,127.6,241.7,127.9,242.4z"/>
					<path class="st1" d="M126.9,240.6C126.9,240.6,126.9,240.6,126.9,240.6L126.9,240.6z"/>
					<path class="st1" d="M51.9,245.5c-0.1,0.1-0.3,0.1-0.4,0.2l0.2-0.1c-0.4,0.1-0.7,0.3-1.1,0.4c-0.1,0.1-0.3,0.1-0.4,0.2
						c0.1,0,0.1-0.1,0.2-0.1l-0.4,0.1c-0.4,0.2-1.2,0.5-1.9,0.8c-0.7,0.3-1.5,0.6-1.8,0.7c-0.5,0.2-1.1,0.4-1.6,0.6
						c-0.5,0.2-1,0.3-1.4,0.5c0.7-0.2,1.6-0.5,1.4-0.5c-0.3,0.1-0.6,0.2-0.9,0.3c-0.2,0-0.7,0.3-0.4-0.1c0.3-0.6,0.6-1.3,1.1-2.4
						l-0.6,1.3l1.3-2.9c0.5-0.9-0.5,1.3-0.8,1.8c0.1-0.3,0.3-0.6,0.4-0.8c0.1-0.2,0.2-0.5,0.4-0.7c0.2-0.4,0.5-0.9,0.7-1.3
						c0.4-0.8,0.8-1.4,0.9-1.9c0.1-0.1,0.4-0.3,1-1.6c-0.6,0.9,0.3-0.8-0.1-0.1c0.2-0.5,0.8-1.5,0.7-1.6l0,0.1
						c1.3-2.2,1.4-3,1.8-4.1c1.3-2.7,1.9-4,3-6.2c0.1,0,0.6-0.5,1.1-1.4c0.1-0.5,1-2.5,1-2.8c-0.8,1.6-0.5,1.4-0.9,2.3
						c-0.5,0.7-0.2,0-0.8,1c0.5-0.8,1.8-4,2.4-4.8l-0.1,0.3c0.4-0.6,0.7-0.9,1-1.5c0.8-0.6-0.3-1-1.3-1.5l-1.2-0.6
						c0.1,0,0.1,0,0.1,0c-1.9-1.2-1.2-1.1-3.4-2.2c0.2,0.1,0.1,0,0.2,0.1c-1.1-0.8-2.4-1.4-3.4-1.9c-0.4-0.5,0.2-0.1,0.6,0
						c-2-1.4-4.5-2.5-5.9-3.1l-1.3-0.9c0.8,0.4,1.9,0.9,1.7,0.6c-0.8-0.4-0.7-0.3-1.7-0.9c0.2,0,0.7,0.2,1.3,0.4
						c-2-1.5-0.7,0.1-2-1.2c-0.7-0.4-1.2-0.5-1.3-0.4l-1.1-0.9c-0.2,0.1-1.8-0.9-2.8-1.5c-0.2,0,0.7,0.7,1.1,0.8
						c-0.2,0.1-1.2-0.5-1.9-1c0-0.5-4.5-2.7-3.4-2.6c-1.7-1-3.8-2.3-5.8-3.5c-1-0.6-2-1.2-2.9-1.7c-0.5-0.3-0.9-0.5-1.3-0.8
						c-0.2-0.1-0.4-0.2-0.6-0.4c-0.1-0.1-0.2-0.1-0.3-0.2c0,0-0.1-0.1-0.1-0.1l0.1,0c1.3,0.2,3,0.4,2.5,0.5c1.5,0.1,2.5,0.2,3.5,0.2
						c1,0,2.3,0.1,4.1,0.3c0.3,0.1-1.6-0.2-1.3,0c1,0,2.1,0.2,3.2,0.3c0.5,0.1,1.1,0.1,1.7,0.2c0.6,0.1,1.2,0.1,1.9,0.2
						c-0.5,0-0.6,0-0.7,0c0-0.1,1.2,0,1.9,0.1c0.4,0.1-0.6,0-0.3,0c5.6,0.7,9.9,0.8,15.4,1.5c-1.6-0.2-2.2-0.1-2.2-0.1l1.6,0.2
						c0.6,0,1.8,0.1,2.8,0.2c0.1,0,0.6,0.1,0.1,0.1c3.1,0.4,4.8,0.4,8.6,0.9c-1.5-0.2-3-0.3-4.6-0.4l1.1,0.2l-2-0.1
						c1.2,0.1,2.2,0.2,2.4,0.2c-0.3,0-0.9-0.1-0.9,0c1.2,0.1,1.2,0.1,2.1,0.2c-2.5-0.2-6.8-0.5-9.2-0.6c-0.4,0,0.3,0,0.4,0
						c-1-0.1-1.6-0.2-2.8-0.3c-0.8,0,0.6,0.1,1.2,0.2c-0.1,0.1-0.4,0-1.1,0c-0.1-0.1-3.7-0.3-4.6-0.6c-3.6-0.3,0.6,0.4-3,0l-1-0.2
						c-2.1-0.1-4.7-0.2-7.1-0.4l0.5,0c0.3,0-0.2-0.1-0.4-0.2c-0.8-0.1-1.5-0.2-2.1-0.2c-0.6-0.1-1-0.1-1.5-0.3c-1.4-0.1-3,0-3.9,0
						c-1.4-0.3,1.1-0.1,1.4-0.2l-1.5-0.1c0.9,0.1,1,0,1.3-0.1c-1.6-0.2-1.5,0-2.4,0c-0.1,0-0.2-0.1-0.4-0.1c0,0-0.1,0-0.1,0
						c0,0-0.1,0-0.1,0l0,0l0,0c0.1,0.1,0.2,0.1,0.3,0.2l0.8,0.3c0,0,0,0,0.1,0.1l2.2,1.2c-0.2-0.2,0.2-0.1-0.2-0.4
						c-0.1,0-0.6-0.2-1-0.5c0.8,0.3-0.1-0.2,0.2-0.1c0.8,0.5,1.9,1.1,2.5,1.4l-0.2,0.1c0.7,0.5,1.7,0.9,2.1,1.3l-0.3,0
						c0.2,0.2,0.5,0.3,0.7,0.5c0.4,0.2,0.8,0.5,1.1,0.7c0.8,0.5,1.5,0.9,2.1,1.4c1.5,0.7,3.3,1.6,4.6,2.1c0.7,0.2,3.9,2.8,5.6,3.5
						c0.1,0.1-1.2-0.5-1.7-0.8c1,0.7,2,1,2.2,1.4c-2.3-1.5,0,0.2-1.1-0.4c1.1,0.7,2.3,1.4,2.8,1.6c-1.8-1.1,0.8,0.1-1-0.9
						c1.5,0.7,3.4,1.9,5,3c-0.1,0.1,0.1,0.2,0.7,0.7L53,216c0.8,0.5-1.6-0.8-0.1,0.2c0.9,0.4,2,1.2,3.1,1.9c0.4,0.2,0.7,0.5,1.1,0.7
						c0.4,0.2,0.7,0.5,1,0.7c0.3,0.2,0.6,0.4,0.9,0.5c0.2,0.1,0.1,0.2,0.1,0.3c0,0.1,0,0.2,0,0.2c-0.3,0.5-0.3,0.5-0.3,0.3
						c0-0.1,0.1-0.3,0.2-0.4c0-0.1,0.1-0.2,0.1-0.3c-0.1-0.1-0.2-0.1-0.3-0.2c-0.8-0.5-1.4-0.8-0.2,0.1c-0.8-0.4-1.7-1-2.4-1.5
						c-0.6-0.4-1-0.6-1.3-0.7c1.1,0.6,0.3,0.4,1,0.8l1.6,0.9l-0.3-0.2c0.3,0.2,0.7,0.4,1.1,0.6l0.3,0.2l0.1,0.1c0,0,0,0.1,0,0.1
						c-0.1,0.2-0.2,0.4-0.3,0.6c-0.2,0.4-0.4,0.9-0.7,1.4c-0.2,0.4-0.4,0.9-0.7,1.3c-0.7,1.4-1.5,2.9-2.2,4.2
						c-1,2.3-1.7,3.9-3.1,6.5c0.4-0.8-1.3,2.2-0.5,0.4c-0.7,1.2-1.3,2.4-1.3,2.5c0.6-1.1,0.2-0.4,0.7-1.3c-0.3,0.6-1,2.1-1.4,2.6
						c0.1-0.3,0.1-0.2,0.1-0.2c-0.7,1.3-0.3,0.6-0.8,1.6c-0.2,0.3-1.1,2.1-1.6,2.9l-0.6,1.3c0.3-0.7-0.6,1.2-0.8,1.3l-0.2,0.3
						c0,0.1,0,0.1-0.1,0.2c0,0.1,0,0.2-0.1,0.3c0,0.2-0.1,0.4-0.3,0.7c0,0,0,0,0,0c0,0,0,0.1-0.1,0.1c0,0,0.1,0,0.1,0
						c0.1,0,0.3-0.1,0.3,0c0.3-0.1,0.6-0.2,0.9-0.3c0.5-0.2,1-0.4,1.5-0.6c1-0.4,2-0.8,3.1-1.2c-0.1,0-0.5,0.2,0.2,0
						c0.5-0.2,1.5-0.5,2-0.8l0,0c0,0,0,0,0,0c0.3-0.1,0.5-0.2,0.5-0.2c1-0.4,1.4-0.7,3.4-1.4c-0.2,0-1.8,0.6-2.5,0.9l-0.6,0.3
						c-0.6,0.1-1.7,0.7-2.2,0.8c1.1-0.5,4.5-1.7,6.4-2.5c-1.2,0.4-3.9,1.3-6.2,2.2l1-0.3l-1.2,0.4l1.2-0.4c-1.2,0.4-2.1,0.8-3.2,1.2
						c1.2-0.4,1.7-0.5,1-0.3c-1.4,0.4-1.4,0.5-2.4,0.9c0.6-0.2,1.3-0.5,0.9-0.3c-1.1,0.3-1.7,0.6-2.3,0.8c-0.2,0.1-0.3,0.1-0.5,0.2
						l-0.1,0l0,0l-0.1,0c-0.1,0-0.2,0-0.3,0c0,0.1-0.2,0.1-0.4,0.2c-0.2,0.1,0-0.1,0-0.1c0-0.1,0-0.1,0-0.1l-0.2,0.3
						c0.1-0.2,0.1-0.4,0.2-0.6c0.2-0.3,0.1-0.2,0.1-0.1c0,0,0,0.1,0,0c0,0,0,0,0-0.1c0,0,0,0,0-0.1c0,0,0,0,0-0.1
						c0-0.1,0.1-0.1,0.1-0.2c1.2-2.2,1-2.2,2-4c-0.2,0.6-0.9,2-1.7,3.4l0.5-0.8c-0.1,0.2-0.4,0.8-0.8,1.5l-0.1,0.1c0,0,0,0,0,0
						l0,0.1l0,0.1c0,0.1,0,0.1-0.1,0.2c0-0.1,0-0.1-0.1,0c-0.1,0.1-0.3,0.4-0.1,0.3c0.1-0.1-0.1-0.1,0.3-0.2c-0.1,0-0.1,0-0.1,0
						c0,0,0-0.1,0-0.1c0-0.1,0.1-0.2,0.1-0.3c0,0.1-0.1,0.2-0.1,0.3c0,0,0.2-0.1,0.2-0.1c0.1,0,0.1-0.1,0.1-0.1c0,0,0,0,0,0
						c-0.1,0,0.2,0,0.3-0.1c0.2-0.1,0.3-0.1,0.5-0.2c-1.3,0.5,0.5-0.1,0.7-0.1c0.6-0.2,1.9-0.7,2.4-0.9l-0.5,0.1
						c1.7-0.7,2.3-0.7,4.3-1.5c0.2-0.1-1.7,0.6-1.4,0.5c2.7-1,3.7-1.3,6.1-2.1c0.1-0.1,0.1-0.1,0.9-0.5c-0.2,0.2,0.4,0-0.5,0.3
						c0.8-0.3,1.7-0.7,2.4-1c-1.7,0.6,0.6-0.3,0.9-0.5c0.9-0.3-0.2,0.2-0.8,0.4c0.7-0.2,1.5-0.5,1.9-0.7c0.1,0.1-1.9,0.9-3.1,1.4
						l0.9-0.3c-0.6,0.3-0.7,0.3-1.6,0.6c0.9-0.3,0.8-0.2,0.6-0.1c-0.1,0,0.1,0-0.1,0c-0.7,0.2-1.2,0.5-1,0.4c-0.6,0.3,1-0.3,1.5-0.4
						c0.3-0.1,0.7-0.3,1-0.4l3.5-1.6c1.5-0.6,2.2-0.8,3.4-1.2l0.3-0.2c1.3-0.5,2.6-1,1.8-0.5c-0.1,0-0.2,0.1-0.5,0.2
						c0,0-0.1,0.1-0.2,0.1c0,0,0,0-0.1,0c1.4-0.6,2.3-1,2.4-1c-2.3,1.1-0.1,0.2-0.4,0.6l2.4-1c-1.5,0.5-0.1-0.1,0.5-0.3
						c0.1,0,0.4-0.1,1.4-0.5c0.4-0.2,0.9-0.3,1.4-0.5c0.1,0,0.2-0.1,0.3-0.1l0.2-0.1c0.1,0,0.1,0.1,0.1,0.1c0.1,0.2,0.2,0.4,0.3,0.5
						l-0.1-0.1c0.3,0.5,0.7,1.3,1,2.1c0.3,0.5,0.6,1.1,0.8,1.6c0-0.1,0.8,1,1.3,1.6c-0.8-1.6-0.3-0.7-0.2-0.9
						c0.1,0.2,0.2,0.5,0.3,0.5c0.2,0.2-0.1-0.3-0.1-0.4c-0.5-0.8-1-1.7-1.4-2.4c-0.1-0.1-0.1-0.2-0.2-0.3c-0.1-0.1-0.1-0.2-0.2-0.3
						c-0.2-0.3-0.3-0.6-0.5-0.8c-0.3-0.5-0.5-0.8-0.7-1.1c0.2,0.5,0.4,0.8,0.6,1.2c0.1,0.2,0.2,0.4,0.3,0.6c0.1,0.1,0.1,0.2,0.2,0.3
						c0,0.1,0.1,0.1,0.1,0.2c-0.1-0.1-0.4-0.6-0.6-1c-0.2-0.4-0.5-0.8-0.7-1.3c-0.1-0.1-0.1-0.2-0.2-0.3c0,0-0.1-0.1-0.1-0.2
						l-0.2,0.1c-0.3,0.1-0.5,0.2-0.8,0.2c-0.5,0.1-1.2,0.4-1.8,0.6c-0.2,0-0.2,0.1-0.3,0.1l-0.3,0.1l-1.5,0.6
						c0.6-0.3,0.2-0.2,1.8-0.9c-0.2,0-1.5,0.6-2.5,1l-0.5,0.3c0.2-0.1-1.9,0.7-0.5,0l2.3-1.1l-0.7,0.2l1-0.4l0.5-0.2l0.2-0.1
						l0.5-0.2l-0.5,0.2l-0.2,0.1c0.1,0,0.2-0.1,0.3-0.1c0.2-0.1,0.3-0.1,0.5-0.2c0.3-0.1,0.6-0.2,0.8-0.3c0.5-0.2,0.8-0.2,1.1-0.3
						c0.3-0.1,0.5-0.1,0.6-0.1c0.1,0,0.1-0.1,0.2,0c0,0.1,0.1,0.1,0.1,0.2c0.1,0.2,0.2,0.5,0.5,1c0.1,0.3,0.3,0.6,0.5,1
						c0.1,0.2,0.2,0.5,0.4,0.7c0.1,0.1,0.2,0.3,0.3,0.5c0.7,0.9,1.3,1.9,2.3,3.8c-0.8-1.3-0.2-0.1-0.6-0.5c0.7,1.4,1.1,1.8,1.5,2.5
						c0.1,0.4,0.2,0.7-0.5-0.6c-0.3-0.1,0.9,1.6,0.8,1.8c2.2,4.1,2.5,2.9,4.8,7.9l-0.2-0.1c1.8,3,2.6,4.8,4.1,7.7l0.4,1.2l0.2,0.6
						l0.1,0.3l0,0.1c0.1,0.1-0.3-0.5-0.6-0.7c-0.2-0.3-0.4-0.4-0.3-0.1c-0.3-1.2-1-2.4-1.4-3.6c-0.1-0.1,0.1,0.4,0.1,0.6
						c-0.4-0.7-0.4-1.1-1-2c0,0.1,0.4,1.1,0,0.4l-0.5-1.4c-1-1.7-0.8-0.7-1.8-2.7c0.3,0.3,0.9,1,1.4,1.7c-0.4-0.9,0.7,1.2,0.4,0.3
						c-0.9-1.2-1.1-1.9-2.1-3.6c0.1,0.2,0.2,0.2,0.4,0.7l-1.3-2.6c0.2,0.7-1.2-2-1.3-1.7c1.4,2.7,1,1.9,2.6,5
						c-0.5-0.9-1.3-1.9-1.7-2.3c0,0,0-0.1-0.1-0.2c-0.4-0.4-0.2,0.1-0.5,0.2c0.9,1.3,1.2,2.3,2.2,4c0.3,0.2-0.3-1.1-0.7-1.9l0.9,1.4
						l-0.2-0.3l1.8,3.8c-0.4-0.7-0.6-0.9-0.9-1.2c0.2,0.5,0.4,1,0.6,1.5c0.1-0.2,0.3-0.2,0.5,0.3c1.2,2.4,1.7,3.9,1.9,4.8
						c0,0.1,0.1,0.2,0.1,0.2c0-0.2,0.2,0.1,0.4,0.3c0.2,0.3,0.4,0.5,0.5,0.6c-0.1,0.3,0.2,0.7,0.4,1.3c0.1-0.3,0.1-1.2,0-1.7
						c-0.2,0-0.2-0.1-0.3-0.1c-0.1,0-0.1,0.1-0.3,0.1l-0.9-1.5l0.5,0.5c-0.6-1.3-1.4-2.5-1.2-2.5c0.5,0.6,1,1.8,1.5,2.4l-0.4-0.9
						c0.5,0.7,0.6,1,0.5,1c0,0.1,0,0.3,0.1,0.6c0-0.4,0,0.1,0.2,0.2c0-0.4-0.4-1-0.1-1.1c0.1,0.1,0.1,0.1,0.1,0.3c0,0.1,0,0.3,0,0.4
						c0,0.3,0.2,0.7,0.3,0.5l0,0.1c0.1,0.1,0.1,0.2,0.2,0.2c0,0,0,0,0,0l0-0.1c0-0.1,0-0.1,0-0.2c0-0.2,0.1-0.5,0.1-0.6
						c0.1,0,0.1-0.4,0.2-0.5l0.1,0.1l0-0.1l0,0c0,0,0,0,0,0l0.1-0.2c0,0.1-0.1,0.2,0,0.2c0,0,0,0,0,0.1c0,0,0,0.1-0.1,0.1
						c-0.1,0-0.1,0.1-0.2,0.1l0.1,0.2c-0.2-0.1-0.2,0.6-0.3,1.3c0.1-0.4,0.2-0.6,0.4-0.9c0.1-0.2,0.2-0.5,0.1-0.6c0.1,0,0.2,0,0.3,0
						c0,0,0.1-0.2,0.1-0.4c0.2-0.3,0.3-0.2,0.3,0.1c0,0.1,0,0.2-0.1,0.2c0,0,0,0.1-0.1,0.2c0,0,0,0,0,0.1c0,0.1-0.1,0.2-0.1,0.3
						c-0.1,0-0.1,0-0.1,0c0,0.3-0.1,0.6-0.4,1.1l0.1-0.4c-0.2,0.3-0.3,0.6-0.5,1l-0.1,0.1l0,0.1l0,0c0,0-0.1,0-0.1-0.1
						c-0.1,0-0.1,0-0.1,0l0.2,0.5c0,0,0,0.1,0.1,0.1l0.1-0.1l0.1-0.2c0.2-0.3,0.3-0.5,0.5-0.8c0.2-0.3,0.3-0.5,0.5-0.8l0.2-0.4
						l0.4-0.6c-0.1-0.9,0.2-1.8-0.1-2.4c0.8-1.6,1.8-3.7,2.7-4.9l0,0.2c0.4-0.6,0.7-1.2,0.9-1.7c0.5-0.6,0,0.6,0.3,0.2l1.1-2.2
						c0.1,0.2-0.9,2.1-1.4,2.9c0.1-0.2,0.2-0.5,0.1-0.4c-0.6,1-1.4,3-1.9,3.3c-0.2,0.5,0.4-1.1-0.6,0.5c-0.7,1.1-0.7,1.6-0.7,1.7
						c0.1,0.1,1.1-1.7,0.9-1c0.5-0.9,0.5-1.3,1.2-2.3c-0.5,0.9-0.9,2.2-1.3,2.5c-0.8,1.8-0.1,1.8,0.3,1.1c-0.3,0.1,1.6-3.2,0.1-1.1
						c0.4-1.1,1.4-2.9,2-4.3l0,0.1l0.9-1.7c-0.1,0.3-0.3,0.8-0.2,0.9l1-2.4c-0.5,1.4,0.6-0.7,1-1.2c0-0.3,0.3-1.3-0.2-0.5
						c-0.7,0.9-0.2,0.6-0.7,1.5l0.4-1.4l0.1-0.1l0.2-0.9c0.9-1.6,0.1,1,1.1-1.2l-0.4,0.1c0.7-1.2,1.6-2.6,2.4-3.8
						c0.4-0.6,0.8-1.2,1.1-1.8c0.6-1,1.1-1.9,1.5-2.7c-0.4,1-0.3,1.6,0.4,0.7c-0.4,0.6-0.9,1.5-1.4,2.4c-0.3,0.6-0.7,1.3-1,1.8
						c-0.1,0.1,0-0.3,0.2-0.8c0.1-0.3,0.2-0.6,0.4-0.9l0.1-0.2l0.2-0.4c0.2-0.3,0.3-0.5,0.5-0.8c-0.2,0.1-0.6,0.6-0.8,1.1
						c-0.2,0.3-0.3,0.7-0.5,1c-0.3,0.7-0.6,1.4-0.9,1.3c-1.9,2.9-0.8,2.5-2.5,4.8c0.2,0.2-0.3,0.8-0.2,1c0.8-0.5,1.9-3.4,3-4.9
						c-0.1,0.2-0.2,0.5-0.2,0.6c0.7-1.1,1-1.6,1.3-2.5l-0.1,0.1c0.6-1.6,0.6-0.7,1.4-1.8c0.3-0.5,1.3-2.2,1-2.1l0.4-0.5l0.2-0.3
						c0,0,0-0.1,0.1-0.1l0.2,0.1l1.3,0.4l-0.2-0.3c0.8,0.2,1.2,0.3,1.7,0.4c0.2,0.1,0.4,0.1,0.7,0.2c0.1,0,0.3,0,0.4,0.1
						c0.2,0,0.3,0,0.4,0l0.1-0.2l-3.8-0.9c2,0.4,0.5-0.1,2.8,0.3c-1.3-0.1-0.8,0,0,0.2c0.2,0.1,0.4,0.1,0.6,0.2l0.3,0.1
						c0.1,0,0.1,0,0.2,0.1c0.2,0.1,0.4,0.2,0.4,0.2l1,0.1l-0.3,0c0.7,0.3,0.9,0.1,1.8,0.3c-1-0.4-1.7-0.7-3.1-0.8
						c1,0.1,3,0.4,3.5,0.5c1.1,0.1,1.7,0.5,2.7,0.7c-1.9-0.3,0.5,0.9-3.2-0.1c0.1,0,0.4,0,0.5,0.1c-0.4-0.4-2.2-0.5-3.1-0.5
						c0.2,0.2-0.7,0.1,0.7,0.5c-0.4-0.2,1.3-0.1,2.6,0.3l-0.3,0.3l2,0.5l-0.2,0c0.3,0.2,0.9,0.3,1.5,0.4c0.3,0.1,0.6,0.1,1,0.2
						c0.2,0,0.3,0.1,0.5,0.1l0.3,0.1l0.2,0.1c0.6,0,2.7,0.6,1.6-0.1c0.4,0.2,0.7,0.3,0.9,0.3c0.2,0,0.4,0,0.7,0l-1-0.4
						c0.2-0.1,0.3-0.1,0.4-0.1c0,0,0-0.1-0.1-0.3c0.3,0.2,0.4,0.2,0.6,0.4c-0.2-0.4-0.4-0.8-0.7-1.3c-0.4-0.5-0.7-0.9-1-1.1
						c0-0.1-0.1-0.1-0.1-0.2c-0.1-0.2-0.2-0.3-0.2-0.5c-0.1-0.3-0.3-0.6-0.4-0.9c-0.3-0.6-0.6-1.3-1.4-2.4c-0.3-0.5,0,0.5-0.9-1
						c0-0.1,1.1,1.3,0-0.3c-0.5-0.5-0.9-1.3-1.3-2c-0.2-0.4-0.4-0.8-0.7-1.2l-0.4-0.6c-0.2-0.3-0.4-0.6-0.6-0.9
						c-0.8-1.4-2-3.6-1.6-3.1c0.5,1,1.3,2.2,1.9,3.2c0.2,0.2,0.3,0.5,0.5,0.7c0.1,0.1,0.2,0.3,0.3,0.4c0.2,0.2,0.3,0.4,0.3,0.4
						c-0.2-0.1,0.5,1-0.2,0.1c1.1,2,0.9,1.2,1.9,3c0.1,0.1-0.4-1-0.7-1.4c0.2-0.2,2.3,3.4,1.6,1.7c-1.2-1.9-2-2.1-2.7-3.9
						c0.5,0.6,1.1,1.7,1.8,2.3l-0.7-1.4l-0.8-0.9l0.1,0c-0.2-0.3-0.3-0.5-0.5-0.8c-0.2-0.3-0.4-0.6-0.5-0.8
						c-0.3-0.5-0.6-0.8-0.9-1.2c-0.3-0.4-0.6-0.7-0.9-1.2c-0.1-0.1-0.2-0.2-0.3-0.4c0.1-0.1,0.2-0.2,0.3-0.3
						c0.3-0.2,0.6-0.4,0.9-0.6c-1,0.5-1,0.4-1,0.2c0-0.1,0.2-0.3-0.6,0.1c0.6-0.3,1.1-0.7,1.6-1c0.5-0.3,1-0.5,1.4-0.7
						c0.8-0.4,1.3-0.5,1.4-0.4c-2.3,1.2-2.2,1.2-2.2,1.3c0.1,0,0.1,0.1-1.5,1.1c0.7-0.3-0.3,0.5,1.6-0.5c1-0.6,0.9-0.6,0.6-0.5
						c-0.2,0.1-0.4,0.1,0.8-0.5c0.2-0.1,0.3-0.1,0.3,0c0.3-0.2,0.5-0.3,0.7-0.4c0.2-0.1,0.3-0.1,0.4-0.2c0.3-0.1,0.5-0.2,1-0.5
						l-0.2,0.2c1.3-0.4,1.2-0.8,2.3-1.1c-0.5,0,0.6-0.4,1.2-0.8c-1.1,0.4-1.7,0.5-3.8,1.5c-0.2,0.2,0,0.2-0.8,0.7l1.3-0.6
						c-0.3,0.2-0.5,0.3-0.7,0.4l-0.7,0.3l-0.9,0.4c0.3-0.2,0.5-0.3,0.8-0.4c0.1-0.1,0.2-0.1,0.3-0.2c0.2-0.1,0.2-0.2,0.3-0.2
						c0.1-0.1,0-0.2,0.3-0.4c1.5-0.6,1.2-0.6,2.2-1c0,0.2,3-1.1,4.8-1.8c-0.3,0.1-0.6,0.3-0.8,0.4c-1.2,0.7,0.9-0.3,1-0.3l0.9-0.5
						c-0.2,0.1-0.4,0.2,0,0.1c1.2-0.6,1.1-0.7,2.3-1.3c0.1,0-0.9,0.6-0.1,0.3c0.1,0,0.5-0.1,0.9-0.3c0.2-0.1,0.5-0.2,0.8-0.3
						c0.2-0.1,0.3-0.2,0.5-0.2c0.2-0.1,0.3-0.1,0.4-0.2c0.1-0.1,0.3-0.2,0.6-0.4c0,0-0.1,0.1-0.1,0.1c0.3-0.1,0.5-0.2,0.9-0.3
						c-0.2,0.2-0.6,0.4-1,0.5c-0.2,0.1-0.3,0.2-0.5,0.3l-0.2,0.1c-0.1,0.1-0.2,0.1-0.3,0.2l0,0.2c-0.7,0.3-1.7,0.9-2.1,1.2
						c1.1-0.5,1.3-0.7,2.5-1.3c0.2,0-0.6,0.5-0.7,0.5l0.1-0.2c-1.5,0.6-2.1,1.2-3.9,2.1c-0.3,0.1-0.1,0-0.1,0
						c-1.4,0.9-2.9,1.4-4.3,2.3l0.4-0.3c-0.9,0.5-2.8,1.7-4.6,2.7l0,0.1c0.2,0-0.4,0.2-0.7,0.4l0,0c-0.4,0.2-0.7,0.4-1,0.6l-0.2,0.1
						c-0.1,0-0.2,0.1-0.1,0.2c0.1,0.2,0.2,0.3,0.4,0.4c0-0.1-0.1-0.2-0.1-0.3c0-0.1-0.1-0.1-0.1-0.2c0,0,0,0,0-0.1l0.1,0
						c0.1-0.1,1.5-0.8,1.2-0.8c0.4-0.1,0.7-0.3,1.3-0.6c0.5-0.3,0.9-0.5,1.3-0.6c-1.1,0.4,0.7-0.5,0.8-0.7c0.4-0.1,1.6-0.8,1.5-0.6
						c0.2-0.1-0.6,0.2-1,0.5c-1.1,0.7,2.1-0.9,0.8-0.1c1.7-1,4.1-2.2,5.9-3.2l-1.1,0.5c0.8-0.4,2.7-1.4,2.9-1.4
						c-0.6,0.3-1.3,0.7-2.1,1.1c0,0.1,1.9-1,2-0.9c0.7-0.5,1.4-0.9,2.2-1.4l-1.1,0.5c0.6-0.4,3-1.5,4.6-2.3c-0.3,0.2-0.9,0.6-1.7,1
						c-0.8,0.4-1.7,0.8-2.6,1.3c-1.1,0.7,0.8-0.2-0.3,0.4c0.2-0.1,0.4-0.2,0.7-0.3c0.3-0.2,0.7-0.4,0.9-0.5l0.6-0.3
						c-0.5,0.3-1.7,1-2.4,1.4c-0.8,0.5-1.7,1-2.4,1.4c0.1-0.1,0.2-0.2,0.3-0.2c-1.2,0.5-2.3,1.1-3.4,1.8c0.6-0.3,0.8-0.4,1.1-0.6
						c0.1,0-1,0.6-1.3,0.8c1-0.5,0.2,0,0.9-0.3c-0.6,0.4-1.2,0.7-2,1.1c-0.5,0.2,0.3-0.3,0.2-0.3c-0.8,0.5-1.3,0.5-2.5,1.2
						c1.6-0.8-0.3,0.4-0.9,0.8l0.3-0.1c-0.5,0.4-0.9,0.6-1.3,0.7c0.6-0.4,1.3-0.7,1.1-0.7c-0.4,0.2-0.9,0.5-1.4,0.8l0.4-0.3
						l-1.1,0.6l-0.6,0.3c-0.1,0.2-0.2,0.4-0.1,0.5c-0.1,0-0.2,0-0.2,0.1c-0.1,0-0.2,0.1-0.1,0.1c0.1,0.1,0.2,0.2,0.3,0.3l-0.1-0.1
						c0.1,0.2,0.2,0.5,0.4,0.7c0.4,0.6,0.9,1.1,1,1.2c0.1,0.2-0.1,0-0.4-0.3c-0.1-0.1-0.3-0.3-0.5-0.5c-0.1-0.1-0.2-0.2-0.2-0.3
						c-0.1-0.1-0.1-0.1-0.1-0.1c-0.2-0.1-0.3-0.2-0.3-0.1c0,0.1,0.1,0.2,0.1,0.3c0.2,0.3,0.5,0.7,0.9,1.3c1.2,1.7,1,0.9,1.8,1.8
						c0,0-0.1,0,0,0.1c0.5,0.8,0.7,0.8,1.1,1.4c-0.3-0.5-0.7-1.1-0.9-1.3c0.3,0.1,1.1,1.6,1.6,2.1c-0.7-0.6,0.9,1.5,0.4,1
						c0.2,0.4,0.5,0.8,0.7,1.2c0.1,0.2,0.3,0.4,0.4,0.6c0.2,0.2,0.3,0.5,0.5,0.7c0.8,1.1,1.6,2.1,2.1,2.8c0.4,0.9,0.9,1.6,1.5,2.5
						c0.6,0.9,1.2,1.9,1.9,3.1c-0.2-0.4-0.8-1.2-1-1.7c-1.2-1.6,1.4,2.6-0.3,0.2c0.3,0.5,0.2,0.1-0.1-0.4c-0.3-0.4-0.6-0.9-0.8-1.2
						c-0.2-0.3-0.4-0.5-0.4-0.4c0.4,0.7,0.6,1.3,0.9,1.9l-0.5-0.7l1.3,2.6c0.1,0.1,0.1-0.1,0-0.2c0.2,0.4,0.5,0.8,0.7,1.2l0.2,0.3
						l0.1,0.2l0,0l0,0l-0.1,0l-0.8-0.2c-1-0.2-2-0.4-3-0.6c-1.9-0.4-4-0.8-5.7-1.2c-1.5,0.4-6.7-1.1-8.8-1.2
						c0.6-0.1,0.9-0.3,0.6-0.6c0.4,0.1,1.4,0,2.4,0.3c0.1,0.1,1.4,0.5,0.5,0.5c2.8,0.5-0.3-0.4,0.6-0.4c-1.5-0.3-2.8-0.5-3.9-0.6
						c-0.6-0.1-1.1-0.1-1.6-0.1c-0.3,0-0.5-0.1-0.7-0.1l-0.4,0l0-0.1c-0.3,0-0.5,0-0.8,0c0.6,0.2,0.6,0.6-0.1,0.3l0.1,0
						c-0.1,0-0.1-0.1-0.2-0.1c0,0-0.1,0.1-0.1,0.2c-0.1,0.1-0.2,0.3-0.2,0.4c-0.1,0.2-0.1,0.3-0.2,0.5c0,0-0.1,0.3-0.2,0.4
						c-0.1,0.2-0.2,0.3-0.3,0.5l-0.3,0.9c-0.7,1.2-1.1,1.1-1.6,1.3c-1.1,1.9-1.5,3.2-2.1,4.6c-0.5,0.5-2.2,3.4-1.5,1.7
						c-0.9,1.8,0.1,1.9-2.1,4.6l0.3-0.8c-0.8,1.4-1.8,3.2-2.6,4.7c-0.4,0.8-0.8,1.5-1.2,2.1c-0.2,0.4-0.4,0.8-0.6,1.1
						c-0.2,0.4-0.4,0.7-0.6,0.9c0.3-1-0.6,0.3-1.6,1.6c-1,1.4-2,2.8-2.2,2.6c0,0,0,0.1-0.1,0.3c0,0.1-0.1,0.2-0.1,0.3
						c0,0.1-0.1,0.3-0.1,0.1c-0.2-0.3-0.4-0.6-0.5-0.7c-0.2-0.4-0.4-1-0.7-1.4c0.8,1.7-0.7-0.2,0.9,2.4c-0.4-0.4-0.9-1-1.6-2
						c-0.2-0.3-0.3-0.5-0.5-0.8c-0.2-0.3-0.4-0.7-0.6-1.1c-0.4-0.8-0.9-1.7-1.3-2.7l0.2-0.1l1.4,3.2c0-0.3,0.1,0,0.4,0.4
						c0.2,0.4,0.5,0.8,0.7,1.1c-0.7-1.3-0.9-2-1-2.4c-0.1-0.3,0-0.3,0-0.3c0.1,0,0.3,0.1-1-2.5c-0.3-0.4-0.2-0.3-0.7-1.2
						c0.2,0.4,0.4,0.5,0-0.3l-0.5-0.6c-0.3-1.4,1.2,2,0.9,0.8c0.1,0.2,0.2,0.4,0.3,0.6c0.1,0.2,0.3,0.5,0.4,0.8
						c0.3,0.5,0.6,1,0.8,1.4c0.5,0.8,0.8,1.3,0.7,0.8c-0.6-1.3-1-1.8-1.4-2.4c-0.1-0.1-0.2-0.3-0.3-0.4c-0.1-0.2-0.2-0.3-0.3-0.5
						c-0.2-0.3-0.4-0.8-0.7-1.4l0-0.3c-0.5-0.8-0.7-0.9-1-1.3c0-0.1,0-0.3-0.3-0.9c-0.9-1.3-1.4-2.3-2.3-3.5
						c1.8,3.5,1.2,3.1,3.1,6.7c-0.4-0.5-1.6-3.1-1.9-3.1l0.2-0.1c-0.7-1.1-1.3-2.3-1.9-3.8l0.5,0.9c-1-1.9-1.3-3.4-2.3-4.9
						c0.2,0.6,0.4,1,0.6,1.3c-0.5-1-1.1-2.3-1.6-3.4l-1.3-2.2c0.1,0-0.6-1.5-0.1-0.8c-0.6-1.7-1.2-2.4-1.7-3.3
						c-0.6-1.8,0.7,1.4,1,1.5c-1-2.4-2.2-4.8-2.9-6.1c0.2,0.5,0.3,0.7,0.2,0.7c0,0-0.1-0.3-0.2-0.6c-0.1-0.2-0.1-0.3-0.2-0.5
						c0-0.1-0.1-0.1-0.1-0.1c0,0,0-0.1,0-0.1c0,0-0.1,0-0.1-0.1c-0.1-0.4-0.1-0.4,0.1-0.1c-0.1-0.2-0.1-0.5-0.4-0.3l-0.3,0.1
						c0,0-0.1,0-0.1,0c-0.1,0-0.1,0-0.2,0c0.1,0,0.2-0.1,0.2-0.1l0.1-0.1c0.1,0,0.2-0.1,0.3-0.1l0.3-0.1c0,0,0,0,0.1,0l0,0.1
						l0.1,0.1c0.1,0.2,0.1,0.3,0.2,0.4c0,0,0.1,0.2,0.2,0.3c0.1,0.1,0.1,0.2,0.2,0.3c-0.1-0.2-0.2-0.4-0.2-0.5
						c0-0.1-0.1-0.2-0.1-0.2c-0.1-0.1-0.1-0.3-0.2-0.4c0-0.1,0-0.1-0.1-0.2c0,0-0.1,0-0.1,0l-0.3,0c-0.1,0-0.2,0.1-0.4,0.1
						c-0.2,0.1-0.5,0.1-0.8,0.2c-0.6,0.2-1.4,0.4-2.3,0.8c-0.1,0,0.6-0.3-0.2-0.1c-1.8,0.6-0.4,0.3-0.9,0.5c1.3-0.5,2-0.7,2.8-0.8
						l-0.3,0.2c-0.1,0-0.9,0.3-1.2,0.3l-0.2,0.2c0.1-0.2-1.3,0.2-2.4,0.6c1.1-0.3,0.8-0.2,1.2-0.1c-1.5,0.6-1.7,0.4-3.4,1.1
						c0.1-0.1,1.6-0.6,0.3-0.2c-1.1,0.3-0.9,0.4-1.6,0.6c0.8-0.3,0.5-0.3,1.4-0.7c1.9-0.6,0.8-0.2,2.6-0.9l-1.6,0.4
						c1.6-0.5,1.1-0.5,1.2-0.6c-2.7,0.8-2,0.8-3.7,1.4c-0.8,0.3,1.6-0.5,0.3,0c-1.6,0.5-0.3,0.2-2.2,0.8l0.3-0.1
						c-0.6,0.1-1.1,0.4-1.7,0.6c-0.7,0.3,0.9,0-2,1c0.1-0.1,0.2-0.1,0.2-0.1c0.9-0.5,1.7-1.1,2.6-1.6c-2.9,1-6.3,2.2-9.8,3.4
						c-0.8,0.2,2.4-1,2.2-0.9l1.6-0.5c-0.1,0.1-3.3,1.2-1.8,0.8c2.7-1,4-1.4,6.6-2.4c-0.9,0.2-3.4,1.2-5.1,1.8
						c0.7-0.2,1.3-0.5,1.9-0.7c-1.6,0.6-3.3,1.1-5.1,1.8l-0.4,0.2c1.2-0.4,2.1-0.7,2.2-0.7c-1.6,0.6-3,1.1-3,1.2l0.3-0.1l-0.6,0.2
						C52.6,245.3,52.3,245.4,51.9,245.5z M51.7,201.3c-0.1,0-0.2,0-0.2,0C51.5,201.3,51.4,201.3,51.7,201.3z M80.5,242.1
						c-0.5-1-1-2.1-1.5-3.1c-0.3-0.5-0.5-1.1-0.8-1.6l-0.4-0.9l-0.2-0.4c0-0.1-0.1-0.2-0.1-0.2l-0.2,0.1c0.3-0.2,0.4,0.3,0.5,0.5
						c0.1,0.3,0.2,0.5,0.3,0.7c0.2,0.4,0.3,0.8,0.5,1.2c0.3,0.7,0.4,1.2,0.5,1.4c0,0.2-0.1,0.1-0.4-0.5c-0.1-0.3-0.3-0.6-0.6-1.1
						c-0.1-0.2-0.2-0.5-0.4-0.8c-0.1-0.1-0.1-0.3-0.2-0.5c0-0.1-0.1-0.2-0.1-0.2c0-0.1-0.1-0.2-0.2-0.1l-0.4,0.2
						c0.1,0,0.2-0.1,0.3-0.1c0.1,0,0.1,0,0.2,0l0.1,0.2c0.1,0.2,0.2,0.5,0.4,0.8c0.3,0.6,0.6,1.2,0.9,1.8c0.3,0.5,0.9,1.5,1.5,2.4
						c0.3,0.4,0.6,0.8,0.8,1.1c0.2,0.3,0.3,0.5,0.3,0.5c-0.1-0.4-0.4-0.9-0.7-1.5L80.5,242.1z M80.7,243.8c0.5,1.2,0.5,0.9,0.6,1
						c-0.2-0.4-0.4-0.8-0.6-1.2C80.7,243.8,80.7,243.9,80.7,243.8z M81.3,244.7c-0.1-0.1-0.1-0.2-0.1-0.3L81.3,244.7z M62.3,241.7
						c0.1,0,0.1,0,0.1,0c-0.3,0.1-0.6,0.2-0.9,0.3C61.7,241.9,61.9,241.8,62.3,241.7z M64.8,240.9l0.3-0.2c-0.3,0.1-0.5,0.2-0.8,0.3
						C64.4,241,64.5,241,64.8,240.9z M72.9,238.4c0.5-0.3,2.2-0.9,2.2-1c0.1-0.1-0.3,0-0.7,0.2c-0.4,0.2-0.9,0.3-1.4,0.5
						c0,0-0.1,0.1-0.3,0.2c0.5-0.2,0.8-0.2,0.7-0.1c-1.3,0.3-1.1,0.5-2.5,1C70.5,239.2,72.5,238.5,72.9,238.4z M120.2,230.4
						c0,0,0-0.2-0.1-0.4l0.7,0.8c1,1.6,1.5,3,2.6,4.2c0.4,0.7,0.4,1.1,0.5,1.5c-0.2-0.3-0.4-0.6-0.5-0.9
						C120.5,232,122.5,233.4,120.2,230.4z M126,244.2c0.1,0,0.1,0,0.1,0c-1.5,0-3.3-0.3-5-0.5c-1.6-0.2-3-0.5-4.1-0.8
						c0.4,0.3,2.3,0.9,3.2,1.2l-0.9,0.1l-0.5-0.3l-1.5-0.1c0.4,0.2,1.5,0.5,2.3,0.8c0.1,0,0.6,0,1.5,0.1c0.9,0.1,1.9,0.2,2.3,0.2
						l-2.3-0.7c0.6,0.2,3.7,0.8,4.8,1c-0.1-0.2-2.1-0.8-2.3-0.5c-0.3-0.2,1.9,0.2,0.4-0.3c0.7,0.1,1.7,0.3,2.7,0.5
						c1,0.2,2,0.5,2.7,0.7l0.7,0.5c0.2,0.1,0.4,0.1,0.5,0.1c0,0,0,0,0,0l-0.1-0.1c0-0.1-0.1-0.1-0.1-0.1c-0.1-0.2-0.3-0.4-0.4-0.5
						c-0.3-0.3-0.6-0.7-0.9-1.2c1.2,1.8,0.4,0.1,1.3,1.5c-0.1-0.3,0.6,0.4-0.4-1.2c-0.7-0.8-0.9-1.1-1-1.5c-0.1-0.3-0.3-0.7-0.9-1.4
						c-0.4-0.8,0.9,1-0.1-0.6c-1.5-2-1.5-1.8-1.9-1.8c0.5,0.8,0.8,1.2,1.2,1.7c0.4,0.4,0.8,0.9,1.2,1.5c-0.8-1-1.6-1.9-2.3-2.7
						c0.2,0.4,0.4,0.8,0.6,1c-0.3-0.5-0.7-0.9-1-1.2c-0.2-0.2-0.3-0.3-0.5-0.5c0.8,1.2,1.5,2.3,1.5,2.5l-0.3-0.2
						c0.1,0.3,0.6,1,1,1.4c0.7,1,1.8,2.4,1.5,2.4l-0.5-0.6c0.1,0.2,0.2,0.3,0.3,0.4c-0.1,0-0.3,0-0.4-0.1c-0.2,0-0.4-0.1-0.7-0.1
						C127.4,244.5,126.9,244.4,126,244.2z M91.6,264.5c0,0.6,0.1,1.2,0.5,2.3c0.2,0.6,0.4,1.2,0.8,2c0.1,0.2,0.2,0.4,0.3,0.6
						l0.1,0.2l0,0.1l0-0.1c0.1-0.1,0.1-0.2,0.2-0.3c0.3-0.4,0.5-0.9,0.8-1.5l-0.2,0.4c0.7-0.9,1.3-2.1,1.9-3.3
						c0.6-1.2,1.1-2.3,2-3.5c-0.5,1.3-0.5,1.2-0.9,2.8l0.6-1.4c0,0.5,0.7-0.9,1.2-1.8l-0.2,1c-0.4,0.5-1.3,2-1.2,2
						c0.2-0.5-1.7,2.1-2.5,3.6c0.2,0.1,2.1-3.3,1.4-1.5c0.4-0.7,0.6-1.1,0.8-1.5c0.3-0.4,0.4-0.6,0.7-1.2c-0.5,1.1,0.1,0.4-0.2,1.3
						l1-1.8c0.1,0-1.4,2.6-0.3,1.3c0.3-0.8,1.6-2.6,1.4-2.7l0.1,0c0.8-1.3,0.1-0.7,1.1-2.3c-0.1-0.1-0.3,0.2-0.7,0.8
						c-0.2,0.5-0.1,0.7-0.7,1.7c-0.4,0.4,0.7-1.2,0.1-0.7c-0.3,0.3-1.5,2.7-1.3,1.8l0.8-1.3c-0.2-0.2,0.4-1.1,0.2-1.2
						c0.4-0.9,1.1-1.5,1.4-2.4c0.1-0.4-0.5,0,0.4-1.3c0.9-0.9,2.7-4.1,3.3-5.3l0.5-1.1c-0.2,0-1.1,2-0.9,1.2l0.9-1.6l0,0.2
						c0.3-0.5,0.6-1.1,0.8-1.6c-0.1,0.6-0.9,1.7-0.5,1.6c0.5-0.7,0.6-0.8,1-1.5c-0.1,0.2-0.1,0.3-0.1,0.3c1-1.5,0.6-1.6,0.7-2.1
						c0.6-1.7-1.2,1.4-1.3,1.1l2.5-4.6c-0.2,0.4-0.3,0.9-0.1,0.8c0.7-1,0.2,0,1-1.4c-0.2-0.1,0.1-0.6,0.4-1.3c0-0.1,0.1-0.2,0.1-0.3
						l0.1-0.1c0,0,0.1,0,0.1,0l0.6,0.1c0.4,0.1,0.8,0.1,1.1,0.1c0.6,0.3,0.7,0.3-0.5,0.1c0.2,0.3,1.7,0.5,2.4,0.7
						c0.4,0,1,0.1,1.3,0.1c-0.5-0.2-0.2-0.3,0.9-0.2l0.1,0c-0.9-0.2-2-0.5-3.1-0.8c-1.2-0.3-2.3-0.6-2.9-0.6l0.3-0.1l-0.5-0.1
						c-0.1-0.1-0.1,0-0.2,0.1l-0.1,0.2c-0.2,0.3-0.3,0.5-0.5,0.8c-0.3,0.6-0.6,1.1-0.8,1.6c-0.5,0.9-0.8,1.7-1.3,2
						c-0.1-0.2-0.2,0.3-0.4,0.2l-0.6,1.5l0.1-0.3l-1.3,2.3l0-0.1c-0.4,1.2-0.8,2.2-1,2.9c0.1,0.1,0.2,0,0,0.4
						c-0.2,0.4-0.3,0.7-0.5,0.9l0,0l0,0c-0.4,0.5-0.7,0.8-1.2,1.5l1.2-2.2c-0.1-0.3-0.3-0.2-1,0.8c0.2-0.4,0.2-0.7-0.1-0.2
						c0,0.1-0.7,1.5-0.3,1c-1.1,2.1-3.4,5.1-4.9,8.4c1.1-2.3-1.2,1.7,0.1-0.8c-1.2,1.6-0.7,1.7-1.5,3.1c-0.1,0,0.5-0.8,0.5-1.2
						c-0.7,1.1-1.1,2-1.7,3.2l-0.4,0.9l-0.2,0.5l-0.1,0.1c0,0,0,0.1,0,0l0,0l-0.1-0.2c-0.3-0.5-0.6-1-0.9-1.7l0-0.4
						C92.1,265.5,91.9,265,91.6,264.5z M88.7,259.1c-0.3-0.6-0.6-1.1-0.9-1.7c0,0.1,0.1,0.1,0.1,0.2l-1-1.6c0.4,1.1,0.6,1.8-0.2,0.4
						c0.1,0.1,0-0.4,0.3,0.1c-0.4-1-1.3-3.2-1.3-2.5c1.1,1.8-0.1,0.6,0.8,2c-0.5-0.7-0.8-1.5-1.3-2.2c0.5,0.7,0.2-0.3-0.3-1.5
						c-0.3-0.5-0.9-1.9-1.4-2.7c0,0.4-0.4-0.3,0.2,1.1c-0.3-0.5-0.7-1.3-1-2.2c0.2,0.3,0.5,0.9,0.5,0.9c-0.1-0.6-0.5-1.3-0.6-1.7
						c-0.1-0.3-0.3-0.6-0.4-0.9c0,0.1,0.1,0.2,0.1,0.2l-0.6-0.9c0.7,1.3,0.2,0.6,0.1,0.6c0.2,0-0.4-0.8-0.6-1.3l0.3,1
						c-0.3-0.4-0.7-1.7-0.7-1.4c0.9,2.1,1.3,2.8,2.2,4.7l-0.2-0.8c1.1,2,0.4,1.4,1.5,3.7c0.6,0.9,1.7,3.5,2,3.4
						c-0.2-0.3,0.5,1.6,1,2.3c0.7,0.8,2,3.4,1.7,2.5c-0.3-0.7-1-1.6-1.1-2.3l0.7,1.4l-0.3-1C88.5,259.5,88.6,259.4,88.7,259.1z
						 M68.2,238.5L68.2,238.5L68.2,238.5L68.2,238.5z"/>
					<path class="st1" d="M134,218.2c0.3-0.2,1.1-0.6,0.8-0.6C135,217.7,133.4,218.4,134,218.2z"/>
					<path class="st1" d="M135.1,217.8c0,0-0.1,0,0.3-0.2l-1,0.5L135.1,217.8z"/>
					<path class="st1" d="M137.4,217.3c0.3-0.2,0.5-0.4,0.8-0.5c0.1,0,0.2-0.1,0.2-0.1l0.1,0c0,0,0,0,0,0c-0.1,0-0.1,0-0.2,0
						c-0.2-0.1-0.5-0.1-0.8-0.2c0-0.1,0.5,0,1.2,0.2c0,0,0.1,0,0.1,0l-0.1,0.1l-0.2,0.1c-0.1,0.1-0.3,0.2-0.4,0.2
						c-0.2,0.2-0.4,0.3-0.5,0.4c0.5-0.3,1-0.5,1.3-0.8c0,0,0.1-0.1,0.1-0.1l-0.2,0c-0.1,0-0.2,0-0.3-0.1c-0.2,0-0.4-0.1-0.6-0.1
						c-0.8-0.2-1.5-0.3-2.4-0.5c0.5,0.1,1.5,0.4,2.5,0.6c0.1,0,0.3,0.1,0.4,0.1l0.1,0c0,0,0.1,0,0,0l-0.2,0.1
						c-0.2,0.1-0.4,0.2-0.5,0.3C137.5,217.2,137.3,217.3,137.4,217.3z"/>
					<path class="st1" d="M136.9,217.9l1.1-0.7l-0.1,0.1c-0.4,0.2-0.7,0.4-1.1,0.7L136.9,217.9z"/>
					<path class="st1" d="M118,231.3c-0.1,0.2,0.4,0.7,0.6,1C118.5,232,118.3,231.6,118,231.3z"/>
					<path class="st1" d="M31.1,201c0.2,0,0.3,0,0.5,0l0.7,0.2l0.7,0.2c0,0,0.5,0.1,0.8,0.1l1.1,0.1c-0.6,0-1.2-0.1-1.8-0.1
						c-0.2-0.1-0.4-0.1-0.6-0.2C32,201.1,31.4,200.9,31.1,201z"/>
					<path class="st1" d="M120,241.5c0.6,0.1,1.1,0.2,1.5,0.2c0.4,0,0.5,0,0.7,0c0.4,0,0.7,0,1.2,0c-0.8-0.3-1-0.2-1.5-0.2
						c-0.1,0-0.7,0-1.2-0.1c-0.5-0.1-1-0.2-1.6-0.4L120,241.5z"/>
					<path class="st1" d="M121,240.5c0.3,0.4-1.8-0.1-1.5,0.2c1.5,0.3,0.8-0.1,2.1,0.2L121,240.5z"/>
					<polygon class="st1" points="132.5,246.8 133.3,247.8 132.8,247.1 					"/>
					<path class="st1" d="M109.1,238.1l0.4,0l-1-0.3l-0.2-0.1l-0.1,0c0,0,0,0,0,0l-0.1,0.1l-0.3,0.4l0.2-0.3l0.1-0.1l0.1-0.1
						c0,0,0.1,0,0.1,0L109.1,238.1z"/>
					<path class="st1" d="M109.9,238.1l-0.4,0L109.9,238.1z"/>
					<polygon class="st1" points="134.3,248.7 133.6,247.4 132.9,246.6 					"/>
					<path class="st1" d="M120.6,244.3l1,0.1C121.3,244.4,120.1,244,120.6,244.3z"/>
					<polygon class="st1" points="104,245.2 103.5,246.3 103.6,246.2 104,245.2 					"/>
					<path class="st1" d="M113.3,243.6c0.6,0.4-1.8-0.3-0.6,0.1C113.9,244,113.4,243.7,113.3,243.6z"/>
					<path class="st1" d="M105.1,249.3c-0.1,0.1-0.2,0.3-0.2,0.4C105,249.6,105.1,249.5,105.1,249.3z"/>
					<path class="st1" d="M105.1,249.3c0.2-0.4,0.6-0.8,0.7-1.1C105.4,248.7,105.3,248.9,105.1,249.3z"/>
					<path class="st1" d="M102.3,254.2l0.2-0.4c-0.1,0.4,0,0.3,0.1-0.1c0.2-0.4,0.2-0.4,0.1-0.5c0-0.1,0-0.2,0.1-0.3
						c0,0.1-0.1,0.3-0.1,0.4C102.4,253.9,102.2,254.3,102.3,254.2z"/>
					<path class="st1" d="M93.2,262.6c0.1,0.2,0.1,0.3,0.1,0.6c0.1,0.2,0.1,0.1,0.1,0c0-0.1,0-0.2,0-0.5c0,0.2-0.1,0.1-0.1,0
						C93.3,262.7,93.2,262.7,93.2,262.6z"/>
					<path class="st1" d="M93.4,262.7C93.4,262.7,93.4,262.7,93.4,262.7C93.4,262.7,93.4,262.7,93.4,262.7z"/>
					<polygon class="st1" points="107.3,249.5 107,250.5 107.2,250.2 					"/>
					<path class="st1" d="M93.2,262.2c0,0,0,0.1,0,0.2C93.3,262.3,93.2,262.2,93.2,262.2z"/>
					<path class="st1" d="M93.5,268.6c0.1,0,0.6-1,0.8-1.3C94,267.8,93.8,267.7,93.5,268.6z"/>
					<path class="st1" d="M90.8,258.8c0.1,0.3,0.3,0.7,0.1,0.6C91.1,259.7,91.6,260.1,90.8,258.8z"/>
					<polygon class="st1" points="92.3,266.8 92.3,267.1 92.8,267.9 					"/>
					<path class="st1" d="M94.5,271.4c0.5-1,0-0.5-0.3-0.2c-0.3,0.3-0.5,0.4,0.3-1c-1,1.5-1,1.6-0.9,1.5c0.1,0,0.1,0,0.1,0.1
						c0,0.1-0.1,0.2-0.2,0.3c0,0.1-0.1,0.2-0.2,0.3c0,0.1-0.1,0.1-0.1,0.2c0,0-0.1-0.1-0.1-0.2l0.1,0.2l0,0.1c0,0,0,0,0,0
						c0.1-0.1,0.1-0.2,0.2-0.2c0.1-0.1,0.2-0.3,0.3-0.4c0.2-0.2,0.3-0.4,0.4-0.5C94.4,271.3,94.5,271.3,94.5,271.4z"/>
					<path class="st1" d="M93.2,272.5c-0.1-0.2-0.2-0.5-0.4-0.8C92.9,272.1,93.1,272.3,93.2,272.5z"/>
					<path class="st1" d="M85,253.3c0.1,0.2,0.2,0.3,0.2,0.4C85.2,253.5,85.1,253.4,85,253.3z"/>
					<path class="st1" d="M88.7,264c0.1,0.2,0.4,0.7,0.7,1.1l0.7,1.2c-0.2-0.4-0.5-1-0.9-1.6c-0.2-0.5-0.5-1-0.8-1.4
						c-0.4-0.8-0.8-1.5-0.9-1.3c0.4,1,1,2,1.3,2.5L88.7,264z"/>
					<path class="st1" d="M82.8,242.6l0.5,0.7l-0.5-0.9C82.9,242.6,82.5,242.2,82.8,242.6z"/>
					<path class="st1" d="M82.7,242.2l0.1,0.2C82.8,242.3,82.7,242.3,82.7,242.2z"/>
					<path class="st1" d="M86.7,256.5c0.2,0.6,0.5,1,0.8,1.5C87.3,257.7,86.7,256.3,86.7,256.5z"/>
					<polygon class="st1" points="79.8,237.6 80.5,238.8 79.7,237.5 					"/>
					<polygon class="st1" points="72.9,236.2 72.7,236.2 71.6,236.7 71.9,236.6 					"/>
					<path class="st1" d="M77.8,240.7c0.4,0.9,0.8,1.4,0.7,1.2l-0.7-1.6c0.1,0.5,0.2,0.4,0.6,1.4L77.8,240.7z"/>
					<path class="st1" d="M51.6,235.4c-0.1,0.4-1.1,2.1-1.2,2.1c0.1-0.2,0.6-1.2,0.2-0.6l-0.6,1.4c-1.1,1.8,0.6-1.5,1-2.4
						c-1,1.8-1.2,2.4-2.3,4.4c0.3-0.6,0.6-0.9,0.8-1.2c0.1,0-0.9,1.8-1.6,3.1c0.5-0.8,0.3-0.3,0,0.3c-0.1,0.1-0.1,0.2-0.1,0.2
						l-0.1,0.2l0.1-0.2c0,0,0,0,0.1-0.1c0.6-1.1,1.1-1.9,1.5-2.6c-0.5,0.6,1.3-2.4,1.7-3.3l0.6-1l0.2-0.4c0.1-0.1,0,0.1-0.3,0.6
						c0.2-0.5,1.2-2.1,1-2l2.1-3.7c0.1-0.1,0.2-0.2,0.2-0.3c0.1-0.1,0.1-0.2,0-0.1l2.3-4l1.1-2l1-1.8c0.4-0.6,0.6-1.3,0.9-1.9
						l0.2-0.5l0.1-0.1c0,0-0.1-0.1-0.1-0.1l-0.2-0.1l-0.9-0.6l-1.8-1.2l-0.8-0.5l-0.5-0.3l-0.9-0.6l-3.8-2.6c0.7,0.5,1.3,1,2.1,1.6
						c-1.3-0.6,1.2,0.9,0.8,0.8c-0.6-0.3-1.3-0.8-1.7-1.2c-0.2,0,0.4,0.5,0.2,0.6c0.9,0.7,1.5,1,2.1,1.3c0.3,0.1,0.6,0.3,0.9,0.5
						c0.2,0.1,0.3,0.2,0.5,0.3c0.3,0.2,0.6,0.4,1,0.7c-0.2,0-1.3-0.6,0.8,0.8l-0.5-0.3c0.9,0.5,1.4,0.9,1.8,1.2c0,0,0.1,0.1,0.1,0.1
						c0,0,0,0.1-0.1,0.1c-0.1,0.1-0.1,0.2-0.1,0.3c-0.1,0.2-0.2,0.3-0.2,0.4c-0.3,0.5-0.4,0.8-0.9,2l-0.1-0.1
						c-0.4,1-0.7,1.5-1.1,2.3c-0.4,0.7-0.8,1.4-1,1.9l0-0.1c-1.5,3-0.9,1.6-2.6,4.9l0.7-1.6c-0.7,1.1-0.7,1.4-1.1,2.2
						c0-0.1-0.2,0.1,0.2-0.7l-2,4C50.9,236.7,51.5,235.5,51.6,235.4z"/>
					<path class="st1" d="M48.7,240.3c-0.1,0.2-0.2,0.4-0.4,0.7C48.5,240.8,48.6,240.6,48.7,240.3z"/>
					<path class="st1" d="M50.4,212.9l1.1,0.7C51.2,213.3,50.8,213.1,50.4,212.9z"/>
					<path class="st1" d="M45.9,246C45.9,246.1,45.9,246,45.9,246c0.1-0.1,0.1-0.1,0.1-0.1C46,245.9,45.9,246.1,45.9,246
						c0.1,0.1,0.1,0.1,0.1,0.1L45.9,246c0.1,0.1,0.1-0.1,0.2-0.2l0.2-0.3l0.7-1.2c0,0,0.1-0.3,0-0.2l-0.5,1l-0.3,0.5l-0.1,0.3
						C45.9,245.9,45.9,246.1,45.9,246z"/>
					<path class="st1" d="M47.3,243.6c0-0.1,0.1-0.4,0.3-0.7l-0.7,1.3C46.9,244.3,47,244.2,47.3,243.6z"/>
					<polygon class="st1" points="45.7,243.1 45.9,242.7 46.2,242 					"/>
					<path class="st1" d="M49.2,236.2c-0.3,0.5-0.8,1.5-0.9,1.9C48.8,237,48.6,237.5,49.2,236.2z"/>
					<polygon class="st1" points="47.9,237.4 48.4,236.3 48.4,236.4 					"/>
					<path class="st1" d="M42,208.4c-0.2-0.1-0.3-0.2-0.5-0.3C41.7,208.2,41.9,208.3,42,208.4z"/>
					<path class="st1" d="M51.1,214c-2.4-1.8,1.7,0.9,1.1,0.2l-1.4-0.8l0.2,0l-1.7-1.1c0.3,0.3,0.5,0.5,0.4,0.6
						c-2.2-1.5-0.6-0.6-2.1-1.8l-2.5-1.6l0.2,0.1c-0.2-0.1-0.3-0.2-0.4-0.2c-2.8-1.8-5.6-3.5-8.5-5.2c-1.6-0.8,0.7,0.7-0.5,0.2
						c1.8,1.1,4.3,2.9,4.6,2.7c-0.1,0-0.2,0,0.1,0.2l1.2,0.4l-0.9-0.7c1.2,0.4,4.5,2.6,5,3.1c-1.9-1.1-1.1-0.3-3.7-2.1
						c0.1,0.1,0.5,0.6-0.1,0.2C45.1,210.3,47.8,212.1,51.1,214z"/>
					<path class="st1" d="M30.5,200.8L30.5,200.8C30.6,200.8,30.5,200.8,30.5,200.8z"/>
					<path class="st1" d="M30.1,200.8c0.1,0.1,0.2,0.2,0.3,0.3l0.6,0l-0.4-0.2c0,0,0,0.1-0.3,0.1L30.1,200.8z"/>
					<path class="st1" d="M31,201.3c-0.6-0.2-1.4-0.5-1.5-0.5c-0.2-0.1-0.3-0.1-0.3-0.1c0.1,0,0.2,0,0.3,0.1c0.2,0,0.3,0.1,0,0
						c-0.3-0.1-0.5-0.1-0.6-0.1c0.1,0.1,0.4,0.2,0.5,0.3L31,201.3z"/>
					<polygon class="st1" points="33.5,202.7 33.1,202.6 33.9,203.1 					"/>
					<path class="st1" d="M33.1,202.6l-0.4-0.3c0,0.1-0.1,0.1-0.1,0.2c0.1,0,0.1,0,0.2,0L33.1,202.6z"/>
					<path class="st1" d="M32.2,202c-0.1,0-0.1-0.1-0.2-0.1L32.2,202z"/>
					<path class="st1" d="M32.3,202.1L32.3,202.1l-0.2-0.1C32.2,202.1,32.3,202.1,32.3,202.1z"/>
					<path class="st1" d="M32.6,202.3c0.1-0.1,0.2-0.3,0-0.3c-0.1,0-0.2,0.1-0.2,0.1L32.6,202.3z"/>
					<polygon class="st1" points="51.8,229.2 52.2,228.2 52.2,228.3 51.8,229.3 					"/>
					<path class="st1" d="M54.6,223.4c0.1-0.3,0.2-0.5,0.2-0.6C54.7,223,54.7,223.2,54.6,223.4z"/>
					<path class="st1" d="M54.3,221.5c0-0.1,0.1-0.1,0.2-0.1c0.1,0,0.1,0,0-0.1c0-0.1,0.1-0.1,0.3-0.1c0.1,0,0.2,0,0.3,0.1
						c0,0,0.1,0,0.1,0.1c0,0,0,0.1,0,0.1c-0.1,0,0-0.1-0.1-0.1c-0.1,0-0.1,0-0.1,0.1c0.2,0.1,0,0.2,0.2,0.1c0,0.2,0,0.3,0,0.4
						c0,0.1,0,0.1,0,0.2c0,0.2-0.1,0.3-0.2,0.5c0.1-0.2,0.2-0.4,0.2-0.6c0.1-0.1,0.1-0.2,0.2-0.3c0.1-0.1,0.1-0.2,0.2-0.3l0.1-0.2
						c0-0.1,0.1-0.1,0-0.2c-0.3-0.1-0.5-0.3-0.7-0.4l-0.1,0l-0.2-0.1c-0.1-0.1-0.3-0.1-0.4-0.2c-0.3-0.1-0.5-0.2-0.7-0.3
						c-1.1-0.4-0.7,0.3-0.8,0.5c0.1,0.1,0.7,0.5,1.3,0.8l0.2,0.1c0,0,0,0,0,0l0.1,0C54.2,221.5,54.3,221.5,54.3,221.5z"/>
					<path class="st1" d="M54.1,221.7C54.2,221.7,54.1,221.7,54.1,221.7C54.2,221.7,54.2,221.7,54.1,221.7z"/>
					<path class="st1" d="M46.2,214c-0.1,0-1.1-0.5-1-0.3l1.5,0.8C46.4,214.3,46.3,214.1,46.2,214z"/>
					<path class="st1" d="M47.3,214.9l-0.6-0.4C46.9,214.6,47.1,214.7,47.3,214.9z"/>
					<path class="st1" d="M46.1,213.9L46.1,213.9C46.2,214,46.2,214,46.1,213.9z"/>
					<path class="st1" d="M31.5,201.6c0.3,0,0-0.1-0.2-0.1C31.3,201.5,31.4,201.5,31.5,201.6z"/>
					<path class="st1" d="M46.3,202.1l0.7,0.1C46.8,202.2,46.6,202.2,46.3,202.1z"/>
					<path class="st1" d="M56.6,201.7c0,0,0.1,0,0.1,0C56.7,201.7,56.6,201.7,56.6,201.7z"/>
					<path class="st1" d="M56.8,201.7c0.5,0,1.8,0.2,2.3,0.3l-0.1,0l0.9,0.1C59.1,202,57.3,201.7,56.8,201.7z"/>
				</g>
			</g>
		</g>
	</g>
</g>
</svg>
