<?xml version="1.0" encoding="utf-8"?>
<!-- Generator: Adobe Illustrator 26.3.1, SVG Export Plug-In . SVG Version: 6.00 Build 0)  -->
<svg version="1.1" id="Calque_1" xmlns="http://www.w3.org/2000/svg" xmlns:xlink="http://www.w3.org/1999/xlink" x="0px" y="0px"
	 viewBox="0 0 283.5 283.5" style="enable-background:new 0 0 283.5 283.5;" xml:space="preserve">
<style type="text/css">
	.st0{fill-rule:evenodd;clip-rule:evenodd;fill:#FFFFFF;}
	.st1{fill-rule:evenodd;clip-rule:evenodd;fill:#009FE3;stroke:#FFFFFF;stroke-width:0.7046;stroke-miterlimit:10;}
	.st2{fill-rule:evenodd;clip-rule:evenodd;fill:#009FE3;stroke:#FFFFFF;stroke-width:0.2575;stroke-miterlimit:10;}
</style>
<g>
	<g>
		<path class="st0" d="M121.2,56.7c-4,1.9-8-1.1-11.3-2.6c4,0,8.9,1.2,9.9-3.4c1.6-7.1-3.1-22.8-6.5-26.9c-2.3-2.7-6.6-5.4-11.4-4.4
			c-5.5,1.2-9.8,8-9.9,15.8c-0.1,7.6,1.7,14.4,6.6,17.2c-2.1,2.6-6.7,0.9-7.8-1.5c-1,2.8-3.4,5.3-7.1,4.6c2.2-2.8,4.2-5.4,4.4-10.8
			c0.3-7.9-1.2-17.5-7.3-16.7c-3.1,0.4-8.6,4.7-7,9.4c1.3,3.7,4.4,5.6,4.1,11.5c-0.3,5-2.7,7.2-5.3,10.6c2.5-5.8,2.8-20.5-6-19.2
			c-0.8,0.1-2.7,1-3.6,2.2c-0.7,1-2,4-1.6,5.6c0.4,1.7,2.9,1.9,4,3.4c2.9,6.7,2.1,10.9,0.2,16.2c-0.8,2.1-3.5,7.6-8.8,6.2
			c4.9-0.9,5.5-7.5,6.4-12.4c1.7-9.1-8.7-12.1-11.1-4.6c-0.4,0.1-0.7-1-1.2-1.2c-0.8-0.3,1,1.2,1,1.2c0.1,0.6-1.7,3.4-2,6.6
			c-0.2,2.4,0.1,4,0.2,6.3c1.7,1.2,4.5,4.1,5.1,7.1c0.3,1.5,0.3,4.1-1,4.3c0.1,0.9,0.6-0.9,0.7,0c-2,5.9-4.4,5.8-7.8,10.4
			c-1-6.2,6.3-7.7,3.2-15c-1.1-2.7-4.9-4.2-7.1-1.5c-3.7,4.4-5.2,14-5.8,21.4c-3.5-10.5-2-26.4,8.1-27.6c-0.3-4.6,0.3-9.6,1.6-12.9
			c0.4-1,5.5-8.1,9.8-8.2C58,40.6,60.5,35,69,35.5c0.1-9.7,13.9-17.2,19.8-8.6c0.9-2.6,2.4-4.5,3.6-6.7c2.4-2,4.6-4.3,7.6-5.3
			c10.9-3.7,19.9,7.5,22.4,17.1c0.3,1.2,1.9,9.3,1.8,10.8C123.9,47.4,124.2,55.3,121.2,56.7z"/>
		<path class="st0" d="M53.1,165.6c1,0.1,2.1-2.9,3.3-2.6c4,9.5,3.2,21.4,5.1,31.8c2.2,12.1,6.3,21.5,14.5,26.9
			c0.9,0.6,7.3,3.5,10.4,4c13.1,1.8,24.4-5.3,28.8-13.2c4.4-7.9,3.6-19.9,0.9-30.2c-3.2-12.5-7.1-24.9-6.8-40.7
			c0.2-11.2,3-20.8,6-28.6c4.4-11.3,12.4-27,5.5-42c-3.6-7.8-11.5-13.4-23.1-12.2C87.2,60,74.9,68.6,72.4,71.9
			C68.8,75.5,54.1,90,43.7,95.6C55.8,86,65.4,69.9,78,61.6c5.9-3.9,14.2-7.6,25.1-7.3c4.3,0.1,7.8,1.2,11.1,3
			c9.4,5.1,15.7,18.5,13.2,34.9c-0.6,4-2.3,8.2-3.9,12c-4.6,11.2-9.4,21.5-9.8,37.4c-0.3,10.4,1.7,20.5,4.1,29.1
			c3.4,12.2,8,28.7,2.9,40.8c-1.3,3-4,6.7-5.6,8.4c-2.6,2.8-7.2,6.1-10.5,7.5c-12.3,5.2-26.3,2.5-34.7-4.6
			c-6.8-6.3-10.8-16.1-12.7-27.9c-1.3-7.9-1.5-16.6-3.2-25c-1.5-7-5.2-13.5-8.3-19.6c-3.2-6.4-7.2-12.4-9.4-18.2
			c-4.2-11.4-1.7-23,2-33.1c-0.7,11.8-2.8,18.6,0.6,28c2.3,6.3,6,11.7,8.9,17.3c3,5.9,6.2,11.6,8.4,17.5
			C56.6,162.9,53.8,164.6,53.1,165.6z"/>
	</g>
	<g>
		<path class="st0" d="M166.1,94c3.9,2.2,8-0.6,11.5-1.8c-4-0.3-9,0.6-9.7-4.1c-1.1-7.2,4.7-22.6,8.4-26.4c2.5-2.6,7-4.9,11.6-3.6
			c5.4,1.6,9.2,8.7,8.8,16.5c-0.4,7.6-2.7,14.3-7.8,16.7c1.9,2.8,6.6,1.3,7.9-0.9c0.8,2.9,3,5.5,6.8,5.1c-2-3-3.8-5.7-3.6-11.1
			c0.3-7.9,2.4-17.4,8.4-16.1c3.1,0.7,8.2,5.3,6.3,9.8c-1.5,3.6-4.8,5.3-4.9,11.2c-0.1,5,2.2,7.3,4.6,10.9c-2.1-6-1.4-20.7,7.3-18.8
			c0.8,0.2,2.7,1.2,3.4,2.4c0.6,1,1.7,4.2,1.2,5.7c-0.6,1.7-3,1.7-4.2,3.1c-3.4,6.5-2.9,10.7-1.4,16.1c0.6,2.2,2.9,7.8,8.3,6.8
			c-4.8-1.3-5-7.9-5.5-12.8c-1-9.2,9.6-11.4,11.4-3.8c0.4,0.2,0.8-1,1.3-1.1c0.8-0.3-1,1.1-1,1.2c-0.1,0.6,1.5,3.5,1.6,6.8
			c0,2.4-0.4,4-0.7,6.3c-1.8,1.1-4.8,3.7-5.6,6.8c-0.4,1.5-0.6,4,0.7,4.4c-0.2,0.9-0.5-1-0.7-0.1c1.6,6.1,4,6.1,7,10.9
			c1.4-6.1-5.8-8.1-2.2-15.2c1.3-2.6,5.2-3.8,7.2-1c3.4,4.6,4.1,14.4,4.3,21.8c4.2-10.2,3.9-26.2-6.1-28.1c0.6-4.5,0.4-9.6-0.6-13
			c-0.3-1-4.9-8.4-9.1-8.9c-0.6-7.1-2.7-12.8-11.2-12.9c0.6-9.7-12.6-18.1-19.1-10c-0.7-2.6-2.1-4.7-3.1-6.9
			c-2.3-2.2-4.3-4.7-7.2-5.9c-10.6-4.4-20.4,6.1-23.5,15.5c-0.4,1.2-2.5,9.1-2.5,10.6C164.1,84.6,163.3,92.4,166.1,94z"/>
		<path class="st0" d="M226.3,207.5c-1,0-1.9-3-3.1-2.9c-4.6,9.2-4.7,21.1-7.3,31.4c-3.1,11.9-7.8,20.9-16.4,25.8
			c-1,0.5-7.5,3-10.7,3.2c-13.2,0.9-23.9-7-27.8-15.2c-3.9-8.2-2.2-20.1,1.2-30.2c4.1-12.2,8.8-24.3,9.7-40.1
			c0.6-11.2-1.5-20.9-4-28.9c-3.6-11.6-10.5-27.8-2.5-42.3c4.1-7.5,12.5-12.6,23.9-10.5c10.5,1.9,22.2,11.4,24.3,14.8
			c3.4,3.9,17,19.4,27,25.7c-11.4-10.4-19.9-27.2-31.8-36.4c-5.6-4.3-13.7-8.6-24.5-9.1c-4.3-0.2-7.8,0.7-11.3,2.2
			c-9.7,4.4-17,17.4-15.6,33.9c0.3,4,1.7,8.4,3,12.3c3.8,11.5,7.8,22.1,7.1,38c-0.5,10.4-3.1,20.3-6.1,28.7
			c-4.3,12-10,28.1-5.8,40.5c1,3.1,3.5,7,5,8.8c2.4,3,6.7,6.6,9.9,8.2c11.9,6.1,26.1,4.3,34.9-2.2c7.2-5.8,12-15.3,14.7-26.9
			c1.8-7.8,2.6-16.4,5-24.7c2-6.9,6.1-13.1,9.6-18.9c3.7-6.1,8.1-11.8,10.6-17.5c5-11.1,3.4-22.8,0.4-33.2
			c-0.1,11.8,1.5,18.7-2.5,27.9c-2.7,6.2-6.9,11.2-10.1,16.6c-3.4,5.7-7,11.1-9.7,16.9C223,204.6,225.7,206.4,226.3,207.5z"/>
	</g>
</g>
<g>
	<path class="st1" d="M142.9,140.4c1.7-0.4,1.9-2.8,3.8-2.5c1.7,0.3,1,3.1,2.1,4.1c0.9-0.3,1.6-1.3,2.5-2.2c0.6-0.6,2.1-1.7,2.2-2.4
		c0.1-0.5-0.3-1.4-0.5-2c-0.2-0.7-0.4-1.4-0.5-2c-0.3-1.3-1.1-2.9-0.9-4.1c0.1-0.8,1.5-1.8,1.9-2.2c0.6-0.6,2-2.5,3.4-1.6
		c0.6,0.4,1,2.2,1.3,3c0.4,1.2,0.5,2.3,1.2,3.1c0.6-0.1,1-0.7,1.6-1.3c0.4-0.4,1.2-1,1.3-1.5c0.1-0.5-0.3-1.4-0.5-2
		c-0.2-0.7-0.4-1.4-0.5-2c-0.3-1.3-1.1-2.9-0.9-4.1c0.1-0.7,1.4-1.7,1.9-2.2c0.7-0.7,2-2.5,3.4-1.6c0.6,0.4,1,2.3,1.2,3.1
		c0.4,1.2,0.4,2.1,1.3,3c1.4-0.7,1.8-1.4,2.7-2.3c0.6-0.6,1.4-2.3,2.9-2.1c0.8,0.1,1.5,1.1,2.1,1.7c0.6,0.6,1.7,1.4,1.6,2.3
		c0,1.1-1.5,1.9-2.2,2.7c-0.3,0.3-2.4,2-2.3,2.6c0.1,0.6,2.6,1.2,3.2,1.4c1.1,0.4,3.1,0.5,3,2.1c-0.1,0.9-1.2,1.6-1.9,2.3
		c-0.6,0.6-1.3,1.8-2.2,2c-1,0.2-3.1-0.6-4.1-0.9c-0.5-0.1-1.2-0.4-1.9-0.5c-0.6-0.1-1.5-0.5-2-0.5c-0.5,0.1-1.1,0.8-1.6,1.3
		c-0.5,0.4-1.3,1-1.3,1.5c0.1,0.7,2.8,1.1,3.4,1.3c1.3,0.4,2.9,0.7,2.8,2.2c-0.1,0.9-1.1,1.7-1.8,2.3c-0.6,0.6-1.4,1.7-2.2,1.9
		c-1.1,0.2-3.1-0.6-4.1-0.9c-0.6-0.2-1.3-0.4-2-0.5c-0.7-0.2-1.5-0.5-2-0.5c-0.8,0.1-1.8,1.5-2.4,2.2c-0.4,0.4-0.8,0.8-1.2,1.2
		c-0.2,0.2-1.1,0.8-1,1.3c0.1,0.5,1.6,0.8,2.2,0.9c0.8,0.2,1.8,0.4,2,1.2c0.4,2-2.4,2.4-2.6,3.8c0.6,0.7,1.8,0.8,3,1.1
		c0.9,0.3,2.3,1,3.1,0.9c0.9-0.1,2.3-2.1,3.1-2.9c0.4-0.4,1-0.9,1.6-1.4c0.6-0.6,1-1.3,1.6-1.4c1.1-0.2,2.4,0.5,3.3,0.7
		c0.8,0.2,2.3,0.2,2.6,1.3c0.3,1.4-1.2,2.3-1.8,3c-0.9,0.9-1.5,1.7-2.1,2.7c0.4,0.4,1.1,0.5,1.6,0.7c0.5,0.1,1.4,0.5,1.9,0.5
		c0.9-0.1,2.5-2.3,3.1-2.9c0.5-0.5,1-0.9,1.6-1.5c0.4-0.4,1.1-1.2,1.6-1.3c1-0.2,2.1,0.4,3.2,0.7c1,0.3,2.1,0.3,2.6,1.3
		c0.2,1.7-1.2,2.3-2,3.2c-0.8,0.9-1.5,1.5-1.9,2.5c0.7,0.8,2,0.9,3.3,1.2c1.2,0.3,3.3,0.5,3.5,1.6c0.2,1-0.3,2-0.6,3.1
		c-0.3,1.1-0.5,2.1-1.3,2.3c-2.6-0.1-4.1-1.3-6.7-1.4c-0.5,2.3,0.9,4,0.9,6.4c-0.2,0.4-0.5,0.6-0.9,0.9c-1.1,0.1-2-0.4-3-0.6
		c-0.9-0.2-2.1-0.2-2.7-0.9c-0.6-0.6-1-2.9-1.3-3.9c-0.4-1.4-0.7-2.8-1.1-4.1c-1.1-0.4-2.4-0.8-3.8-0.9c-0.2,2,0.9,4.1,0.9,6.4
		c-0.2,0.4-0.5,0.6-0.9,0.9c-1.2,0-2-0.3-3-0.5c-0.7-0.2-2-0.3-2.6-0.9c-0.8-0.7-1-2.8-1.3-4.1c-0.2-0.8-0.7-3.6-1.3-4.1
		c-0.4-0.4-2.4-0.7-3.1-0.9c-1.1-0.3-2.1-0.7-3.1-0.6c-0.4,1.3,0.7,2.5,0.5,4.1c-0.2,0.4-0.5,0.6-0.9,0.9c-0.9,0-1.3-0.1-2.2-0.3
		c-0.5-0.1-1.5-0.6-1.9-0.2c-0.5,0.5,0.5,2.5,0.6,3.1c0.3,1,0.4,2.6,0.9,3.1c0.5,0.6,3.1,1,4.1,1.3c1.3,0.4,3.4,0.7,4,1.3
		c0.6,0.7,0.6,1.9,0.9,2.7c0.3,1,0.7,1.8,0.6,2.9c-1.5,2.1-4.9-0.4-7.2-0.1c-0.3,0.5,0,1.3,0.2,2c0.2,0.6,0.3,1.6,0.6,1.9
		c0.3,0.3,1.4,0.4,2,0.5c1.5,0.4,2.5,0.7,4.1,1.1c0.7,0.2,1.6,0.4,1.9,0.7c0.6,0.6,0.7,1.8,0.9,2.7c0.3,1,0.5,1.7,0.5,3
		c-1.6,2.2-4.7-0.6-7.2-0.1c-0.1,2.5,1.3,4.2,1.3,6.7c-0.4,0.8-1.4,1-2.4,1.3c-0.9,0.2-2.6,1-3.4,0.4c-0.6-0.4-0.8-2.1-1.1-3.3
		c-0.2-0.8-0.6-3.1-1.1-3.2c-0.6-0.2-2.1,1.5-2.6,2c-0.7,0.7-1.6,1.9-2.5,2c-1.5,0.1-1.6-1.2-1.9-2.3c-0.3-1.3-1-2.3-0.8-3.4
		c0.2-1,1.9-2.3,2.8-3.2c0.5-0.5,0.9-1,1.5-1.6c0.4-0.4,1.3-1,1.4-1.6c0.1-0.5-0.3-1.4-0.5-2c-0.2-0.6-0.3-1.3-0.7-1.6
		c-1.1,0.6-1.8,1.4-2.7,2.2c-0.8,0.7-1.5,1.8-3.1,1.7c-0.9-0.5-1-1.5-1.3-2.6c-0.3-1.1-0.8-2.3-0.6-3.2c0.1-0.6,1-1.2,1.4-1.6
		c1.1-1.1,1.7-1.9,2.9-3.1c0.5-0.5,1.3-1.1,1.4-1.6c0.1-0.8-0.7-2.4-0.9-3.2c-0.3-1.1-0.4-2.2-1-3c-1.5,0.5-2,2.9-3.8,2.6
		c-1.6-0.3-1-3.1-2.1-4.1c-1,0.4-1.7,1.4-2.5,2.2c-0.4,0.4-2.1,1.7-2.2,2.4c-0.1,0.5,0.3,1.4,0.5,2c0.4,1.4,0.6,2.4,1,3.8
		c0.2,0.7,0.5,1.4,0.4,2c-0.1,0.9-1.3,1.7-1.9,2.3c-0.5,0.5-1.5,2-2.7,1.9c-1.2-0.1-1.5-1.7-1.9-2.8c-0.4-1.3-0.5-2.6-1.3-3.4
		c-0.6,0.1-0.9,0.7-1.5,1.3c-0.4,0.4-1.2,1-1.3,1.5c-0.1,0.5,0.3,1.3,0.5,2c0.2,0.7,0.3,1.4,0.5,2c0.3,1.3,1.1,2.8,0.9,4.1
		c-0.2,0.8-1.3,1.6-1.9,2.1c-0.6,0.6-1.4,2-2.7,1.9c-1.2-0.1-1.4-1.8-1.7-2.9c-0.4-1.2-0.7-2.5-1.3-3.3c-1,0.3-1.6,1.3-2.6,2.3
		c-0.8,0.8-1.9,2.3-3,2.2c-0.8-0.1-1.6-1.2-2.1-1.6c-0.4-0.4-1.6-1.3-1.7-2c-0.2-1.4,1.4-2.4,2-3.1c0.9-0.9,1.8-1.6,2.4-2.6
		c-0.7-0.8-1.9-0.9-3.1-1.3c-1-0.3-3.4-0.6-3.1-2.3c0.1-0.8,1.1-1.6,1.8-2.3c0.4-0.4,1.5-1.7,2.1-1.9c1.1-0.3,2.9,0.6,4.1,0.9
		c0.6,0.1,1.3,0.4,2,0.5c0.6,0.2,1.5,0.5,2,0.5c0.6-0.1,1.1-0.8,1.6-1.3c0.3-0.2,1.3-1,1.3-1.5c-0.1-0.6-2.8-1.3-3.3-1.4
		c-1.3-0.4-2.8-0.6-3-1.6c-0.2-1.1,1.2-2.1,1.7-2.7c0.5-0.5,1.5-1.9,2.3-2c0.6-0.1,1.5,0.2,2.1,0.4c1.5,0.4,2.5,0.6,4,1
		c0.7,0.2,1.5,0.5,2,0.5c0.8-0.1,1.9-1.6,2.5-2.2c0.9-0.9,1.4-1.3,2.2-2.4c-0.9-1.2-4.4-0.4-4.1-2.7c0.1-0.6,0.7-1.2,1.2-1.7
		c1-1.1,2.1-1.7,0-2.3c-0.6-0.1-1.2-0.3-1.6-0.4c-1.3-0.3-2.4-0.9-3.1-0.8c-0.9,0.1-2.6,2.3-3.1,2.9c-0.5,0.5-0.9,0.9-1.6,1.5
		c-0.5,0.5-1.1,1.2-1.6,1.3c-1.1,0.2-2.2-0.4-3.3-0.7c-0.9-0.3-2.4-0.3-2.6-1.4c-0.3-1.2,1.1-2.3,1.8-3c0.4-0.4,0.7-0.7,1.2-1.2
		c0.3-0.3,1-1,0.9-1.4c-0.1-0.5-2.9-1.3-3.5-1.2c-0.9,0.1-2.6,2.2-3.1,2.8c-0.5,0.5-1,1-1.5,1.5c-0.4,0.4-1,1.2-1.6,1.3
		c-1.2,0.3-2.1-0.4-3-0.6c-1.1-0.3-3.2-0.2-3-2c0.1-0.9,1.1-1.6,2-2.5c0.3-0.3,2-1.9,2-2.4c-0.1-0.7-2.9-1.1-3.5-1.3
		c-1.5-0.4-2.8-0.4-3.2-1.5c-0.1-1.1,0.3-1.9,0.5-2.8c0.3-1,0.3-2.4,1.3-2.7c0.9-0.2,2.3,0.4,3.4,0.7c1.1,0.3,2.2,0.8,3.2,0.7
		c0.6-1.9-2.3-6.1,0-7.2c1.2,0,1.9,0.3,3,0.5c0.8,0.2,2,0.4,2.6,0.9c0.7,0.8,0.9,2.7,1.3,4c0.2,0.6,0.4,1.3,0.6,2
		c0.2,0.7,0.3,1.6,0.6,2c0.4,0.4,1.2,0.4,1.8,0.5c0.6,0.2,1.3,0.5,1.9,0.3c0-0.1,0-0.1,0.1-0.1c0.3-2.3-2.2-5.6-0.1-7.1
		c1.1,0,2,0.3,3,0.5c0.8,0.2,2,0.3,2.6,0.9c0.6,0.6,1,2.9,1.3,3.9c0.4,1.5,0.8,2.8,1.1,4.1c1.9,0.7,4.3,1.4,6.4,1.6
		c0.4-1.4-1.8-4.5,0.3-5c1.5-0.3,2.5,1,4,0.7c0.2-1-0.3-2-0.5-3.1c-0.2-0.7-0.4-2.6-0.9-3.1c-0.5-0.6-3.2-1-4.2-1.3
		c-0.9-0.3-3.3-0.6-4-1.3c-0.6-0.7-0.7-1.9-0.9-2.7c-0.3-1-0.6-1.7-0.5-2.9c1.5-2.1,4.9,0.3,7.1,0.1c0.3-0.5-0.1-1.2-0.2-1.9
		c-0.2-0.6-0.2-1.5-0.5-1.9c-0.3-0.3-1.4-0.5-2-0.7c-0.7-0.2-1.5-0.4-2.1-0.5c-1.3-0.4-3.3-0.6-4-1.3c-0.6-0.6-0.6-1.8-0.9-2.6
		c-0.3-1-0.5-1.7-0.5-2.9c1.5-2.1,4.9,0.3,7.1,0.1c0.2-1-0.3-2.1-0.6-3.3c-0.3-1.3-1.1-3-0.5-3.9c0.4-0.6,3.5-1.3,4.4-1.4
		c0.3,0,0.6,0,0.9,0.1c1,0.3,1.2,2.1,1.5,3.2c0.2,0.8,0.6,3.3,1.2,3.4c0.5,0.1,1.1-0.6,1.4-0.9c0.5-0.4,0.9-0.8,1.3-1.1
		c0.9-0.8,1.6-2.1,2.8-1.9c1.2,0.2,1.3,1.7,1.5,2.5c0.3,1.2,0.9,2.1,0.7,3.3c-0.2,0.9-2.2,2.5-2.8,3.1c-0.4,0.4-0.9,1.1-1.4,1.6
		c-0.3,0.3-1.3,0.9-1.4,1.6c-0.1,0.5,0.7,3.5,1.1,3.6c0.6,0.2,2.3-1.7,2.6-2c1-0.9,2.2-2.8,3.6-1.6c0.6,0.5,0.6,1.5,0.9,2.6
		c0.3,1.1,0.8,2,0.6,2.9c-0.2,1-2.1,2.5-2.8,3.2c-0.4,0.4-0.9,1-1.5,1.6c-0.4,0.4-1.3,1-1.4,1.6c-0.1,0.6,0.6,2.5,0.8,3.2
		C142.2,138.5,142.4,139.6,142.9,140.4z"/>
</g>
<g>
	<path class="st2" d="M95,96.7c0.6,0.1,1.1-0.7,1.7-0.3c0.5,0.3-0.1,1.2,0.1,1.7c0.4,0,0.7-0.2,1.2-0.4c0.3-0.1,0.9-0.3,1.1-0.5
		c0.1-0.1,0.1-0.5,0.1-0.8c0-0.3,0.1-0.5,0.1-0.7c0.1-0.5,0.1-1.1,0.3-1.5c0.2-0.2,0.8-0.4,1-0.5c0.3-0.1,1-0.5,1.4-0.1
		c0.1,0.2,0,0.9,0,1.2c-0.1,0.5-0.2,0.8-0.1,1.2c0.2,0.1,0.4-0.1,0.7-0.2c0.2-0.1,0.5-0.2,0.6-0.3c0.1-0.1,0.1-0.5,0.1-0.7
		c0-0.3,0.1-0.5,0.1-0.7c0.1-0.5,0.1-1.1,0.3-1.5c0.1-0.2,0.7-0.4,1-0.5c0.3-0.1,1.1-0.5,1.4-0.1c0.1,0.2,0,0.9-0.1,1.2
		c-0.1,0.5-0.2,0.8,0,1.2c0.6,0,0.8-0.2,1.3-0.4c0.3-0.1,0.8-0.6,1.3-0.3c0.2,0.2,0.3,0.6,0.5,0.9c0.1,0.3,0.4,0.7,0.2,1
		c-0.2,0.4-0.8,0.4-1.1,0.6c-0.1,0.1-1.1,0.3-1.1,0.5c-0.1,0.2,0.7,0.8,0.9,0.9c0.3,0.3,1,0.6,0.7,1.1c-0.2,0.3-0.6,0.3-1,0.5
		c-0.3,0.1-0.7,0.4-1,0.3c-0.4-0.1-0.9-0.7-1.2-0.9c-0.2-0.1-0.4-0.3-0.5-0.5c-0.2-0.1-0.4-0.4-0.6-0.4c-0.2-0.1-0.5,0.1-0.7,0.2
		c-0.2,0.1-0.6,0.2-0.6,0.3c-0.1,0.3,0.8,0.8,0.9,0.9c0.4,0.3,0.9,0.7,0.6,1.1c-0.2,0.3-0.6,0.4-0.9,0.5c-0.3,0.1-0.7,0.4-1,0.3
		c-0.4-0.1-1-0.7-1.3-0.9c-0.2-0.1-0.4-0.3-0.6-0.5c-0.2-0.2-0.4-0.4-0.6-0.4c-0.3-0.1-0.8,0.2-1.1,0.4c-0.2,0.1-0.4,0.2-0.6,0.2
		c-0.1,0-0.5,0.1-0.5,0.3c0,0.2,0.4,0.5,0.6,0.6c0.2,0.2,0.5,0.4,0.5,0.7c-0.2,0.7-1.1,0.4-1.4,0.9c0.1,0.3,0.5,0.5,0.8,0.8
		c0.3,0.2,0.6,0.7,0.9,0.8c0.3,0.1,1.1-0.4,1.5-0.5c0.2-0.1,0.5-0.2,0.7-0.2c0.3-0.1,0.5-0.3,0.7-0.2c0.4,0.1,0.7,0.5,1,0.7
		c0.2,0.2,0.8,0.4,0.7,0.8c-0.1,0.5-0.7,0.6-1,0.7c-0.4,0.2-0.8,0.3-1.1,0.6c0.1,0.2,0.3,0.3,0.4,0.5c0.2,0.1,0.4,0.4,0.6,0.4
		c0.3,0.1,1.2-0.4,1.5-0.5c0.2-0.1,0.5-0.2,0.7-0.3c0.2-0.1,0.6-0.2,0.7-0.2c0.4,0.1,0.7,0.5,1,0.7c0.3,0.3,0.7,0.4,0.7,0.8
		c-0.2,0.6-0.8,0.6-1.2,0.8c-0.4,0.2-0.7,0.3-1,0.6c0.1,0.4,0.5,0.6,0.9,0.9c0.3,0.3,1,0.7,0.9,1c-0.1,0.4-0.4,0.6-0.7,0.9
		c-0.3,0.3-0.5,0.6-0.8,0.6c-0.8-0.4-1.2-1-2-1.5c-0.5,0.7-0.3,1.5-0.7,2.3c-0.1,0.1-0.3,0.1-0.4,0.2c-0.4-0.1-0.6-0.4-0.9-0.6
		c-0.3-0.2-0.7-0.4-0.8-0.7c-0.1-0.3,0.1-1.1,0.2-1.5c0.1-0.5,0.2-1,0.2-1.5c-0.3-0.3-0.7-0.6-1.1-0.9c-0.4,0.6-0.3,1.5-0.7,2.3
		c-0.1,0.1-0.3,0.1-0.4,0.2c-0.4-0.2-0.6-0.4-0.9-0.6c-0.2-0.2-0.6-0.4-0.7-0.7c-0.1-0.4,0.1-1.1,0.2-1.6c0-0.3,0.3-1.3,0.2-1.5
		c-0.1-0.2-0.7-0.6-0.9-0.7c-0.3-0.3-0.6-0.5-1-0.7c-0.3,0.4-0.1,0.9-0.4,1.4c-0.1,0.1-0.3,0.1-0.4,0.2c-0.3-0.1-0.4-0.2-0.7-0.4
		c-0.1-0.1-0.4-0.4-0.6-0.4c-0.2,0.1-0.2,0.9-0.2,1.1c-0.1,0.4-0.3,0.9-0.2,1.2c0.1,0.3,0.9,0.8,1.2,1c0.4,0.3,1,0.7,1.1,1
		c0.1,0.3-0.1,0.7-0.1,1c-0.1,0.4,0,0.7-0.2,1.1c-0.8,0.5-1.6-0.8-2.4-1.1c-0.2,0.1-0.2,0.4-0.2,0.7c0,0.2-0.1,0.6-0.1,0.7
		c0.1,0.2,0.4,0.3,0.6,0.5c0.4,0.3,0.7,0.6,1.2,1c0.2,0.2,0.5,0.4,0.5,0.5c0.1,0.3,0,0.7-0.1,1c-0.1,0.4-0.1,0.7-0.3,1.1
		c-0.9,0.5-1.5-0.9-2.4-1.1c-0.4,0.8-0.2,1.6-0.5,2.5c-0.2,0.2-0.6,0.1-1,0.1c-0.3,0-1,0-1.2-0.4c-0.1-0.2,0-0.8,0.1-1.3
		c0-0.3,0.3-1.1,0.1-1.2c-0.2-0.2-0.9,0.2-1.2,0.3c-0.3,0.1-0.8,0.4-1.1,0.3c-0.5-0.2-0.3-0.6-0.3-1.1c0.1-0.5,0-0.9,0.2-1.3
		c0.2-0.3,1-0.5,1.4-0.7c0.2-0.1,0.5-0.2,0.7-0.3c0.2-0.1,0.6-0.1,0.7-0.3c0.1-0.2,0.1-0.5,0.1-0.7c0-0.2,0.1-0.5,0-0.7
		c-0.4,0-0.8,0.2-1.2,0.3c-0.4,0.1-0.8,0.4-1.3,0.1c-0.2-0.3-0.1-0.7-0.1-1.1c0.1-0.4,0.1-0.9,0.3-1.2c0.1-0.2,0.5-0.3,0.7-0.3
		c0.5-0.2,0.8-0.4,1.4-0.6c0.2-0.1,0.6-0.2,0.7-0.3c0.1-0.2,0.1-0.9,0.2-1.2c0.1-0.4,0.2-0.8,0.1-1.1c-0.6,0-1.1,0.7-1.6,0.3
		c-0.5-0.3,0.1-1.2-0.1-1.7c-0.4,0-0.8,0.2-1.2,0.4c-0.2,0.1-1,0.3-1.1,0.5c-0.1,0.2-0.1,0.5-0.1,0.8c-0.1,0.5-0.1,0.9-0.2,1.4
		c0,0.3,0,0.5-0.2,0.7c-0.2,0.3-0.7,0.4-1,0.5c-0.3,0.1-0.8,0.4-1.2,0.2c-0.4-0.2-0.3-0.8-0.2-1.2c0.1-0.5,0.2-1,0.1-1.3
		c-0.2,0-0.4,0.1-0.7,0.2c-0.2,0.1-0.5,0.2-0.6,0.3c-0.1,0.1-0.1,0.5-0.1,0.7c0,0.2-0.1,0.5-0.1,0.7c-0.1,0.5,0,1.1-0.3,1.5
		c-0.2,0.3-0.7,0.3-0.9,0.4c-0.3,0.1-0.8,0.5-1.2,0.2c-0.4-0.2-0.2-0.8-0.1-1.2c0-0.5,0.1-0.9,0-1.3c-0.4,0-0.7,0.2-1.2,0.4
		c-0.4,0.1-1,0.5-1.3,0.3c-0.3-0.1-0.4-0.6-0.5-0.9c-0.1-0.2-0.3-0.7-0.3-0.9c0.1-0.5,0.8-0.6,1.1-0.7c0.5-0.2,0.8-0.3,1.2-0.5
		c-0.1-0.4-0.5-0.6-0.8-0.9c-0.3-0.3-1-0.7-0.7-1.2c0.2-0.2,0.6-0.4,0.9-0.5c0.2-0.1,0.7-0.4,1-0.3c0.4,0.1,0.9,0.6,1.3,0.9
		c0.2,0.1,0.4,0.3,0.6,0.5c0.2,0.1,0.4,0.4,0.6,0.4c0.2,0.1,0.5-0.1,0.7-0.2c0.1,0,0.6-0.1,0.6-0.3c0.1-0.2-0.8-0.8-0.9-1
		c-0.4-0.3-0.9-0.6-0.8-1c0.1-0.4,0.7-0.5,1-0.6c0.3-0.1,0.8-0.4,1.1-0.3c0.2,0,0.5,0.3,0.6,0.4c0.4,0.3,0.7,0.6,1.2,0.9
		c0.2,0.2,0.4,0.4,0.6,0.4c0.3,0.1,0.9-0.3,1.2-0.4c0.4-0.2,0.7-0.2,1.1-0.5c-0.1-0.5-1.4-0.8-1-1.5c0.1-0.2,0.4-0.3,0.6-0.4
		c0.5-0.2,1-0.3,0.3-0.8c-0.2-0.1-0.4-0.3-0.5-0.4c-0.4-0.3-0.7-0.6-0.9-0.7c-0.3-0.1-1.2,0.4-1.5,0.5c-0.2,0.1-0.4,0.2-0.7,0.3
		c-0.3,0.1-0.5,0.2-0.7,0.2c-0.4-0.1-0.7-0.5-1-0.7c-0.3-0.2-0.7-0.4-0.7-0.9c0.1-0.5,0.7-0.6,1-0.7c0.2-0.1,0.3-0.1,0.6-0.2
		c0.1-0.1,0.5-0.2,0.5-0.3c0-0.2-0.8-0.8-1-0.9c-0.3-0.1-1.2,0.4-1.5,0.5c-0.2,0.1-0.5,0.2-0.7,0.3c-0.2,0.1-0.5,0.3-0.7,0.2
		c-0.4-0.1-0.6-0.4-0.9-0.6c-0.3-0.3-1-0.6-0.7-1.1c0.2-0.3,0.6-0.4,1-0.5c0.1-0.1,1-0.3,1-0.5c0.1-0.2-0.8-0.8-1-0.9
		c-0.4-0.3-0.9-0.6-0.9-1c0.1-0.4,0.4-0.6,0.6-0.9c0.2-0.3,0.5-0.8,0.8-0.7c0.3,0.1,0.7,0.5,1,0.7c0.3,0.3,0.6,0.6,1,0.7
		c0.5-0.5,0.1-2.4,1.1-2.4c0.4,0.2,0.6,0.4,0.9,0.6c0.2,0.2,0.6,0.4,0.7,0.7c0.1,0.4-0.1,1-0.2,1.5c0,0.2-0.1,0.5-0.1,0.8
		c0,0.2-0.1,0.6-0.1,0.7c0.1,0.2,0.3,0.3,0.5,0.4c0.2,0.1,0.3,0.3,0.6,0.4c0,0,0,0,0,0c0.4-0.7,0.1-2.2,1-2.4
		c0.4,0.2,0.6,0.4,0.9,0.6c0.2,0.2,0.6,0.4,0.7,0.7c0.1,0.3-0.1,1.1-0.2,1.5c-0.1,0.5-0.2,1.1-0.2,1.5c0.5,0.5,1.2,1.1,1.9,1.5
		c0.3-0.4,0.1-1.8,0.8-1.6c0.5,0.1,0.7,0.7,1.2,0.8c0.2-0.3,0.2-0.7,0.3-1.1c0-0.3,0.2-0.9,0.2-1.2c-0.1-0.3-0.9-0.8-1.2-1
		c-0.3-0.2-1-0.7-1.1-1c-0.1-0.3,0.1-0.7,0.1-1c0.1-0.4,0.1-0.7,0.2-1c0.8-0.5,1.6,0.8,2.4,1.1c0.2-0.1,0.2-0.4,0.2-0.7
		c0-0.2,0.2-0.5,0.1-0.7c0-0.1-0.4-0.4-0.5-0.5c-0.2-0.2-0.4-0.3-0.6-0.5c-0.4-0.3-1-0.7-1.1-1c-0.1-0.3,0-0.7,0.1-1
		c0.1-0.4,0.1-0.6,0.2-1.1c0.8-0.5,1.6,0.8,2.4,1.1c0.2-0.3,0.2-0.8,0.3-1.2c0.1-0.5,0.1-1.2,0.4-1.4c0.2-0.1,1.4,0.1,1.7,0.2
		c0.1,0,0.2,0.1,0.3,0.2c0.3,0.3,0.1,0.9,0,1.3c0,0.3-0.3,1.2-0.1,1.3c0.1,0.1,0.4-0.1,0.6-0.1c0.2-0.1,0.4-0.1,0.6-0.2
		c0.4-0.1,0.8-0.5,1.2-0.2c0.4,0.2,0.2,0.7,0.1,1.1c-0.1,0.4,0,0.8-0.3,1.2c-0.2,0.3-1.1,0.5-1.4,0.6c-0.2,0.1-0.5,0.2-0.7,0.3
		c-0.1,0.1-0.6,0.1-0.7,0.3c-0.1,0.2-0.3,1.3-0.2,1.4c0.2,0.2,1-0.2,1.2-0.3c0.5-0.2,1.1-0.6,1.4,0c0.1,0.2,0,0.6-0.1,1
		c-0.1,0.4,0,0.8-0.2,1.1c-0.2,0.3-1.1,0.5-1.4,0.7c-0.2,0.1-0.5,0.2-0.7,0.3c-0.2,0.1-0.6,0.1-0.7,0.3c-0.1,0.2-0.2,0.9-0.2,1.2
		C95,96,94.9,96.4,95,96.7z"/>
</g>
<g>
	<path class="st2" d="M189.5,209.7c0.5-0.4,0.1-1.3,0.8-1.5c0.6-0.2,0.9,0.8,1.4,0.9c0.2-0.3,0.3-0.7,0.4-1.2
		c0.1-0.3,0.3-0.9,0.2-1.2c-0.1-0.2-0.3-0.4-0.5-0.6c-0.2-0.2-0.4-0.4-0.5-0.5c-0.4-0.4-0.9-0.7-1-1.1c-0.1-0.3,0.1-0.8,0.2-1
		c0.1-0.3,0.2-1.1,0.8-1.1c0.3,0,0.7,0.5,0.9,0.7c0.3,0.3,0.6,0.6,0.9,0.7c0.2-0.1,0.2-0.4,0.3-0.7c0-0.2,0.2-0.5,0.1-0.7
		c-0.1-0.2-0.3-0.4-0.5-0.6c-0.2-0.2-0.4-0.4-0.5-0.5c-0.4-0.4-0.9-0.7-1-1.1c-0.1-0.2,0.1-0.8,0.2-1c0.1-0.3,0.2-1.2,0.8-1.1
		c0.3,0,0.7,0.6,0.9,0.7c0.3,0.3,0.5,0.6,0.9,0.7c0.3-0.5,0.3-0.8,0.4-1.2c0.1-0.3,0-1,0.5-1.2c0.3-0.1,0.7,0.1,1,0.2
		c0.3,0.1,0.8,0.1,1,0.4c0.2,0.4-0.1,0.9-0.2,1.2c0,0.2-0.4,1.1-0.2,1.2c0.1,0.2,1-0.1,1.3-0.1c0.4-0.1,1.1-0.4,1.3,0.1
		c0.1,0.3-0.1,0.7-0.2,1.1c-0.1,0.3-0.1,0.8-0.3,1c-0.3,0.3-1.1,0.4-1.4,0.5c-0.2,0.1-0.5,0.1-0.7,0.2c-0.2,0.1-0.6,0.1-0.7,0.2
		c-0.1,0.1-0.2,0.5-0.3,0.7c-0.1,0.2-0.2,0.6-0.1,0.7c0.2,0.2,1.1-0.1,1.3-0.2c0.5-0.1,1.1-0.3,1.3,0.2c0.1,0.3,0,0.7-0.1,1.1
		c-0.1,0.3-0.1,0.8-0.3,1c-0.3,0.3-1.1,0.4-1.5,0.5c-0.2,0.1-0.5,0.1-0.7,0.2c-0.2,0.1-0.6,0.1-0.7,0.2c-0.2,0.2-0.3,0.8-0.4,1.1
		c0,0.2-0.1,0.4-0.2,0.6c0,0.1-0.2,0.5-0.1,0.6c0.1,0.1,0.7-0.1,0.9-0.1c0.3-0.1,0.6-0.2,0.8,0c0.5,0.6-0.3,1.2-0.1,1.7
		c0.3,0.1,0.7-0.1,1.1-0.2c0.3-0.1,0.9-0.1,1.1-0.3c0.3-0.2,0.4-1.1,0.5-1.5c0.1-0.2,0.2-0.5,0.2-0.7c0.1-0.3,0.1-0.6,0.2-0.7
		c0.3-0.3,0.8-0.3,1.2-0.4c0.3-0.1,0.8-0.4,1.1-0.1c0.4,0.4,0,0.9,0,1.3c-0.1,0.5-0.2,0.8-0.2,1.2c0.2,0.1,0.4,0,0.6-0.1
		c0.2-0.1,0.5-0.1,0.7-0.2c0.3-0.2,0.4-1.2,0.5-1.5c0.1-0.2,0.1-0.5,0.2-0.8c0.1-0.2,0.1-0.6,0.3-0.7c0.3-0.3,0.7-0.3,1.1-0.4
		c0.4-0.1,0.7-0.3,1-0.1c0.4,0.5,0,1-0.1,1.4c-0.1,0.4-0.2,0.8-0.1,1.1c0.4,0.1,0.8-0.1,1.3-0.2c0.4-0.1,1.1-0.4,1.4-0.2
		c0.3,0.3,0.3,0.7,0.4,1.1c0.1,0.4,0.2,0.7,0,1c-0.8,0.4-1.5,0.3-2.4,0.8c0.3,0.8,1,1.1,1.4,1.9c0,0.2,0,0.3-0.1,0.4
		c-0.3,0.2-0.7,0.3-1.1,0.3c-0.3,0.1-0.7,0.3-1,0.2c-0.3-0.1-0.8-0.7-1.1-1c-0.4-0.4-0.7-0.8-1.1-1.1c-0.4,0.1-0.9,0.2-1.4,0.4
		c0.3,0.7,1,1.1,1.5,1.9c0,0.1,0,0.3-0.1,0.4c-0.4,0.2-0.7,0.3-1,0.4c-0.3,0.1-0.7,0.3-1,0.2c-0.4-0.1-0.8-0.7-1.2-1
		c-0.2-0.2-0.9-1-1.1-1.1c-0.2,0-0.9,0.2-1.1,0.3c-0.4,0.1-0.8,0.2-1.1,0.4c0.1,0.5,0.7,0.6,0.9,1.2c0,0.2,0,0.3-0.1,0.4
		c-0.3,0.2-0.4,0.2-0.7,0.3c-0.2,0.1-0.6,0.1-0.6,0.3c-0.1,0.3,0.6,0.7,0.8,0.8c0.3,0.3,0.6,0.7,0.8,0.8c0.3,0.1,1.2-0.3,1.5-0.4
		c0.5-0.1,1.2-0.4,1.5-0.3c0.3,0.1,0.5,0.5,0.8,0.7c0.3,0.3,0.6,0.4,0.7,0.8c-0.1,0.9-1.6,0.8-2.3,1.3c0,0.2,0.2,0.4,0.4,0.6
		c0.2,0.1,0.4,0.4,0.5,0.5c0.2,0,0.5-0.1,0.7-0.2c0.5-0.1,0.9-0.3,1.5-0.4c0.2-0.1,0.6-0.2,0.7-0.1c0.3,0.1,0.6,0.5,0.8,0.7
		c0.3,0.3,0.5,0.5,0.7,0.8c-0.1,1-1.6,0.7-2.3,1.3c0.4,0.8,1.2,1.1,1.7,1.9c0,0.3-0.3,0.6-0.5,0.8c-0.2,0.2-0.6,0.8-1,0.8
		c-0.3,0-0.6-0.5-1-0.8c-0.2-0.2-0.7-0.9-0.9-0.8c-0.2,0.1-0.4,0.9-0.5,1.1c-0.1,0.3-0.1,0.9-0.4,1.1c-0.5,0.3-0.7-0.1-1-0.4
		c-0.3-0.3-0.7-0.5-0.9-0.9c-0.1-0.3,0.2-1.1,0.3-1.5c0.1-0.3,0.1-0.5,0.2-0.8c0-0.2,0.2-0.5,0.2-0.8c-0.1-0.2-0.3-0.4-0.5-0.5
		c-0.2-0.2-0.3-0.3-0.5-0.4c-0.2,0.4-0.3,0.8-0.4,1.2c-0.1,0.4-0.1,0.9-0.6,1.1c-0.4,0-0.6-0.3-0.9-0.6c-0.3-0.3-0.7-0.6-0.8-0.9
		c-0.1-0.2,0.1-0.6,0.1-0.8c0.1-0.6,0.2-0.9,0.4-1.5c0.1-0.2,0.2-0.6,0.2-0.8c-0.1-0.3-0.7-0.6-0.9-0.9c-0.3-0.3-0.5-0.6-0.9-0.8
		c-0.4,0.4-0.1,1.3-0.7,1.5c-0.6,0.2-0.9-0.8-1.4-0.9c-0.2,0.3-0.3,0.7-0.4,1.2c0,0.2-0.3,0.9-0.2,1.2c0.1,0.2,0.3,0.4,0.5,0.6
		c0.4,0.4,0.6,0.6,1,1c0.2,0.2,0.4,0.4,0.5,0.6c0.1,0.3-0.1,0.8-0.2,1.1c-0.1,0.3-0.1,0.9-0.5,1.1c-0.4,0.2-0.8-0.3-1.1-0.5
		c-0.4-0.3-0.7-0.7-1-0.8c-0.2,0.2-0.2,0.4-0.2,0.7c-0.1,0.2-0.2,0.5-0.1,0.7c0.1,0.2,0.3,0.4,0.5,0.6c0.2,0.2,0.4,0.4,0.5,0.5
		c0.4,0.4,0.9,0.7,1,1.1c0.1,0.3-0.1,0.7-0.2,1c-0.1,0.3-0.1,0.9-0.5,1.1c-0.4,0.2-0.8-0.3-1.1-0.6c-0.4-0.3-0.7-0.7-1-0.8
		c-0.2,0.3-0.3,0.7-0.4,1.2c-0.1,0.4-0.2,1.1-0.5,1.2c-0.3,0.1-0.7-0.1-1-0.1c-0.2-0.1-0.7-0.1-0.9-0.3c-0.3-0.4,0-1,0.1-1.3
		c0.1-0.5,0.3-0.8,0.3-1.3c-0.4-0.1-0.8,0.1-1.2,0.2c-0.4,0.1-1.2,0.4-1.4-0.2c-0.1-0.3,0.1-0.7,0.2-1c0.1-0.2,0.1-0.8,0.3-1
		c0.3-0.3,1-0.4,1.5-0.5c0.2-0.1,0.5-0.1,0.7-0.2c0.2-0.1,0.6-0.1,0.7-0.2c0.2-0.1,0.2-0.4,0.3-0.7c0-0.1,0.2-0.6,0.1-0.7
		c-0.1-0.2-1.1,0.1-1.3,0.2c-0.5,0.1-1,0.3-1.2,0c-0.2-0.3,0-0.9,0.1-1.2c0.1-0.3,0.1-0.9,0.3-1.1c0.2-0.2,0.5-0.2,0.7-0.3
		c0.5-0.2,0.9-0.3,1.5-0.4c0.2-0.1,0.6-0.1,0.7-0.2c0.2-0.2,0.3-0.9,0.4-1.2c0.1-0.4,0.2-0.7,0.2-1.2c-0.5-0.2-1.5,0.7-1.8-0.1
		c-0.1-0.2,0-0.5,0.1-0.8c0.1-0.5,0.3-0.9-0.4-0.7c-0.2,0.1-0.4,0.1-0.6,0.2c-0.5,0.1-0.9,0.2-1.1,0.3c-0.3,0.2-0.4,1.2-0.5,1.5
		c-0.1,0.2-0.1,0.5-0.2,0.8c-0.1,0.3-0.1,0.6-0.3,0.7c-0.3,0.3-0.8,0.3-1.2,0.4c-0.3,0.1-0.8,0.3-1.1,0c-0.3-0.3-0.1-0.9,0-1.3
		c0-0.2,0.1-0.4,0.2-0.6c0-0.1,0.1-0.5,0-0.6c-0.1-0.1-1.1,0.1-1.3,0.3c-0.3,0.2-0.4,1.2-0.5,1.5c-0.1,0.2-0.1,0.5-0.2,0.7
		c-0.1,0.2-0.1,0.6-0.2,0.7c-0.3,0.3-0.7,0.3-1.1,0.3c-0.4,0.1-1.1,0.5-1.3-0.1c-0.1-0.3,0.1-0.7,0.2-1.2c0-0.1,0.3-1,0.2-1.1
		c-0.2-0.2-1.1,0.2-1.3,0.3c-0.5,0.1-1,0.4-1.3,0.1c-0.2-0.3-0.2-0.6-0.3-1c-0.1-0.4-0.3-0.8-0.1-1.1c0.3-0.2,0.8-0.3,1.2-0.4
		c0.4-0.1,0.8-0.2,1.1-0.4c-0.2-0.7-1.9-1.5-1.3-2.3c0.4-0.2,0.7-0.3,1-0.4c0.3-0.1,0.7-0.3,1-0.2c0.4,0.1,0.8,0.7,1.1,1
		c0.2,0.2,0.4,0.3,0.6,0.5c0.2,0.2,0.4,0.5,0.6,0.5c0.2,0,0.5-0.1,0.7-0.2c0.2-0.1,0.5-0.1,0.6-0.2c0,0,0,0,0,0
		c-0.3-0.8-1.7-1.4-1.3-2.2c0.4-0.2,0.7-0.3,1-0.4c0.3-0.1,0.7-0.3,1-0.2c0.3,0.1,0.9,0.7,1.1,1c0.4,0.4,0.8,0.7,1.1,1.1
		c0.7-0.1,1.6-0.3,2.3-0.7c-0.1-0.5-1.4-1.1-0.8-1.6c0.4-0.4,1-0.2,1.4-0.5c-0.1-0.3-0.5-0.6-0.7-0.9c-0.2-0.2-0.6-0.7-0.9-0.8
		c-0.3-0.1-1.2,0.3-1.5,0.4c-0.3,0.1-1.2,0.4-1.5,0.3c-0.3-0.1-0.6-0.5-0.8-0.7c-0.3-0.3-0.5-0.4-0.7-0.8c0.1-0.9,1.6-0.8,2.3-1.3
		c0-0.2-0.2-0.4-0.4-0.5c-0.2-0.2-0.3-0.4-0.5-0.5c-0.1,0-0.5,0.1-0.7,0.1c-0.3,0.1-0.5,0.2-0.8,0.2c-0.5,0.1-1.1,0.4-1.5,0.3
		c-0.3-0.1-0.5-0.4-0.7-0.7c-0.3-0.3-0.5-0.4-0.7-0.8c0.1-0.9,1.6-0.8,2.3-1.3c-0.1-0.3-0.5-0.6-0.8-0.9c-0.3-0.4-0.9-0.8-0.9-1.2
		c0-0.3,0.9-1.1,1.1-1.3c0.1-0.1,0.2-0.1,0.3-0.1c0.4-0.1,0.8,0.4,1.1,0.7c0.2,0.2,0.8,0.9,1,0.9c0.2-0.1,0.2-0.4,0.3-0.6
		c0.1-0.2,0.1-0.4,0.2-0.6c0.1-0.4,0.1-0.9,0.5-1.1c0.4-0.2,0.7,0.3,0.9,0.5c0.3,0.3,0.7,0.5,0.8,0.9c0.1,0.3-0.2,1.2-0.3,1.5
		c-0.1,0.2-0.1,0.5-0.2,0.8c0,0.2-0.2,0.5-0.2,0.8c0.1,0.2,0.9,1,1,0.9c0.2-0.1,0.4-0.9,0.5-1.1c0.1-0.5,0.2-1.3,0.8-1.2
		c0.3,0,0.5,0.4,0.8,0.6c0.3,0.3,0.6,0.5,0.7,0.8c0.1,0.4-0.2,1.2-0.3,1.5c0,0.2-0.1,0.5-0.2,0.8c0,0.2-0.2,0.6-0.2,0.8
		c0.1,0.2,0.7,0.7,0.8,0.9C188.9,209.3,189.1,209.6,189.5,209.7z"/>
</g>
</svg>
