<?xml version="1.0" encoding="utf-8"?>
<!-- Generator: Adobe Illustrator 26.3.1, SVG Export Plug-In . SVG Version: 6.00 Build 0)  -->
<svg version="1.1" id="Calque_1" xmlns="http://www.w3.org/2000/svg" xmlns:xlink="http://www.w3.org/1999/xlink" x="0px" y="0px"
	 viewBox="0 0 283.5 283.5" style="enable-background:new 0 0 283.5 283.5;" xml:space="preserve">
<style type="text/css">
	.st0{fill-rule:evenodd;clip-rule:evenodd;fill:#E30613;}
	.st1{fill:#FFFFFF;}
	.st2{fill-rule:evenodd;clip-rule:evenodd;fill:#FFFFFF;}
</style>
<g>
	<path class="st0" d="M145.3,113.4c1.3-16,23.5-16.5,20.1-10.3c-7.9,14.6-5.6,24.6-4.4,28.8C165.2,145.5,143.7,132.3,145.3,113.4z"
		/>
	<path class="st1" d="M159.4,138.9c-0.9,0-1.9-0.2-3.3-0.9c-5.6-2.9-13.3-12.8-12.3-24.7c0.6-6.9,5-12.3,11.9-14.5
		c4.6-1.4,9-1,10.7,1.1c0.9,1.1,1,2.5,0.2,3.9c-5.4,9.9-6.8,19.2-4.2,27.7c1,3.2,0.7,5.5-0.7,6.7
		C161.3,138.5,160.5,138.9,159.4,138.9z M160.9,100.9c-1.2,0-2.7,0.2-4.3,0.7c-2.8,0.9-9.2,3.7-9.9,12l0,0
		c-0.9,10.7,5.9,19.4,10.8,21.9c1.4,0.7,2.2,0.7,2.4,0.5c0.2-0.2,0.5-1.2-0.2-3.6c-2.8-9.2-1.3-19.3,4.5-29.9
		c0.3-0.5,0.2-0.6,0.1-0.7C163.8,101.2,162.6,100.9,160.9,100.9z"/>
</g>
<g>
	<g>
		<path class="st2" d="M121.2,56.7c-4,1.9-8-1.1-11.3-2.6c4,0,8.9,1.2,9.9-3.4c1.6-7.1-3.1-22.8-6.5-26.9c-2.3-2.7-6.6-5.4-11.4-4.4
			c-5.5,1.2-9.8,8-9.9,15.8c-0.1,7.6,1.7,14.4,6.6,17.2c-2.1,2.6-6.7,0.9-7.8-1.5c-1,2.8-3.4,5.3-7.1,4.6c2.2-2.8,4.2-5.4,4.4-10.8
			c0.3-7.9-1.2-17.5-7.3-16.7c-3.1,0.4-8.6,4.7-7,9.4c1.3,3.7,4.4,5.6,4.1,11.5c-0.3,5-2.7,7.2-5.3,10.6c2.5-5.8,2.8-20.5-6-19.2
			c-0.8,0.1-2.7,1-3.6,2.2c-0.7,1-2,4-1.6,5.6c0.4,1.7,2.9,1.9,4,3.4c2.9,6.7,2.1,10.9,0.2,16.2c-0.8,2.1-3.5,7.6-8.8,6.2
			c4.9-0.9,5.5-7.5,6.4-12.4c1.7-9.1-8.7-12.1-11.1-4.6c-0.4,0.1-0.7-1-1.2-1.2c-0.8-0.3,1,1.2,1,1.2c0.1,0.6-1.7,3.4-2,6.6
			c-0.2,2.4,0.1,4,0.2,6.3c1.7,1.2,4.5,4.1,5.1,7.1c0.3,1.5,0.3,4.1-1,4.3c0.1,0.9,0.6-0.9,0.7,0c-2,5.9-4.4,5.8-7.8,10.4
			c-1-6.2,6.3-7.7,3.2-15c-1.1-2.7-4.9-4.2-7.1-1.5c-3.7,4.4-5.2,14-5.8,21.4c-3.5-10.5-2-26.4,8.1-27.6c-0.3-4.6,0.3-9.6,1.6-12.9
			c0.4-1,5.5-8.1,9.8-8.2C58,40.6,60.5,35,69,35.5c0.1-9.7,13.9-17.2,19.8-8.6c0.9-2.6,2.4-4.5,3.6-6.7c2.4-2,4.6-4.3,7.6-5.3
			c10.9-3.7,19.9,7.5,22.4,17.1c0.3,1.2,1.9,9.3,1.8,10.8C123.9,47.4,124.2,55.3,121.2,56.7z"/>
		<path class="st2" d="M53.1,165.6c1,0.1,2.1-2.9,3.3-2.6c4,9.5,3.2,21.4,5.1,31.8c2.2,12.1,6.3,21.5,14.5,26.9
			c0.9,0.6,7.3,3.5,10.4,4c13.1,1.8,24.4-5.3,28.8-13.2c4.4-7.9,3.6-19.9,0.9-30.2c-3.2-12.5-7.1-24.9-6.8-40.7
			c0.2-11.2,3-20.8,6-28.6c4.4-11.3,12.4-27,5.5-42c-3.6-7.8-11.5-13.4-23.1-12.2C87.2,60,74.9,68.6,72.4,71.9
			C68.8,75.5,54.1,90,43.7,95.6C55.8,86,65.4,69.9,78,61.6c5.9-3.9,14.2-7.6,25.1-7.3c4.3,0.1,7.8,1.2,11.1,3
			c9.4,5.1,15.7,18.5,13.2,34.9c-0.6,4-2.3,8.2-3.9,12c-4.6,11.2-9.4,21.5-9.8,37.4c-0.3,10.4,1.7,20.5,4.1,29.1
			c3.4,12.2,8,28.7,2.9,40.8c-1.3,3-4,6.7-5.6,8.4c-2.6,2.8-7.2,6.1-10.5,7.5c-12.3,5.2-26.3,2.5-34.7-4.6
			c-6.8-6.3-10.8-16.1-12.7-27.9c-1.3-7.9-1.5-16.6-3.2-25c-1.5-7-5.2-13.5-8.3-19.6c-3.2-6.4-7.2-12.4-9.4-18.2
			c-4.2-11.4-1.7-23,2-33.1c-0.7,11.8-2.8,18.6,0.6,28c2.3,6.3,6,11.7,8.9,17.3c3,5.9,6.2,11.6,8.4,17.5
			C56.6,162.9,53.8,164.6,53.1,165.6z"/>
	</g>
	<g>
		<path class="st2" d="M166.1,94c3.9,2.2,8-0.6,11.5-1.8c-4-0.3-9,0.6-9.7-4.1c-1.1-7.2,4.7-22.6,8.4-26.4c2.5-2.6,7-4.9,11.6-3.6
			c5.4,1.6,9.2,8.7,8.8,16.5c-0.4,7.6-2.7,14.3-7.8,16.7c1.9,2.8,6.6,1.3,7.9-0.9c0.8,2.9,3,5.5,6.8,5.1c-2-3-3.8-5.7-3.6-11.1
			c0.3-7.9,2.4-17.4,8.4-16.1c3.1,0.7,8.2,5.3,6.3,9.8c-1.5,3.6-4.8,5.3-4.9,11.2c-0.1,5,2.2,7.3,4.6,10.9c-2.1-6-1.4-20.7,7.3-18.8
			c0.8,0.2,2.7,1.2,3.4,2.4c0.6,1,1.7,4.2,1.2,5.7c-0.6,1.7-3,1.7-4.2,3.1c-3.4,6.5-2.9,10.7-1.4,16.1c0.6,2.2,2.9,7.8,8.3,6.8
			c-4.8-1.3-5-7.9-5.5-12.8c-1-9.2,9.6-11.4,11.4-3.8c0.4,0.2,0.8-1,1.3-1.1c0.8-0.3-1,1.1-1,1.2c-0.1,0.6,1.5,3.5,1.6,6.8
			c0,2.4-0.4,4-0.7,6.3c-1.8,1.1-4.8,3.7-5.6,6.8c-0.4,1.5-0.6,4,0.7,4.4c-0.2,0.9-0.5-1-0.7-0.1c1.6,6.1,4,6.1,7,10.9
			c1.4-6.1-5.8-8.1-2.2-15.2c1.3-2.6,5.2-3.8,7.2-1c3.4,4.6,4.1,14.4,4.3,21.8c4.2-10.2,3.9-26.2-6.1-28.1c0.6-4.5,0.4-9.6-0.6-13
			c-0.3-1-4.9-8.4-9.1-8.9c-0.6-7.1-2.7-12.8-11.2-12.9c0.6-9.7-12.6-18.1-19.1-10c-0.7-2.6-2.1-4.7-3.1-6.9
			c-2.3-2.2-4.3-4.7-7.2-5.9c-10.6-4.4-20.4,6.1-23.5,15.5c-0.4,1.2-2.5,9.1-2.5,10.6C164.1,84.6,163.3,92.4,166.1,94z"/>
		<path class="st2" d="M226.3,207.5c-1,0-1.9-3-3.1-2.9c-4.6,9.2-4.7,21.1-7.3,31.4c-3.1,11.9-7.8,20.9-16.4,25.8
			c-1,0.5-7.5,3-10.7,3.2c-13.2,0.9-23.9-7-27.8-15.2c-3.9-8.2-2.2-20.1,1.2-30.2c4.1-12.2,8.8-24.3,9.7-40.1
			c0.6-11.2-1.5-20.9-4-28.9c-3.6-11.6-10.5-27.8-2.5-42.3c4.1-7.5,12.5-12.6,23.9-10.5c10.5,1.9,22.2,11.4,24.3,14.8
			c3.4,3.9,17,19.4,27,25.7c-11.4-10.4-19.9-27.2-31.8-36.4c-5.6-4.3-13.7-8.6-24.5-9.1c-4.3-0.2-7.8,0.7-11.3,2.2
			c-9.7,4.4-17,17.4-15.6,33.9c0.3,4,1.7,8.4,3,12.3c3.8,11.5,7.8,22.1,7.1,38c-0.5,10.4-3.1,20.3-6.1,28.7
			c-4.3,12-10,28.1-5.8,40.5c1,3.1,3.5,7,5,8.8c2.4,3,6.7,6.6,9.9,8.2c11.9,6.1,26.1,4.3,34.9-2.2c7.2-5.8,12-15.3,14.7-26.9
			c1.8-7.8,2.6-16.4,5-24.7c2-6.9,6.1-13.1,9.6-18.9c3.7-6.1,8.1-11.8,10.6-17.5c5-11.1,3.4-22.8,0.4-33.2
			c-0.1,11.8,1.5,18.7-2.5,27.9c-2.7,6.2-6.9,11.2-10.1,16.6c-3.4,5.7-7,11.1-9.7,16.9C223,204.6,225.7,206.4,226.3,207.5z"/>
	</g>
</g>
<g>
	<path class="st1" d="M158.1,146.1c0-0.5,0.1-0.9,0.1-0.7c0-1,0-1,0-1.1c0-0.6,0.1-1.3,0.1-0.6l0.1-1.8l-0.1,1.1
		c0-0.3,0.1-1.7,0.1-2l-0.1,1.9l0-0.1c0,0.5-0.1,1.3-0.1,1.6c0,0,0,0,0-0.4c-0.1,2.3,0,0.6,0,2.5
		C158.1,146.5,158.1,146.3,158.1,146.1z"/>
	<path class="st1" d="M157.8,148.1c0,0.3,0,0.6,0,0.8l0,0.9c0,0.1,0,0.7,0.1,0.3c0-0.1,0-0.3,0-0.4c0.1,0.2,0,1.3,0.1,1.2
		c0-0.8,0-0.9,0-1.5c0-0.2,0-0.3,0-0.5c0-0.2,0-0.4,0-0.6c0-0.3,0-0.6,0.1-0.9c0-0.3,0-0.3,0-0.7c0,0.1,0,0.2,0,0.3l-0.1,0
		c0,0.3,0,0.6,0,0.9l0-1.6c-0.1,0.3-0.1,0.8-0.1,1.3c0,0.3,0,0.5-0.1,0.8c0,0.2,0,0.5,0,0.5c0-0.1,0-0.2,0-0.2c0,0,0,0.1,0,0.1
		C157.8,148.8,157.8,148.8,157.8,148.1z"/>
	<path class="st1" d="M158,146.6C158,146.6,158,146.6,158,146.6C158,146.6,158,146.6,158,146.6z"/>
	<path class="st1" d="M131,93.3c-0.1-0.3-0.2-0.4-0.2-0.4l1.6,3.4c0-0.1-0.5-1.1-0.2-0.5c-0.1-0.3-0.6-1.2-0.6-1.3l0.1,0.2
		c-0.4-0.8-0.6-1.3-0.3-0.8l0-0.1l-1.3-2.3c0.1,0.3,0.2,0.4,0.3,0.6c0.1,0.1,0.1,0.2,0.2,0.3C130.7,92.6,130.8,92.8,131,93.3z"/>
	<path class="st1" d="M158.5,90.1c0-0.5,0-0.5,0-0.5C158.5,89.8,158.5,89.9,158.5,90.1z"/>
	<path class="st1" d="M129.8,90.9l-0.2-0.5l-0.1-0.2c0,0,0-0.1-0.1-0.1l0.1,0c0,0-0.1,0-0.1,0l0.1,0.1c0,0.1,0.1,0.2,0.1,0.3
		C129.6,90.6,129.7,90.7,129.8,90.9z"/>
	<path class="st1" d="M132.8,95.6C132.8,95.6,132.8,95.7,132.8,95.6l-0.2-0.3c0,0,0,0,0,0C132.7,95.5,132.8,95.6,132.8,95.6z"/>
	<path class="st1" d="M146.1,93.8c0.1,0,0.1,0,0.2,0C146.3,93.8,146.2,93.8,146.1,93.8z"/>
	<path class="st1" d="M137.7,104.7l-0.8-1.5c0.1,0.2-0.3-0.5-0.1-0.2c-0.1-0.1-0.3-0.6-0.3-0.5l0.2,0.3c-0.5-0.8-0.3-0.3-1-1.6
		c0.4,0.8,0.6,1.2,0.8,1.6c0.1,0.1,0.1,0.3,0.2,0.4l0.7,1.2L137.7,104.7z"/>
	<path class="st1" d="M156.7,69L156.7,69C156.7,69,156.7,69,156.7,69z"/>
	<path class="st1" d="M156.6,69.2l0-0.2C156.7,69.1,156.6,68.9,156.6,69.2z"/>
	<path class="st1" d="M130,91.2c0,0-0.1-0.2-0.2-0.4l0.4,0.7C130.1,91.5,130,91.3,130,91.2z"/>
	<path class="st1" d="M130.8,92.6l0.6,1.3l0.3,0.5C131.4,93.8,131.1,93.3,130.8,92.6z"/>
	<path class="st1" d="M144,93.2c2.9,0.6-0.7,0,0.6,0.3c0.8,0.2,1.1,0.2,1.6,0.3c-2.3-0.4,0.4-0.1-1.9-0.6c0.2,0,0.6,0,1.1,0.1
		c0.2,0,0.5,0.1,0.7,0.1c0.2,0,0.6,0.1,0.5,0.1c0.1,0.1,0.1,0.1,0,0.1c-0.1,0-0.3,0-0.5-0.1c-0.2,0-0.3,0-0.4,0
		c0.5,0.1,0.7,0.1,0.8,0.1c0.1,0,0.1,0,0.1,0c0.1,0,0.2,0,0.2,0c0-0.1,0-0.2,0-0.2l0,0l0-0.2c0-0.2,0.1-0.3,0.1-0.5
		c0.1-0.3,0.2-0.5,0.3-0.7c0.2-1,0.2-1,0.2-1.6c-0.1-0.2-0.5,1.5-0.7,1.9c0-0.1,0.1-0.2,0.1-0.2l-0.3,0.9c0.1-0.4,0.2-0.4,0.1-0.2
		c0,0.2-0.1,0.7-0.1,0.6c0,0,0,0.1,0,0.1c0,0,0-0.1,0-0.1c0,0,0,0.1,0,0.1c0,0-0.1,0-0.1,0c0,0,0,0,0,0c0,0,0,0,0,0l-0.3,0
		c-0.2,0-0.4-0.1-0.6-0.1c-0.4-0.1-0.9-0.1-1.5-0.2l0.7,0c-0.9-0.1-3-0.5-4.4-0.9c0.2,0,0.4,0.1,0.3,0.1c-0.8-0.2-1.5-0.4-1.1-0.3
		c-0.8-0.1-3.1-0.7-4.3-0.9c-1.8-0.3-3.2-0.5-5.9-1c0.3,0.1,0.5,0.1,0.8,0.2c0.7,0.2,1,0.3,0,0.1c0.4,0.1,0.7,0.1,0.9,0.2
		c0.1,0,0.3,0.1,0.5,0.1c0.2,0,0.4,0.1,0.7,0.2c-0.5-0.1-0.6-0.1,0.5,0.2c2.9,0.7,4.8,0.9,7.6,1.4c0.1,0.1,2.2,0.5,3.2,0.8
		c-0.4,0-1.2-0.2-2-0.3c0.5,0.1,1.4,0.3,2,0.5L144,93.2z"/>
	<path class="st1" d="M137.2,91.9c0.1,0,0.1,0,0.2,0.1C137.4,92,137.3,91.9,137.2,91.9z"/>
	<path class="st1" d="M141.4,92.8C141.4,92.8,141.4,92.8,141.4,92.8l0.2,0.1C141.6,92.8,141.5,92.8,141.4,92.8z"/>
	<path class="st1" d="M129.8,90.5c0.1,0.2,0.2,0.3,0.3,0.5c-0.1-0.1-0.1-0.3-0.2-0.4C129.8,90.5,129.7,90.4,129.8,90.5z"/>
	<path class="st1" d="M129.9,91.1l-0.1-0.1c0,0.1,0.1,0.1,0.1,0.2C130,91.2,130,91.2,129.9,91.1z"/>
	<path class="st1" d="M149.4,88.1l0.1-0.3C149.4,88,149.4,88.1,149.4,88.1z"/>
	<path class="st1" d="M146.7,94c-0.2-0.1-0.2,0-0.3,0c0,0-0.2,0-0.9-0.1l0.4,0.1c-1-0.2-2.8-0.6-4-0.9c0.1,0-0.7-0.2-0.6-0.2
		c-0.8-0.2-1.6-0.3-2.1-0.4c-0.5-0.1-1.3-0.3-1.9-0.4c0.3,0.1-0.9-0.1,0.6,0.2c-0.1,0-0.1,0-0.2,0c1,0.3,1.4,0.3,2.3,0.5
		c0.5,0.2-0.9-0.1-0.4,0c1.1,0.2,3.4,0.9,3.4,0.7c0.8,0.2,0.9,0.2,1.1,0.3c0.3,0,0.8,0.1,1.3,0.2c0.2,0.1,0.5,0.1,0.8,0.2
		c0.1,0,0.3,0.1,0.4,0.1c0.1,0,0.3,0.1,0.4,0.1c0-0.1,0.1-0.2,0.1-0.3c0-0.2,0-0.3,0-0.3c-0.1,0.2,0,0.7-0.4,0.6L146.7,94z"/>
	<path class="st1" d="M131.3,90.7c0.1,0,0.2,0,0.2,0.1C131.5,90.7,131.4,90.7,131.3,90.7z"/>
	<path class="st1" d="M134.3,101.1l-0.3-0.3c-1-2.2-1.4-3-2.3-4.9c-0.1-0.2,0.1,0.1,0.1,0.2c-0.3-0.7-0.7-1.5-1.1-2.3
		c-0.5-1-0.9-1.9-1.3-2.6c-0.1-0.2-0.2-0.4-0.3-0.7c-0.1-0.1-0.1-0.3-0.2-0.4l-0.1-0.2l0-0.1c0,0,0-0.1,0,0c0.5,0.1,0.8,0.2,0.5,0.1
		c0.4,0.1,0.7,0.1,1.2,0.3c0.1,0-0.2,0-0.4-0.1c-0.2-0.1-0.5-0.1-0.5-0.1c0.3,0.1,0.5,0.1,0.5,0.1c-0.3,0-0.1,0-0.2,0
		c0,0-0.1,0-0.4-0.1c-0.1,0-0.3-0.1-0.5-0.1c0,0.1,0.2,0.4,0.3,0.7c0.1,0.4,0,0-0.2-0.4l-0.1-0.2l0-0.1c0,0,0-0.1,0,0
		c0.1,0,0.2,0,0.3,0.1c0.1,0,0.2,0,0,0c-0.1,0-0.2,0-0.3-0.1c-0.1,0-0.2-0.1-0.1,0c0,0.1,0.1,0.2,0.1,0.2c0,0.1,0.1,0.1,0.1,0.1
		c0.4,1,0.4,0.9,0.3,0.9c0.1,0.2,0.3,0.6,0.5,1.1c0.1,0.2,0.2,0.3,0.2,0.5c0.1,0.1,0.1,0.2,0.2,0.3c0.6,1.2-0.1,0,0.3,0.8l0.3,0.4
		l0.6,1.3c0.9,1.9,0-0.3,1.1,1.9c-0.2-0.3,0.2,0.6,0.6,1.7c-0.3-0.6-0.9-1.7-1.2-2.5c0.5,1.2-0.7-1.5-0.5-0.9c0.3,0.5,0.7,1.5,1,2.2
		l-0.1-0.2c0.3,0.8,0.7,1.3,1.1,2.4c0.2,0.5,0.2,0.4,0.1,0.4C134.1,100.7,134.3,101.1,134.3,101.1z M133.7,99.9l-0.3-0.7
		C133.5,99.4,133.6,99.7,133.7,99.9z"/>
	<path class="st1" d="M155.4,146.8c0,0.1,0.1,0.1,0.1,0.2C155.5,147,155.4,146.9,155.4,146.8z"/>
	<path class="st1" d="M130.5,124.4l-0.3,0.3C130.3,124.6,130.4,124.5,130.5,124.4z"/>
	<path class="st1" d="M126.4,129.8l0.2,0C126.5,129.8,126.5,129.8,126.4,129.8z"/>
	<path class="st1" d="M152.7,142.2L152.7,142.2c0,0-0.1-0.1-0.1-0.1L152.7,142.2z"/>
	<path class="st1" d="M142.6,137.7c0,0.2-0.1,0.4-0.1,0.6C142.6,138.3,142.6,138.1,142.6,137.7z"/>
	<polygon class="st1" points="126.3,129.8 126.3,129.8 126.4,129.8 	"/>
	<path class="st1" d="M134,121.5c0.1-0.1,0.1-0.1,0.2-0.2C134.1,121.4,134,121.5,134,121.5z"/>
	<path class="st1" d="M133.1,121.6c0.1-0.1,0.1-0.2,0.2-0.2L133.1,121.6z"/>
	<path class="st1" d="M139.5,108.6l-0.3-0.5C139.3,108.3,139.4,108.5,139.5,108.6z"/>
	<path class="st1" d="M134.3,120.5C134.3,120.5,134.4,120.4,134.3,120.5C134.3,120.5,134.3,120.5,134.3,120.5z"/>
	<path class="st1" d="M156.9,150.2C156.9,150.2,156.9,150.2,156.9,150.2L156.9,150.2L156.9,150.2z"/>
	<path class="st1" d="M157.5,150.8c0.1,0.1,0.1,0.2,0.2,0.3C157.7,150.9,157.6,150.8,157.5,150.8z"/>
	<path class="st1" d="M141.9,146.1c0,0.1-0.1,0.4-0.1,0.3C141.8,146.6,142,146.4,141.9,146.1z"/>
	<path class="st1" d="M154.6,148.4c0.1,0.1,0.2,0.2,0.2,0.3C154.7,148.5,154.6,148.3,154.6,148.4z"/>
	<path class="st1" d="M154.9,148.6c0.1,0.1,0.1,0.2,0.2,0.3L154.9,148.6z"/>
	<path class="st1" d="M139.8,142.8c0,0,0-0.1,0-0.2C139.8,142.7,139.8,142.7,139.8,142.8z"/>
	<path class="st1" d="M157.9,151.4c0,0.1,0-0.1,0-0.3c0-0.2,0-0.3,0-0.5c0-0.3,0-0.3,0,0.2c-0.1-0.3,0-0.8,0-1.1
		c0,0.2,0-0.2-0.1-0.1c0,0.1,0,0.3,0,0.5c0,0,0-0.3,0-0.5c0,0.2-0.1-0.4-0.1-0.1c0,0.2,0,0.3,0,0.5c0,0.1,0,0.5-0.1,0.2
		c-0.1-0.2-0.3-0.4-0.5-0.6c0.1,0.1,0.2,0.2,0.2,0.3c0.1,0.1,0.1,0.3,0.2,0.4c0.1,0.1,0.1,0.3,0.2,0.4c0-0.1,0-0.2,0-0.3l0,0.4
		c0,0,0,0.1,0,0.1c0-0.1-0.1-0.1-0.1-0.2c-0.1-0.1-0.1-0.2-0.2-0.3c-0.1-0.2-0.2-0.4-0.4-0.6c0.2,0.3,0.4,0.8,0.7,1.2
		c0.1-0.1,0.1-0.2,0.1,0c0,0.1,0,0.2,0,0.3L157.9,151.4C157.9,151.3,157.9,151.3,157.9,151.4l-0.1-0.2c0-0.1-0.1-0.1-0.1-0.2
		C157.8,151.2,157.9,151.3,157.9,151.4z"/>
	<path class="st1" d="M157.3,151.9L157.3,151.9c0,0.1,0.1,0.1,0.1,0.1L157.3,151.9z"/>
	<path class="st1" d="M138.1,109.4l-0.1-0.2C138,109.4,138.1,109.4,138.1,109.4z"/>
	<path class="st1" d="M156.7,150.1L156.7,150.1C156.7,150.1,156.7,150.1,156.7,150.1z"/>
	<path class="st1" d="M139.2,112.6L139.2,112.6C139.2,112.6,139.2,112.6,139.2,112.6z"/>
	<path class="st1" d="M139.9,114.9C139.9,114.9,139.9,114.9,139.9,114.9C140,114.8,140,114.8,139.9,114.9z"/>
	<path class="st1" d="M139.2,112.6L139.2,112.6L139.2,112.6z"/>
	<path class="st1" d="M122.9,129.5c0,0,0.1-0.1,0.2-0.2C123.1,129.2,123,129.3,122.9,129.5z"/>
	<path class="st1" d="M126.7,125.9C126.7,125.8,126.7,125.8,126.7,125.9L126.7,125.9z"/>
	<path class="st1" d="M142.7,145.3c0-0.1,0-0.1,0-0.1C142.7,145.2,142.7,145.3,142.7,145.3z"/>
	<path class="st1" d="M139.2,112.6C139.2,112.6,139.2,112.5,139.2,112.6C139.2,112.5,139.2,112.6,139.2,112.6z"/>
	<path class="st1" d="M127.6,132.5c0,0-0.1,0-0.1,0L127.6,132.5L127.6,132.5z"/>
	<path class="st1" d="M129.8,133.4c-0.1,0-0.1,0-0.2,0c0.8,0.2,2.2,0.8,2.5,0.7c-0.3-0.1-1.6-0.7-1.4-0.7c-0.6-0.1-1.3-0.5-1.7-0.6
		c0.9,0.4,0.1,0.2-0.6,0c-0.5-0.2,0.1-0.1-0.3-0.3l-1.3-0.4l1.1,0.4l-0.4,0c0,0,0.1,0,0.1,0C129.7,133.1,127.8,132.8,129.8,133.4z"
		/>
	<path class="st1" d="M129.7,133.4c-0.1,0-0.2-0.1-0.3-0.1C129.5,133.4,129.6,133.4,129.7,133.4z"/>
	<path class="st1" d="M137.3,136.3c0.1,0,0.2,0.1,0.3,0.1C137.6,136.4,137.4,136.4,137.3,136.3z"/>
	<path class="st1" d="M132.1,95.2c0,0,0.5,1.1,0.5,1.1c-0.1-0.3-0.3-0.6-0.4-1L132.1,95.2z"/>
	<path class="st1" d="M142.6,149.5l-0.2,0.3c0,0,0,0.1-0.1,0.1C142.3,149.8,142.5,149.6,142.6,149.5z"/>
	<path class="st1" d="M131.1,133.4c-0.2-0.1-0.3-0.1-0.4-0.1C130.9,133.4,131,133.4,131.1,133.4z"/>
	<path class="st1" d="M142.5,150c0.1-0.1,0.2-0.2,0.3-0.1c0.2-0.3,0.4-0.6,0.6-0.9C143.1,149.3,142.8,149.7,142.5,150z"/>
	<path class="st1" d="M143.4,148.9L143.4,148.9L143.4,148.9z"/>
	<path class="st1" d="M131.8,94.6c0-0.1-0.1-0.2-0.1-0.3l0.1,0.1l-0.3-0.7c0-0.1-0.1-0.2-0.1-0.3c0,0,0,0.1,0.1,0.1l-0.1-0.2
		c-0.2-0.3-0.4-0.8-0.7-1.3c-0.3-0.6-0.5-1.1-0.7-1.3l-0.1-0.3c0,0-0.1-0.1-0.1-0.1l0.1,0c0.2,0,0.4,0.1,0.5,0.1
		c0.4,0.1,0.7,0.2,1,0.2c-0.5-0.1-1.2-0.3-0.9-0.2c0.5,0.1,0.9,0.3,1.3,0.4c0.4,0.1,0.9,0.2,1.6,0.4l-0.9-0.2l2,0.4
		c0.7,0.2-1-0.2-1.3-0.2c1.5,0.3,2.7,0.8,3.5,0.9c0.1,0.1,0.2,0.2,1.2,0.5c-0.7-0.2,0.6,0.1,0-0.1c0.4,0.1,1.1,0.3,1.2,0.3l-0.1,0
		c1.7,0.5,2.3,0.5,3,0.6c1,0.2,1.8,0.4,2.4,0.6c0.7,0.2,1.3,0.3,2.1,0.5c0,0,0.1,0.1,0.3,0.2c0.2,0.1,0.5,0.2,0.7,0.2
		c0-0.2,0.1-0.6,0.2-1c0.1-0.4,0.2-0.8,0.1-0.9c-0.1,0.3-0.2,0.5-0.2,0.7c0,0.1,0,0.2,0,0.3c0,0.2,0,0.3-0.1,0.6
		c-0.1,0.2-0.1,0.2-0.2,0.1c0,0-0.1-0.1-0.4-0.2c0.1,0,0.1,0,0.2,0.1c0,0,0.1,0,0.1,0c0,0,0-0.1,0.1-0.1c0.1-0.2,0.1-0.5,0.2-0.8
		c0.2-0.7,0.4-1.5,0.6-1.8l-0.1,0.3c0.4-1.1,0.8-1.2,1.1-3.2l0.2-0.9c0,0,0,0.1,0,0.1c0.5-1.5,0.5-1,0.9-2.7c0,0.1,0,0.1,0,0.2
		c0.4-0.9,0.5-1.9,0.7-2.6c0.2-0.4,0.1,0.1,0.1,0.4c0.5-1.6,0.9-3.4,1-4.5l0.4-1c-0.1,0.6-0.2,1.4-0.1,1.3c0.2-0.6,0.1-0.5,0.3-1.3
		c0,0.2,0,0.5,0,0.9c0.6-1.6-0.2-0.5,0.4-1.6c0.2-0.5,0.1-0.9,0.1-1l0.4-0.9c-0.1-0.2,0.3-1.3,0.5-2.1c0-0.1-0.3,0.7-0.4,0.9
		c0,0,0-0.3,0.1-0.6c0.1-0.3,0.2-0.8,0.3-1.1c0.1,0,0.4-1,0.7-1.9c0.3-0.9,0.5-1.6,0.5-0.9c0.4-1.4,0.9-3.1,1.4-4.7
		c0.1-0.4,0.2-0.8,0.4-1.2l0-0.2l0-0.1c0,0,0-0.1,0,0l0,0.2c0,0.2,0,0.3,0,0.5c0.1,0.6,0.1,1.1,0.2,1.5c0,0.9,0.1,2.2-0.1,1.9
		c0.1,1.1,0.2,1.7,0.3,2.5c0.1,0.8,0.2,1.6,0.2,2.9c0,0.2-0.1-1.1-0.1-0.9c0.1,0.7,0.1,1.4,0.1,2.2c0,0.7,0,1.5,0.1,2.5
		c0-0.3-0.1-0.4-0.1-0.5c0,0,0.1,0.8,0.2,1.3c0,0.3,0-0.4-0.1-0.2c0.1,3.9,0.5,6.8,0.7,10.7c0-1.1-0.1-1.5-0.2-1.5l0.1,1.1
		c0.1,0.4,0.1,1.2,0.2,1.9c0,0.1,0,0.4,0,0.1c0.1,2.1,0.3,3.3,0.3,5.9c0-1.1-0.1-2.1-0.2-3.2l0,0.8l-0.1-1.4c0,0.8,0.1,1.6,0.1,1.7
		c0-0.2,0-0.6-0.1-0.6c0,0.8,0.1,0.9,0.1,1.5c-0.2-1.8-0.4-4.7-0.6-6.3c0-0.3,0,0.2,0.1,0.3c-0.1-0.7,0-1.1-0.1-1.9
		c-0.1-0.5,0,0.4,0,0.8c0-0.1-0.1-0.3-0.1-0.7c0.1-0.1-0.2-2.6-0.1-3.2c-0.2-2.5-0.2,0.4-0.3-2l0-0.7c-0.2-1.4-0.4-3.3-0.5-4.9
		l0,0.3c0.1,0.2,0.1-0.2,0.1-0.3c0-0.6-0.1-1.3-0.1-1.6c0-0.4,0-0.7,0-1.1c-0.1-0.5-0.1-1.1-0.2-1.6c-0.1-0.4-0.1-0.9-0.2-1.3
		c0.1-0.9,0.2,0.8,0.3,1l-0.1-1c0,0.6,0.1,0.7,0.2,0.9c0-1.1-0.2-1-0.2-1.7c0-0.1,0-0.3,0-0.7l-0.1,0.3c0,0,0-0.1,0-0.3l-0.1-0.6
		l0-0.1c0,0,0,0,0,0l0,0.1l-0.1,0.4c0,0,0,0.1,0.1,0.1c0,0,0,0.1,0,0.1c0,0,0,0,0,0.1c0,0,0,0.1,0,0.1c0-0.4,0.1-0.2,0.1,0.1
		c-0.1,0,0,0.6,0,0.8c0-0.2,0-0.3,0-0.5l0-0.2l0-0.1c0,0,0,0,0,0l0,0.1c-0.1,0.4-0.2,0.7-0.3,1l0-0.3c-0.2,0.5-0.4,1.4-0.5,1.7
		l0-0.3c-0.2,0.7-0.4,1.5-0.7,2.1c0,0.6-0.4,2.2-0.5,3.1c0,0.5-1.2,3.1-1.3,4.4c0,0.1,0.2-0.9,0.2-1.3c-0.3,0.8-0.3,1.5-0.5,1.7
		c0.6-1.8-0.2,0.1,0.1-0.8c-0.3,0.8-0.5,1.8-0.6,2.2c0.4-1.4,0.1,0.6,0.4-0.9c-0.2,1.1-0.6,2.6-1.1,3.9c-0.1,0-0.1,0.1-0.3,0.6
		l0,0.4c-0.2,0.6,0.3-1.2-0.2,0c-0.3,1.3-1.3,3.7-1.3,4.3c-0.4,0.9,0.5-1.8-0.1-0.4c0.2-0.9,0.7-2,0.6-2.3c-0.2,0.8-0.2,0.3-0.4,0.8
		l-0.2,0.9l0.1-0.2c-0.2,0.8-0.5,1.8-0.8,2.8c-0.2,0.5-0.4,1.1-0.6,1.7c-0.1,0.4-0.2,0.7-0.4,1.1l-0.1,0.3c0,0.1,0,0.2-0.1,0.1
		c-0.2,0-0.3-0.1-0.5-0.1c-1-0.2-1.8-0.4-2.7-0.6c-0.8-0.2-1.5-0.4-2.5-0.7c0.6,0.1-1.6-0.5-0.4-0.3c-0.5-0.2-0.9-0.3-1.3-0.4
		c-0.3-0.1-0.6-0.1-0.6-0.1c0.8,0.2,0.3,0.1,1,0.3c-0.5-0.1-1.5-0.4-2-0.6c0.2,0.1,0.1,0,0.2,0c-1-0.3-0.5-0.1-1.2-0.3
		c-0.2-0.1-1.5-0.5-2.2-0.7l-0.9-0.2c0.5,0.1-0.9-0.3-1-0.3c-0.7-0.2-1.2-0.3-2.3-0.5c0.1,0,0.1,0,0,0c-0.1,0-0.1,0-0.2,0
		c-0.1,0-0.3-0.1-0.3-0.1c-0.1,0-0.2-0.1-0.3-0.1c-0.1,0,0,0,0,0.1l0.1,0.1c0.1,0.2,0.2,0.3,0.2,0.5c0.2,0.3,0.3,0.6,0.5,0.9
		c0.2,0.3,0.3,0.7,0.5,1.1c0,0-0.2-0.3,0,0.1c0.2,0.4,0.5,1,0.7,1.4l0,0l0,0c0.1,0.2,0.2,0.3,0.2,0.3c0.3,0.6,0.5,1,1.2,2.2
		c0-0.1-0.5-1.2-0.8-1.6l-0.2-0.4c-0.1-0.4-0.6-1.1-0.7-1.5c0.4,0.7,1.5,3,2.2,4.2c-0.3-0.8-1.2-2.6-1.9-4.1l0.3,0.7l-0.4-0.8
		l0.3,0.8c-0.4-0.8-0.7-1.4-1-2.1c0.4,0.8,0.5,1.1,0.3,0.7c-0.4-0.9-0.5-0.9-0.8-1.6c0.2,0.4,0.4,0.9,0.2,0.6
		c-0.2-0.4-0.3-0.6-0.4-0.9c0-0.1,0-0.1-0.1-0.2c0-0.1,0-0.1-0.1-0.2c0,0-0.1-0.1,0,0c0,0,0.1,0,0.1,0.1c-0.1-0.1,0,0,0.2,0l0.1,0
		c0.1,0,0.2,0.1,0.3,0.1c0.2,0.1,0.3,0.1,0.4,0.1l-0.6-0.2l1.3,0.3c1.2,0.4-1.1-0.2,0.7,0.3c1.7,0.5,1.7,0.4,3,0.8
		c-0.4-0.1-1.5-0.3-2.6-0.6l0.6,0.2c-0.3-0.1-1.8-0.5-2.5-0.7c0.6,0.1,0.5,0.1,0.1,0c-0.2-0.1-0.4-0.1-0.6-0.2c-0.1,0-0.1,0-0.2,0
		c0,0,0,0-0.1,0c0,0.1,0.1,0,0,0.1c0-0.1,0.5,0.1,1.5,0.4c-0.6-0.2-1-0.3-1.4-0.4c-0.1,0-0.1,0-0.1,0.1c0,0,0.1,0.1,0,0.1
		c0-0.1-0.1,0-0.1,0c0.2,0.4,0.6,1.2,0.8,1.5l-0.1-0.3c0.6,1.1,0.6,1.6,1.3,2.8c0.1,0.2-0.5-1.1-0.4-0.9c0.9,1.8,1.1,2.4,1.9,4
		c0.1,0.1,0.1,0,0.4,0.6c-0.1-0.2,0.1,0.3-0.3-0.3c0.2,0.5,0.6,1.1,0.8,1.6c-0.5-1.1,0.3,0.4,0.4,0.6c0.3,0.6-0.1-0.2-0.3-0.5
		c0.2,0.5,0.4,1,0.6,1.3c0,0-0.8-1.2-1.2-2.1l0.3,0.6c-0.2-0.4-0.2-0.5-0.5-1c0.2,0.6,0.2,0.5,0.1,0.4c0-0.1,0,0,0,0
		c-0.2-0.5-0.4-0.8-0.4-0.7c-0.3-0.4,0.3,0.6,0.4,1c0.1,0.2,0.2,0.5,0.4,0.7l1.4,2.3c0.5,1,0.7,1.5,1.1,2.2l0.2,0.2
		c0.4,0.9,0.8,1.7,0.5,1.2c0,0-0.1-0.2-0.2-0.3c0,0,0-0.1-0.1-0.1l0,0c0.5,0.9,0.8,1.5,0.8,1.6c-0.9-1.5-0.2,0-0.4-0.2l0.8,1.6
		c-0.5-1,0,0,0.2,0.3c0,0.1,0.7,1.3,0.9,1.9c0,0,0,0,0,0c0.1,0.4,0.5,1,0.6,1.5c-0.4,0.4-0.8,0.9-1.1,1.2c0,0-0.5,0.8-0.7,1.2
		c0.9-0.9,0.4-0.3,0.5-0.4c-0.1,0.1-0.2,0.3-0.3,0.3c-0.1,0.2,0.2-0.2,0.2-0.2c0.2-0.3,0.4-0.5,0.6-0.8c0.2-0.2,0.3-0.4,0.5-0.5
		c0.2-0.2,0.4-0.4,0.5-0.6c0.1-0.1,0.2-0.2,0.2-0.3c0-0.1-0.1-0.2-0.1-0.3c-0.1-0.2-0.2-0.4-0.3-0.6c-0.2-0.3-0.4-0.7-0.5-0.8
		c0.2,0.5,0.7,1.1,0.7,1.7c-0.1-0.5-0.5-1.1-0.8-1.7c-0.2-0.4-0.4-0.8-0.7-1.3l-0.1-0.3l-0.5-1c0.2,0.4,0.2,0.1,0.7,1.1
		c0-0.2-0.6-1-0.9-1.7l-0.2-0.3c0.1,0.1-0.6-1.3,0-0.3l0.9,1.5l-0.2-0.5l0.7,1.3l-0.2-0.3c0.6,1,0.6,1.2,0.7,1.4
		c0,0.1,0,0.1,0.2,0.5c0.1,0.2,0.2,0.4,0.3,0.7c0.1,0.2,0.1,0.3,0.2,0.5l0.1,0.2c0,0-0.1,0.1-0.1,0.1c-0.1,0.1-0.2,0.2-0.2,0.3
		c-0.2,0.3-0.4,0.5-0.7,0.8c-0.1,0.2-0.3,0.4-0.4,0.6c-0.3,0.4-0.7,0.8-1.2,1.3c0.7-0.8,0-0.1,0.2-0.5c-0.8,0.8-0.9,1.1-1.3,1.6
		c-0.2,0.2-0.4,0.3,0.2-0.5c0-0.2-0.8,1-1,0.9c-2.2,2.4-1.3,2.3-4,5l0-0.2c-1.5,1.8-2.5,2.8-4,4.5L128,128c0.2-0.3,0.9-1.2,0.4-0.9
		c0.7-0.5,1.3-1.2,2-1.8c0-0.1-0.3,0.1-0.4,0.2c0.4-0.4,0.6-0.5,1.1-1.1c-0.1,0-0.6,0.5-0.2,0.1l0.8-0.6c0.9-1,0.2-0.7,1.3-1.8
		c-0.1,0.3-0.4,0.8-0.8,1.3c0.5-0.5-0.6,0.7-0.1,0.3c0.6-0.9,1-1.1,1.9-2.2c-0.1,0.1-0.1,0.2-0.3,0.4l1.4-1.4
		c-0.4,0.3,1-1.3,0.8-1.2c-1.5,1.5-1,1.1-2.7,2.8c0.4-0.5,0.9-1.3,1.1-1.6c0,0,0,0,0.1-0.1c0.2-0.4-0.1-0.1-0.3-0.3
		c-0.6,0.9-1.2,1.4-2.1,2.4c-0.1,0.3,0.6-0.4,1-0.9l-0.7,0.9l0.1-0.2l-2,2.1c0.4-0.4,0.4-0.6,0.6-0.8c-0.3,0.3-0.5,0.5-0.8,0.8
		c0.1,0,0.2,0.1-0.1,0.4c-1.3,1.3-2.1,2-2.7,2.4c0,0.1-0.1,0.1-0.1,0.2c0.3-0.1-0.7,1.1-1,1.7c-0.2,0-0.4,0.3-0.7,0.5
		c0.1,0.1,0.5,0,0.8,0c0-0.1,0.1-0.1,0.1-0.2c0.1-0.1,0.1-0.2,0.1-0.2c0-0.1,0-0.1,0.1-0.4l1.3-1.6l-0.2,0.4
		c0.7-0.7,1.3-1.5,1.3-1.3c-0.3,0.5-0.9,1.1-1.2,1.5l0.5-0.4c-0.7,1-0.5,0.3-1.4,1.4c0.5-0.3-0.1,0.1-0.4,0.6
		c0.4-0.3,1.7-1.9,1.6-1.4c-0.2,0.3-0.7,0.7-1.2,1.1c-0.1,0.1-0.2,0.2-0.4,0.3l-0.1,0.1c-0.1,0.1-0.1,0.1-0.1,0.2l0,0
		c-0.3,0.2-0.2,0.3,0,0.3c0,0.1,0.3,0,0.4,0.1l-0.1,0.1l0.1,0c-0.2,0.1-0.1-0.1-0.3-0.1l-0.2,0.1c0-0.1-0.1-0.1-0.3-0.1
		c-0.1,0-0.2-0.1-0.2-0.1c0,0.1,0,0.1-0.1,0.2c0.1,0,0.2,0.1,0.3,0.1c0.2,0,0.4,0.1,0.5,0c0,0.1,0,0.1,0,0.2l0.1,0
		c0.1,0.1-0.1,0.3-0.5,0.2c0,0,0-0.1,0-0.1c-0.2,0-0.5,0-0.9-0.1l0.3,0l-0.2-0.1l-0.1,0c0,0,0,0,0-0.1c0.1-0.1,0.1-0.2,0.2-0.2
		c0.1-0.1,0.1-0.3,0.1-0.3c-0.2,0.1-0.3,0.3-0.5,0.5l-0.2,0.2l0,0l0,0l0.1,0l0.2,0.1c0.4,0.1,0.8,0.3,1.2,0.4l0.1-0.1
		c0.1,0,0.1,0,0.2,0c0.2,0,0.3,0,0.4-0.1c0.3,0,0.5-0.1,0.7-0.2c1.2,0.3,2.7,0.8,3.7,1.2l-0.1,0c0.5,0.2,0.9,0.3,1.3,0.4
		c0.5,0.2-0.4,0-0.1,0.2l1.7,0.4c-0.1,0.1-1.5-0.3-2.2-0.6c0.1,0,0.4,0.1,0.3,0c-0.7-0.3-2.2-0.5-2.5-0.8c-0.4-0.1,0.8,0.1-0.4-0.3
		c-0.8-0.3-1.1-0.3-1.3-0.2c0,0.1,1.3,0.5,0.8,0.5c0.7,0.2,0.9,0.2,1.8,0.5c-0.6-0.2-1.6-0.3-1.9-0.6c-1.3-0.3-1.3,0.1-0.7,0.3
		c-0.1-0.2,2.4,0.6,0.7-0.1c0.8,0.1,2.2,0.6,3.2,0.8l-0.1,0l1.2,0.4c-0.2,0-0.6-0.1-0.6,0l1.8,0.4c-1-0.2,0.6,0.3,1,0.5
		c0.2-0.1,0.9,0.1,0.3-0.2c-0.7-0.3-0.4-0.1-1.1-0.3l1,0.1l0.1,0l0.6,0c1.2,0.4-0.7,0.2,1,0.6l-0.1-0.3c0.5,0.2,0.9,0.3,1.4,0.5
		l0.7,0.3l0.4,0.2c0.2,0.1,0.4,0.2,0.7,0.3c0.9,0.3,1.7,0.6,2.5,0.9l0.1,0c0,0,0,0,0,0.1l0,0.2l0,0.3c0,0.2,0,0.4,0,0.6
		c0,0.4,0,0.7,0,1c-0.1-0.7-0.3-0.8-0.5,0.1c0-0.2,0-0.6,0.1-0.9c0-0.2,0-0.4,0-0.5l0-0.3l0-0.1c0,0-0.1,0-0.1-0.1
		c-0.7-0.2-1.5-0.5-2.2-0.7c-0.1-0.1,0.3,0,1,0.2c0.3,0.1,0.7,0.2,1.1,0.3l0.3,0.1c0,0,0.1,0,0.1,0l0,0.1l0,0.2c0,0.2,0,0.4,0,0.6
		c0.1-0.1,0.1-0.3,0.1-0.5l0-0.3c0-0.1,0.1-0.2-0.1-0.2c-0.4-0.1-0.9-0.3-1.4-0.4c-0.9-0.3-1.7-0.5-1.8-0.7
		c-2.2-0.9-1.8-0.2-3.6-1.1c-0.1,0.1-0.6-0.1-0.7,0c0.5,0.4,2.5,0.8,3.7,1.3c-0.1,0-0.4-0.1-0.4-0.1c0.2,0.1,0.4,0.2,0.6,0.2
		c0.2,0.1,0.4,0.1,0.6,0.2c0.4,0.1,0.8,0.2,1.3,0.4l-0.1-0.1c0.9,0.2,1.2,0.3,1.3,0.4c0,0,0,0.1,0.1,0.1c0,0,0,0.1,0,0.2
		c0,0.1-0.1,0.3-0.1,0.6c0,0.4-0.1,1.8,0,1.6l-0.1,0.5c0,0.2,0,0.3-0.1,0.4l-0.1,0.6l0.2-0.1c0,0.7-0.1,0.8,0,1.4l0.2,0l0.1-1.7
		c0,0.9,0.2,0.2,0.2,1.2c-0.1-1.1-0.1,0.7-0.3,0.8l0.1,0.7l0-0.2c-0.1,0.5,0,0.6,0,1.3c0.1-0.7,0.3-1.2,0.2-2.2
		c0.1,0.7,0.1,2.1,0.1,2.4c0,0.4,0,0.7,0,1c0,0.2,0,0.3-0.1,0.5l0,0.2l0,0.1c0,0,0-0.3-0.1-0.3c0-0.1-0.1,0-0.2-0.1
		c-0.1-0.1-0.2-0.3-0.1-1.6c0,0.1,0,0.3,0,0.3c0.2-0.3,0-1.6,0-2.1c-0.1,0.1-0.1-0.5-0.2,0.6c0.1-0.3,0.2,0.9,0.1,1.8l-0.3-0.2
		l-0.1,1.4l0-0.1c-0.2,0.5,0,0.9-0.1,1.5c0.1,0.3-0.1,1.9,0.3,0.8c-0.2,0.8,0,0.8,0,1.1l0.1-0.8c0.1,0.1,0.1,0.1,0.1,0.1
		c0,0,0,0,0.1-0.1c0.1-0.1,0.1-0.3,0.3-0.6c0,0.2,0,0.3-0.2,0.5c0.2-0.2,0.4-0.5,0.7-0.8c0.2-0.3,0.4-0.7,0.5-0.9
		c0.1-0.2,0.2-0.1,0.6-0.5c0.3-0.3,0.7-0.7,1.2-1.4c0.2-0.3-0.4,0.1,0.5-0.8c0.1-0.1-0.6,1,0.2-0.1c0.5-0.9,1.3-1.4,2.7-3.4
		c0.3-0.4,0.8-0.9,1.1-1.3c0.1-0.1,0.2-0.2,0.2-0.2c0.1,0,0.1,0.2,0.1,0.2c0.1,0.1,0.1,0.2,0,0.2c-0.1-0.1-0.1-0.2-0.2-0.2l-0.2,0.2
		c-0.1,0.2-0.3,0.3-0.4,0.5c-0.3,0.3-0.6,0.7-0.8,1c-0.5,0.7-0.9,1.2-1,1.3c0-0.2-0.6,0.7-0.1-0.1c-0.2,0.2-0.3,0.3-0.4,0.4
		c-0.1,0.1-0.2,0.2-0.2,0.3c-0.1,0.2-0.2,0.3-0.3,0.4c-0.1,0.2-0.2,0.4-0.7,0.9c0,0.1,0.6-0.5,0.7-0.7c0.1,0.1-1.7,2.2-0.7,1.4
		c0.5-0.6,0.7-1,1-1.4c0.1-0.2,0.2-0.4,0.4-0.6c0.1-0.1,0.2-0.2,0.3-0.3c0.1-0.2,0.3-0.3,0.5-0.5c-0.1,0.2-0.2,0.4-0.4,0.5
		c-0.1,0.1-0.2,0.3-0.3,0.4c-0.2,0.3-0.4,0.6-0.6,0.9l0.7-0.8c0.1-0.2,0.2-0.4,0.5-0.8l0,0.1c0.9-1,1.2-1.5,1.6-2
		c0.1-0.1,0.2-0.3,0.3-0.4c0-0.1,0.1-0.1,0.1-0.2l0.1-0.1c0,0,0.1,0,0.1,0.1c0.2,0.2,0.5,0.5,0.8,1c-0.4-0.7-0.3-0.7-0.2-0.7
		c0.1,0,0.2,0.1-0.1-0.4c0.3,0.4,0.5,0.7,0.7,1c0.2,0.3,0.4,0.7,0.6,0.9c0.3,0.6,0.5,0.9,0.4,0.9c-1-1.5-1-1.4-1-1.4
		c0,0-0.1,0.1-0.9-0.9c0.2,0.4-0.4-0.1,0.5,1.1c0.5,0.6,0.4,0.5,0.4,0.4c-0.1-0.1-0.1-0.3,0.4,0.5c0.1,0.1,0.1,0.2,0.1,0.2
		c0.2,0.3,0.4,0.6,0.5,0.8c0.1,0.2,0.2,0.4,0.4,0.6l-0.1-0.1c0.4,0.8,0.6,0.8,0.9,1.5c-0.1-0.3,0.3,0.4,0.7,0.8
		c-0.4-0.7-0.5-1.2-1.3-2.5c-0.2-0.1-0.1,0-0.5-0.6l0.6,0.9c-0.1-0.2-0.2-0.3-0.4-0.5l-0.6-1.1c0.3,0.4,0.4,0.7,0.6,0.8
		c0.1,0.1,0.1,0.1,0.2,0.2c0.1,0,0.1,0,0.3,0.2c0.5,1,0.5,0.8,0.8,1.4c-0.1,0,0.9,2,1.5,3.2c-0.1-0.2-0.2-0.4-0.3-0.5
		c-0.6-0.8,0.3,0.6,0.2,0.7l0.4,0.6c-0.1-0.1-0.2-0.2,0,0c0.5,0.8,0.6,0.7,1.1,1.5c0,0.1-0.5-0.5-0.2,0c0,0.1,0,0.1,0.1,0.2
		c0,0.1,0.1,0.2,0.1,0.3c0.1,0.2,0.3,0.5,0.5,0.8c0,0,0.2,0.2,0.3,0.4c0,0,0-0.1-0.1-0.1l0.3,0.7c-0.1-0.1-0.3-0.4-0.4-0.7
		c-0.1-0.3-0.3-0.5-0.4-0.6l-0.1,0.1c-0.2-0.4-0.6-0.9-0.8-1.2c0.4,0.7,0.5,0.8,1,1.5c0.1,0.2-0.3-0.3-0.3-0.3l0.1,0.1
		c-0.5-0.9-0.9-1.3-1.7-2.5c-0.1-0.2,0-0.1,0,0c-0.7-0.9-1.2-1.9-1.9-2.8l0.2,0.3c-0.4-0.6-1.3-1.8-2.2-2.9l0,0
		c0.1,0.1-0.2-0.3-0.3-0.5l0,0c-0.2-0.2-0.3-0.4-0.5-0.6c-0.1-0.1-0.1-0.2-0.2-0.3c0,0-0.1-0.1-0.1-0.1l-0.1,0.2l0.1-0.1
		c0,0,0-0.1,0.1,0c0,0.1,0.1,0.2,0.1,0.3c0.1,0.1,0.6,1,0.6,0.7c0.1,0.3,0.3,0.5,0.5,0.8c0.2,0.3,0.4,0.6,0.5,0.8
		c-0.4-0.7,0.4,0.4,0.5,0.5c0.1,0.3,0.7,1,0.5,1c0.1,0.2-0.2-0.4-0.4-0.6c-0.5-0.7,0.8,1.4,0.1,0.5c0.8,1.1,1.8,2.7,2.6,3.8L155,148
		c0.3,0.6,1.1,1.7,1.2,1.9c-0.3-0.4-0.6-0.9-0.9-1.4c-0.1,0,0.8,1.2,0.8,1.3l1.2,1.5l-0.5-0.7c0.2,0.2,0.5,0.7,0.8,1.2
		c0.2,0.3,0.4,0.6,0.6,0.9l0.1,0.1c0,0,0,0.1,0,0l0-0.1l0-0.2c0-0.2,0-0.3,0-0.5c0,0.2,0,0.5,0,0.7l0,0.2c0,0-0.1-0.1-0.1-0.1
		c-0.1-0.1-0.1-0.2-0.2-0.3c-0.3-0.5-0.7-1-1.1-1.6c-0.6-0.9,0.3,0.7-0.2-0.1c0.1,0.3,0.5,0.9,0.7,1.1l0.2,0.4
		c-0.2-0.2-0.7-0.9-1.2-1.6c-0.2-0.3-0.5-0.7-0.7-1.1c-0.2-0.3-0.4-0.5-0.6-0.8c0.1,0.1,0.1,0.1,0.2,0.2c-0.4-0.8-0.9-1.5-1.4-2.2
		c0.2,0.4,0.3,0.5,0.5,0.7c0,0-0.5-0.6-0.7-0.9c0.4,0.7,0,0.2,0.3,0.6c-0.3-0.4-0.5-0.8-0.9-1.3c-0.1-0.3,0.2,0.2,0.2,0.1
		c-0.4-0.5-0.4-0.9-1-1.6c0.7,1.1-0.3-0.2-0.6-0.5l0.1,0.2c-0.3-0.3-0.5-0.6-0.6-0.8c0.3,0.4,0.6,0.8,0.6,0.7
		c-0.2-0.3-0.4-0.6-0.6-0.9l0.2,0.3l-0.2-0.4c-0.1-0.1-0.2-0.2-0.2-0.3l-0.2-0.4c-0.1-0.1-0.3-0.1-0.4,0c0-0.1-0.1-0.2-0.1-0.3
		c0,0,0,0,0,0l0,0.1c0,0.1,0,0.1-0.1,0.1l0-0.1c-0.1,0.1-0.2,0.3-0.4,0.5c-0.1,0.1-0.1,0.2-0.1,0.2c0,0,0,0.1-0.1,0.1
		c0,0.1,0,0.1,0,0.1c-0.1,0.1,0-0.1,0.1-0.3c0-0.1,0.1-0.3,0.2-0.4c0.1-0.2,0.1-0.3,0-0.3c0,0-0.1,0.1-0.2,0.2
		c0,0.1-0.1,0.1-0.2,0.2c-0.1,0.1-0.1,0.1-0.3,0.3c-0.9,1.2-0.3,0.9-0.8,1.6c0,0,0-0.1-0.1,0c-0.4,0.5-0.4,0.6-0.6,1
		c0.3-0.3,0.6-0.7,0.7-0.9c0,0.2-0.8,1-1,1.5c0.2-0.6-0.8,0.9-0.6,0.5c-0.2,0.2-0.4,0.5-0.6,0.7c-0.3,0.3-0.6,0.8-0.8,1.2
		c-0.5,0.8-1,1.5-1.4,2.1c-0.5,0.4-0.8,0.9-1.3,1.5c-0.4,0.6-1,1.3-1.6,2c0.2-0.2,0.6-0.8,0.9-1.1c0.8-1.2-1.3,1.5-0.1-0.2
		c-0.3,0.3,0,0.2,0.2-0.2c0.4-0.6,0.9-1.2,0.8-1.2c-0.3,0.4-0.7,0.7-1,1l0.4-0.5l-1.4,1.4c-0.1,0.1,0,0,0.1,0
		c-0.4,0.5-0.8,1-1.3,1.5c-0.3,0.5-0.2-0.2-0.2-0.4c0-0.3,0-0.7,0-1c0-1.4,0-2.7,0.1-3.9c-0.2,0-0.2-1.5-0.2-3.4c0-0.7,0-1.5,0-2.2
		c0-0.6,0-1.1-0.1-1.4c0.1,0.4,0.3,0.6,0.4,0.4c0,0.3,0.2,1,0.1,1.7c0,0.1-0.1,0.3-0.1,0.5c0,0.1,0,0.2-0.1,0.2c0,0,0-0.1-0.1-0.2
		c0,2.7,0.2-0.4,0.3,0.4c0-0.3,0-0.6,0-0.8c0-0.2,0-0.5,0-0.7c0-0.4,0-0.9-0.1-1.2c-0.1-0.8-0.1-1.4-0.2-2.1l0.1,0l-0.1-1
		c-0.1,0.8-0.3,0.8-0.2-0.3l0,0.1c0-0.1,0-0.2,0-0.3c0-0.1,0-0.1,0-0.2c0-0.1,0-0.2,0-0.3c0-0.1,0-0.2,0-0.4c0-0.1-0.2-0.1-0.3-0.1
		c-0.1,0-0.3,0-0.4,0c-0.1,0-0.2-0.1-0.2-0.1c-0.1-0.1-0.2-0.1-0.3-0.2c-0.1-0.1-0.2-0.3-0.3-0.4c-1.4-0.5-2.3-0.6-3.4-0.8
		c-0.4-0.3-2.6-1.1-1.4-0.8c-1.3-0.4-1.3,0.3-3.4-0.8l0.6,0.1c-1.1-0.4-2.4-0.8-3.5-1.1c-0.6-0.2-1.2-0.4-1.7-0.6
		c-0.7-0.3-1.3-0.5-1.7-0.6c0.8,0.1-0.2-0.4-1.2-0.8c-0.2-0.1-0.5-0.2-0.8-0.4c-0.1-0.1-0.2-0.1-0.4-0.2c-0.1,0,0-0.1,0.1-0.1
		l0.2-0.2c0.4-0.4,0.8-0.7,1-0.8c-0.2,0.1,0.5-0.7,0.5-0.8c0.2-0.2,0.6-0.5,0.8-0.8c-0.9,0.9,0.2-0.8-1.3,1c0.2-0.4,0.7-1,1.3-1.8
		c0.3-0.3,0.6-0.6,0.9-1c0.3-0.3,0.5-0.6,0.9-0.9l0.1,0.1l-1.1,1c0.1,0,0,0.1-0.1,0.3c-0.2,0.2-0.5,0.5-0.6,0.7c0.8-0.8,1-0.9,1.1-1
		c0.1-0.1,0.1,0,0.1,0c0,0.1,0,0.2,1-0.8c0.1-0.3,0-0.1,0.5-0.6c-0.2,0.2-0.2,0.4,0.2,0l0.3-0.5c0.9-0.5-1,1.3-0.3,0.8
		c-0.7,0.9-1.9,2.2-1.6,2.1c1.3-1.2,0.9-1.4,2.2-2.6l0.2-0.1c0.4-0.5,0.4-0.7,0.6-1c0.1,0,0.2-0.1,0.5-0.4c0.6-0.9,1.1-1.4,1.7-2.3
		c-1.8,2-1.7,1.5-3.6,3.6c0.3-0.4,1.6-1.8,1.6-2l0.1,0.1c0.6-0.7,1.2-1.4,2-2.1l-0.4,0.5c1-1.1,1.9-1.6,2.6-2.6
		c-0.3,0.3-0.5,0.5-0.7,0.7c0.5-0.6,1.2-1.3,1.8-1.8l1.1-1.3c0,0,0.8-0.7,0.5-0.3c1-0.8,1.3-1.3,1.8-1.9c1-0.8-0.8,0.8-0.8,1
		c0.7-0.6,1.3-1.2,1.9-1.8c0.3-0.3,0.5-0.6,0.8-0.8c0.1-0.1,0.1-0.1,0.2-0.2l0.1-0.1c0-0.1,0.1-0.1,0.1-0.1
		c-0.1,0.1-0.2,0.1-0.2,0.1c0,0,0.1-0.1,0.1-0.1c0,0,0.1-0.1,0.1-0.1c0,0,0-0.1,0-0.1c0,0-0.1-0.1-0.1-0.1c0-0.1,0-0.1,0-0.1
		c0-0.1,0-0.1,0-0.1c0,0,0,0,0.1,0.1c0,0,0.1,0.1,0.1,0.1c-0.1-0.2-0.2-0.5-0.4-0.7c-0.2-0.3-0.3-0.6-0.4-1c0.2,0.5,0.5,1.1,0.7,1.5
		c0.1,0.2,0.3,0.4,0.1,0.5c0.1-0.1,0.1-0.2,0-0.3c0-0.1-0.1-0.2-0.1-0.3c-0.1-0.3-0.2-0.6-0.4-0.9c-0.2-0.6-0.5-1.3-1.1-2.6
		c0,0,0.2,0.4,0-0.1c-0.5-1.2-0.2-0.3-0.4-0.6c0.4,0.9,0.6,1.3,0.8,1.9l-0.1-0.2c0,0-0.2-0.6-0.3-0.8l-0.1-0.1
		c0.1,0-0.2-0.9-0.6-1.6c0.3,0.7,0.2,0.5,0.2,0.8c-0.5-1-0.4-1.2-1-2.3c0.1,0.1,0.5,1,0.2,0.2c-0.3-0.7-0.3-0.6-0.5-1
		c0.3,0.5,0.3,0.3,0.6,0.9c0.6,1.2,0.2,0.5,0.8,1.7l-0.4-1.1c0.5,1,0.4,0.7,0.5,0.8c-0.8-1.8-0.7-1.3-1.2-2.5
		c-0.3-0.5,0.5,1.1,0,0.2c-0.5-1.1-0.1-0.2-0.7-1.4l0.1,0.2c-0.1-0.4-0.3-0.7-0.5-1.2c-0.2-0.5,0.1,0.6-0.8-1.3
		c0.1,0.1,0.1,0.1,0.1,0.1l1.3,1.7c-0.9-2-1.9-4.2-3-6.5c-0.2-0.6,0.8,1.6,0.8,1.4l0.5,1c-0.1,0-1-2.2-0.6-1.2
		c0.9,1.8,1.2,2.7,2.1,4.3c-0.2-0.6-1.1-2.3-1.6-3.4c0.2,0.5,0.4,0.9,0.6,1.2c-0.5-1.1-1-2.2-1.6-3.4l-0.1-0.3
		c0.4,0.8,0.6,1.4,0.7,1.4c-0.5-1.1-1-2-1.1-2l0.1,0.2l-0.2-0.4L131.8,94.6z M158.3,87.7c0-0.1,0-0.1,0-0.2
		C158.3,87.6,158.3,87.5,158.3,87.7z M138.4,115.1c0.6-0.6,1.1-1.1,1.7-1.7l0.5-0.5l0.1-0.1c0,0,0.1-0.1,0-0.1l-0.1-0.3
		c-0.2-0.4-0.4-0.8-0.5-1.2c0.1,0.3,0.3,0.7,0.4,1c0.1,0.2,0.1,0.3,0.2,0.4c0.1,0.1,0,0.1-0.1,0.2l-0.2,0.1
		c-0.4,0.4-0.7,0.6-0.8,0.7c-0.1,0.1-0.1,0,0.2-0.3c0.1-0.1,0.3-0.3,0.6-0.6c-0.1-0.3-0.3-0.7-0.6-1.2l-0.1-0.3
		c0.1,0.3,0.3,0.7,0.5,1c0,0.1,0.1,0.2,0.1,0.3l0.1,0.1c0,0-0.1,0.1-0.1,0.1l-0.5,0.5c-0.2,0.3-0.7,1-1.2,1.5
		c-0.2,0.3-0.4,0.6-0.6,0.8c-0.1,0.2-0.2,0.3-0.2,0.3c0.2-0.2,0.5-0.5,0.8-0.8L138.4,115.1z M137.3,115.6c-0.6,0.6-0.5,0.5-0.5,0.6
		c0.2-0.2,0.4-0.5,0.6-0.7C137.3,115.6,137.3,115.7,137.3,115.6z M136.9,116.2c0.1-0.1,0.1-0.1,0.2-0.2L136.9,116.2z M135.1,101.5
		C135.2,101.5,135.2,101.5,135.1,101.5c0-0.1-0.1-0.3-0.2-0.5C135,101.1,135,101.2,135.1,101.5z M135.9,103.1l0.1,0.2
		c-0.1-0.2-0.2-0.4-0.3-0.5C135.8,102.8,135.8,102.9,135.9,103.1z M138.2,108.5c0.2,0.3,0.7,1.4,0.9,1.4c0.1,0.1,0-0.2-0.2-0.4
		c-0.1-0.3-0.3-0.6-0.4-0.9c0,0-0.1-0.1-0.1-0.2c0.1,0.3,0.2,0.6,0.1,0.5c-0.3-0.9-0.4-0.7-0.8-1.7
		C137.4,106.9,138,108.3,138.2,108.5z M148.6,142.2c0,0,0.1-0.1,0.2-0.1l-0.4,0.6c-0.8,1-1.6,1.6-2.1,2.7c-0.4,0.4-0.6,0.5-0.9,0.7
		c0.2-0.2,0.3-0.4,0.5-0.5C147.6,142.8,147.1,144.4,148.6,142.2z M140.8,150.3C140.8,150.4,140.9,150.3,140.8,150.3
		c-0.3-1.7-0.3-4.5-0.2-6c-0.1,0.2-0.2,0.5-0.2,1.1c-0.1,0.6-0.1,1.2-0.2,1.5l-0.1-0.6l0.1-0.5c0-0.4-0.1-0.8-0.1-1.1
		c-0.1,0.2-0.1,1.3-0.2,2c0,0.1,0.2,2.2,0.2,2.6l0.2-1.8c-0.1,0.5-0.1,2.6-0.1,3.3c0.1-0.2,0.3-1.7,0.1-1.6c0.1-0.3,0.1,1.2,0.3,0
		c0,0.5,0,1.1,0,1.9c0,0.4-0.1,0.7-0.1,1.1c0,0.2,0,0.3,0,0.5c0,0.1,0,0,0.1,0c0,0,0.1-0.1,0.1-0.1l-0.1,0.4
		c0.5-0.6,0.6-1.1,1.2-1.7c-0.9,1.2,0,0.3-0.7,1.2c0.2-0.1-0.2,0.5,0.6-0.5c0.7-1.3,0.8-0.7,1.4-1.9c0.4-0.4-0.5,0.9,0.4-0.2
		c1-1.5,0.8-1.5,0.8-1.7c-0.8,0.9-0.9,1.5-1.6,2.3c0.5-0.8,0.9-1.5,1.3-2.2c-0.2,0.2-0.4,0.4-0.5,0.6c0.2-0.3,0.4-0.7,0.6-1
		c0.1-0.2,0.2-0.3,0.2-0.4c-0.6,0.8-1.2,1.5-1.3,1.5l0.1-0.3c-0.2,0.1-0.5,0.6-0.7,1c-0.5,0.7-1.2,1.7-1.2,1.5l0.3-0.5
		c-0.2,0.2-0.3,0.4-0.4,0.5c-0.1,0.1-0.1,0.1-0.2,0.2c0,0-0.1,0.1-0.1,0.1l0-0.1C140.8,151.3,140.8,150.9,140.8,150.3z M126.3,127.7
		c-0.4,0.1-0.7,0.3-1.3,0.7c-0.3,0.2-0.6,0.5-1.1,0.9c-0.2,0.2-0.4,0.4-0.7,0.7c-0.1,0.1-0.3,0.3-0.4,0.4c-0.1,0.1-0.1,0.1-0.2,0.2
		l-0.1,0.1l-0.1,0.1l0.1,0c-0.2,0,0-0.1,0-0.2l-0.1,0.1c0,0,0.1,0,0.1,0.1l0.3,0.1c0.2,0.1,0.4,0.1,0.6,0.2c0.4,0.1,0.9,0.3,1.3,0.4
		c0.9,0.2,1.7,0.5,2.6,0.9c-0.5-0.1-0.7-0.1-0.9-0.2c-0.3,0-0.5-0.1-1.2-0.1l1.1,0.3c-0.3,0.1,0.7,0.3,1.4,0.6l-0.7,0
		c-0.4-0.2-1.5-0.6-1.6-0.6c0.2,0-0.3-0.2-0.9-0.4c-0.6-0.3-1.3-0.6-1.9-0.7c-0.1,0.1,2.4,1,1.1,0.7c0.6,0.1,0.8,0.3,1.1,0.4
		c0.1,0.1,0.3,0.1,0.5,0.2c0.2,0.1,0.4,0.1,0.6,0.2c-0.2,0-0.3-0.1-0.4-0.1c-0.1,0-0.1,0-0.2,0c-0.1,0-0.1,0.1-0.5,0l1.6,0.5
		c0,0-0.5-0.1-0.9-0.2c-0.5-0.1-0.9-0.2-0.1,0.2c0.6,0.1,2,0.7,2.1,0.6l0,0.1c1,0.4,0.5-0.1,1.7,0.5c0-0.1-0.2-0.2-0.6-0.3
		c-0.4-0.1-0.5,0-1.2-0.3c-0.3-0.2,0.9,0.3,0.5,0c-0.2-0.2-2-0.6-1.4-0.7l1,0.4c0.1-0.1,0.8,0.1,0.8,0c0.6,0.2,1.1,0.5,1.8,0.6
		c0.3,0-0.1-0.3,0.9,0.1c0.7,0.5,3.1,1.3,4,1.6l0.8,0.2c0-0.1-1.5-0.5-0.9-0.5l1.2,0.4l-0.1,0c0.4,0.2,0.8,0.2,1.2,0.3
		c-0.4,0-1.3-0.4-1.2-0.1c0.6,0.2,0.6,0.3,1.2,0.5c-0.1,0-0.2,0-0.2,0c1.1,0.5,1.2,0.2,1.5,0.2c1.2,0.2-1.1-0.6-0.9-0.7l1.7,0.5
		c0.6,0.2,1.2,0.3,1.7,0.6c-0.1-0.1-0.3-0.1-0.4-0.1c-0.1,0-0.2,0-0.2,0c0.4,0.2,0.4,0.2,0.3,0.3c0,0.1,0,0.2-0.1,0.7
		c0.2-0.2,0.1,1.5,0.2,2.3c-0.1,0.4-0.1,0.5-0.1-0.4c-0.2,0.1-0.1,1.3-0.2,1.7c0,0.2,0,0.7,0.1,0.9c0.1-0.4,0.2-0.2,0.2,0.6l0,0
		c0.1-1.3,0.3-3.2,0.2-4l0.1,0.2c0-0.3,0.1-0.8,0.1-1.2c0-0.4,0-0.8,0-1.2l0-0.1c0,0,0,0-0.1,0l-0.1,0c-0.1,0-0.2-0.1-0.3-0.1
		c-0.2-0.1-0.3-0.1-0.5-0.2c-0.3-0.1-0.5-0.2-0.7-0.3c0.1-0.1-0.3-0.1-0.2-0.3l-1.1-0.2l0.2,0l-1.7-0.6l0.1,0
		c-0.9-0.1-1.6-0.2-2.1-0.3c0,0.1,0,0.1-0.3,0.1c-0.3-0.1-0.5-0.1-0.7-0.2l0,0l0,0c-0.4-0.2-0.7-0.4-1.2-0.6l1.6,0.5
		c0.2-0.1,0.1-0.2-0.7-0.6c0.3,0.1,0.5,0.1,0.1-0.1c-0.1,0-1.1-0.3-0.7-0.1c-1.5-0.5-3.9-1.6-6.3-2.2c1.7,0.4-1.3-0.6,0.6,0
		c-0.6-0.3-0.9-0.4-1.1-0.4c-0.2,0-0.5,0-1.1-0.2c0-0.1,0.6,0.2,0.9,0.2c-0.4-0.2-0.8-0.3-1.2-0.4c-0.2-0.1-0.4-0.1-0.6-0.2
		l-0.3-0.1l-0.2,0c0,0-0.1,0-0.1,0l0,0c0.4-0.5,0.9-1.1,1.6-1.8l0.2,0C125.7,128.4,126,128,126.3,127.7z M129.3,124.4
		c0.3-0.3,0.6-0.6,0.9-1l-0.1,0.1l0.8-1c-0.6,0.5-1.1,0.8-0.3,0c0,0.1,0.2-0.1,0,0.2c0.6-0.5,1.8-1.6,1.3-1.4
		c-0.9,1.1-0.4,0.1-1.1,1c0.3-0.5,0.8-0.9,1.2-1.4c-0.3,0.5,0.3,0.1,0.9-0.6c0.3-0.3,1-1,1.4-1.5c-0.2,0.1,0.1-0.3-0.6,0.4
		c0.3-0.3,0.7-0.7,1.2-1.2c-0.2,0.2-0.5,0.5-0.4,0.5c0.4-0.2,0.7-0.6,0.9-0.8c0.2-0.2,0.3-0.3,0.5-0.5c-0.1,0-0.1,0.1-0.1,0.1
		l0.5-0.6c-0.7,0.7-0.4,0.3-0.4,0.2c0.1,0.1,0.5-0.4,0.7-0.7l-0.6,0.4c0.2-0.3,0.9-0.8,0.7-0.8c-1.1,1.1-1.5,1.5-2.5,2.5l0.5-0.3
		c-1.1,1.2-0.8,0.6-2.1,1.8c-0.5,0.6-1.9,1.9-1.8,2.1c0.1-0.2-0.9,0.7-1.3,1.2c-0.3,0.6-1.8,2.1-1.3,1.7c0.4-0.4,0.8-1,1.2-1.2
		l-0.7,0.8l0.6-0.4C129,124.3,129.1,124.4,129.3,124.4z M137.7,105.3L137.7,105.3L137.7,105.3L137.7,105.3z"/>
	<path class="st1" d="M157.2,150.6c0.1,0.2,0.5,0.7,0.4,0.5C157.6,151.3,157,150.2,157.2,150.6z"/>
	<path class="st1" d="M157.6,151.5c0,0,0-0.1,0.2,0.2l-0.4-0.7L157.6,151.5z"/>
	<path class="st1" d="M158.3,153.3c0-0.6,0-1,0.1-1.8c0.1,0,0.1,0.3,0,0.8c0,0.2,0,0.5,0,0.7C158.4,153.1,158.4,153.2,158.3,153.3
		c0,0.1,0.1,0.3,0,0.2c0,0.1,0,0,0-0.1L158.3,153.3c0.1,0,0.1-0.1,0.1-0.2c0-0.2,0-0.3,0-0.5c0-0.3,0-0.6,0-0.9c0-0.3,0-0.5,0-0.8
		c0-0.3,0-0.6,0-1c0,0.2,0,0.5,0,0.8c0,0.3,0,0.7-0.1,1C158.3,152.5,158.3,153.2,158.3,153.3z"/>
	<path class="st1" d="M158,153.2l0.3,0.3l0.1,0.2c0,0,0,0,0,0l0-0.1l0-0.1l0,0.1c0,0,0,0.1,0,0.1l-0.1-0.1l-0.1-0.2L158,153.2
		L158,153.2z"/>
	<path class="st1" d="M147.6,141c-0.2,0.1-0.4,0.5-0.6,0.7c0.1-0.1,0.2-0.2,0.2-0.3C147.4,141.3,147.4,141.2,147.6,141z"/>
	<path class="st1" d="M156.4,73.2c0,0.3-0.1,0.6-0.1,0.9l0,0.3c0,0.1,0,0.1,0,0.4l0.1,1.5c0-0.4-0.1-0.8-0.1-1.3l0-0.3l0-0.2l0-0.1
		c0-0.1,0-0.2,0-0.2C156.3,73.9,156.3,73.5,156.4,73.2z"/>
	<path class="st1" d="M141.9,145.6c0.1,0.9,0.3,0.9,0.3,1.6c0.1-0.7,0.1-0.8,0-1c-0.1-0.2-0.1-0.5,0-1
		C142,145.3,141.9,145.5,141.9,145.6z"/>
	<path class="st1" d="M142.7,145.5c-0.2,0.2-0.2-0.3-0.4-0.2c0,0.4,0.2,0.1,0.2,0.4C142.6,145.6,142.6,145.5,142.7,145.5z"/>
	<polygon class="st1" points="140.5,154.2 139.9,155 140.3,154.5 	"/>
	<path class="st1" d="M142.8,139.4l0,0.2l0-0.4l0.1-0.6C142.8,139,142.8,139.2,142.8,139.4z"/>
	<path class="st1" d="M142.8,139.7l0-0.2L142.8,139.7z"/>
	<polygon class="st1" points="139.6,155.9 140.2,155.2 140.6,154.5 	"/>
	<path class="st1" d="M140.1,147.2l0,0.7C140.1,147.8,140.2,146.7,140.1,147.2z"/>
	<polygon class="st1" points="139.2,134.4 138.5,134.2 138.5,134.3 139.3,134.4 	"/>
	<path class="st1" d="M139.7,141.8c-0.2,0.4,0-1.3-0.2-0.4C139.5,142.2,139.6,141.9,139.7,141.8z"/>
	<path class="st1" d="M136.6,135.7c-0.1,0-0.2-0.1-0.3-0.1C136.4,135.6,136.5,135.6,136.6,135.7z"/>
	<path class="st1" d="M136.6,135.7c0.3,0.1,0.6,0.3,0.9,0.3C137.1,135.8,137,135.7,136.6,135.7z"/>
	<path class="st1" d="M132.9,134.4l0.3,0.1c-0.3,0-0.2,0,0.1,0c0.3,0.1,0.3,0.1,0.4,0c0.1,0,0.1,0,0.2,0c-0.1,0-0.2,0-0.3,0
		C133.1,134.4,132.9,134.3,132.9,134.4z"/>
	<path class="st1" d="M126.8,129.5c-0.2,0-0.3,0.1-0.4,0c-0.2,0.1,0.1,0.1,0.1,0.2C126.6,129.6,126.7,129.6,126.8,129.5z"/>
	<path class="st1" d="M126.6,129.7C126.6,129.7,126.6,129.7,126.6,129.7C126.6,129.7,126.6,129.7,126.6,129.7z"/>
	<polygon class="st1" points="136.8,137.1 136.1,137 136.4,137.1 	"/>
	<path class="st1" d="M128,128.3c-0.1,0.1-0.4,0.4-0.5,0.5C127.5,128.9,128.2,128.2,128,128.3z"/>
	<path class="st1" d="M123.6,130c-0.1,0-0.2,0.2-0.4,0.4c-0.1,0.1-0.2,0.2-0.2,0.2c0,0-0.1,0.1-0.1,0.1c0,0,0.1,0,0.1,0
		c0,0-0.1,0-0.1-0.1l0.1-0.1c0.1-0.1,0.2-0.1,0.3-0.2C123.5,130.2,123.6,130.1,123.6,130z"/>
	<path class="st1" d="M129.9,125.6c-0.1,0.1-0.4,0.3-0.4,0.2C129.4,126.1,129.2,126.5,129.9,125.6z"/>
	<polygon class="st1" points="125,128.6 124.9,128.7 124.5,129.2 	"/>
	<path class="st1" d="M120.7,131.1c-0.3,0.5,0.1,0,0.5-0.3c0.4-0.3,0.6-0.5,0,0.2c2-2-0.4,0.2,1-1.3
		C121.4,130.6,120.7,131.1,120.7,131.1z"/>
	<path class="st1" d="M122.2,129.7c0.1-0.1,0.3-0.3,0.4-0.4C122.5,129.5,122.3,129.6,122.2,129.7z"/>
	<path class="st1" d="M132.2,120.6c-0.1,0.1-0.1,0.2-0.2,0.2C132.1,120.8,132.1,120.7,132.2,120.6z"/>
	<path class="st1" d="M126.2,125.6l-0.8,1.1c0.5-0.7,2.1-2.3,1.9-2.3c-0.5,0.5-1.1,1.1-1.3,1.4L126.2,125.6z"/>
	<path class="st1" d="M138.6,116.6l-0.3,0.5l0.5-0.5C138.6,116.7,138.7,116.4,138.6,116.6z"/>
	<path class="st1" d="M138.8,116.5l-0.1,0.1C138.7,116.5,138.8,116.5,138.8,116.5z"/>
	<path class="st1" d="M130.5,122.5c-0.3,0.3-0.5,0.5-0.8,0.8C129.8,123.2,130.6,122.5,130.5,122.5z"/>
	<path class="st1" d="M141.5,113.1c-0.2,0.2-0.3,0.4-0.5,0.6l-0.5,0.5l0.5-0.6c0.2-0.2,0.4-0.4,0.6-0.7L141.5,113.1z"/>
	<polygon class="st1" points="139.6,108.4 139.6,108.2 139.2,107.5 139.2,107.7 	"/>
	<path class="st1" d="M138.7,113c-0.5,0.4-0.7,0.9-0.6,0.8l0.9-0.9c-0.3,0.2-0.2,0.2-0.8,0.7L138.7,113z"/>
	<path class="st1" d="M141.4,94.4c-0.3,0-1.6-0.5-1.6-0.5c0.2,0,0.9,0.2,0.4,0.1l-1-0.2c-1.3-0.5,1.1,0.2,1.7,0.3
		c-1.4-0.4-1.8-0.5-3.3-0.9c0.4,0.1,0.7,0.2,0.9,0.3c0,0.1-1.3-0.4-2.3-0.6c0.6,0.2,0.2,0.1-0.2,0c-0.1,0-0.1,0-0.2,0l-0.2,0l0.1,0
		c0,0,0,0,0.1,0.1c0.8,0.2,1.4,0.5,2,0.6c-0.5-0.3,1.8,0.5,2.5,0.7l0.8,0.2l0.3,0.1c0.1,0,0,0-0.5-0.1c0.4,0.1,1.6,0.5,1.5,0.4
		l2.8,0.9c0.1,0,0.2,0.1,0.2,0.1c0.1,0,0.1,0,0.1,0l1.2,0.4c0.5,0.2,1,0.2,1.4,0.3c0.1,0,0.2,0.1,0.3,0.1l0.1-0.3l0.2-0.7l0.5-1.4
		l1.1-3c0.7-2,1.4-4,2.1-6c-0.2,0.6-0.4,1.1-0.7,1.7c0.2-1-0.4,1-0.4,0.7c0.1-0.4,0.3-1,0.5-1.4c0-0.2-0.3,0.3-0.3,0.2
		c-0.6,1.5-0.3,1.8-0.9,3.3c-0.1-0.1,0-0.6-0.3,0.4l0.1-0.3c-0.5,1.6-0.6,1.2-0.7,2.2l-0.1-0.1c-0.1,0.4-0.2,0.9-0.4,1.4
		c-0.2,0.7-0.5,1.5-0.7,2l0-0.1c-0.1,0.2-0.1,0.4-0.2,0.6c0,0.1-0.1,0.2-0.1,0.3c-0.1,0-0.2,0-0.2,0c-0.3-0.1-0.6-0.1-0.8-0.2
		c-0.4-0.1-0.7-0.2-1-0.3c-0.4-0.1-0.8-0.2-2.1-0.6l1.2,0.2c-0.8-0.3-1.1-0.2-1.7-0.4c0,0-0.1-0.1,0.5,0.1l-3-0.8
		C140.5,94.1,141.3,94.4,141.4,94.4z"/>
	<path class="st1" d="M137.7,93.2c-0.2,0-0.3-0.1-0.5-0.2C137.3,93.1,137.5,93.2,137.7,93.2z"/>
	<path class="st1" d="M152.9,84.4l-0.3,0.8C152.7,85,152.8,84.7,152.9,84.4z"/>
	<path class="st1" d="M133.3,92.1c0.5,0.2-0.4-0.1-0.5-0.1l1.9,0.5c0,0,0.2,0,0.2,0L133.3,92.1z"/>
	<path class="st1" d="M135.2,92.7c0.1,0,0.3,0,0.5,0.1l-1-0.3C134.7,92.6,134.8,92.6,135.2,92.7z"/>
	<polygon class="st1" points="135.3,91.6 135.7,91.7 136.2,91.8 	"/>
	<path class="st1" d="M140.5,93c-0.4-0.1-1.1-0.3-1.4-0.3C140,92.8,139.6,92.8,140.5,93z"/>
	<polygon class="st1" points="139.5,92.3 140.4,92.5 140.3,92.4 	"/>
	<path class="st1" d="M154.4,78c0-0.1,0.1-0.3,0.1-0.4C154.4,77.8,154.4,77.9,154.4,78z"/>
	<path class="st1" d="M152.2,85.1c0.8-1.9-0.3,1.3,0.1,0.8l0.3-1.1l0,0.1l0.4-1.3c-0.2,0.2-0.2,0.4-0.3,0.4c0.6-1.7,0.3-0.5,0.8-1.7
		l0.6-1.9l0,0.2c0.1-0.2,0.1-0.2,0.1-0.3l1-3.3l0.5-1.6l0.1-0.4c0-0.1,0.1-0.3,0.1-0.3l0-0.1c0-0.1-0.1-0.2-0.1-0.1
		c0,0-0.1,0-0.1-0.2c0,0.1,0,0.2-0.1,0.3c-0.1,0.4-0.2,0.7-0.3,1.1c-0.2,0.7-0.4,1.2-0.3,1.3c0-0.1,0-0.2-0.1,0.1l-0.1,0.8L155,77
		c-0.1,0.9-0.9,3.4-1.2,3.9c0.4-1.5,0-0.8,0.7-2.8c-0.1,0.1-0.3,0.4-0.2,0C153.7,80.4,152.9,82.5,152.2,85.1z"/>
	<path class="st1" d="M156.4,72.8L156.4,72.8C156.4,72.8,156.4,72.8,156.4,72.8z"/>
	<path class="st1" d="M156.4,72.5c0,0-0.1,0.1-0.1,0.2l0.1,0.4l0.1-0.2c0,0-0.1,0-0.1-0.2L156.4,72.5z"/>
	<path class="st1" d="M156.2,72.8c0.1-0.1,0.1-0.5,0.1-0.9c0.1,0-0.1,0.7,0,0.3c0.1-0.3,0-0.5,0-0.5L156.2,72.8z"/>
	<path class="st1" d="M155.8,73.7l0-0.2L155.8,73.7C155.8,73.7,155.8,73.7,155.8,73.7z"/>
	<path class="st1" d="M155.8,73.6l0-0.1c0-0.1,0-0.2,0-0.2L155.8,73.6z"/>
	<path class="st1" d="M156,73.1c0,0,0-0.1,0.1-0.2L156,73.1z"/>
	<path class="st1" d="M155.9,73.2L155.9,73.2l0.1-0.1C155.9,73.1,155.9,73.1,155.9,73.2z"/>
	<path class="st1" d="M155.8,73.4c0,0.2,0.1,0.5,0.1,0.2l0-0.4C155.9,73.3,155.8,73.4,155.8,73.4z"/>
	<polygon class="st1" points="145.6,93.8 146.4,93.9 146.3,93.9 145.5,93.7 	"/>
	<path class="st1" d="M147.4,92.7c0-0.2,0.1-0.3,0.1-0.5C147.4,92.4,147.4,92.6,147.4,92.7z"/>
	<path class="st1" d="M147.7,89.3c0.3-0.9-0.2,1.3,0.3-0.4c0.1-0.1,0,0.7-0.2,1.4c-0.1-0.1,0.2-0.8-0.1-0.3c0,0.5-0.2,0.7,0,0.6
		c-0.2,0.9-0.1,1-0.2,1.6c0.2-1.1,1-3.2,1.2-4.6c0.1-0.8-0.3-0.4-0.5-0.5C148.1,87.3,147.6,89.2,147.7,89.3z"/>
	<path class="st1" d="M147.1,90.6c-0.1,0.4-0.1,0.5-0.2,0.8C147,91.4,147.1,91,147.1,90.6z"/>
	<path class="st1" d="M151.4,81.8c0-0.1,0.2-0.8,0.1-0.7l-0.3,1.1C151.3,82,151.4,81.9,151.4,81.8z"/>
	<path class="st1" d="M151.1,82.7l0.1-0.5C151.2,82.3,151.1,82.5,151.1,82.7z"/>
	<path class="st1" d="M151.5,81.8L151.5,81.8C151.4,81.8,151.5,81.8,151.5,81.8z"/>
	<path class="st1" d="M156.1,72.6C156.1,72.9,156.1,72.5,156.1,72.6c0,0,0-0.1,0-0.1C156.1,72.5,156.1,72.5,156.1,72.6z"/>
	<path class="st1" d="M157.2,84.1l0,0.5C157.2,84.4,157.2,84.3,157.2,84.1z"/>
	<path class="st1" d="M158.6,91.1C158.6,91.1,158.6,91.1,158.6,91.1C158.6,91.1,158.6,91.1,158.6,91.1z"/>
	<path class="st1" d="M158.6,91.2c0,0.3,0,1.3,0.1,1.6l0,0l0,0.6C158.7,92.8,158.6,91.5,158.6,91.2z"/>
</g>
</svg>
