<?xml version="1.0" encoding="utf-8"?>
<!-- Generator: Adobe Illustrator 26.3.1, SVG Export Plug-In . SVG Version: 6.00 Build 0)  -->
<svg version="1.1" id="Calque_1" xmlns="http://www.w3.org/2000/svg" xmlns:xlink="http://www.w3.org/1999/xlink" x="0px" y="0px"
	 viewBox="0 0 283.5 283.5" style="enable-background:new 0 0 283.5 283.5;" xml:space="preserve">
<style type="text/css">
	.st0{fill:url(#SVGID_1_);}
	.st1{fill-rule:evenodd;clip-rule:evenodd;fill:#FFFFFF;}
</style>
<radialGradient id="SVGID_1_" cx="147.4997" cy="180.694" r="9.1346" gradientTransform="matrix(0.9931 0.4423 0.5582 6.556 -97.7481 -1079.054)" gradientUnits="userSpaceOnUse">
	<stop  offset="0" style="stop-color:#FF0000"/>
	<stop  offset="1" style="stop-color:#FFFFFF;stop-opacity:0"/>
</radialGradient>
<path class="st0" d="M156.4,162.3c3.3,29.2-1.9,53-9.8,50.3c-3.2-1.1,0.7-19.7-2.5-48.9c-3.3-29.2-5-35-1.9-36.4
	C150.6,123.7,153.1,133.1,156.4,162.3z"/>
<g>
	<path class="st1" d="M193.9,14.2c1-0.1,1.5,0.2,1.7,0.8c-1.1,18.7-8.5,38.4-16.1,53.4c-7.1,13.2-3.7,21.2-1.7,32.2
		c7.4,12.2,12.6,23.2,11.9,39c-0.6,12.3-9,23.4-10.2,35.6c-0.9,9,0.8,19.6,1.7,28c0.5,5.2,3.3,11.2,4.2,16.1c1.3,6.9,2,11.6,5.1,22
		c3.3,11.1,1.1,18.4-9.3,24.6c-7.5,2-19.3-2.5-28-1.7c-3.7,0.3-6.6,1.2-11,2.3c-11,2.6-28.3,3.5-38.1,1.9c-9.7-1.5-22.2-7.1-12.7-17
		c22.4-1.3,36.4-13.8,50-26.3c-1.5-1.6-0.6-5.6-0.8-8.5c6.7-16.6,2.8-45.3,0-67.8c-0.8-6.3,0-13.7-1.7-18.7c-1.7-5-7.2-8.4-8.5-14.4
		c-0.4-1.9,0.6-3.9,0-5.9c-1.4-5-5.5-9.7-5.9-14.4c-1-10.5,7.4-21.3,8.5-31.4c1.8-16.1-4.4-29.3-0.8-45.8c7.6,8.9,2.5,26.8,4.2,41.5
		c0.6,5.5,3.6,9.5,3.4,14.4c-2.7,0.4-2.2-2.3-4.2-2.5c-8.3,15.9-5.7,29.4,2.1,39.8c1.2,3.8-2.9,2.2-2.5,5.1c1,4.9,4.3,7.6,7.6,10.2
		c-3.9,3.4,2,8.2,1.9,12.7c0,2.1,0.1,4,0.2,5.9c0.8,17,4.8,36.2,3.4,54.3c-0.7,9.3-4.1,17.9-1.7,26.3c-6.1,8.3-15,13.2-26.3,18.7
		c-5,2.4-9.3,7.4-13.6,8.5c-4.6,1.2-13.4-2.9-14.4,5.1c3.6,6.4,15,7.1,23.7,7.6c15.4,1,31.6-7.2,43.2-7.6c8.3-0.3,14.7,5.2,22,1.7
		c10.9-5.1,3.9-22.5-0.8-33.1c-2.4-2-1.5,6.3-6.8,4.2c6-7.8,4.8-14.7,3.9-23.5c-0.5-4.7-2.5-10.4-2.2-14.6c0.5-5.4-0.5-11,0-16.1
		c1.2-11.2,7.9-20.4,9.3-31.4c2.9-21.9-4-29.3-11.9-51.2c-2.4-5.3-3.1-11.3-2.5-12.4C179.2,60.6,190.2,41.1,193.9,14.2z"/>
	<path class="st1" d="M146.4,102.4c1.4-0.2,1.5,0.8,2.5,0.8c-0.5,2-1.2,3.9-0.8,6.8C142.9,111.3,144.4,103.5,146.4,102.4z"/>
</g>
</svg>
